<?xml version="1.0" encoding="utf-8"?>
<!-- Generator: Adobe Illustrator 16.0.0, SVG Export Plug-In . SVG Version: 6.00 Build 0)  -->
<!DOCTYPE svg PUBLIC "-//W3C//DTD SVG 1.1//EN" "http://www.w3.org/Graphics/SVG/1.1/DTD/svg11.dtd">
<svg version="1.1" xmlns="http://www.w3.org/2000/svg" xmlns:xlink="http://www.w3.org/1999/xlink" x="0px" y="0px" width="100px"
	 height="100px" viewBox="0 0 100 100" enable-background="new 0 0 100 100" xml:space="preserve">
<g id="Layer_1">
	<circle fill="#CCCCCC" cx="49.807" cy="49.919" r="46.215"/>
	<g>
		<g>
			<path fill="#FFFFFF" d="M66.008,57.911H34.314c-0.608,0-1.101,0.493-1.101,1.102c0,0.606,0.493,1.1,1.101,1.1h31.693
				c0.607,0,1.101-0.493,1.101-1.1C67.108,58.404,66.615,57.911,66.008,57.911z"/>
		</g>
	</g>
	<g>
		<g>
			<path fill="#FFFFFF" d="M66.008,66.568H34.314c-0.608,0-1.101,0.493-1.101,1.101s0.493,1.101,1.101,1.101h31.693
				c0.607,0,1.101-0.493,1.101-1.101S66.615,66.568,66.008,66.568z"/>
		</g>
	</g>
	<g>
		<g>
			<path fill="#FFFFFF" d="M73.08,40.744H34.524l36.834-11.392c0.581-0.18,0.906-0.796,0.727-1.376l-2.321-7.508
				c-0.086-0.279-0.28-0.512-0.538-0.648s-0.56-0.164-0.839-0.078L24.594,33.286c-0.581,0.179-0.906,0.795-0.726,1.376l2.273,7.349
				v35.195c0,0.607,0.493,1.101,1.101,1.101H73.08c0.608,0,1.101-0.493,1.101-1.101V41.844
				C74.181,41.237,73.688,40.744,73.08,40.744z M66.889,42.945l-5.656,5.657h-7.105l5.658-5.657H66.889z M56.672,42.945
				l-5.657,5.657h-7.104l5.657-5.657H56.672z M46.456,42.945l-5.657,5.657h-7.104l5.658-5.657H46.456z M36.239,42.945l-5.657,5.657
				h-2.24v-5.657H36.239z M67.986,22.17l1.671,5.404l-2.14,0.662l-7.075-3.733L67.986,22.17z M57.468,25.423l7.076,3.733
				l-6.786,2.099l-7.076-3.733L57.468,25.423z M47.708,28.442l7.077,3.733l-6.788,2.099l-7.076-3.733L47.708,28.442z M37.947,31.46
				l7.077,3.733l-6.787,2.099l-7.076-3.733L37.947,31.46z M26.296,35.063l1.89-0.584l7.076,3.733l-7.295,2.256L26.296,35.063z
				 M71.979,76.105H28.342V50.803h43.638V76.105z M71.979,48.602h-7.636l5.657-5.657h1.979V48.602z"/>
		</g>
	</g>
	<circle fill="none" stroke="#FFFFFF" stroke-miterlimit="10" stroke-dasharray="4" cx="49.807" cy="49.919" r="42.215"/>
</g>
<g id="Layer_2">
</g>
</svg>
