<?xml version="1.0" encoding="utf-8"?>
<!-- Generator: Adobe Illustrator 16.0.0, SVG Export Plug-In . SVG Version: 6.00 Build 0)  -->
<!DOCTYPE svg PUBLIC "-//W3C//DTD SVG 1.1//EN" "http://www.w3.org/Graphics/SVG/1.1/DTD/svg11.dtd">
<svg version="1.1" id="Layer_1" xmlns="http://www.w3.org/2000/svg" xmlns:xlink="http://www.w3.org/1999/xlink" x="0px" y="0px"
	 width="180px" height="180px" viewBox="0 0 180 180" enable-background="new 0 0 180 180" xml:space="preserve">
<path fill="#1E98EE" d="M89.81,168.795l-0.076-0.029c-0.073-25.354-36.813-55.188-45.243-64.273
	c-8.432-9.085-15.126-24.609-15.126-39.97c0-33.485,27.145-60.529,60.629-60.529h-0.167c33.485,0,60.629,27.044,60.629,60.531
	c0,15.361-6.694,30.933-15.126,40.018s-45.17,38.894-45.245,64.249l-0.076,0.02L89.81,168.795z"/>
<g>
	<path fill="#FFFFFF" d="M89.071,66.308c0,8.289-1.308,14.477-3.922,18.567c-2.613,4.09-6.609,6.134-11.989,6.134
		c-5.16,0-9.085-2.094-11.775-6.283c-2.69-4.187-4.036-10.327-4.036-18.418c0-8.354,1.301-14.553,3.905-18.601
		c2.602-4.045,6.571-6.067,11.906-6.067c5.205,0,9.158,2.109,11.858,6.33C87.72,52.191,89.071,58.304,89.071,66.308z M62.861,66.308
		c0,6.976,0.821,12.054,2.462,15.238c1.64,3.183,4.252,4.774,7.84,4.774c3.63,0,6.261-1.613,7.889-4.839
		c1.628-3.225,2.444-8.283,2.444-15.171c0-6.889-0.815-11.934-2.444-15.139c-1.628-3.205-4.259-4.805-7.889-4.805
		c-3.587,0-6.2,1.582-7.84,4.741C63.682,54.266,62.861,59.331,62.861,66.308z"/>
	<path fill="#FFFFFF" d="M115.87,90.352h-5.313V56.171c0-2.843,0.088-5.532,0.264-8.07c-0.459,0.458-0.975,0.94-1.541,1.443
		c-0.569,0.504-3.172,2.637-7.809,6.397l-2.887-3.739l12.695-9.808h4.591V90.352z"/>
</g>
<g>
	<g>
		<path fill="none" stroke="#FFFFFF" stroke-miterlimit="10" d="M90.249,149.354c-0.121,0.978-0.186,1.949-0.189,2.914l-0.066-0.192
			l-0.171-0.224l-0.063-0.023c-0.002-0.962-0.067-1.938-0.188-2.912"/>
		<path fill="none" stroke="#FFFFFF" stroke-miterlimit="10" stroke-dasharray="2.9927,2.9927" d="M88.282,143.229
			C81.931,123.572,57,103.111,50.649,96.268c-7.288-7.853-13.074-19.586-13.074-32.864c0-26.97,20.369-47.641,46.564-50.337"/>
		<path fill="none" stroke="#FFFFFF" stroke-miterlimit="10" d="M87.056,12.843c0.969-0.048,1.944-0.074,2.925-0.074h-0.144
			c0.981,0,1.955,0.026,2.927,0.074"/>
		<path fill="none" stroke="#FFFFFF" stroke-miterlimit="10" stroke-dasharray="3.0003,3.0003" d="M98.587,13.444
			c24.779,3.871,43.658,23.997,43.658,49.961c0,13.277-5.786,25.899-13.072,33.75c-6.653,7.17-33.692,28.912-38.409,49.318"/>
	</g>
</g>
<path fill="#FFFFFF" stroke="#CCCCCC" stroke-miterlimit="10" d="M69.413,176.409c1.739-0.435,40.207-16.517,40.207-16.517"/>
<path fill="#FFFFFF" stroke="#CCCCCC" stroke-miterlimit="10" d="M109.619,176.409c-1.738-0.435-40.207-16.517-40.207-16.517"/>
</svg>
