<?xml version="1.0" encoding="utf-8"?>
<!-- Generator: Adobe Illustrator 16.0.0, SVG Export Plug-In . SVG Version: 6.00 Build 0)  -->
<!DOCTYPE svg PUBLIC "-//W3C//DTD SVG 1.1//EN" "http://www.w3.org/Graphics/SVG/1.1/DTD/svg11.dtd">
<svg version="1.1" id="Layer_1" xmlns="http://www.w3.org/2000/svg" xmlns:xlink="http://www.w3.org/1999/xlink" x="0px" y="0px"
	 width="180px" height="180px" viewBox="0 0 180 180" enable-background="new 0 0 180 180" xml:space="preserve">
<path fill="#FFFFFF" stroke="#CCCCCC" stroke-miterlimit="10" d="M69.413,176.409c1.739-0.435,40.207-16.517,40.207-16.517"/>
<path fill="#FFFFFF" stroke="#CCCCCC" stroke-miterlimit="10" d="M109.619,176.409c-1.738-0.435-40.207-16.517-40.207-16.517"/>
<path fill="#1E98EE" d="M90.407,165.624l-0.074-0.029c-0.071-24.506-35.581-53.342-43.73-62.122
	c-8.15-8.781-14.621-23.788-14.621-38.635c0-32.365,26.237-58.504,58.602-58.504h-0.162c32.365,0,58.602,26.139,58.602,58.506
	c0,14.847-6.471,29.896-14.619,38.68c-8.149,8.781-43.659,37.594-43.732,62.1l-0.072,0.02L90.407,165.624z"/>
<g>
	<g>
		<path fill="none" stroke="#FFFFFF" stroke-miterlimit="10" d="M90.832,146.833c-0.118,0.942-0.18,1.885-0.184,2.815l-0.063-0.186
			l-0.166-0.217l-0.061-0.023c-0.002-0.93-0.064-1.873-0.182-2.813"/>
		<path fill="none" stroke="#FFFFFF" stroke-miterlimit="10" stroke-dasharray="2.9927,2.9927" d="M88.93,140.911
			c-6.138-18.998-30.235-38.772-36.374-45.39c-7.044-7.589-12.637-18.931-12.637-31.765c0-26.067,19.688-46.047,45.006-48.653"/>
		<path fill="none" stroke="#FFFFFF" stroke-miterlimit="10" d="M87.745,14.888c0.937-0.047,1.88-0.072,2.827-0.072h-0.138
			c0.948,0,1.89,0.025,2.828,0.072"/>
		<path fill="none" stroke="#FFFFFF" stroke-miterlimit="10" stroke-dasharray="3.0003,3.0003" d="M98.893,15.469
			c23.949,3.742,42.196,23.193,42.196,48.29c0,12.833-5.593,25.032-12.637,32.621c-6.431,6.931-32.565,27.945-37.123,47.668"/>
	</g>
</g>
<g>
	<path fill="#FFFFFF" d="M76.72,90.183h-5.069V57.575c0-2.711,0.083-5.279,0.25-7.699c-0.437,0.437-0.93,0.897-1.47,1.376
		c-0.543,0.48-3.026,2.515-7.449,6.102l-2.754-3.568l12.111-9.357h4.381V90.183L76.72,90.183L76.72,90.183z"/>
	<path fill="#FFFFFF" d="M124.445,67.245c0,7.908-1.247,13.813-3.739,17.712c-2.492,3.901-6.308,5.852-11.438,5.852
		c-4.924,0-8.668-1.999-11.233-5.994c-2.566-3.994-3.853-9.853-3.853-17.572c0-7.97,1.241-13.884,3.728-17.745
		c2.481-3.859,6.271-5.789,11.358-5.789c4.967,0,8.738,2.013,11.315,6.04C123.154,53.776,124.445,59.608,124.445,67.245z
		 M99.439,67.245c0,6.656,0.781,11.501,2.346,14.536c1.564,3.035,4.058,4.555,7.48,4.555c3.463,0,5.973-1.539,7.525-4.617
		c1.555-3.077,2.331-7.903,2.331-14.475c0-6.571-0.776-11.386-2.331-14.444c-1.555-3.056-4.063-4.584-7.525-4.584
		c-3.422,0-5.916,1.508-7.48,4.523C100.221,55.753,99.439,60.589,99.439,67.245z"/>
</g>
</svg>
