<?xml version="1.0" encoding="utf-8"?>
<!-- Generator: Adobe Illustrator 16.0.0, SVG Export Plug-In . SVG Version: 6.00 Build 0)  -->
<!DOCTYPE svg PUBLIC "-//W3C//DTD SVG 1.1//EN" "http://www.w3.org/Graphics/SVG/1.1/DTD/svg11.dtd">
<svg version="1.1" id="Layer_1" xmlns="http://www.w3.org/2000/svg" xmlns:xlink="http://www.w3.org/1999/xlink" x="0px" y="0px"
	 width="150px" height="150px" viewBox="0 0 150 150" enable-background="new 0 0 150 150" xml:space="preserve">
<g id="Layer_2">
	<path fill="none" stroke="#999999" stroke-miterlimit="10" d="M74.833,136.245l-0.059-0.022
		c-0.057-19.689-28.593-42.863-35.14-49.921c-6.549-7.057-11.749-19.114-11.749-31.045c0-26.008,21.083-47.013,47.091-47.013h-0.13
		c26.007,0,47.091,21.005,47.091,47.014c0,11.931-5.199,24.026-11.748,31.083c-6.551,7.056-35.084,30.209-35.146,49.902
		l-0.059,0.016L74.833,136.245z"/>
	<g>
		<g>
			<path fill="none" stroke="#999999" stroke-miterlimit="10" d="M75.173,121.145c-0.094,0.764-0.145,1.518-0.146,2.267
				l-0.051-0.147l-0.133-0.176l-0.049-0.02c-0.001-0.748-0.052-1.506-0.146-2.262"/>
			<path fill="none" stroke="#999999" stroke-miterlimit="10" stroke-dasharray="2.9927,2.9927" d="M73.646,116.389
				c-4.933-15.268-24.297-31.16-29.23-36.476c-5.661-6.099-10.154-15.212-10.154-25.525c0-20.947,15.82-37.002,36.166-39.097"/>
			<path fill="none" stroke="#999999" stroke-miterlimit="10" d="M72.693,15.117c0.752-0.037,1.51-0.057,2.272-0.057h-0.112
				c0.762,0,1.519,0.02,2.273,0.057"/>
			<path fill="none" stroke="#999999" stroke-miterlimit="10" stroke-dasharray="3.0003,3.0003" d="M81.648,15.584
				c19.246,3.006,33.91,18.638,33.91,38.805c0,10.313-4.494,20.116-10.154,26.212c-5.166,5.568-26.168,22.457-29.831,38.307"/>
		</g>
	</g>
	<path fill="#FFFFFF" stroke="#CCCCCC" stroke-miterlimit="10" d="M58.99,142.159c1.351-0.339,31.229-12.828,31.229-12.828"/>
	<path fill="#FFFFFF" stroke="#CCCCCC" stroke-miterlimit="10" d="M90.219,142.159c-1.351-0.339-31.229-12.828-31.229-12.828"/>
	<g>
		<path fill="#B3B3B3" d="M64.741,71.255h-2.126V48.15c0-2.097,0.087-4.274,0.261-6.53c-0.217,0.217-0.441,0.427-0.673,0.629
			c-0.231,0.203-2.466,1.96-6.704,5.272l-1.237-1.541l8.613-6.443h1.866V71.255z"/>
		<path fill="#B3B3B3" d="M98.195,55.309c0,5.569-0.85,9.691-2.549,12.367c-1.701,2.676-4.271,4.014-7.713,4.014
			c-3.313,0-5.83-1.378-7.553-4.133C78.66,64.802,77.8,60.72,77.8,55.31c0-5.525,0.835-9.618,2.507-12.279
			c1.67-2.661,4.213-3.992,7.627-3.992c3.34,0,5.887,1.378,7.637,4.133C97.32,45.926,98.195,49.972,98.195,55.309z M80.145,55.309
			c0,4.918,0.646,8.552,1.934,10.902s3.238,3.525,5.855,3.525c2.733,0,4.729-1.215,5.979-3.645c1.251-2.43,1.877-6.024,1.877-10.783
			c0-4.686-0.626-8.244-1.877-10.674c-1.251-2.43-3.243-3.645-5.979-3.645c-2.731,0-4.716,1.215-5.941,3.645
			C80.76,47.065,80.145,50.623,80.145,55.309z"/>
	</g>
</g>
</svg>
