<?xml version="1.0" encoding="utf-8"?>
<!-- Generator: Adobe Illustrator 16.0.0, SVG Export Plug-In . SVG Version: 6.00 Build 0)  -->
<!DOCTYPE svg PUBLIC "-//W3C//DTD SVG 1.1//EN" "http://www.w3.org/Graphics/SVG/1.1/DTD/svg11.dtd">
<svg version="1.1" id="Layer_1" xmlns="http://www.w3.org/2000/svg" xmlns:xlink="http://www.w3.org/1999/xlink" x="0px" y="0px"
	 width="180px" height="180px" viewBox="0 0 180 180" enable-background="new 0 0 180 180" xml:space="preserve">
<path fill="#FFFFFF" stroke="#CCCCCC" stroke-miterlimit="10" d="M69.413,176.409c1.739-0.435,40.207-16.517,40.207-16.517"/>
<path fill="#FFFFFF" stroke="#CCCCCC" stroke-miterlimit="10" d="M109.619,176.409c-1.738-0.435-40.207-16.517-40.207-16.517"/>
<path fill="#1E98EE" d="M89.607,167.273l-0.075-0.03c-0.073-25.153-36.522-54.752-44.887-63.767
	c-8.365-9.013-15.007-24.415-15.007-39.653c0-33.221,26.931-60.051,60.151-60.051h-0.167c33.221,0,60.151,26.83,60.151,60.053
	c0,15.239-6.643,30.688-15.008,39.702c-8.363,9.013-44.813,38.587-44.887,63.74l-0.074,0.02L89.607,167.273z"/>
<g>
	<g>
		<path fill="none" stroke="#FFFFFF" stroke-miterlimit="10" d="M90.043,147.984c-0.121,0.971-0.184,1.936-0.188,2.892l-0.065-0.19
			l-0.17-0.221l-0.062-0.023c-0.002-0.955-0.066-1.924-0.186-2.891"/>
		<path fill="none" stroke="#FFFFFF" stroke-miterlimit="10" stroke-dasharray="2.9927,2.9927" d="M88.092,141.908
			c-6.301-19.5-31.035-39.799-37.335-46.59c-7.231-7.791-12.971-19.431-12.971-32.604c0-26.756,20.208-47.264,46.196-49.939"/>
		<path fill="none" stroke="#FFFFFF" stroke-miterlimit="10" d="M86.875,12.553c0.962-0.048,1.93-0.074,2.902-0.074h-0.142
			c0.973,0,1.939,0.025,2.902,0.074"/>
		<path fill="none" stroke="#FFFFFF" stroke-miterlimit="10" stroke-dasharray="3.0003,3.0003" d="M98.316,13.149
			c24.582,3.841,43.313,23.807,43.313,49.566c0,13.173-5.74,25.695-12.97,33.483c-6.601,7.112-33.427,28.684-38.106,48.929"/>
	</g>
</g>
<g>
	<path fill="#FFFFFF" d="M86.931,66.294c0,8.117-1.281,14.178-3.839,18.181c-2.56,4.004-6.473,6.007-11.742,6.007
		c-5.053,0-8.898-2.052-11.532-6.152c-2.633-4.1-3.951-10.113-3.951-18.037c0-8.181,1.273-14.251,3.823-18.214
		c2.548-3.96,6.437-5.941,11.66-5.941c5.097,0,8.967,2.066,11.611,6.2C85.607,52.468,86.931,58.455,86.931,66.294z M61.263,66.294
		c0,6.832,0.803,11.805,2.409,14.92c1.606,3.115,4.164,4.676,7.677,4.676c3.555,0,6.13-1.58,7.727-4.739
		c1.595-3.159,2.393-8.112,2.393-14.857s-0.798-11.687-2.393-14.826c-1.597-3.136-4.172-4.706-7.727-4.706
		c-3.511,0-6.071,1.549-7.677,4.643C62.066,54.498,61.263,59.462,61.263,66.294z"/>
	<path fill="#FFFFFF" d="M124.289,89.839H93.418v-4.596l12.37-12.43c3.769-3.813,6.25-6.53,7.45-8.16
		c1.199-1.627,2.102-3.211,2.699-4.754c0.602-1.542,0.899-3.2,0.899-4.978c0-2.506-0.76-4.492-2.28-5.96
		c-1.521-1.466-3.632-2.2-6.328-2.2c-1.951,0-3.799,0.321-5.543,0.963c-1.744,0.643-3.688,1.811-5.828,3.502l-2.828-3.63
		C98.354,44,103.066,42.2,108.165,42.2c4.409,0,7.867,1.13,10.373,3.389c2.507,2.259,3.759,5.296,3.759,9.107
		c0,2.978-0.838,5.923-2.507,8.833c-1.668,2.913-4.796,6.597-9.381,11.05L100.13,84.633v0.257h24.157v4.949H124.289z"/>
</g>
</svg>
