<?xml version="1.0" encoding="utf-8"?>
<!-- Generator: Adobe Illustrator 16.0.0, SVG Export Plug-In . SVG Version: 6.00 Build 0)  -->
<!DOCTYPE svg PUBLIC "-//W3C//DTD SVG 1.1//EN" "http://www.w3.org/Graphics/SVG/1.1/DTD/svg11.dtd">
<svg version="1.1" id="Layer_1" xmlns="http://www.w3.org/2000/svg" xmlns:xlink="http://www.w3.org/1999/xlink" x="0px" y="0px"
	 width="150px" height="150px" viewBox="0 0 150 150" enable-background="new 0 0 150 150" xml:space="preserve">
<g id="Layer_2">
	<path fill="none" stroke="#999999" stroke-miterlimit="10" d="M74.833,136.245l-0.059-0.022
		c-0.057-19.689-28.593-42.863-35.14-49.921c-6.549-7.057-11.749-19.114-11.749-31.045c0-26.008,21.083-47.013,47.091-47.013h-0.13
		c26.007,0,47.091,21.005,47.091,47.014c0,11.931-5.199,24.026-11.748,31.083c-6.551,7.056-35.084,30.209-35.146,49.902
		l-0.059,0.016L74.833,136.245z"/>
	<g>
		<g>
			<path fill="none" stroke="#999999" stroke-miterlimit="10" d="M75.173,121.145c-0.094,0.764-0.145,1.518-0.146,2.267
				l-0.051-0.147l-0.133-0.176l-0.049-0.02c-0.001-0.748-0.052-1.506-0.146-2.262"/>
			<path fill="none" stroke="#999999" stroke-miterlimit="10" stroke-dasharray="2.9927,2.9927" d="M73.646,116.389
				c-4.933-15.268-24.297-31.16-29.23-36.476c-5.661-6.099-10.154-15.212-10.154-25.525c0-20.947,15.82-37.002,36.166-39.097"/>
			<path fill="none" stroke="#999999" stroke-miterlimit="10" d="M72.693,15.117c0.752-0.037,1.51-0.057,2.272-0.057h-0.112
				c0.762,0,1.519,0.02,2.273,0.057"/>
			<path fill="none" stroke="#999999" stroke-miterlimit="10" stroke-dasharray="3.0003,3.0003" d="M81.648,15.584
				c19.246,3.006,33.91,18.638,33.91,38.805c0,10.313-4.494,20.116-10.154,26.212c-5.166,5.568-26.168,22.457-29.831,38.307"/>
		</g>
	</g>
	<path fill="#FFFFFF" stroke="#CCCCCC" stroke-miterlimit="10" d="M58.99,142.159c1.351-0.339,31.229-12.828,31.229-12.828"/>
	<path fill="#FFFFFF" stroke="#CCCCCC" stroke-miterlimit="10" d="M90.219,142.159c-1.351-0.339-31.229-12.828-31.229-12.828"/>
	<g>
		<path fill="#B3B3B3" d="M72.833,55.309c0,5.569-0.85,9.691-2.549,12.367c-1.7,2.676-4.271,4.014-7.712,4.014
			c-3.313,0-5.829-1.378-7.55-4.133c-1.721-2.755-2.582-6.837-2.582-12.247c0-5.525,0.835-9.618,2.506-12.279
			c1.67-2.661,4.212-3.992,7.626-3.992c3.341,0,5.886,1.378,7.637,4.133C71.958,45.926,72.833,49.972,72.833,55.309z M54.782,55.309
			c0,4.918,0.644,8.552,1.931,10.902s3.24,3.525,5.858,3.525c2.733,0,4.726-1.215,5.977-3.645c1.25-2.43,1.876-6.024,1.876-10.783
			c0-4.686-0.626-8.244-1.876-10.674c-1.251-2.43-3.244-3.645-5.977-3.645c-2.734,0-4.716,1.215-5.945,3.645
			C55.397,47.065,54.782,50.623,54.782,55.309z"/>
		<path fill="#B3B3B3" d="M97.609,71.255H77.758v-1.909l8.439-8.809c2.371-2.458,4.035-4.339,4.99-5.641s1.653-2.545,2.104-3.731
			c0.447-1.186,0.673-2.43,0.673-3.732c0-1.895-0.622-3.435-1.866-4.621s-2.854-1.779-4.838-1.779c-2.646,0-5.178,0.962-7.594,2.885
			l-1.171-1.497c2.646-2.228,5.583-3.341,8.81-3.341c2.762,0,4.938,0.738,6.521,2.213c1.584,1.476,2.376,3.508,2.376,6.097
			c0,2.097-0.531,4.125-1.598,6.085c-1.063,1.96-3.004,4.379-5.824,7.257l-8.137,8.353v0.087h16.967V71.255L97.609,71.255z"/>
	</g>
</g>
</svg>
