<?xml version="1.0" encoding="utf-8"?>
<!-- Generator: Adobe Illustrator 16.0.0, SVG Export Plug-In . SVG Version: 6.00 Build 0)  -->
<!DOCTYPE svg PUBLIC "-//W3C//DTD SVG 1.1//EN" "http://www.w3.org/Graphics/SVG/1.1/DTD/svg11.dtd">
<svg version="1.1" id="Layer_1" xmlns="http://www.w3.org/2000/svg" xmlns:xlink="http://www.w3.org/1999/xlink" x="0px" y="0px"
	 width="180px" height="180px" viewBox="0 0 180 180" enable-background="new 0 0 180 180" xml:space="preserve">
<path fill="#FFFFFF" stroke="#CCCCCC" stroke-miterlimit="10" d="M69.413,176.409c1.739-0.435,40.207-16.517,40.207-16.517"/>
<path fill="#FFFFFF" stroke="#CCCCCC" stroke-miterlimit="10" d="M109.619,176.409c-1.738-0.435-40.207-16.517-40.207-16.517"/>
<path fill="#1E98EE" d="M89.635,167.25l-0.076-0.029c-0.072-24.943-36.217-54.296-44.511-63.234
	c-8.295-8.937-14.882-24.209-14.882-39.322c0-32.943,26.706-59.55,59.65-59.55h-0.167c32.945,0,59.65,26.606,59.65,59.552
	c0,15.112-6.587,30.432-14.882,39.371s-44.439,38.266-44.512,63.21l-0.075,0.019L89.635,167.25z"/>
<g>
	<g>
		<path fill="none" stroke="#FFFFFF" stroke-miterlimit="10" d="M90.066,148.123c-0.12,0.962-0.183,1.92-0.186,2.867l-0.064-0.188
			l-0.169-0.221l-0.062-0.022c-0.002-0.947-0.066-1.906-0.185-2.865"/>
		<path fill="none" stroke="#FFFFFF" stroke-miterlimit="10" stroke-dasharray="2.9927,2.9927" d="M88.13,142.096
			c-6.248-19.337-30.775-39.464-37.023-46.199c-7.17-7.726-12.863-19.27-12.863-32.333c0-26.533,20.04-46.87,45.811-49.522"/>
		<path fill="none" stroke="#FFFFFF" stroke-miterlimit="10" d="M86.924,13.821c0.954-0.048,1.914-0.073,2.879-0.073h-0.141
			c0.964,0,1.924,0.025,2.877,0.073"/>
		<path fill="none" stroke="#FFFFFF" stroke-miterlimit="10" stroke-dasharray="3.0003,3.0003" d="M98.27,14.413
			c24.379,3.809,42.951,23.608,42.951,49.153c0,13.063-5.693,25.48-12.861,33.204c-6.545,7.054-33.147,28.445-37.787,48.521"/>
	</g>
</g>
<g>
	<path fill="#FFFFFF" d="M86.979,67.113c0,8.049-1.27,14.06-3.807,18.029c-2.539,3.971-6.419,5.958-11.644,5.958
		c-5.011,0-8.823-2.036-11.436-6.103c-2.611-4.065-3.918-10.029-3.918-17.886c0-8.113,1.263-14.132,3.792-18.062
		c2.527-3.927,6.383-5.892,11.563-5.892c5.055,0,8.893,2.049,11.515,6.148C85.666,53.404,86.979,59.34,86.979,67.113z
		 M61.526,67.113c0,6.775,0.796,11.707,2.389,14.796c1.592,3.089,4.129,4.637,7.613,4.637c3.525,0,6.079-1.566,7.662-4.699
		c1.582-3.132,2.374-8.044,2.374-14.733c0-6.688-0.792-11.589-2.374-14.702c-1.583-3.111-4.137-4.667-7.662-4.667
		c-3.482,0-6.021,1.536-7.613,4.604C62.322,55.417,61.526,60.338,61.526,67.113z"/>
	<path fill="#FFFFFF" d="M122.273,54.849c0,2.974-0.838,5.405-2.5,7.295c-1.668,1.89-4.033,3.155-7.09,3.792v0.255
		c3.738,0.468,6.512,1.655,8.313,3.566c1.803,1.912,2.708,4.417,2.708,7.518c0,4.438-1.542,7.852-4.618,10.241
		c-3.077,2.388-7.455,3.583-13.125,3.583c-2.464,0-4.72-0.187-6.769-0.56c-2.049-0.37-4.039-1.021-5.973-1.958V83.55
		c2.02,1,4.166,1.757,6.448,2.276c2.282,0.521,4.444,0.784,6.483,0.784c8.049,0,12.074-3.156,12.074-9.463
		c0-5.648-4.438-8.473-13.314-8.473h-4.587v-4.556h4.649c3.633,0,6.51-0.8,8.631-2.404c2.123-1.602,3.187-3.829,3.187-6.673
		c0-2.272-0.78-4.056-2.342-5.352c-1.56-1.294-3.679-1.944-6.356-1.944c-2.037,0-3.96,0.277-5.764,0.83
		c-1.805,0.553-3.867,1.571-6.184,3.059l-2.678-3.568c1.912-1.508,4.117-2.692,6.612-3.551c2.495-0.86,5.122-1.29,7.882-1.29
		c4.521,0,8.037,1.036,10.545,3.107C121.016,48.401,122.273,51.239,122.273,54.849z"/>
</g>
</svg>
