<?xml version="1.0" encoding="utf-8"?>
<!-- Generator: Adobe Illustrator 16.0.0, SVG Export Plug-In . SVG Version: 6.00 Build 0)  -->
<!DOCTYPE svg PUBLIC "-//W3C//DTD SVG 1.1//EN" "http://www.w3.org/Graphics/SVG/1.1/DTD/svg11.dtd">
<svg version="1.1" id="Layer_1" xmlns="http://www.w3.org/2000/svg" xmlns:xlink="http://www.w3.org/1999/xlink" x="0px" y="0px"
	 width="150px" height="150px" viewBox="0 0 150 150" enable-background="new 0 0 150 150" xml:space="preserve">
<g id="Layer_2">
	<path fill="none" stroke="#999999" stroke-miterlimit="10" d="M74.833,136.245l-0.059-0.022
		c-0.057-19.689-28.593-42.863-35.14-49.921c-6.549-7.057-11.749-19.114-11.749-31.045c0-26.008,21.083-47.013,47.091-47.013h-0.13
		c26.007,0,47.091,21.005,47.091,47.014c0,11.931-5.199,24.026-11.748,31.083c-6.551,7.056-35.084,30.209-35.146,49.902
		l-0.059,0.016L74.833,136.245z"/>
	<g>
		<g>
			<path fill="none" stroke="#999999" stroke-miterlimit="10" d="M75.173,121.145c-0.094,0.764-0.145,1.518-0.146,2.267
				l-0.051-0.147l-0.133-0.176l-0.049-0.02c-0.001-0.748-0.052-1.506-0.146-2.262"/>
			<path fill="none" stroke="#999999" stroke-miterlimit="10" stroke-dasharray="2.9927,2.9927" d="M73.646,116.389
				c-4.933-15.268-24.297-31.16-29.23-36.476c-5.661-6.099-10.154-15.212-10.154-25.525c0-20.947,15.82-37.002,36.166-39.097"/>
			<path fill="none" stroke="#999999" stroke-miterlimit="10" d="M72.693,15.117c0.752-0.037,1.51-0.057,2.272-0.057h-0.112
				c0.762,0,1.519,0.02,2.273,0.057"/>
			<path fill="none" stroke="#999999" stroke-miterlimit="10" stroke-dasharray="3.0003,3.0003" d="M81.648,15.584
				c19.246,3.006,33.91,18.638,33.91,38.805c0,10.313-4.494,20.116-10.154,26.212c-5.166,5.568-26.168,22.457-29.831,38.307"/>
		</g>
	</g>
	<path fill="#FFFFFF" stroke="#CCCCCC" stroke-miterlimit="10" d="M58.99,142.159c1.351-0.339,31.229-12.828,31.229-12.828"/>
	<path fill="#FFFFFF" stroke="#CCCCCC" stroke-miterlimit="10" d="M90.219,142.159c-1.351-0.339-31.229-12.828-31.229-12.828"/>
	<g>
		<path fill="#B3B3B3" d="M72.833,55.309c0,5.569-0.85,9.691-2.549,12.367c-1.7,2.676-4.271,4.014-7.712,4.014
			c-3.313,0-5.829-1.378-7.55-4.133c-1.721-2.755-2.582-6.837-2.582-12.247c0-5.525,0.835-9.618,2.506-12.279
			c1.67-2.661,4.212-3.992,7.626-3.992c3.341,0,5.886,1.378,7.637,4.133C71.958,45.926,72.833,49.972,72.833,55.309z M54.782,55.309
			c0,4.918,0.644,8.552,1.931,10.902s3.24,3.525,5.858,3.525c2.733,0,4.726-1.215,5.977-3.645c1.25-2.43,1.876-6.024,1.876-10.783
			c0-4.686-0.626-8.244-1.876-10.674c-1.251-2.43-3.244-3.645-5.977-3.645c-2.734,0-4.716,1.215-5.945,3.645
			C55.397,47.065,54.782,50.623,54.782,55.309z"/>
		<path fill="#B3B3B3" d="M96.547,47c0,1.967-0.619,3.623-1.855,4.968c-1.233,1.345-2.896,2.206-4.979,2.582v0.13
			c2.546,0.318,4.484,1.128,5.814,2.43c1.33,1.302,1.996,3.052,1.996,5.25c0,2.965-1.01,5.261-3.026,6.888s-4.921,2.441-8.711,2.441
			c-3.226,0-6.038-0.6-8.438-1.801V67.74c1.215,0.637,2.577,1.136,4.09,1.497c1.514,0.362,2.935,0.542,4.266,0.542
			c3.193,0,5.597-0.647,7.199-1.942c1.605-1.295,2.408-3.121,2.408-5.478c0-2.097-0.817-3.71-2.461-4.838
			c-1.643-1.128-4.055-1.692-7.234-1.692h-3.43v-2.083h3.474c2.633,0,4.719-0.625,6.259-1.876c1.541-1.251,2.313-2.947,2.313-5.088
			c0-1.764-0.625-3.178-1.875-4.241c-1.252-1.063-2.893-1.595-4.914-1.595c-1.578,0-3.019,0.221-4.317,0.662
			c-1.302,0.441-2.763,1.197-4.384,2.268l-1.063-1.454c1.229-1.027,2.712-1.841,4.447-2.441c1.733-0.6,3.491-0.9,5.271-0.9
			c2.922,0,5.179,0.691,6.771,2.072C95.751,42.534,96.547,44.483,96.547,47z"/>
	</g>
</g>
</svg>
