<?xml version="1.0" encoding="utf-8"?>
<!-- Generator: Adobe Illustrator 16.0.0, SVG Export Plug-In . SVG Version: 6.00 Build 0)  -->
<!DOCTYPE svg PUBLIC "-//W3C//DTD SVG 1.1//EN" "http://www.w3.org/Graphics/SVG/1.1/DTD/svg11.dtd">
<svg version="1.1" id="Layer_1" xmlns="http://www.w3.org/2000/svg" xmlns:xlink="http://www.w3.org/1999/xlink" x="0px" y="0px"
	 width="180px" height="180px" viewBox="0 0 180 180" enable-background="new 0 0 180 180" xml:space="preserve">
<path fill="#FFFFFF" stroke="#CCCCCC" stroke-miterlimit="10" d="M69.413,176.409c1.739-0.435,40.207-16.517,40.207-16.517"/>
<path fill="#FFFFFF" stroke="#CCCCCC" stroke-miterlimit="10" d="M109.619,176.409c-1.738-0.435-40.207-16.517-40.207-16.517"/>
<path fill="#1E98EE" d="M89.332,167.209l-0.075-0.029c-0.072-24.934-36.201-54.271-44.491-63.205
	c-8.292-8.935-14.875-24.201-14.875-39.306c0-32.929,26.693-59.522,59.621-59.522h-0.165c32.928,0,59.622,26.594,59.622,59.524
	c0,15.105-6.583,30.418-14.875,39.353s-44.418,38.248-44.492,63.181l-0.075,0.019L89.332,167.209z"/>
<g>
	<g>
		<path fill="none" stroke="#FFFFFF" stroke-miterlimit="10" d="M89.764,148.09c-0.12,0.961-0.184,1.918-0.188,2.865l-0.064-0.188
			l-0.169-0.221l-0.061-0.023c-0.002-0.944-0.065-1.905-0.185-2.864"/>
		<path fill="none" stroke="#FFFFFF" stroke-miterlimit="10" stroke-dasharray="2.9927,2.9927" d="M87.83,142.066
			c-6.246-19.328-30.762-39.448-37.007-46.181c-7.167-7.723-12.857-19.261-12.857-32.317c0-26.521,20.031-46.848,45.791-49.5"/>
		<path fill="none" stroke="#FFFFFF" stroke-miterlimit="10" d="M86.624,13.85c0.953-0.047,1.913-0.073,2.877-0.073h-0.142
			c0.964,0,1.924,0.025,2.875,0.073"/>
		<path fill="none" stroke="#FFFFFF" stroke-miterlimit="10" stroke-dasharray="3.0003,3.0003" d="M97.964,14.44
			c24.367,3.807,42.933,23.598,42.933,49.131c0,13.057-5.689,25.468-12.855,33.188c-6.543,7.052-33.134,28.433-37.771,48.499"/>
	</g>
</g>
<g>
	<path fill="#FFFFFF" d="M86.678,67.118c0,8.045-1.27,14.052-3.805,18.021c-2.538,3.969-6.416,5.955-11.638,5.955
		c-5.01,0-8.821-2.034-11.431-6.099c-2.61-4.063-3.917-10.024-3.917-17.878c0-8.109,1.263-14.126,3.79-18.053
		c2.526-3.926,6.379-5.89,11.558-5.89c5.052,0,8.888,2.048,11.508,6.146C85.366,53.414,86.678,59.348,86.678,67.118z M61.237,67.118
		c0,6.771,0.796,11.701,2.388,14.789c1.592,3.087,4.127,4.635,7.61,4.635c3.522,0,6.075-1.566,7.658-4.698
		c1.581-3.13,2.372-8.041,2.372-14.726c0-6.686-0.792-11.584-2.372-14.695c-1.583-3.109-4.136-4.665-7.658-4.665
		c-3.481,0-6.018,1.535-7.61,4.602C62.033,55.425,61.237,60.346,61.237,67.118z"/>
	<path fill="#FFFFFF" d="M125.904,79.756h-6.91v10.7h-5.063v-10.7H91.294V75.14l22.095-31.49h5.605v31.298h6.91V79.756
		L125.904,79.756z M113.934,74.95V59.477c0-3.036,0.107-6.463,0.317-10.285h-0.255c-1.02,2.039-1.973,3.726-2.866,5.063
		L96.582,74.952h17.352V74.95z"/>
</g>
</svg>
