<?xml version="1.0" encoding="utf-8"?>
<!-- Generator: Adobe Illustrator 16.0.0, SVG Export Plug-In . SVG Version: 6.00 Build 0)  -->
<!DOCTYPE svg PUBLIC "-//W3C//DTD SVG 1.1//EN" "http://www.w3.org/Graphics/SVG/1.1/DTD/svg11.dtd">
<svg version="1.1" id="Layer_1" xmlns="http://www.w3.org/2000/svg" xmlns:xlink="http://www.w3.org/1999/xlink" x="0px" y="0px"
	 width="180px" height="180px" viewBox="0 0 180 180" enable-background="new 0 0 180 180" xml:space="preserve">
<path fill="#FFFFFF" stroke="#CCCCCC" stroke-miterlimit="10" d="M69.413,176.409c1.739-0.435,40.207-16.517,40.207-16.517"/>
<path fill="#FFFFFF" stroke="#CCCCCC" stroke-miterlimit="10" d="M109.619,176.409c-1.738-0.435-40.207-16.517-40.207-16.517"/>
<path fill="#1E98EE" d="M89.39,166.502l-0.074-0.029c-0.072-24.758-35.944-53.887-44.177-62.758s-14.77-24.03-14.77-39.028
	c0-32.696,26.504-59.102,59.2-59.102h-0.164c32.697,0,59.201,26.406,59.201,59.104c0,14.999-6.537,30.204-14.771,39.073
	c-8.231,8.871-44.105,37.979-44.178,62.734l-0.074,0.02L89.39,166.502z"/>
<g>
	<g>
		<path fill="none" stroke="#FFFFFF" stroke-miterlimit="10" d="M89.818,147.518c-0.119,0.955-0.182,1.904-0.185,2.847l-0.064-0.188
			l-0.167-0.219l-0.062-0.023c-0.002-0.938-0.065-1.891-0.183-2.844"/>
		<path fill="none" stroke="#FFFFFF" stroke-miterlimit="10" stroke-dasharray="2.9927,2.9927" d="M87.897,141.537
			c-6.201-19.191-30.544-39.17-36.745-45.854c-7.116-7.667-12.766-19.125-12.766-32.09c0-26.333,19.889-46.517,45.466-49.149"/>
		<path fill="none" stroke="#FFFFFF" stroke-miterlimit="10" d="M86.701,14.227c0.946-0.047,1.898-0.073,2.856-0.073h-0.141
			c0.958,0,1.91,0.025,2.857,0.073"/>
		<path fill="none" stroke="#FFFFFF" stroke-miterlimit="10" stroke-dasharray="3.0003,3.0003" d="M97.961,14.814
			c24.195,3.78,42.627,23.43,42.627,48.783c0,12.965-5.648,25.289-12.764,32.954c-6.496,7-32.898,28.23-37.504,48.154"/>
	</g>
</g>
<g>
	<path fill="#FFFFFF" d="M86.754,67.118c0,7.988-1.261,13.953-3.778,17.893c-2.52,3.94-6.371,5.912-11.556,5.912
		c-4.974,0-8.757-2.02-11.35-6.055c-2.591-4.035-3.889-9.953-3.889-17.752c0-8.052,1.253-14.026,3.763-17.926
		c2.508-3.898,6.334-5.848,11.476-5.848c5.017,0,8.825,2.033,11.428,6.102C85.452,53.511,86.754,59.403,86.754,67.118z
		 M61.493,67.118c0,6.724,0.791,11.618,2.371,14.684c1.58,3.066,4.098,4.602,7.556,4.602c3.498,0,6.033-1.555,7.604-4.665
		c1.57-3.108,2.355-7.983,2.355-14.622c0-6.639-0.786-11.502-2.355-14.591c-1.571-3.087-4.106-4.632-7.604-4.632
		c-3.457,0-5.976,1.524-7.556,4.569C62.284,55.509,61.493,60.394,61.493,67.118z"/>
	<path fill="#FFFFFF" d="M107.588,62.058c4.871,0,8.699,1.208,11.492,3.621c2.793,2.415,4.188,5.717,4.188,9.911
		c0,4.786-1.521,8.536-4.567,11.255c-3.046,2.721-7.244,4.078-12.599,4.078c-5.203,0-9.178-0.833-11.918-2.498v-5.057
		c1.476,0.947,3.31,1.689,5.502,2.229c2.191,0.535,4.353,0.807,6.48,0.807c3.709,0,6.59-0.875,8.646-2.625
		c2.055-1.749,3.082-4.279,3.082-7.587c0-6.45-3.951-9.674-11.855-9.674c-2.004,0-4.68,0.307-8.031,0.916l-2.719-1.739l1.738-21.624
		h22.981v4.837h-18.493l-1.17,13.879C102.773,62.302,105.184,62.058,107.588,62.058z"/>
</g>
</svg>
