<?xml version="1.0" encoding="utf-8"?>
<!-- Generator: Adobe Illustrator 16.0.0, SVG Export Plug-In . SVG Version: 6.00 Build 0)  -->
<!DOCTYPE svg PUBLIC "-//W3C//DTD SVG 1.1//EN" "http://www.w3.org/Graphics/SVG/1.1/DTD/svg11.dtd">
<svg version="1.1" id="Layer_1" xmlns="http://www.w3.org/2000/svg" xmlns:xlink="http://www.w3.org/1999/xlink" x="0px" y="0px"
	 width="180px" height="180px" viewBox="0 0 180 180" enable-background="new 0 0 180 180" xml:space="preserve">
<path fill="#FFFFFF" stroke="#CCCCCC" stroke-miterlimit="10" d="M69.413,176.409c1.739-0.435,40.207-16.517,40.207-16.517"/>
<path fill="#FFFFFF" stroke="#CCCCCC" stroke-miterlimit="10" d="M109.619,176.409c-1.738-0.435-40.207-16.517-40.207-16.517"/>
<path fill="#1E98EE" d="M89.685,165.422l-0.074-0.029c-0.071-24.599-35.715-53.543-43.895-62.356
	c-8.181-8.813-14.675-23.876-14.675-38.779c0-32.487,26.336-58.725,58.821-58.725H89.7c32.487,0,58.823,26.238,58.823,58.727
	c0,14.903-6.496,30.011-14.678,38.826c-8.18,8.813-43.823,37.733-43.895,62.332l-0.074,0.019L89.685,165.422z"/>
<g>
	<g>
		<path fill="none" stroke="#FFFFFF" stroke-miterlimit="10" d="M90.11,146.559c-0.118,0.948-0.18,1.893-0.184,2.827l-0.065-0.187
			l-0.166-0.217l-0.061-0.022c-0.002-0.935-0.064-1.88-0.182-2.825"/>
		<path fill="none" stroke="#FFFFFF" stroke-miterlimit="10" stroke-dasharray="2.9927,2.9927" d="M88.201,140.616
			c-6.162-19.069-30.349-38.919-36.51-45.56c-7.071-7.62-12.685-19.003-12.685-31.886c0-26.166,19.762-46.22,45.176-48.836"/>
		<path fill="none" stroke="#FFFFFF" stroke-miterlimit="10" d="M87.012,14.119c0.941-0.047,1.887-0.072,2.838-0.072h-0.14
			c0.952,0,1.896,0.024,2.838,0.072"/>
		<path fill="none" stroke="#FFFFFF" stroke-miterlimit="10" stroke-dasharray="3.0003,3.0003" d="M98.2,14.702
			c24.038,3.755,42.354,23.281,42.354,48.472c0,12.882-5.611,25.127-12.683,32.744c-6.455,6.956-32.688,28.05-37.265,47.848"/>
	</g>
</g>
<g>
	<path fill="#FFFFFF" d="M87.065,66.672c0,7.938-1.252,13.864-3.753,17.779c-2.503,3.916-6.33,5.874-11.482,5.874
		c-4.942,0-8.702-2.005-11.277-6.016C57.978,80.3,56.69,74.42,56.69,66.67c0-8,1.245-13.936,3.739-17.811
		c2.492-3.873,6.293-5.811,11.402-5.811c4.984,0,8.769,2.021,11.354,6.063C85.771,53.152,87.065,59.007,87.065,66.672z
		 M61.966,66.672c0,6.681,0.785,11.544,2.355,14.591c1.571,3.045,4.072,4.572,7.508,4.572c3.475,0,5.994-1.545,7.556-4.634
		c1.559-3.089,2.34-7.933,2.34-14.529c0-6.595-0.781-11.429-2.34-14.498c-1.562-3.068-4.081-4.603-7.556-4.603
		c-3.434,0-5.937,1.515-7.508,4.541C62.751,55.138,61.966,59.992,61.966,66.672z"/>
	<path fill="#FFFFFF" d="M99.221,89.697l19.038-41.12H93.223V43.77h30.564v4.178l-18.786,41.749L99.221,89.697L99.221,89.697z"/>
</g>
</svg>
