<?xml version="1.0" encoding="utf-8"?>
<!-- Generator: Adobe Illustrator 16.0.0, SVG Export Plug-In . SVG Version: 6.00 Build 0)  -->
<!DOCTYPE svg PUBLIC "-//W3C//DTD SVG 1.1//EN" "http://www.w3.org/Graphics/SVG/1.1/DTD/svg11.dtd">
<svg version="1.1" id="Layer_1" xmlns="http://www.w3.org/2000/svg" xmlns:xlink="http://www.w3.org/1999/xlink" x="0px" y="0px"
	 width="180px" height="180px" viewBox="0 0 180 180" enable-background="new 0 0 180 180" xml:space="preserve">
<path fill="#FFFFFF" stroke="#CCCCCC" stroke-miterlimit="10" d="M69.413,176.409c1.739-0.435,40.207-16.517,40.207-16.517"/>
<path fill="#FFFFFF" stroke="#CCCCCC" stroke-miterlimit="10" d="M109.619,176.409c-1.738-0.435-40.207-16.517-40.207-16.517"/>
<path fill="#1E98EE" d="M89.797,165.703l-0.074-0.03c-0.071-24.58-35.689-53.505-43.863-62.312
	c-8.174-8.81-14.665-23.86-14.665-38.752c0-32.463,26.316-58.683,58.78-58.683h-0.162c32.462,0,58.78,26.219,58.78,58.685
	c0,14.893-6.489,29.991-14.665,38.798c-8.174,8.807-43.792,37.708-43.864,62.286l-0.073,0.021L89.797,165.703z"/>
<g>
	<g>
		<path fill="none" stroke="#FFFFFF" stroke-miterlimit="10" d="M90.222,146.854c-0.118,0.947-0.18,1.892-0.184,2.826l-0.063-0.188
			l-0.166-0.217l-0.062-0.023c-0.001-0.934-0.064-1.878-0.182-2.822"/>
		<path fill="none" stroke="#FFFFFF" stroke-miterlimit="10" stroke-dasharray="2.9927,2.9927" d="M88.314,140.916
			c-6.157-19.059-30.327-38.893-36.484-45.527c-7.066-7.615-12.675-18.991-12.675-31.864c0-26.147,19.748-46.187,45.143-48.801"/>
		<path fill="none" stroke="#FFFFFF" stroke-miterlimit="10" d="M87.126,14.507c0.94-0.047,1.886-0.071,2.837-0.071h-0.14
			c0.95,0,1.896,0.024,2.836,0.071"/>
		<path fill="none" stroke="#FFFFFF" stroke-miterlimit="10" stroke-dasharray="3.0003,3.0003" d="M98.307,15.089
			c24.022,3.754,42.326,23.265,42.326,48.438c0,12.873-5.609,25.109-12.675,32.72c-6.45,6.95-32.666,28.03-37.237,47.813"/>
	</g>
</g>
<g>
	<path fill="#FFFFFF" d="M87.18,67.023c0,7.932-1.251,13.854-3.751,17.767c-2.502,3.912-6.325,5.87-11.475,5.87
		c-4.938,0-8.695-2.005-11.269-6.012c-2.573-4.006-3.861-9.883-3.861-17.626c0-7.995,1.245-13.927,3.737-17.799
		c2.49-3.87,6.289-5.806,11.394-5.806c4.981,0,8.763,2.019,11.347,6.058C85.887,53.513,87.18,59.363,87.18,67.023z M62.098,67.023
		c0,6.676,0.784,11.536,2.354,14.58c1.569,3.044,4.069,4.569,7.502,4.569c3.474,0,5.99-1.544,7.551-4.631
		c1.559-3.087,2.338-7.927,2.338-14.519c0-6.592-0.78-11.42-2.338-14.488c-1.561-3.065-4.077-4.599-7.551-4.599
		c-3.431,0-5.933,1.514-7.502,4.537C62.882,55.496,62.098,60.348,62.098,67.023z"/>
	<path fill="#FFFFFF" d="M108.714,43.478c4.187,0,7.502,0.974,9.95,2.919c2.447,1.946,3.673,4.637,3.673,8.069
		c0,2.26-0.7,4.322-2.103,6.185c-1.402,1.862-3.646,3.56-6.721,5.084c3.728,1.779,6.375,3.648,7.943,5.603
		c1.568,1.958,2.354,4.223,2.354,6.796c0,3.81-1.33,6.849-3.984,9.118c-2.657,2.27-6.299,3.408-10.926,3.408
		c-4.896,0-8.662-1.073-11.301-3.217c-2.639-2.146-3.955-5.185-3.955-9.12c0-5.253,3.201-9.343,9.605-12.274
		c-2.889-1.632-4.96-3.394-6.215-5.289c-1.256-1.893-1.885-4.013-1.885-6.356c0-3.329,1.229-5.981,3.688-7.957
		C101.297,44.467,104.593,43.478,108.714,43.478z M98.794,78.448c0,2.511,0.873,4.467,2.621,5.869
		c1.747,1.403,4.203,2.103,7.36,2.103c3.119,0,5.548-0.734,7.285-2.197c1.736-1.464,2.605-3.474,2.605-6.028
		c0-2.029-0.816-3.835-2.45-5.416c-1.632-1.579-4.478-3.112-8.536-4.598c-3.119,1.338-5.383,2.821-6.781,4.441
		C99.495,74.248,98.794,76.188,98.794,78.448z M108.65,47.718c-2.618,0-4.668,0.628-6.153,1.883
		c-1.485,1.256-2.229,2.931-2.229,5.022c0,1.927,0.616,3.58,1.853,4.959c1.235,1.38,3.515,2.763,6.844,4.143
		c2.993-1.256,5.111-2.606,6.354-4.05c1.248-1.444,1.869-3.127,1.869-5.054c0-2.114-0.758-3.792-2.275-5.039
		C113.396,48.34,111.307,47.718,108.65,47.718z"/>
</g>
</svg>
