<?xml version="1.0" encoding="utf-8"?>
<!-- Generator: Adobe Illustrator 16.0.0, SVG Export Plug-In . SVG Version: 6.00 Build 0)  -->
<!DOCTYPE svg PUBLIC "-//W3C//DTD SVG 1.1//EN" "http://www.w3.org/Graphics/SVG/1.1/DTD/svg11.dtd">
<svg version="1.1" id="Layer_1" xmlns="http://www.w3.org/2000/svg" xmlns:xlink="http://www.w3.org/1999/xlink" x="0px" y="0px"
	 width="150px" height="150px" viewBox="0 0 150 150" enable-background="new 0 0 150 150" xml:space="preserve">
<g id="Layer_2">
	<path fill="none" stroke="#999999" stroke-miterlimit="10" d="M74.833,136.245l-0.059-0.022
		c-0.057-19.691-28.593-42.863-35.14-49.921c-6.549-7.057-11.749-19.114-11.749-31.045c0-26.008,21.083-47.013,47.091-47.013h-0.13
		c26.007,0,47.091,21.005,47.091,47.014c0,11.931-5.199,24.026-11.748,31.083c-6.551,7.056-35.084,30.209-35.144,49.902
		l-0.059,0.016L74.833,136.245z"/>
	<g>
		<g>
			<path fill="none" stroke="#999999" stroke-miterlimit="10" d="M75.173,121.145c-0.094,0.762-0.145,1.516-0.146,2.265
				l-0.051-0.148l-0.133-0.175l-0.049-0.018c-0.001-0.748-0.052-1.506-0.146-2.262"/>
			<path fill="none" stroke="#999999" stroke-miterlimit="10" stroke-dasharray="2.9927,2.9927" d="M73.646,116.389
				c-4.933-15.268-24.297-31.16-29.23-36.476c-5.661-6.099-10.154-15.212-10.154-25.525c0-20.947,15.82-37.002,36.166-39.097"/>
			<path fill="none" stroke="#999999" stroke-miterlimit="10" d="M72.693,15.117c0.752-0.037,1.51-0.057,2.272-0.057h-0.112
				c0.762,0,1.519,0.02,2.273,0.057"/>
			<path fill="none" stroke="#999999" stroke-miterlimit="10" stroke-dasharray="3.0003,3.0003" d="M81.648,15.584
				c19.246,3.006,33.91,18.638,33.91,38.805c0,10.313-4.494,20.116-10.154,26.212c-5.166,5.57-26.168,22.457-29.831,38.307"/>
		</g>
	</g>
	<path fill="#FFFFFF" stroke="#CCCCCC" stroke-miterlimit="10" d="M58.99,142.159c1.351-0.339,31.229-12.828,31.229-12.828"/>
	<path fill="#FFFFFF" stroke="#CCCCCC" stroke-miterlimit="10" d="M90.219,142.159c-1.351-0.339-31.229-12.828-31.229-12.828"/>
	<g>
		<path fill="#B3B3B3" d="M72.833,55.309c0,5.569-0.85,9.691-2.549,12.367c-1.7,2.676-4.271,4.014-7.712,4.014
			c-3.313,0-5.829-1.378-7.55-4.133c-1.721-2.755-2.582-6.837-2.582-12.247c0-5.525,0.835-9.618,2.506-12.279
			c1.67-2.661,4.212-3.992,7.626-3.992c3.341,0,5.886,1.378,7.637,4.133C71.958,45.926,72.833,49.972,72.833,55.309z M54.782,55.309
			c0,4.918,0.644,8.552,1.931,10.902s3.24,3.525,5.858,3.525c2.733,0,4.726-1.215,5.977-3.645c1.25-2.43,1.876-6.024,1.876-10.783
			c0-4.686-0.626-8.244-1.876-10.674c-1.251-2.43-3.244-3.645-5.977-3.645c-2.734,0-4.716,1.215-5.945,3.645
			C55.397,47.065,54.782,50.623,54.782,55.309z"/>
		<path fill="#B3B3B3" d="M87.934,38.994c2.69,0,4.855,0.688,6.498,2.061c1.642,1.375,2.463,3.233,2.463,5.576
			c0,1.62-0.511,3.052-1.529,4.296c-1.02,1.244-2.674,2.394-4.958,3.45c2.776,1.143,4.729,2.394,5.858,3.753
			c1.127,1.359,1.691,3.008,1.691,4.946c0,2.618-0.915,4.708-2.745,6.27s-4.284,2.343-7.364,2.343c-3.197,0-5.648-0.73-7.354-2.191
			c-1.707-1.461-2.562-3.587-2.562-6.378c0-1.895,0.602-3.558,1.801-4.99c1.201-1.432,3.061-2.654,5.576-3.667
			c-2.328-1.099-3.971-2.259-4.925-3.482c-0.954-1.222-1.433-2.687-1.433-4.393c0-1.519,0.384-2.853,1.15-4.003
			c0.766-1.15,1.84-2.036,3.222-2.658C84.704,39.306,86.241,38.994,87.934,38.994z M80.145,63.445c0,1.996,0.676,3.544,2.028,4.643
			c1.353,1.099,3.244,1.649,5.675,1.649c2.371,0,4.28-0.582,5.728-1.747c1.446-1.164,2.17-2.745,2.17-4.74
			c0-1.793-0.568-3.251-1.703-4.372c-1.136-1.121-3.323-2.296-6.563-3.525c-2.66,1.027-4.549,2.163-5.662,3.406
			C80.701,60.003,80.145,61.565,80.145,63.445z M87.891,40.947c-2.039,0-3.678,0.503-4.914,1.508s-1.854,2.383-1.854,4.133
			c0,1.012,0.228,1.906,0.685,2.679c0.455,0.774,1.112,1.475,1.973,2.104c0.861,0.629,2.305,1.363,4.33,2.202
			c2.355-0.911,4.049-1.917,5.076-3.016c1.026-1.099,1.539-2.422,1.539-3.97c0-1.736-0.609-3.11-1.832-4.123
			C91.668,41.453,90.002,40.947,87.891,40.947z"/>
	</g>
</g>
</svg>
