<?xml version="1.0" encoding="utf-8"?>
<!-- Generator: Adobe Illustrator 16.0.0, SVG Export Plug-In . SVG Version: 6.00 Build 0)  -->
<!DOCTYPE svg PUBLIC "-//W3C//DTD SVG 1.1//EN" "http://www.w3.org/Graphics/SVG/1.1/DTD/svg11.dtd">
<svg version="1.1" id="Layer_1" xmlns="http://www.w3.org/2000/svg" xmlns:xlink="http://www.w3.org/1999/xlink" x="0px" y="0px"
	 width="180px" height="180px" viewBox="0 0 180 180" enable-background="new 0 0 180 180" xml:space="preserve">
<path fill="#FFFFFF" stroke="#CCCCCC" stroke-miterlimit="10" d="M69.413,176.409c1.739-0.435,40.207-16.517,40.207-16.517"/>
<path fill="#FFFFFF" stroke="#CCCCCC" stroke-miterlimit="10" d="M109.619,176.409c-1.738-0.435-40.207-16.517-40.207-16.517"/>
<path fill="#1E98EE" d="M90.022,165.421l-0.073-0.028c-0.071-24.562-35.659-53.459-43.827-62.26
	c-8.167-8.801-14.653-23.839-14.653-38.72c0-32.436,26.295-58.632,58.732-58.632h-0.163c32.438,0,58.731,26.196,58.731,58.634
	c0,14.881-6.484,29.966-14.651,38.765c-8.169,8.799-43.756,37.678-43.828,62.237l-0.074,0.019L90.022,165.421z"/>
<g>
	<g>
		<path fill="none" stroke="#FFFFFF" stroke-miterlimit="10" d="M90.447,146.589c-0.118,0.948-0.18,1.89-0.183,2.821l-0.063-0.184
			l-0.167-0.218l-0.06-0.022c-0.002-0.935-0.064-1.879-0.181-2.821"/>
		<path fill="none" stroke="#FFFFFF" stroke-miterlimit="10" stroke-dasharray="2.9927,2.9927" d="M88.542,140.654
			c-6.153-19.038-30.302-38.859-36.455-45.488c-7.06-7.607-12.665-18.974-12.665-31.836c0-26.124,19.731-46.148,45.105-48.76"/>
		<path fill="none" stroke="#FFFFFF" stroke-miterlimit="10" d="M87.354,14.354c0.939-0.046,1.883-0.072,2.833-0.072H90.05
			c0.949,0,1.896,0.025,2.833,0.072"/>
		<path fill="none" stroke="#FFFFFF" stroke-miterlimit="10" stroke-dasharray="3.0003,3.0003" d="M98.523,14.935
			c24.004,3.751,42.293,23.245,42.293,48.397c0,12.862-5.606,25.088-12.666,32.693c-6.443,6.943-32.637,28.006-37.205,47.772"/>
	</g>
</g>
<g>
	<path fill="#FFFFFF" d="M87.408,66.826c0,7.925-1.25,13.843-3.748,17.751c-2.5,3.91-6.32,5.865-11.465,5.865
		c-4.934,0-8.688-2.003-11.259-6.007c-2.571-4.002-3.858-9.875-3.858-17.611c0-7.989,1.243-13.915,3.733-17.784
		c2.488-3.867,6.283-5.802,11.384-5.802c4.977,0,8.756,2.018,11.338,6.053C86.115,53.327,87.408,59.172,87.408,66.826z
		 M62.347,66.826c0,6.67,0.784,11.526,2.352,14.568c1.569,3.041,4.066,4.564,7.496,4.564c3.471,0,5.985-1.542,7.544-4.627
		c1.557-3.083,2.337-7.92,2.337-14.505c0-6.586-0.78-11.412-2.337-14.476c-1.559-3.063-4.073-4.596-7.544-4.596
		c-3.428,0-5.927,1.512-7.496,4.533C63.131,55.309,62.347,60.155,62.347,66.826z"/>
	<path fill="#FFFFFF" d="M123.885,63.53c0,17.941-6.943,26.912-20.828,26.912c-2.426,0-4.348-0.208-5.771-0.626v-4.487
		c1.675,0.545,3.577,0.817,5.707,0.817c5.019,0,8.808-1.554,11.372-4.657c2.563-3.106,3.955-7.867,4.188-14.288h-0.375
		c-1.15,1.737-2.679,3.059-4.582,3.967c-1.9,0.909-4.043,1.364-6.431,1.364c-4.056,0-7.274-1.212-9.658-3.638
		c-2.384-2.425-3.575-5.813-3.575-10.163c0-4.767,1.33-8.531,4.002-11.292c2.662-2.759,6.172-4.139,10.52-4.139
		c3.115,0,5.84,0.8,8.171,2.399c2.33,1.601,4.124,3.932,5.379,6.994C123.258,55.758,123.885,59.372,123.885,63.53z M108.452,47.755
		c-2.991,0-5.302,0.963-6.931,2.886c-1.633,1.925-2.446,4.6-2.446,8.029c0,3.01,0.751,5.378,2.259,7.103
		c1.506,1.724,3.791,2.588,6.864,2.588c1.905,0,3.659-0.387,5.257-1.161c1.6-0.772,2.857-1.829,3.779-3.167
		c0.918-1.338,1.379-2.741,1.379-4.204c0-2.196-0.428-4.223-1.288-6.085c-0.856-1.861-2.056-3.325-3.589-4.391
		C112.2,48.288,110.439,47.755,108.452,47.755z"/>
</g>
</svg>
