<?xml version="1.0" encoding="utf-8"?>
<!-- Generator: Adobe Illustrator 16.0.0, SVG Export Plug-In . SVG Version: 6.00 Build 0)  -->
<!DOCTYPE svg PUBLIC "-//W3C//DTD SVG 1.1//EN" "http://www.w3.org/Graphics/SVG/1.1/DTD/svg11.dtd">
<svg version="1.1" xmlns="http://www.w3.org/2000/svg" xmlns:xlink="http://www.w3.org/1999/xlink" x="0px" y="0px" width="100px"
	 height="100px" viewBox="0 0 100 100" enable-background="new 0 0 100 100" xml:space="preserve">
<g id="Layer_1">
	<path fill="none" stroke="#999999" stroke-linecap="round" stroke-linejoin="round" stroke-miterlimit="10" d="M50.234,80.33
		c11.861,0.125,22.695-6.71,27.691-17.468c-3.143,1.372-6.549,2.044-9.979,1.969c-13.445-0.015-24.34-10.91-24.355-24.354
		c0.135-9.094,5.152-17.413,13.135-21.774c-2.152-0.274-4.322-0.396-6.492-0.366c-17.12,0-30.997,13.878-30.997,30.997
		C19.237,66.452,33.115,80.33,50.234,80.33z"/>
	<path fill="none" stroke="#999999" stroke-linecap="round" stroke-linejoin="round" stroke-miterlimit="10" d="M67.666,37.214
		c0,0-0.166-3.839-0.854-4.589s-4-0.813-4-0.813s3.563-0.25,4.125-0.75s0.729-4.277,0.729-4.277s0.146,3.714,0.896,4.277
		s3.875,0.813,3.875,0.813s-3.313,0.063-4,0.813S67.666,37.214,67.666,37.214z"/>
	<path fill="none" stroke="#999999" stroke-linecap="round" stroke-linejoin="round" stroke-miterlimit="10" d="M75.938,44.631
		c0,0-0.08-1.861-0.413-2.224s-1.938-0.394-1.938-0.394s1.727-0.121,1.999-0.364c0.272-0.242,0.353-2.072,0.353-2.072
		s0.071,1.8,0.435,2.072c0.363,0.273,1.878,0.394,1.878,0.394s-1.605,0.03-1.938,0.394S75.938,44.631,75.938,44.631z"/>
</g>
<g id="Layer_2" display="none">
	
		<circle display="inline" fill="none" stroke="#999999" stroke-linecap="round" stroke-linejoin="round" stroke-miterlimit="10" cx="50.167" cy="48.834" r="20.167"/>
	
		<line display="inline" fill="none" stroke="#999999" stroke-linecap="round" stroke-miterlimit="10" x1="50.5" y1="7" x2="50.5" y2="21"/>
	
		<line display="inline" fill="none" stroke="#999999" stroke-linecap="round" stroke-miterlimit="10" x1="50.5" y1="77" x2="50.5" y2="91"/>
	
		<line display="inline" fill="none" stroke="#999999" stroke-linecap="round" stroke-miterlimit="10" x1="92" y1="48.5" x2="78" y2="48.5"/>
	
		<line display="inline" fill="none" stroke="#999999" stroke-linecap="round" stroke-miterlimit="10" x1="22" y1="48.5" x2="8" y2="48.5"/>
	
		<line display="inline" fill="none" stroke="#999999" stroke-linecap="round" stroke-miterlimit="10" x1="30.246" y1="14.484" x2="35.254" y2="22.35"/>
	
		<line display="inline" fill="none" stroke="#999999" stroke-linecap="round" stroke-miterlimit="10" x1="15.731" y1="29.052" x2="23.769" y2="33.781"/>
	
		<line display="inline" fill="none" stroke="#999999" stroke-linecap="round" stroke-miterlimit="10" x1="76.73" y1="64.053" x2="84.77" y2="68.781"/>
	
		<line display="inline" fill="none" stroke="#999999" stroke-linecap="round" stroke-miterlimit="10" x1="76.711" y1="33.746" x2="84.789" y2="29.088"/>
	
		<line display="inline" fill="none" stroke="#999999" stroke-linecap="round" stroke-miterlimit="10" x1="16.818" y1="69.922" x2="24.683" y2="64.912"/>
	
		<line display="inline" fill="none" stroke="#999999" stroke-linecap="round" stroke-miterlimit="10" x1="65.246" y1="74.484" x2="70.254" y2="82.35"/>
	
		<line display="inline" fill="none" stroke="#999999" stroke-linecap="round" stroke-miterlimit="10" x1="70.254" y1="14.484" x2="65.246" y2="22.35"/>
	
		<line display="inline" fill="none" stroke="#999999" stroke-linecap="round" stroke-miterlimit="10" x1="35.254" y1="75.484" x2="30.246" y2="83.35"/>
</g>
</svg>
