<?xml version="1.0" encoding="utf-8"?>
<!-- Generator: Adobe Illustrator 16.0.0, SVG Export Plug-In . SVG Version: 6.00 Build 0)  -->
<!DOCTYPE svg PUBLIC "-//W3C//DTD SVG 1.1//EN" "http://www.w3.org/Graphics/SVG/1.1/DTD/svg11.dtd">
<svg version="1.1" xmlns="http://www.w3.org/2000/svg" xmlns:xlink="http://www.w3.org/1999/xlink" x="0px" y="0px" width="100px"
	 height="100px" viewBox="0 0 100 100" enable-background="new 0 0 100 100" xml:space="preserve">
<g id="Layer_1">
	<path fill="none" stroke="#999999" stroke-linecap="round" stroke-linejoin="round" stroke-miterlimit="10" d="M38.512,37.436
		c1.779-11.35-8.763-11.755-8.763-11.755c-6.565-0.38-9.32,4.186-9.448,6.695"/>
	<path fill="none" stroke="#999999" stroke-linecap="round" stroke-linejoin="round" stroke-miterlimit="10" d="M21.445,34.26
		c-2.922-6.522-11.466-2.076-11.636,3.442c-0.568,8.951,7.197,9.656,7.197,9.656h23.589c0,0,5.603-0.627,6.418-6.469
		c-0.472-8.46-8.384-5.131-8.384-5.131"/>
	<path fill="none" stroke="#999999" stroke-linecap="round" stroke-linejoin="round" stroke-miterlimit="10" d="M70.545,54.996
		c1.096-6.991-5.397-7.241-5.397-7.241c-4.044-0.234-5.741,2.579-5.819,4.124"/>
	<path fill="none" stroke="#999999" stroke-linecap="round" stroke-linejoin="round" stroke-miterlimit="10" d="M60.031,53.039
		c-1.8-4.017-7.062-1.277-7.167,2.121c-0.351,5.514,4.433,5.949,4.433,5.949h14.531c0,0,3.451-0.389,3.953-3.986
		c-0.29-5.211-5.164-3.16-5.164-3.16"/>
</g>
<g id="Layer_2">
	<path fill="none" stroke="#999999" stroke-linecap="round" stroke-linejoin="round" stroke-miterlimit="10" d="M52.855,56.104
		c-0.989,0.203-2.014,0.31-3.063,0.31c-6.236,0-11.596-3.756-13.941-9.128"/>
	<path fill="none" stroke="#999999" stroke-linecap="round" stroke-linejoin="round" stroke-miterlimit="10" d="M38.279,31.275
		c2.789-3.229,6.912-5.272,11.513-5.272c8.397,0,15.205,6.808,15.205,15.206c0,2.371-0.543,4.615-1.511,6.615"/>
	
		<line fill="none" stroke="#999999" stroke-linecap="round" stroke-miterlimit="10" x1="50.043" y1="9.667" x2="50.043" y2="20.222"/>
	<line fill="none" stroke="#999999" stroke-linecap="round" stroke-miterlimit="10" x1="50.043" y1="62.444" x2="50.043" y2="73"/>
	
		<line fill="none" stroke="#999999" stroke-linecap="round" stroke-miterlimit="10" x1="81.333" y1="40.956" x2="70.777" y2="40.956"/>
	
		<line fill="none" stroke="#999999" stroke-linecap="round" stroke-miterlimit="10" x1="34.772" y1="15.309" x2="38.548" y2="21.24"/>
	
		<line fill="none" stroke="#999999" stroke-linecap="round" stroke-miterlimit="10" x1="69.805" y1="29.832" x2="75.896" y2="26.32"/>
	
		<line fill="none" stroke="#999999" stroke-linecap="round" stroke-miterlimit="10" x1="24.647" y1="57.108" x2="30.578" y2="53.331"/>
	
		<line fill="none" stroke="#999999" stroke-linecap="round" stroke-miterlimit="10" x1="61.661" y1="61.297" x2="65.437" y2="67.229"/>
	
		<line fill="none" stroke="#999999" stroke-linecap="round" stroke-miterlimit="10" x1="64.937" y1="15.309" x2="61.161" y2="21.24"/>
	
		<line fill="none" stroke="#999999" stroke-linecap="round" stroke-miterlimit="10" x1="38.548" y1="61.302" x2="34.772" y2="67.231"/>
</g>
</svg>
