<?xml version="1.0" encoding="utf-8"?>
<!-- Generator: Adobe Illustrator 16.0.0, SVG Export Plug-In . SVG Version: 6.00 Build 0)  -->
<!DOCTYPE svg PUBLIC "-//W3C//DTD SVG 1.1//EN" "http://www.w3.org/Graphics/SVG/1.1/DTD/svg11.dtd">
<svg version="1.1" xmlns="http://www.w3.org/2000/svg" xmlns:xlink="http://www.w3.org/1999/xlink" x="0px" y="0px" width="100px"
	 height="100px" viewBox="0 0 100 100" enable-background="new 0 0 100 100" xml:space="preserve">
<g id="Layer_2_1_">
	<path fill="none" stroke="#999999" stroke-linecap="round" stroke-linejoin="round" stroke-miterlimit="10" d="M68.126,52.601
		c0.986-1.196,1.831-2.528,2.504-3.976c-1.927,0.841-4.014,1.252-6.116,1.206c-8.24-0.009-14.918-6.687-14.927-14.926
		c0.083-5.574,3.158-10.672,8.05-13.346c-1.319-0.168-2.649-0.243-3.979-0.225c-6.737,0-12.655,3.506-16.028,8.793"/>
	<path fill="none" stroke="#999999" stroke-linecap="round" stroke-linejoin="round" stroke-miterlimit="10" d="M36.113,47.635
		C38.877,54.27,45.295,59,52.854,59.313"/>
	<path fill="none" stroke="#999999" stroke-linecap="round" stroke-linejoin="round" stroke-miterlimit="10" d="M59.023,34.479
		c0,0-0.103-2.353-0.523-2.813c-0.422-0.46-2.452-0.498-2.452-0.498s2.184-0.153,2.528-0.459c0.345-0.307,0.447-2.622,0.447-2.622
		s0.09,2.276,0.549,2.622c0.46,0.345,2.375,0.498,2.375,0.498s-2.03,0.039-2.451,0.498C59.074,32.165,59.023,34.479,59.023,34.479z"
		/>
	<path fill="none" stroke="#999999" stroke-linecap="round" stroke-linejoin="round" stroke-miterlimit="10" d="M65.411,42.451
		c0,0-0.049-1.14-0.253-1.363s-1.188-0.241-1.188-0.241s1.058-0.074,1.225-0.223c0.167-0.148,0.216-1.27,0.216-1.27
		s0.044,1.103,0.267,1.27c0.223,0.167,1.151,0.242,1.151,0.242s-0.984,0.019-1.188,0.241S65.411,42.451,65.411,42.451z"/>
</g>
<g id="Layer_1">
	<g id="Layer_1_1_">
		<path fill="none" stroke="#999999" stroke-linecap="round" stroke-linejoin="round" stroke-miterlimit="10" d="M38.512,37.436
			c1.779-11.35-8.763-11.755-8.763-11.755c-6.565-0.38-9.32,4.186-9.448,6.695"/>
		<path fill="none" stroke="#999999" stroke-linecap="round" stroke-linejoin="round" stroke-miterlimit="10" d="M21.445,34.26
			c-2.922-6.522-11.466-2.076-11.636,3.442c-0.568,8.951,7.197,9.656,7.197,9.656h23.589c0,0,5.603-0.627,6.418-6.469
			c-0.472-8.46-8.384-5.131-8.384-5.131"/>
		<path fill="none" stroke="#999999" stroke-linecap="round" stroke-linejoin="round" stroke-miterlimit="10" d="M70.545,58.996
			c1.096-6.991-5.396-7.241-5.396-7.241c-4.045-0.233-5.741,2.579-5.819,4.124"/>
		<path fill="none" stroke="#999999" stroke-linecap="round" stroke-linejoin="round" stroke-miterlimit="10" d="M60.031,57.039
			c-1.801-4.018-7.063-1.277-7.168,2.121c-0.35,5.514,4.434,5.949,4.434,5.949h14.531c0,0,3.451-0.389,3.953-3.986
			c-0.29-5.211-5.164-3.16-5.164-3.16"/>
	</g>
</g>
</svg>
