<?xml version="1.0" encoding="utf-8"?>
<!-- Generator: Adobe Illustrator 16.0.0, SVG Export Plug-In . SVG Version: 6.00 Build 0)  -->
<!DOCTYPE svg PUBLIC "-//W3C//DTD SVG 1.1//EN" "http://www.w3.org/Graphics/SVG/1.1/DTD/svg11.dtd">
<svg version="1.1" id="Layer_1" xmlns="http://www.w3.org/2000/svg" xmlns:xlink="http://www.w3.org/1999/xlink" x="0px" y="0px"
	 width="100px" height="100px" viewBox="0 0 100 100" enable-background="new 0 0 100 100" xml:space="preserve">
<path fill="none" stroke="#999999" stroke-linecap="round" stroke-linejoin="round" stroke-miterlimit="10" d="M69.084,54.333
	C72.584,32,51.842,31.201,51.842,31.201C38.922,30.454,33.5,39.438,33.25,44.375"/>
<path fill="none" stroke="#999999" stroke-linecap="round" stroke-linejoin="round" stroke-miterlimit="10" d="M35.5,48.083
	C29.75,35.25,12.938,44,12.604,54.857c-1.118,17.613,14.16,19,14.16,19h46.417c0,0,11.025-1.234,12.631-12.729
	c-0.93-16.646-16.498-10.096-16.498-10.096"/>
<line fill="none" stroke="#999999" stroke-linecap="round" stroke-linejoin="round" stroke-miterlimit="10" x1="63.563" y1="74.704" x2="59.832" y2="82.898"/>
<line fill="none" stroke="#999999" stroke-linecap="round" stroke-linejoin="round" stroke-miterlimit="10" x1="58.043" y1="86.852" x2="54.313" y2="95.045"/>
<line fill="none" stroke="#999999" stroke-linecap="round" stroke-linejoin="round" stroke-miterlimit="10" x1="51.563" y1="74.704" x2="47.832" y2="82.898"/>
<line fill="none" stroke="#999999" stroke-linecap="round" stroke-linejoin="round" stroke-miterlimit="10" x1="46.043" y1="86.852" x2="42.313" y2="95.045"/>
<line fill="none" stroke="#999999" stroke-linecap="round" stroke-linejoin="round" stroke-miterlimit="10" x1="39.563" y1="74.704" x2="35.832" y2="82.898"/>
<line fill="none" stroke="#999999" stroke-linecap="round" stroke-linejoin="round" stroke-miterlimit="10" x1="34.043" y1="86.852" x2="30.313" y2="95.045"/>
</svg>
