<?xml version="1.0" encoding="utf-8"?>
<!-- Generator: Adobe Illustrator 16.0.0, SVG Export Plug-In . SVG Version: 6.00 Build 0)  -->
<!DOCTYPE svg PUBLIC "-//W3C//DTD SVG 1.1//EN" "http://www.w3.org/Graphics/SVG/1.1/DTD/svg11.dtd">
<svg version="1.1" id="Layer_1" xmlns="http://www.w3.org/2000/svg" xmlns:xlink="http://www.w3.org/1999/xlink" x="0px" y="0px"
	 width="100px" height="100px" viewBox="0 0 100 100" enable-background="new 0 0 100 100" xml:space="preserve">
<path fill="none" stroke="#999999" stroke-linecap="round" stroke-linejoin="round" stroke-miterlimit="10" d="M63.084,53.833
	c3.5-22.333-17.243-23.132-17.243-23.132C32.922,29.954,27.5,38.938,27.25,43.875"/>
<path fill="none" stroke="#999999" stroke-linecap="round" stroke-linejoin="round" stroke-miterlimit="10" d="M29.5,47.583
	C23.75,34.75,6.938,43.5,6.603,54.357c-1.118,17.613,14.161,19,14.161,19h46.417c0,0,11.023-1.234,12.631-12.729
	c-0.932-16.646-16.498-10.096-16.498-10.096"/>
<path fill="none" stroke="#999999" stroke-linejoin="round" stroke-miterlimit="10" d="M48.566,31.267
	c2.117-6.138,7.945-10.545,14.804-10.545c8.647,0,15.657,7.01,15.657,15.657c0,5.262-2.598,9.918-6.577,12.756"/>
<line fill="none" stroke="#999999" stroke-linecap="round" stroke-linejoin="round" stroke-miterlimit="10" x1="38.743" y1="22.002" x2="44.797" y2="25.728"/>
<line fill="none" stroke="#999999" stroke-linecap="round" stroke-linejoin="round" stroke-miterlimit="10" x1="49.156" y1="11.343" x2="52.439" y2="17.645"/>
<line fill="none" stroke="#999999" stroke-linecap="round" stroke-linejoin="round" stroke-miterlimit="10" x1="77.922" y1="11.403" x2="74.416" y2="17.584"/>
<line fill="none" stroke="#999999" stroke-linecap="round" stroke-linejoin="round" stroke-miterlimit="10" x1="88.473" y1="22.151" x2="82.379" y2="25.807"/>
<line fill="none" stroke="#999999" stroke-linecap="round" stroke-linejoin="round" stroke-miterlimit="10" x1="88.412" y1="51.275" x2="82.438" y2="47.426"/>
<line fill="none" stroke="#999999" stroke-linecap="round" stroke-linejoin="round" stroke-miterlimit="10" x1="63.521" y1="6.482" x2="63.422" y2="16.042"/>
<line fill="none" stroke="#999999" stroke-linecap="round" stroke-linejoin="round" stroke-miterlimit="10" x1="93.846" y1="36.949" x2="84.297" y2="36.545"/>
</svg>
