<?xml version="1.0" encoding="utf-8"?>
<!-- Generator: Adobe Illustrator 16.0.0, SVG Export Plug-In . SVG Version: 6.00 Build 0)  -->
<!DOCTYPE svg PUBLIC "-//W3C//DTD SVG 1.1//EN" "http://www.w3.org/Graphics/SVG/1.1/DTD/svg11.dtd">
<svg version="1.1" id="Layer_1" xmlns="http://www.w3.org/2000/svg" xmlns:xlink="http://www.w3.org/1999/xlink" x="0px" y="0px"
	 width="100px" height="100px" viewBox="0 0 100 100" enable-background="new 0 0 100 100" xml:space="preserve">
<path fill="none" stroke="#999999" stroke-linecap="round" stroke-linejoin="round" stroke-miterlimit="10" d="M63.084,53.833
	c3.5-22.333-17.243-23.132-17.243-23.132C32.922,29.954,27.5,38.938,27.25,43.875"/>
<path fill="none" stroke="#999999" stroke-linecap="round" stroke-linejoin="round" stroke-miterlimit="10" d="M29.5,47.583
	C23.75,34.75,6.938,43.5,6.603,54.357c-1.118,17.613,14.161,19,14.161,19h46.417c0,0,11.022-1.234,12.631-12.729
	C78.88,43.982,63.314,50.532,63.314,50.532"/>
<path fill="none" stroke="#999999" stroke-linecap="round" stroke-linejoin="round" stroke-miterlimit="10" d="M78.678,53.972
	c3.757-2.054,6.852-5.277,8.729-9.32c-2.126,0.929-4.433,1.384-6.754,1.333C71.551,45.975,64.178,38.6,64.167,29.5
	c0.091-6.156,3.487-11.786,8.891-14.739c-1.457-0.186-2.926-0.269-4.395-0.248c-9.988,0-18.346,6.979-20.463,16.326"/>
<path fill="none" stroke="#999999" stroke-linecap="round" stroke-linejoin="round" stroke-miterlimit="10" d="M76.052,27.946
	c0,0-0.112-2.598-0.577-3.106c-0.466-0.507-2.708-0.549-2.708-0.549s2.412-0.169,2.792-0.508c0.381-0.338,0.493-2.895,0.493-2.895
	s0.099,2.514,0.607,2.895c0.508,0.381,2.623,0.55,2.623,0.55s-2.242,0.042-2.708,0.55C76.109,25.39,76.052,27.946,76.052,27.946z"/>
<path fill="none" stroke="#999999" stroke-linecap="round" stroke-linejoin="round" stroke-miterlimit="10" d="M81.651,32.967
	c0,0-0.054-1.259-0.279-1.505c-0.226-0.246-1.313-0.266-1.313-0.266s1.169-0.082,1.354-0.247c0.185-0.164,0.238-1.402,0.238-1.402
	s0.049,1.218,0.295,1.402c0.246,0.185,1.271,0.267,1.271,0.267s-1.087,0.02-1.313,0.266S81.651,32.967,81.651,32.967z"/>
</svg>
