<?xml version="1.0" encoding="utf-8"?>
<!-- Generator: Adobe Illustrator 16.0.0, SVG Export Plug-In . SVG Version: 6.00 Build 0)  -->
<!DOCTYPE svg PUBLIC "-//W3C//DTD SVG 1.1//EN" "http://www.w3.org/Graphics/SVG/1.1/DTD/svg11.dtd">
<svg version="1.1" id="Layer_1" xmlns="http://www.w3.org/2000/svg" xmlns:xlink="http://www.w3.org/1999/xlink" x="0px" y="0px"
	 width="100px" height="100px" viewBox="0 0 100 100" enable-background="new 0 0 100 100" xml:space="preserve">
<path fill="none" stroke="#999999" stroke-linecap="round" stroke-linejoin="round" stroke-miterlimit="10" d="M63.417,53.833
	c3.5-22.333-17.242-23.132-17.242-23.132c-12.919-0.747-18.341,8.237-18.591,13.174"/>
<path fill="none" stroke="#999999" stroke-linecap="round" stroke-linejoin="round" stroke-miterlimit="10" d="M29.833,47.583
	C24.083,34.75,7.271,43.5,6.937,54.357c-1.118,17.613,14.161,19,14.161,19h46.417c0,0,11.025-1.234,12.631-12.729
	c-0.93-16.646-16.498-10.096-16.498-10.096"/>
<path fill="none" stroke="#999999" stroke-linejoin="round" stroke-miterlimit="10" d="M48.9,31.267
	c2.118-6.138,7.946-10.545,14.803-10.545c8.646,0,15.656,7.01,15.656,15.657c0,5.261-2.596,9.918-6.576,12.756"/>
<line fill="none" stroke="#999999" stroke-linecap="round" stroke-linejoin="round" stroke-miterlimit="10" x1="39.077" y1="22.002" x2="45.131" y2="25.728"/>
<line fill="none" stroke="#999999" stroke-linecap="round" stroke-linejoin="round" stroke-miterlimit="10" x1="49.489" y1="11.343" x2="52.773" y2="17.645"/>
<line fill="none" stroke="#999999" stroke-linecap="round" stroke-linejoin="round" stroke-miterlimit="10" x1="78.256" y1="11.403" x2="74.75" y2="17.584"/>
<line fill="none" stroke="#999999" stroke-linecap="round" stroke-linejoin="round" stroke-miterlimit="10" x1="88.807" y1="22.151" x2="82.712" y2="25.807"/>
<line fill="none" stroke="#999999" stroke-linecap="round" stroke-linejoin="round" stroke-miterlimit="10" x1="88.746" y1="51.275" x2="82.771" y2="47.425"/>
<line fill="none" stroke="#999999" stroke-linecap="round" stroke-linejoin="round" stroke-miterlimit="10" x1="63.854" y1="6.482" x2="63.756" y2="16.042"/>
<line fill="none" stroke="#999999" stroke-linecap="round" stroke-linejoin="round" stroke-miterlimit="10" x1="94.18" y1="36.949" x2="84.63" y2="36.545"/>
<line fill="none" stroke="#999999" stroke-linecap="round" stroke-linejoin="round" stroke-miterlimit="10" x1="57.563" y1="73.704" x2="53.832" y2="81.898"/>
<line fill="none" stroke="#999999" stroke-linecap="round" stroke-linejoin="round" stroke-miterlimit="10" x1="52.043" y1="85.852" x2="48.313" y2="94.045"/>
<line fill="none" stroke="#999999" stroke-linecap="round" stroke-linejoin="round" stroke-miterlimit="10" x1="45.563" y1="73.704" x2="41.832" y2="81.898"/>
<line fill="none" stroke="#999999" stroke-linecap="round" stroke-linejoin="round" stroke-miterlimit="10" x1="40.043" y1="85.852" x2="36.313" y2="94.045"/>
<line fill="none" stroke="#999999" stroke-linecap="round" stroke-linejoin="round" stroke-miterlimit="10" x1="33.563" y1="73.704" x2="29.832" y2="81.898"/>
<line fill="none" stroke="#999999" stroke-linecap="round" stroke-linejoin="round" stroke-miterlimit="10" x1="28.043" y1="85.852" x2="24.313" y2="94.045"/>
</svg>
