<?xml version="1.0" encoding="utf-8"?>
<!-- Generator: Adobe Illustrator 16.0.0, SVG Export Plug-In . SVG Version: 6.00 Build 0)  -->
<!DOCTYPE svg PUBLIC "-//W3C//DTD SVG 1.1//EN" "http://www.w3.org/Graphics/SVG/1.1/DTD/svg11.dtd">
<svg version="1.1" id="Layer_1" xmlns="http://www.w3.org/2000/svg" xmlns:xlink="http://www.w3.org/1999/xlink" x="0px" y="0px"
	 width="100px" height="100px" viewBox="0 0 100 100" enable-background="new 0 0 100 100" xml:space="preserve">
<path fill="none" stroke="#999999" stroke-linecap="round" stroke-linejoin="round" stroke-miterlimit="10" d="M69.751,53.333
	C73.251,31,52.509,30.201,52.509,30.201c-12.92-0.747-18.342,8.237-18.592,13.174"/>
<path fill="none" stroke="#999999" stroke-linecap="round" stroke-linejoin="round" stroke-miterlimit="10" d="M39.251,72.857H73.85
	c0,0,11.024-1.234,12.631-12.729C85.55,43.482,69.982,50.032,69.982,50.032"/>
<path fill="none" stroke="#999999" stroke-linecap="round" stroke-linejoin="round" stroke-miterlimit="10" d="M36.167,47.083
	C30.417,34.25,13.604,43,13.271,53.857c-1.118,17.613,14.16,19,14.16,19h4.132"/>
<g>
	<polygon fill="none" stroke="#999999" stroke-miterlimit="10" points="36.077,57.823 34.211,59.689 35.901,63.596 37.885,59.689 	
		"/>
	<line fill="none" stroke="#999999" stroke-miterlimit="10" x1="35.844" y1="63.188" x2="35.785" y2="67.968"/>
	<polyline fill="none" stroke="#999999" stroke-miterlimit="10" points="39.07,63.148 35.845,65.984 32.968,62.915 	"/>
	<polygon fill="none" stroke="#999999" stroke-miterlimit="10" points="35.118,86.625 36.984,84.76 35.294,80.854 33.312,84.76 	"/>
	<line fill="none" stroke="#999999" stroke-miterlimit="10" x1="35.352" y1="81.262" x2="35.41" y2="76.48"/>
	<polyline fill="none" stroke="#999999" stroke-miterlimit="10" points="32.125,81.3 35.351,78.463 38.229,81.533 	"/>
	<polygon fill="none" stroke="#999999" stroke-miterlimit="10" points="46.909,80.404 46.528,77.793 42.325,76.824 44.304,80.743 	
		"/>
	<line fill="none" stroke="#999999" stroke-miterlimit="10" x1="42.626" y1="77.031" x2="38.826" y2="74.127"/>
	<polyline fill="none" stroke="#999999" stroke-miterlimit="10" points="40.729,79.641 40.381,75.359 44.563,74.887 	"/>
	<polygon fill="none" stroke="#999999" stroke-miterlimit="10" points="48.013,65.318 45.465,64.631 42.931,68.004 47.3,67.797 	"/>
	<line fill="none" stroke="#999999" stroke-miterlimit="10" x1="43.266" y1="67.713" x2="39.092" y2="70.044"/>
	<polyline fill="none" stroke="#999999" stroke-miterlimit="10" points="44.907,70.492 40.84,69.107 42.068,65.084 	"/>
	<polygon fill="none" stroke="#999999" stroke-miterlimit="10" points="31.785,74.471 31.931,70.227 35.57,68.039 39.062,70.094 
		38.916,74.338 35.276,76.525 	"/>
	<polygon fill="none" stroke="#999999" stroke-miterlimit="10" points="23.085,65.318 25.633,64.631 28.167,68.004 23.798,67.797 	
		"/>
	<line fill="none" stroke="#999999" stroke-miterlimit="10" x1="27.832" y1="67.713" x2="32.006" y2="70.044"/>
	<polyline fill="none" stroke="#999999" stroke-miterlimit="10" points="26.19,70.492 30.258,69.107 29.029,65.084 	"/>
	<polygon fill="none" stroke="#999999" stroke-miterlimit="10" points="23.662,80.826 24.043,78.215 28.246,77.246 26.268,81.164 	
		"/>
	<line fill="none" stroke="#999999" stroke-miterlimit="10" x1="27.945" y1="77.451" x2="31.744" y2="74.549"/>
	<polyline fill="none" stroke="#999999" stroke-miterlimit="10" points="29.842,80.063 30.19,75.781 26.009,75.309 	"/>
</g>
<g>
	<polygon fill="none" stroke="#999999" stroke-width="0.75" stroke-miterlimit="10" points="56.055,76.678 55.686,78.452 
		58.128,80.061 57.795,77.068 	"/>
	<line fill="none" stroke="#999999" stroke-width="0.75" stroke-miterlimit="10" x1="57.941" y1="79.848" x2="59.709" y2="82.615"/>
	<polyline fill="none" stroke="#999999" stroke-width="0.75" stroke-miterlimit="10" points="59.779,78.607 58.997,81.453 
		56.188,80.773 	"/>
	<polygon fill="none" stroke="#999999" stroke-width="0.75" stroke-miterlimit="10" points="66.359,93.582 66.729,91.809 
		64.284,90.201 64.617,93.191 	"/>
	<line fill="none" stroke="#999999" stroke-width="0.75" stroke-miterlimit="10" x1="64.471" y1="90.413" x2="62.703" y2="87.646"/>
	<polyline fill="none" stroke="#999999" stroke-width="0.75" stroke-miterlimit="10" points="62.633,91.65 63.415,88.807 
		66.227,89.484 	"/>
	<polygon fill="none" stroke="#999999" stroke-width="0.75" stroke-miterlimit="10" points="70.785,85.564 69.582,84.208 
		66.805,85.236 69.417,86.742 	"/>
	<line fill="none" stroke="#999999" stroke-width="0.75" stroke-miterlimit="10" x1="67.055" y1="85.242" x2="63.777" y2="85.006"/>
	<polyline fill="none" stroke="#999999" stroke-width="0.75" stroke-miterlimit="10" points="66.949,87.455 65.135,85.128 
		67.357,83.279 	"/>
	<polygon fill="none" stroke="#999999" stroke-width="0.75" stroke-miterlimit="10" points="65.734,76.484 64.012,77.05 
		63.827,79.941 66.258,78.177 	"/>
	<line fill="none" stroke="#999999" stroke-width="0.75" stroke-miterlimit="10" x1="63.909" y1="79.648" x2="62.391" y2="82.561"/>
	<polyline fill="none" stroke="#999999" stroke-width="0.75" stroke-miterlimit="10" points="65.9,80.626 63.042,81.364 
		62.23,78.59 	"/>
	<polygon fill="none" stroke="#999999" stroke-width="0.75" stroke-miterlimit="10" points="59.863,87.855 58.348,85.365 
		59.613,82.736 62.393,82.602 63.909,85.093 62.643,87.723 	"/>
	<polygon fill="none" stroke="#999999" stroke-width="0.75" stroke-miterlimit="10" points="51.418,85.881 52.621,84.523 
		55.348,85.507 52.762,87.034 	"/>
	<line fill="none" stroke="#999999" stroke-width="0.75" stroke-miterlimit="10" x1="55.046" y1="85.465" x2="58.322" y2="85.23"/>
	<polyline fill="none" stroke="#999999" stroke-width="0.75" stroke-miterlimit="10" points="55.15,87.682 56.965,85.354 
		54.742,83.504 	"/>
	<polygon fill="none" stroke="#999999" stroke-width="0.75" stroke-miterlimit="10" points="57.593,94.568 56.827,92.925 
		58.877,90.785 59.216,93.779 	"/>
	<line fill="none" stroke="#999999" stroke-width="0.75" stroke-miterlimit="10" x1="58.781" y1="91.018" x2="59.869" y2="87.917"/>
	<polyline fill="none" stroke="#999999" stroke-width="0.75" stroke-miterlimit="10" points="60.854,91.801 59.441,89.211 
		56.859,90.516 	"/>
</g>
<g>
	<polygon fill="none" stroke="#999999" stroke-width="0.5" stroke-miterlimit="10" points="60.419,47.222 59.148,47.917 
		59.438,50.235 61.083,48.482 	"/>
	<line fill="none" stroke="#999999" stroke-width="0.5" stroke-miterlimit="10" x1="59.471" y1="50.012" x2="58.704" y2="52.52"/>
	<polyline fill="none" stroke="#999999" stroke-width="0.5" stroke-miterlimit="10" points="61.175,50.486 59.041,51.484 
		57.998,49.426 	"/>
	<polygon fill="none" stroke="#999999" stroke-width="0.5" stroke-miterlimit="10" points="55.48,62.243 56.75,61.548 56.462,59.23 
		54.814,60.982 	"/>
	<line fill="none" stroke="#999999" stroke-width="0.5" stroke-miterlimit="10" x1="56.43" y1="59.454" x2="57.195" y2="56.943"/>
	<polyline fill="none" stroke="#999999" stroke-width="0.5" stroke-miterlimit="10" points="54.725,58.979 56.857,57.979 
		57.9,60.04 	"/>
	<polygon fill="none" stroke="#999999" stroke-width="0.5" stroke-miterlimit="10" points="62.646,60.782 62.85,59.348 
		60.784,58.189 61.225,60.561 	"/>
	<line fill="none" stroke="#999999" stroke-width="0.5" stroke-miterlimit="10" x1="60.911" y1="58.348" x2="59.355" y2="56.232"/>
	<polyline fill="none" stroke="#999999" stroke-width="0.5" stroke-miterlimit="10" points="59.512,59.43 59.986,57.12 
		62.262,57.516 	"/>
	<polygon fill="none" stroke="#999999" stroke-width="0.5" stroke-miterlimit="10" points="65.551,53.008 64.314,52.252 
		62.461,53.639 64.794,54.202 	"/>
	<line fill="none" stroke="#999999" stroke-width="0.5" stroke-miterlimit="10" x1="62.682" y1="53.536" x2="60.125" y2="54.122"/>
	<polyline fill="none" stroke="#999999" stroke-width="0.5" stroke-miterlimit="10" points="63.118,55.254 61.189,53.896 
		62.457,51.968 	"/>
	<polygon fill="none" stroke="#999999" stroke-width="0.5" stroke-miterlimit="10" points="55.598,55.328 56.327,53.116 
		58.579,52.523 60.102,54.145 59.372,56.357 57.118,56.948 	"/>
	<polygon fill="none" stroke="#999999" stroke-width="0.5" stroke-miterlimit="10" points="52.423,49.17 53.87,49.199 
		54.688,51.366 52.416,50.584 	"/>
	<line fill="none" stroke="#999999" stroke-width="0.5" stroke-miterlimit="10" x1="54.555" y1="51.161" x2="56.395" y2="53.031"/>
	<polyline fill="none" stroke="#999999" stroke-width="0.5" stroke-miterlimit="10" points="53.264,52.373 55.617,52.27 
		55.59,49.961 	"/>
	<polygon fill="none" stroke="#999999" stroke-width="0.5" stroke-miterlimit="10" points="50.34,57.425 50.941,56.107 
		53.305,56.247 51.66,58.004 	"/>
	<line fill="none" stroke="#999999" stroke-width="0.5" stroke-miterlimit="10" x1="53.115" y1="56.309" x2="55.563" y2="55.364"/>
	<polyline fill="none" stroke="#999999" stroke-width="0.5" stroke-miterlimit="10" points="53.712,57.975 54.555,55.773 
		52.425,54.878 	"/>
</g>
</svg>
