<?xml version="1.0" encoding="utf-8"?>
<!-- Generator: Adobe Illustrator 16.0.0, SVG Export Plug-In . SVG Version: 6.00 Build 0)  -->
<!DOCTYPE svg PUBLIC "-//W3C//DTD SVG 1.1//EN" "http://www.w3.org/Graphics/SVG/1.1/DTD/svg11.dtd">
<svg version="1.1" id="Layer_1" xmlns="http://www.w3.org/2000/svg" xmlns:xlink="http://www.w3.org/1999/xlink" x="0px" y="0px"
	 width="100px" height="100px" viewBox="0 0 100 100" enable-background="new 0 0 100 100" xml:space="preserve">
<g>
	<polygon fill="none" stroke="#999999" stroke-miterlimit="10" points="39.89,66.241 48.439,66.241 42.208,76.384 48.958,75.695 
		32.87,94.626 38.595,80.199 32.672,81.15 	"/>
</g>
<g>
	<polygon fill="none" stroke="#999999" stroke-miterlimit="10" points="59.553,69.703 65.486,69.703 61.162,76.744 65.848,76.268 
		54.682,89.406 58.654,79.393 54.543,80.053 	"/>
</g>
<path fill="none" stroke="#999999" stroke-linecap="round" stroke-linejoin="round" stroke-miterlimit="10" d="M70.418,53.333
	C73.918,31,53.176,30.201,53.176,30.201c-12.92-0.747-18.342,8.237-18.592,13.174"/>
<path fill="none" stroke="#999999" stroke-linecap="round" stroke-linejoin="round" stroke-miterlimit="10" d="M63.785,72.857h10.73
	c0,0,11.024-1.234,12.631-12.729c-0.931-16.646-16.498-10.096-16.498-10.096"/>
<path fill="none" stroke="#999999" stroke-linecap="round" stroke-linejoin="round" stroke-miterlimit="10" d="M44.417,72.857
	h13.417"/>
<path fill="none" stroke="#999999" stroke-linecap="round" stroke-linejoin="round" stroke-miterlimit="10" d="M36.834,47.083
	C31.084,34.25,14.271,43,13.938,53.857c-1.118,17.613,14.16,19,14.16,19H36.5"/>
</svg>
