<?xml version="1.0" encoding="utf-8"?>
<!-- Generator: Adobe Illustrator 16.0.0, SVG Export Plug-In . SVG Version: 6.00 Build 0)  -->
<!DOCTYPE svg PUBLIC "-//W3C//DTD SVG 1.1//EN" "http://www.w3.org/Graphics/SVG/1.1/DTD/svg11.dtd">
<svg version="1.1" id="Layer_1" xmlns="http://www.w3.org/2000/svg" xmlns:xlink="http://www.w3.org/1999/xlink" x="0px" y="0px"
	 width="300px" height="300px" viewBox="0 0 300 300" enable-background="new 0 0 300 300" xml:space="preserve">
<g id="Layer_3">
	<g id="FIX_1_">
		
			<radialGradient id="SVGID_1_" cx="1331.4766" cy="-1119.8521" r="146.6042" fx="1319.4109" fy="-1155.5845" gradientTransform="matrix(1 0 0 -1 -1181.6006 -967.5)" gradientUnits="userSpaceOnUse">
			<stop  offset="0" style="stop-color:#477DBF"/>
			<stop  offset="0.1527" style="stop-color:#4476BB"/>
			<stop  offset="0.4025" style="stop-color:#3762AE"/>
			<stop  offset="0.7165" style="stop-color:#273D8E"/>
			<stop  offset="1" style="stop-color:#272361"/>
		</radialGradient>
		<circle fill="url(#SVGID_1_)" cx="149.876" cy="152.352" r="146.604"/>
		
			<radialGradient id="SVGID_2_" cx="1698.5254" cy="551.833" r="88.2302" fx="1691.2639" fy="530.3285" gradientTransform="matrix(0.0125 0.9999 1.6487 -0.0206 -797.1672 -1464.7667)" gradientUnits="userSpaceOnUse">
			<stop  offset="0.2167" style="stop-color:#D7E7F6"/>
			<stop  offset="0.4236" style="stop-color:#D7E7F6"/>
			<stop  offset="1" style="stop-color:#6883C1"/>
		</radialGradient>
		<path fill="url(#SVGID_2_)" d="M296.48,153.5c0,81-65.642,143.604-146.604,143.604S3.272,234.352,3.272,153.352L296.48,153.5z"/>
	</g>
	<rect x="33.5" y="96" fill="#2D2B75" width="34" height="56"/>
	<rect x="160.5" y="95" fill="#2D2B75" width="91" height="56"/>
	
		<radialGradient id="shadows_1_" cx="1317.8105" cy="-7095.019" r="114.3278" gradientTransform="matrix(0.9999 -0.0147 -0.0026 -0.1775 -1181.4442 -995.8302)" gradientUnits="userSpaceOnUse">
		<stop  offset="0" style="stop-color:#354EA1;stop-opacity:0.3"/>
		<stop  offset="0.3105" style="stop-color:#354EA2;stop-opacity:0.2069"/>
		<stop  offset="0.4478" style="stop-color:#3751A3;stop-opacity:0.1657"/>
		<stop  offset="0.551" style="stop-color:#3A55A5;stop-opacity:0.1347"/>
		<stop  offset="0.6371" style="stop-color:#405CAA;stop-opacity:0.1089"/>
		<stop  offset="0.7126" style="stop-color:#4C67B0;stop-opacity:0.0862"/>
		<stop  offset="0.7807" style="stop-color:#617ABB;stop-opacity:0.0658"/>
		<stop  offset="0.8432" style="stop-color:#8297CD;stop-opacity:0.047"/>
		<stop  offset="0.9013" style="stop-color:#A9B8DE;stop-opacity:0.0296"/>
		<stop  offset="0.9538" style="stop-color:#D3DAEF;stop-opacity:0.0139"/>
		<stop  offset="1" style="stop-color:#FFFFFF;stop-opacity:0"/>
	</radialGradient>
	<path id="shadows_6_" fill="url(#shadows_1_)" d="M264.512,242.585c0.041,7.128-49.102,13.197-109.768,13.554
		c-60.665,0.355-109.877-5.134-109.919-12.262c-0.042-7.129,49.104-13.197,109.769-13.552
		C215.258,229.968,264.471,235.456,264.512,242.585z"/>
	
		<radialGradient id="floor_shadow_2_" cx="1317.3613" cy="-1687.395" r="106.7049" gradientTransform="matrix(0.9999 0.011 0.0077 -0.7011 -1181.9589 -988.1267)" gradientUnits="userSpaceOnUse">
		<stop  offset="0" style="stop-color:#FFFFFF;stop-opacity:0"/>
		<stop  offset="1" style="stop-color:#4256A6;stop-opacity:0.2"/>
	</radialGradient>
	<path id="floor_shadow_1_" fill="url(#floor_shadow_2_)" d="M3.272,152.5H296.48l0.176,11.813
		c-101.26-8.479-191.725,7.894-209.259,21.746c-33.593,26.553-49.984,79.834,56.789,112.196C57.496,293.904,3.272,224.5,3.272,152.5
		z"/>
	<path fill="#2D2B75" d="M229.448,88.21h7.052l-5.577-15.46h-7.729l-5.573,15.46h7.052c-1.085,0.756-1.797,2.012-1.797,3.436
		c0,2.313,1.874,4.187,4.188,4.187s4.188-1.875,4.188-4.187C231.245,90.223,230.533,88.967,229.448,88.21z"/>
	<rect x="69.5" y="58" fill="#2D2B75" width="20" height="94"/>
	<rect x="193.5" y="90.5" fill="#2D2B75" width="14.25" height="4.5"/>
	<rect x="91.5" y="71" fill="#2D2B75" width="20" height="81"/>
	
		<radialGradient id="SVGID_3_" cx="1134.2734" cy="1117.04" r="121.5" gradientTransform="matrix(1 0 0 1 -983.9404 -967.54)" gradientUnits="userSpaceOnUse">
		<stop  offset="0" style="stop-color:#FFFFFF"/>
		<stop  offset="0.9928" style="stop-color:#FFFFFF;stop-opacity:0.0072"/>
		<stop  offset="1" style="stop-color:#FFFFFF;stop-opacity:0"/>
	</radialGradient>
	<circle fill="url(#SVGID_3_)" cx="150.333" cy="149.5" r="121.5"/>
	
		<radialGradient id="light_2_" cx="1463.6465" cy="-3018.4136" r="84.1373" gradientTransform="matrix(0.8221 -0.0655 -0.0331 -0.4231 -1113.9679 -948.8962)" gradientUnits="userSpaceOnUse">
		<stop  offset="0" style="stop-color:#FFFFFF;stop-opacity:0.3"/>
		<stop  offset="0.8531" style="stop-color:#FFFFFF;stop-opacity:0.0441"/>
		<stop  offset="1" style="stop-color:#FFFFFF;stop-opacity:0"/>
	</radialGradient>
	<path id="light_1_" fill="url(#light_2_)" d="M283.654,204.129c0.803,8.92-29.901,60.463-89.258,79.438
		c-45.196,14.451-71.418-56.291-72.227-65.211c-0.803-8.922,61.521-36.555,125.777-36.555
		C256.751,181.802,282.852,195.208,283.654,204.129z"/>
	
		<radialGradient id="shadows_2_" cx="1288.6719" cy="-1246.9399" r="63.0386" gradientTransform="matrix(0.9993 -0.0384 -0.0384 -0.9993 -1179.6514 -948.6814)" gradientUnits="userSpaceOnUse">
		<stop  offset="0" style="stop-color:#354EA1;stop-opacity:0.3"/>
		<stop  offset="0.3105" style="stop-color:#354EA2;stop-opacity:0.2069"/>
		<stop  offset="0.4478" style="stop-color:#3751A3;stop-opacity:0.1657"/>
		<stop  offset="0.551" style="stop-color:#3A55A5;stop-opacity:0.1347"/>
		<stop  offset="0.6371" style="stop-color:#405CAA;stop-opacity:0.1089"/>
		<stop  offset="0.7126" style="stop-color:#4C67B0;stop-opacity:0.0862"/>
		<stop  offset="0.7807" style="stop-color:#617ABB;stop-opacity:0.0658"/>
		<stop  offset="0.8432" style="stop-color:#8297CD;stop-opacity:0.047"/>
		<stop  offset="0.9013" style="stop-color:#A9B8DE;stop-opacity:0.0296"/>
		<stop  offset="0.9538" style="stop-color:#D3DAEF;stop-opacity:0.0139"/>
		<stop  offset="1" style="stop-color:#FFFFFF;stop-opacity:0"/>
	</radialGradient>
	<path id="shadows_5_" fill="url(#shadows_2_)" d="M244.544,247.378c0.033,5.745-39.58,10.64-88.479,10.927
		c-48.896,0.285-88.566-4.14-88.604-9.886s39.581-10.64,88.48-10.924C204.842,237.207,244.512,241.631,244.544,247.378z"/>
	
		<circle id="circle_1_" fill="none" stroke="#488FCC" stroke-width="2" stroke-miterlimit="10" cx="149.874" cy="151.122" r="146.782"/>
	
		<radialGradient id="shadows_3_" cx="2177.499" cy="-11479.9297" r="84.5982" gradientTransform="matrix(0.5229 -4.000000e-004 -3.000000e-004 -0.1092 -1019.4116 -990.5583)" gradientUnits="userSpaceOnUse">
		<stop  offset="0" style="stop-color:#354EA1;stop-opacity:0.3"/>
		<stop  offset="0.2048" style="stop-color:#354EA2;stop-opacity:0.2386"/>
		<stop  offset="0.3395" style="stop-color:#3851A3;stop-opacity:0.1981"/>
		<stop  offset="0.4541" style="stop-color:#3C56A6;stop-opacity:0.1638"/>
		<stop  offset="0.5575" style="stop-color:#445FAC;stop-opacity:0.1327"/>
		<stop  offset="0.6533" style="stop-color:#536DB4;stop-opacity:0.104"/>
		<stop  offset="0.7435" style="stop-color:#7288C4;stop-opacity:0.077"/>
		<stop  offset="0.8293" style="stop-color:#99A9D7;stop-opacity:0.0512"/>
		<stop  offset="0.9118" style="stop-color:#C6D0EA;stop-opacity:0.0265"/>
		<stop  offset="0.9888" style="stop-color:#F7F8FC;stop-opacity:0.0034"/>
		<stop  offset="1" style="stop-color:#FFFFFF;stop-opacity:0"/>
	</radialGradient>
	<path id="shadows_4_" fill="url(#shadows_3_)" d="M166.954,261.566c0.022,3.938-20.688,7.261-46.259,7.41
		c-25.571,0.146-46.321-2.927-46.344-6.865c-0.023-3.94,20.688-7.26,46.26-7.407C146.182,254.555,166.932,257.626,166.954,261.566z"
		/>
</g>
<g id="char">
	<path fill="#1C0F0D" d="M185.479,126.5c0,0,7.515,4.875,7.228,13.081c0.735-3.826-1.81-11.208-4.208-13.754L185.479,126.5z"/>
	<path fill="#1C0F0D" d="M184.535,124.289c0,0-0.203,8.955,6.738,13.34c-3.575-1.547-8.241-7.809-8.994-11.224L184.535,124.289z"/>
	<path fill="#1C0F0D" d="M115.903,119.855c0,0-6.697,8.625-14.004,5.686c6.804,2.442,10.618-0.648,13.108-2.263L115.903,119.855z"/>
	
		<radialGradient id="SVGID_4_" cx="1081.6416" cy="320.7998" r="7.8987" gradientTransform="matrix(0.4603 0.6128 -0.9783 0.3502 -36.752 -526.4302)" gradientUnits="userSpaceOnUse">
		<stop  offset="0" style="stop-color:#FFFFFF"/>
		<stop  offset="1" style="stop-color:#9BB4DC"/>
	</radialGradient>
	<path fill="url(#SVGID_4_)" d="M142.617,242.713l0.246,3.281c0,0-1.625,3.074-2.131,4.188c-2.623,5.771,8.607,5.828,10.493,1.698
		c1.486-3.26,3.032-8.263,3.032-8.263L142.617,242.713z"/>
	
		<radialGradient id="SVGID_5_" cx="481.9355" cy="169.9346" r="10.2108" gradientTransform="matrix(0.4961 0.6605 0.8682 -0.3774 -223.6675 -5.567)" gradientUnits="userSpaceOnUse">
		<stop  offset="0" style="stop-color:#FFFFFF"/>
		<stop  offset="1" style="stop-color:#9BB4DC"/>
	</radialGradient>
	<path fill="url(#SVGID_5_)" d="M167.714,242.223l-0.246,3.615c0,0,1.626,3.389,2.132,4.614c2.623,6.36-8.605,6.423-10.492,1.87
		c-1.486-3.592-3.031-9.104-3.031-9.104L167.714,242.223z"/>
	<path fill="#1C0F0D" d="M131.034,118.268c0,0-5.209,13.136-24.319,10.184c3.253-0.552,4.443-3.376,8.197-5.574
		c-5.083,1.476-11.061,2.845-13.607,0.656c2.132,0.528,4.489,0.155,5.778-0.576c0.423-0.24-1.542,0.417-3.958-1.708
		c4.417,1.833,6.282-1.394,6.5-1.792c0.958-1.75,0.747-1.763,1.516-3.301c-2.293-1.47-5.21,0.578-7.705-1.64
		c4.65,1.332,15.718-13.364,20.323-18.773C126.119,92.97,131.034,118.268,131.034,118.268z"/>
	
		<linearGradient id="SVGID_6_" gradientUnits="userSpaceOnUse" x1="549.4736" y1="830.8682" x2="550.7787" y2="904.9304" gradientTransform="matrix(1 0 0 1 -395.3203 -639.9199)">
		<stop  offset="0" style="stop-color:#272361"/>
		<stop  offset="0.2313" style="stop-color:#223676"/>
		<stop  offset="0.5384" style="stop-color:#0E4A90"/>
		<stop  offset="0.8052" style="stop-color:#0057A2"/>
		<stop  offset="1" style="stop-color:#005CAB"/>
	</linearGradient>
	
		<linearGradient id="SVGID_7_" gradientUnits="userSpaceOnUse" x1="273.9209" y1="-184.668" x2="329.6289" y2="-184.668" gradientTransform="matrix(1 0 0 -1 -147.6602 30.04)">
		<stop  offset="0.1828" style="stop-color:#272361"/>
		<stop  offset="0.4194" style="stop-color:#262563"/>
		<stop  offset="0.8468" style="stop-color:#094C92"/>
		<stop  offset="1" style="stop-color:#005CAB"/>
	</linearGradient>
	<path fill="url(#SVGID_6_)" stroke="url(#SVGID_7_)" stroke-miterlimit="10" d="M169.174,242.713c0,0-3.564,2.582-7.131,2.705
		s-7.131-2.705-7.131-2.705s-2.951,2.951-7.623,2.459c-4.672-0.49-7.193-1.168-7.193-1.168s-2.213-1.967-2.09-2.459
		c0.123-0.49,0.984-0.922,0.984-1.354c0-0.431-1.229-0.799-1.353-1.291c-0.123-0.49,0.964-1.121,0.452-2.76
		c-0.513-1.639-11.21-52.143-11.21-52.143l54.309,0.313c0,0-1.869,4.024-2.69,9.813c-0.106,0.762,0.396,1.806,0.255,2.625
		c-0.111,0.649-0.863,1.067-1,1.75c-0.202,1.021,0.088,1.677-0.125,2.75c-0.229,1.149-0.763,1.558-1,2.75
		c-2.896,14.565-6.059,32.313-6.184,32.526c-0.225,0.373,0.207,1.099,0.639,1.591c0.432,0.491-1.491,1.079-1.477,1.438
		c0.016,0.357,0.859,0.655,1.291,1.519C171.292,241.865,169.174,242.713,169.174,242.713z"/>
	<path fill="#1C0F0D" d="M183.93,122.202c0,0,6.023,10.347,15.613,12.068c-1.48-1.02-3.48-2.833-0.736-8.606
		c0.967,1.926,3.381,3.711,8.006,4.148c-5.938-1.813-3.313-4.438-4.811-8.452c1.992,1.393,5.129,2.708,7.623,0.492
		c-6.75,2.209-8.305-20.78-12.91-26.188C194.354,92.89,183.93,122.202,183.93,122.202z"/>
	<path fill="#272361" stroke="#2C328C" stroke-width="0.75" stroke-miterlimit="10" d="M187.042,157.646
		c0.125,0.209-1.312,0.912-4.104,1.313c-2.795,0.396-5.514,0.898-5.604,0.25c-0.095-0.65,3.416-1.997,6.209-2.396
		C186.336,156.412,186.95,156.994,187.042,157.646z"/>
	
		<linearGradient id="SVGID_8_" gradientUnits="userSpaceOnUse" x1="549.6318" y1="831.1064" x2="549.7568" y2="841.8593" gradientTransform="matrix(1 0 0 1 -395.3203 -639.9199)">
		<stop  offset="0" style="stop-color:#010101"/>
		<stop  offset="0.0853" style="stop-color:#0F0F19"/>
		<stop  offset="0.2289" style="stop-color:#131231"/>
		<stop  offset="0.3828" style="stop-color:#1A1348"/>
		<stop  offset="0.5498" style="stop-color:#221D56"/>
		<stop  offset="0.7392" style="stop-color:#25215E"/>
		<stop  offset="1" style="stop-color:#272361"/>
	</linearGradient>
	<path fill="url(#SVGID_8_)" d="M133.333,189.833c0,0,20.333,5.334,28.333,3.834c3.21-0.603,12.893-3.567,15.875-4.459
		c0.125,1.813-1.541,6.332-1.625,6.709c-4.521,1.447-14.602,4.065-20.583,4.25c-1.332,0.041-24.167,0.666-24.167,0.666
		L133.333,189.833z"/>
	
		<radialGradient id="SVGID_9_" cx="426.4775" cy="354.2539" r="41.502" gradientTransform="matrix(0.0036 1 0.6786 -0.0024 -86.9221 -263.9658)" gradientUnits="userSpaceOnUse">
		<stop  offset="0.0108" style="stop-color:#1C75BC"/>
		<stop  offset="0.6774" style="stop-color:#1C75BC"/>
		<stop  offset="0.7613" style="stop-color:#2461A0"/>
		<stop  offset="0.9422" style="stop-color:#27336F"/>
		<stop  offset="1" style="stop-color:#272361"/>
	</radialGradient>
	<path fill="url(#SVGID_9_)" d="M181.656,188.719c0.188,1.438-13.792,6.719-26.344,6.719c-26.925,0-36.794-10.02-36.794-10.02
		s6.829,0.915,10.107-12.855c0.805-3.383,0.273-5.162,1.188-8.875c0.838-3.404,2.428-9.508,3.35-12.383
		c1.38-4.302,2.85-7.582,4.399-8.555c7.05-4.426,31.775-4.462,37.021-0.692c1.938,1.393,2.155,9.167,3.038,17.608
		c0.136,1.297,0.535,3.025,0.712,4.334c0.146,1.082,0.001,2.917,0.251,5.75c0.104,1.188,1.292,4.354,1.583,5.458
		c0.083,0.708,1.255,1.548,1.5,2.584c0.642,2.702-0.334,3.047-0.354,6.083c-0.004,0.736,0.36,1.404,0.313,2
		c-0.063,0.79-0.375,1.094-0.53,1.344C180.969,187.719,181.482,187.384,181.656,188.719z"/>
	
		<radialGradient id="SVGID_10_" cx="302.9932" cy="-145.6274" r="19.8871" gradientTransform="matrix(1 0 0 -1 -147.6602 30.04)" gradientUnits="userSpaceOnUse">
		<stop  offset="0" style="stop-color:#262262;stop-opacity:0.8"/>
		<stop  offset="0.3488" style="stop-color:#25215F;stop-opacity:0.5209"/>
		<stop  offset="0.7816" style="stop-color:#211F57;stop-opacity:0.1748"/>
		<stop  offset="1" style="stop-color:#1E1D52;stop-opacity:0"/>
	</radialGradient>
	<path opacity="0.4" fill="url(#SVGID_10_)" enable-background="new    " d="M130.917,183.75c0,0,28.417,1.25,37.833-14.25
		c2.229-3.669,6.167-7.917,7.848-16.516c0.125,2.082,1.891,12.867,1.819,13.974c-0.209,3.292,0.772,3.881,0.666,5.333
		c-0.167,2.25,0.442,9.752-6.25,13.376c-4,2.166-13.333,6.5-35.083,4C128.981,188.659,135.658,184.186,130.917,183.75z"/>
	
		<linearGradient id="SVGID_11_" gradientUnits="userSpaceOnUse" x1="307.9648" y1="-160.3545" x2="308.9361" y2="-165.3051" gradientTransform="matrix(1 0 0 -1 -147.6602 30.04)">
		<stop  offset="0" style="stop-color:#262262;stop-opacity:0.8"/>
		<stop  offset="0.2981" style="stop-color:#221F58;stop-opacity:0.2782"/>
		<stop  offset="0.457" style="stop-color:#1E1D52;stop-opacity:0"/>
		<stop  offset="1" style="stop-color:#262262;stop-opacity:0.8"/>
	</linearGradient>
	<path opacity="0.4" fill="url(#SVGID_11_)" enable-background="new    " d="M139.583,189.582c0,0,29.583,7.084,38.917-7.833
		c2.277-3.64,0,2.25,2.417-5.75c0.125,2.083,0.903,1.478,0.833,2.583c-0.209,3.292-0.607,3.218-0.716,4.67
		c-0.167,2.25,2.325,2.623-4.367,6.247c-4,2.166-13.501,5.918-35.25,3.418C132.647,191.909,138.833,191.416,139.583,189.582z"/>
	<g>
		<path fill="#363896" d="M172.333,187.917c0,0-0.356,0.181-1.003,0.457c-0.646,0.271-1.571,0.664-2.717,1.034
			c-2.278,0.771-5.404,1.563-8.594,1.964c-0.797,0.108-1.6,0.165-2.39,0.213c-0.788,0.071-1.565,0.063-2.317,0.078
			c-0.754,0.028-1.479-0.021-2.17-0.049c-0.688-0.017-1.34-0.067-1.938-0.146c-0.599-0.065-1.147-0.116-1.63-0.194
			c-0.48-0.092-0.899-0.17-1.244-0.235c-0.689-0.131-1.083-0.205-1.083-0.205s0.396,0.06,1.09,0.163
			c0.346,0.053,0.767,0.115,1.249,0.188c0.484,0.061,1.034,0.09,1.63,0.152c0.599,0.068,1.244,0.111,1.933,0.118
			c0.688,0.019,1.412,0.06,2.16,0.021c0.75-0.021,1.522-0.024,2.308-0.106c0.784-0.06,1.579-0.125,2.37-0.242
			c3.179-0.356,6.303-1.104,8.584-1.844C170.867,188.574,172.333,187.917,172.333,187.917z"/>
	</g>
	<g>
		<path fill="#363896" d="M180.948,187.35c0,0-0.331,0.225-0.937,0.584c-0.604,0.352-1.471,0.861-2.559,1.379
			c-2.157,1.062-5.154,2.254-8.264,3.066c-0.775,0.211-1.563,0.372-2.342,0.523c-0.771,0.173-1.546,0.267-2.287,0.379
			c-0.744,0.127-1.471,0.173-2.158,0.234c-0.687,0.073-1.338,0.108-1.939,0.108c-0.602,0.013-1.152,0.032-1.643,0.021
			c-0.486-0.029-0.914-0.053-1.264-0.072c-0.699-0.039-1.101-0.063-1.101-0.063s0.399,0.009,1.101,0.021
			c0.352,0.008,0.777,0.015,1.264,0.022c0.486-0.004,1.037-0.045,1.636-0.062c0.603-0.012,1.249-0.051,1.931-0.135
			c0.688-0.07,1.409-0.125,2.146-0.263c0.741-0.12,1.508-0.223,2.274-0.405c0.771-0.162,1.549-0.332,2.317-0.551
			c3.104-0.769,6.104-1.916,8.271-2.947C179.58,188.189,180.948,187.35,180.948,187.35z"/>
	</g>
	
		<linearGradient id="SVGID_12_" gradientUnits="userSpaceOnUse" x1="-40.1938" y1="828.7959" x2="-39.2109" y2="884.5792" gradientTransform="matrix(-1 0 0 1 132.1387 -639.9199)">
		<stop  offset="0" style="stop-color:#14103E"/>
		<stop  offset="0.2927" style="stop-color:#1C174D"/>
		<stop  offset="0.6904" style="stop-color:#24205C"/>
		<stop  offset="1" style="stop-color:#272361"/>
	</linearGradient>
	<path opacity="0.8" fill="url(#SVGID_12_)" enable-background="new    " d="M172.833,192.417c0,0-0.624,13.333-0.499,16.333
		s-1.51,8.133-2,10.75s-1.379,5.25-0.834,8.25s-0.563,8.938-0.563,8.938l-3.25,1.063l2.125,0.563l0.625,1.063l-4.063,1.25L168.5,241
		l-2.625,3.563l4.563-2.688c0,0,0.688-0.375,0.018-1.322c-0.236-0.332-1.244-1.49-1.244-1.49l1.729-0.813l-0.496-1.723l6.216-33.063
		l0.969-2.215l-0.021-2.831l1.146-1.669l-0.333-2.646l0.958-5.104L172.833,192.417z"/>
	
		<linearGradient id="SVGID_13_" gradientUnits="userSpaceOnUse" x1="533.0898" y1="831.9844" x2="534.0184" y2="884.6715" gradientTransform="matrix(1 0 0 1 -395.3203 -639.9199)">
		<stop  offset="0" style="stop-color:#010101"/>
		<stop  offset="0.1047" style="stop-color:#11101F"/>
		<stop  offset="0.2214" style="stop-color:#131138"/>
		<stop  offset="0.3513" style="stop-color:#1B154B"/>
		<stop  offset="0.4996" style="stop-color:#221D57"/>
		<stop  offset="0.6821" style="stop-color:#26225F"/>
		<stop  offset="1" style="stop-color:#272361"/>
	</linearGradient>
	<path opacity="0.8" fill="url(#SVGID_13_)" enable-background="new    " d="M136.75,192.083c0,0,1.042,14,0.917,17
		s1.51,9.967,2,12.584s1.378,6.166,0.833,9.166s2.406,6.167,2.406,6.167l3.927,2.083l-3.333,0.334l-1.625,1.458l4.625,1.375
		l-5,0.438l2.5,1.971l-3.904-0.639c0,0-2.272-2.102-2.09-2.467c0.182-0.365,1.244-1.49,1.244-1.49l-1.613-1.16l0.8-1.965
		l-8.813-39.688L136.75,192.083z"/>
	<path fill="#272361" stroke="#2C328C" stroke-width="0.75" stroke-miterlimit="10" d="M127.333,159.084
		c-0.643,0.775-3.692-0.188-6.583-2.584c-2.893-2.4-2.75-2.916-2.917-3.541s0.5-2.917,2.964-0.977
		C123.691,154.381,127.978,158.309,127.333,159.084z"/>
	
		<radialGradient id="SVGID_14_" cx="143.6182" cy="1158.8457" r="14.622" gradientTransform="matrix(-0.3067 0.9518 0.9518 0.3067 -878.3674 -317.5298)" gradientUnits="userSpaceOnUse">
		<stop  offset="0" style="stop-color:#FFE2A2"/>
		<stop  offset="0.472" style="stop-color:#FEC98B"/>
		<stop  offset="1" style="stop-color:#F9A86C"/>
	</radialGradient>
	<path fill="url(#SVGID_14_)" d="M180,156.167c0,0,2.625,9.208,4.375,11.646c-1.438,2.625-3.193,10.388-4.486,12.595
		c-0.634,1.081-1.004,2.071-2.018,2.358c-0.45,0.129-1.171-0.27-1.954-0.473c-0.868-0.225-1.7,0.171-2.292,0.125
		c-1.336-0.105-1.751,0.052-1.941,0.469c-0.234,0.508,0.227,0.692,1.066,1.094c0.441,0.209,1.583-0.021,2.208,0.104
		c0.383-0.016,0.231,0.708,0.209,0.833c-0.101,0.538-0.646,1.041-1.729,2.208c-1.061,1.145-3.145,2.008-2.604,2.688
		c0.396,0.521,1.848-0.183,2.771-0.771c1.039-0.663,2.271-1.563,2.271-1.563s-0.662,1.395-1.479,2.396
		c-1.104,1.354-1.771,2.958-0.791,3.188c0.23,0.055,2.02-2.149,2.459-2.707c0.942-1.198,1.356-2.078,1.356-2.078
		s-0.19,1.369-0.503,2.535c-0.37,1.383-0.729,2.418-0.084,2.729c0.445,0.144,0.82-0.903,1.229-2.271
		c0.241-0.811,0.563-1.935,0.729-2.438c0.046-0.138,0.22,0.642,0.416,1.688c0.203,1.088,0.125,2.438,0.584,2.438
		c0.42,0,0.433-1.434,0.364-2.791c-0.059-1.206-0.182-2.38-0.139-2.536c0.617-2.255,1.017-4.379,1.017-4.379
		s7.881-13.353,8.11-15.135c0.229-1.785-3.242-12.544-3.242-12.544"/>
	
		<radialGradient id="SVGID_15_" cx="442.7305" cy="124.5596" r="5.2053" gradientTransform="matrix(0.4007 0.9162 -0.9162 0.4007 52.94 -299.5745)" gradientUnits="userSpaceOnUse">
		<stop  offset="0" style="stop-color:#FFE2A2"/>
		<stop  offset="0.472" style="stop-color:#FEC98B"/>
		<stop  offset="1" style="stop-color:#F9A86C"/>
	</radialGradient>
	<path fill="url(#SVGID_15_)" d="M110.688,159.938c-0.408-1.75,9.063-8.938,9.063-8.938l3.189,3.709c0,0-6.564,3.416-7.689,5.104"/>
	<path fill="#4374BA" d="M123.75,147.625c-0.75,0.5-5.625,2.917-6.208,4.334c0,0,2.123-0.091,4.396,1.791
		c3.651,3.021,3.249,3.369,5.187,5.875c0,0,3.25-1.313,7.188-3.438c1.923-3.084,5.485-13.438,7.876-15.688
		c-1.137,0.192-2.147,0.232-4.105,0.813c-0.558,0.165-2.125,0.313-2.625,0.771c-0.237,0.217-1.006,0.463-1.5,0.625
		C129.667,144.118,127.375,145.25,123.75,147.625z"/>
	<path fill="#4374BA" d="M181.834,146c2.354,2.158,5.521,11.417,5.688,11.583c0,0-1.125-0.083-2.75-0.104
		c-2.205,0.314-4.063,0.584-7.146,1.521c0,0-2.194-11.849-6.5-17.75C175.552,141.25,179.294,143.672,181.834,146z"/>
	
		<radialGradient id="SVGID_16_" cx="988.7295" cy="32.312" r="21.7222" gradientTransform="matrix(0.0278 0.7485 -2.2353 0.0465 199.7015 -599.9217)" gradientUnits="userSpaceOnUse">
		<stop  offset="0" style="stop-color:#0E1239;stop-opacity:0.6"/>
		<stop  offset="1" style="stop-color:#0E1239;stop-opacity:0"/>
	</radialGradient>
	<path fill="url(#SVGID_16_)" d="M183.25,148c0,8.305-13.377,15.287-29.486,15.287c-16.109,0-28.514-5.732-28.514-14.037
		c0-3.954,4.675-5.246,8.625-6.625c7.875-2.75,11.928-2.504,22.063-2.375c9.103,0.115,8.475-0.482,16.813,1.167
		C179.917,142.833,183.25,147.651,183.25,148z"/>
	<path fill="#1C0F0D" d="M124.034,122.432c0,0-2.867,7.901-11.117,8.485c6.667-0.667,9.2-2.361,11.417-4.333L124.034,122.432z"/>
	<path fill="#1C0F0D" d="M185.301,127.016c0,0,2.867,7.901,11.117,8.485c-6.667-0.667-9.199-2.361-11.417-4.333L185.301,127.016z"/>
	<path fill="#1C0F0D" d="M197.154,120.297c0,0,0.594,8.385,8.367,11.206c-6.229-2.468-8.199-4.791-9.793-7.295L197.154,120.297z"/>
	<path fill="#1C0F0D" d="M178.419,127.59c0,0,1.507,8.27,9.544,10.223c-6.462-1.771-8.676-3.865-10.533-6.18L178.419,127.59z"/>
	<path fill="#1C0F0D" d="M188.766,126.654c0,0,3.121,7.806,11.385,8.124c-6.685-0.453-9.271-2.064-11.551-3.965L188.766,126.654z"/>
	<path fill="#1C0F0D" d="M198.958,122.25c0,0-3.583,9.5,3.229,10.063c-5.521,0.021-6.179-2.957-7.146-5.104L198.958,122.25z"/>
	<path fill="#1C0F0D" d="M203.458,111.346c0,0,0.317,10.148,6.829,8.065c-5.094,2.129-6.84-0.372-8.555-1.986L203.458,111.346z"/>
	<path fill="#412312" d="M204.691,107.556c0,0-3.441,10.569,5.482,9.035c-5.363,1.305-6.695-1.438-8.138-3.301L204.691,107.556z"/>
	
		<radialGradient id="SVGID_17_" cx="603.0117" cy="778.8633" r="14.3862" gradientTransform="matrix(0.8515 0 0 1 -357.4648 -639.9199)" gradientUnits="userSpaceOnUse">
		<stop  offset="0" style="stop-color:#FFE2A2"/>
		<stop  offset="0.472" style="stop-color:#FEC98B"/>
		<stop  offset="1" style="stop-color:#F9A86C"/>
	</radialGradient>
	<ellipse fill="url(#SVGID_17_)" stroke="#272361" stroke-miterlimit="10" cx="156" cy="138.943" rx="13" ry="13.447"/>
	
		<linearGradient id="SVGID_18_" gradientUnits="userSpaceOnUse" x1="622.2441" y1="781.2949" x2="619.7377" y2="810.6828" gradientTransform="matrix(0.8043 0 0 1 -344.5433 -639.9199)">
		<stop  offset="0" style="stop-color:#984A27"/>
		<stop  offset="0.4079" style="stop-color:#CE7043;stop-opacity:0.5921"/>
		<stop  offset="1" style="stop-color:#DB8B56;stop-opacity:0"/>
	</linearGradient>
	<path fill="url(#SVGID_18_)" d="M143.124,140.696c0,0,14.854-1.032,25.692,0.12c-1.065,5.559-6.346,11.059-11.94,11.059
		C151.875,151.875,146.429,150.886,143.124,140.696z"/>
	
		<radialGradient id="SVGID_19_" cx="6190.543" cy="1529.2949" r="44.7318" gradientTransform="matrix(0.0984 0 0 0.2157 -500.7135 -230.1067)" gradientUnits="userSpaceOnUse">
		<stop  offset="0" style="stop-color:#FFE2A2"/>
		<stop  offset="0.472" style="stop-color:#FEC98B"/>
		<stop  offset="1" style="stop-color:#F9A86C"/>
	</radialGradient>
	<ellipse fill="url(#SVGID_19_)" stroke="#8D633A" stroke-miterlimit="10" cx="108.436" cy="99.762" rx="4.672" ry="9.017"/>
	
		<radialGradient id="SVGID_20_" cx="553.1279" cy="736.3174" r="51.527" gradientTransform="matrix(1 0 0 1 -395.3203 -639.9199)" gradientUnits="userSpaceOnUse">
		<stop  offset="0" style="stop-color:#FFE2A2"/>
		<stop  offset="0.2903" style="stop-color:#FBB272"/>
		<stop  offset="0.7796" style="stop-color:#F89F5E"/>
		<stop  offset="0.9785" style="stop-color:#BF6F45"/>
	</radialGradient>
	<ellipse fill="url(#SVGID_20_)" cx="156.141" cy="101.565" rx="47.459" ry="41.804"/>
	
		<linearGradient id="SVGID_21_" gradientUnits="userSpaceOnUse" x1="500.4189" y1="747.4473" x2="502.5859" y2="739.7805" gradientTransform="matrix(1 0 0 1 -395.3203 -639.9199)">
		<stop  offset="0" style="stop-color:#C76138"/>
		<stop  offset="0.4079" style="stop-color:#CE7043;stop-opacity:0.5921"/>
		<stop  offset="1" style="stop-color:#DB8B56;stop-opacity:0"/>
	</linearGradient>
	<path fill="url(#SVGID_21_)" d="M104.333,97.167c0,0,2.333,4.333,4.167,2s-0.063,9.612-0.063,9.612s-3.937-0.445-4.103-5.112
		S104.333,97.167,104.333,97.167z"/>
	
		<radialGradient id="SVGID_22_" cx="7160.1563" cy="1556.6523" r="44.7306" gradientTransform="matrix(0.0984 0 0 0.2157 -500.7135 -230.1067)" gradientUnits="userSpaceOnUse">
		<stop  offset="0" style="stop-color:#FFE2A2"/>
		<stop  offset="0.472" style="stop-color:#FEC98B"/>
		<stop  offset="1" style="stop-color:#F9A86C"/>
	</radialGradient>
	<ellipse fill="url(#SVGID_22_)" stroke="#8D633A" stroke-miterlimit="10" cx="203.846" cy="105.663" rx="4.672" ry="9.017"/>
	<g>
		
			<linearGradient id="SVGID_23_" gradientUnits="userSpaceOnUse" x1="506.0576" y1="750.2676" x2="529.6642" y2="753.2185" gradientTransform="matrix(1 0 0 1 -395.3203 -639.9199)">
			<stop  offset="0" style="stop-color:#C76138"/>
			<stop  offset="0.4079" style="stop-color:#CE7043;stop-opacity:0.5921"/>
			<stop  offset="1" style="stop-color:#DB8B56;stop-opacity:0"/>
		</linearGradient>
		<path fill="url(#SVGID_23_)" d="M140.649,141.075c0,0-16.721-5.083-21.803-13.935c-25.574-25.409,16.561-40.696,16.561-40.696
			S98.19,123.37,140.649,141.075z"/>
	</g>
	<g>
		
			<linearGradient id="SVGID_24_" gradientUnits="userSpaceOnUse" x1="-588.7622" y1="752.0361" x2="-564.9572" y2="755.0118" gradientTransform="matrix(-1 0 0 1 -387.8613 -639.9199)">
			<stop  offset="0" style="stop-color:#C76138"/>
			<stop  offset="0.4079" style="stop-color:#CE7043;stop-opacity:0.5921"/>
			<stop  offset="1" style="stop-color:#DB8B56;stop-opacity:0"/>
		</linearGradient>
		<path fill="url(#SVGID_24_)" d="M170.607,142.059c0,0,16.722-5.082,21.805-13.935c27.088-27.958-19.305-38.689-19.305-38.689
			S213.066,124.354,170.607,142.059z"/>
	</g>
	
		<linearGradient id="SVGID_25_" gradientUnits="userSpaceOnUse" x1="6.7793" y1="753.4463" x2="8.9458" y2="745.7813" gradientTransform="matrix(-1 0 0 1 213.2383 -639.9199)">
		<stop  offset="0" style="stop-color:#C76138"/>
		<stop  offset="0.4079" style="stop-color:#CE7043;stop-opacity:0.5921"/>
		<stop  offset="1" style="stop-color:#DB8B56;stop-opacity:0"/>
	</linearGradient>
	<path fill="url(#SVGID_25_)" d="M207.225,103.167c0,0-2.332,4.333-4.166,2s0.063,9.612,0.063,9.612s3.937-0.445,4.103-5.112
		C207.393,105,207.225,103.167,207.225,103.167z"/>
	<g opacity="0.5" enable-background="new    ">
		
			<radialGradient id="SVGID_26_" cx="300.6191" cy="-67.5068" r="23.7302" gradientTransform="matrix(1 0 0 -1 -147.6602 30.04)" gradientUnits="userSpaceOnUse">
			<stop  offset="0" style="stop-color:#B53D24;stop-opacity:0.8"/>
			<stop  offset="1" style="stop-color:#ED2224;stop-opacity:0"/>
		</radialGradient>
		<path fill="url(#SVGID_26_)" d="M124,112.5c0,0,7.813-18.188,18.563-23.563c-0.5,1.25-1.063,6.375-1.063,6.375
			s0.875-5.688,4.188-7.688c-1.063,2-1.125,3.75-1.375,6c-0.048,0.429,2.438-5.625,4.813-6.063c0.497-0.092,0.86-0.485,0.563-0.188
			c-1.063,1.063-2.774,4.167-2.5,3.875c3.688-3.938,9.75-3.875,11.688-3.75c1.188,0.077,6.063,1.313,9.313,3
			c3.188,1.438,8.131,4.038,9.5,5c5.875,4.125,1.901-2.95,5.313-1.875c0,0-4.625-14.875-40.383-10.076
			C134.578,84.628,118.625,95.875,124,112.5z"/>
	</g>
	
		<radialGradient id="SVGID_27_" cx="542.0332" cy="748.3945" r="8.1949" gradientTransform="matrix(1 0 0 1 -395.3203 -639.9199)" gradientUnits="userSpaceOnUse">
		<stop  offset="0.2581" style="stop-color:#FFFFFF"/>
		<stop  offset="1" style="stop-color:#D0D1D1"/>
	</radialGradient>
	<path fill="url(#SVGID_27_)" d="M155.083,111.288c-0.995,4.792-5.201,5.5-10.035,4.744c-3.661-0.573-7.268-3.564-6.858-7.827
		c2.505-4.311,5.224-8.388,10.015-7.395C152.996,101.806,156.076,106.496,155.083,111.288z"/>
	<path fill="#272361" d="M147.5,205.167l3.375,30.583c0,0-1.75,2.125-2.125,2.125s4.625-0.125,4.625-0.125l-2.25,2.75l2.375-0.375
		l-2,4.375l3-1.625l4.75,1.875l-2.5-3.75l4-1.25l-2.125-2L159.75,205L147.5,205.167z"/>
	
		<radialGradient id="SVGID_28_" cx="564.6563" cy="748.3945" r="8.1944" gradientTransform="matrix(1 0 0 1 -395.3203 -639.9199)" gradientUnits="userSpaceOnUse">
		<stop  offset="0.2581" style="stop-color:#FFFFFF"/>
		<stop  offset="1" style="stop-color:#D0D1D1"/>
	</radialGradient>
	<path fill="url(#SVGID_28_)" d="M160.967,111.288c0.995,4.792,5.202,5.5,10.036,4.744c3.661-0.573,7.269-3.564,6.856-7.827
		c-2.504-4.311-5.225-8.388-10.017-7.395C163.055,101.806,159.975,106.496,160.967,111.288z"/>
	<g>
		<g id="coin_6_">
			<path fill="#FBB03C" stroke="#F79421" stroke-miterlimit="10" d="M112.373,258.914c-0.124,1.307-3.35,2.066-7.203,1.697
				c-3.854-0.368-6.877-1.728-6.752-3.031c0.125-1.305-0.999-3.467,7.285-2.756C113.62,255.504,112.497,257.609,112.373,258.914z"/>
			
				<ellipse transform="matrix(-0.9955 -0.0952 0.0952 -0.9955 186.2904 521.4097)" fill="#FFCA57" stroke="#F79421" stroke-miterlimit="10" cx="105.585" cy="256.26" rx="7.01" ry="2.375"/>
		</g>
		<g id="coin_5_">
			<path fill="#FBB03C" stroke="#F79421" stroke-miterlimit="10" d="M118.522,260.08c0.032,1.313-3.08,2.449-6.95,2.543
				c-3.871,0.094-7.034-0.895-7.065-2.205c-0.032-1.311-1.405-3.322,6.905-3.604C119.354,256.545,118.49,258.77,118.522,260.08z"/>
			
				<ellipse transform="matrix(-0.9997 0.0241 -0.0241 -0.9997 229.1048 513.7134)" fill="#FFCA57" stroke="#F79421" stroke-miterlimit="10" cx="111.457" cy="258.237" rx="7.01" ry="2.376"/>
		</g>
		<g id="coin_4_">
			<path fill="#FBB03C" stroke="#F79421" stroke-miterlimit="10" d="M139.522,259.08c0.032,1.313-3.08,2.449-6.95,2.543
				c-3.871,0.094-7.034-0.895-7.065-2.205c-0.032-1.311-1.405-3.322,6.905-3.604C140.354,255.545,139.49,257.77,139.522,259.08z"/>
			
				<ellipse transform="matrix(-0.9997 0.0241 -0.0241 -0.9997 271.0726 511.2077)" fill="#FFCA57" stroke="#F79421" stroke-miterlimit="10" cx="132.456" cy="257.237" rx="7.01" ry="2.375"/>
		</g>
		<g id="coin_3_">
			<path fill="#FBB03C" stroke="#F79421" stroke-miterlimit="10" d="M126.589,257.411c0,1.36-3.158,2.464-7.054,2.464
				s-7.054-1.104-7.054-2.464c0-1.359-1.333-3.479,7.034-3.563C127.513,253.768,126.589,256.052,126.589,257.411z"/>
			<ellipse fill="#FFCA57" stroke="#F79421" stroke-miterlimit="10" cx="119.535" cy="255.338" rx="7.054" ry="2.463"/>
		</g>
		<g id="coin">
			<path fill="#FBB03C" stroke="#F79421" stroke-miterlimit="10" d="M119.434,251.863c0.435,1.238-2.174,3.281-5.827,4.563
				c-3.653,1.283-6.966,1.319-7.4,0.082c-0.435-1.238-2.362-2.729,5.456-5.56C119.135,248.243,119,250.626,119.434,251.863z"/>
			
				<ellipse transform="matrix(-0.9435 0.3313 -0.3313 -0.9435 301.5321 453.1764)" fill="#FFCA57" stroke="#F79421" stroke-miterlimit="10" cx="112.143" cy="252.287" rx="7.01" ry="2.374"/>
		</g>
		<g id="coin_1_">
			<path fill="#FBB03C" stroke="#F79421" stroke-miterlimit="10" d="M132.5,253.25c0,1.313-3.138,2.375-7.01,2.375
				c-3.872,0-7.01-1.063-7.01-2.375s-1.324-3.355,6.99-3.438C133.417,249.734,132.5,251.938,132.5,253.25z"/>
			<ellipse fill="#FFCA57" stroke="#F79421" stroke-miterlimit="10" cx="125.49" cy="251.25" rx="7.01" ry="2.375"/>
		</g>
		<g id="coin_2_">
			<path fill="#FBB03C" stroke="#F79421" stroke-miterlimit="10" d="M125.5,249.25c0,1.313-3.138,2.375-7.01,2.375
				c-3.872,0-7.01-1.063-7.01-2.375s-1.324-3.355,6.99-3.438C126.417,245.734,125.5,247.938,125.5,249.25z"/>
			<ellipse fill="#FFCA57" stroke="#F79421" stroke-miterlimit="10" cx="118.49" cy="247.25" rx="7.01" ry="2.375"/>
		</g>
		<g id="coin_8_">
			<path fill="#FBB03C" stroke="#F79421" stroke-miterlimit="10" d="M129.522,262.08c0.032,1.313-3.08,2.449-6.95,2.543
				c-3.871,0.094-7.034-0.895-7.065-2.205c-0.032-1.311-1.405-3.322,6.905-3.604C130.354,258.545,129.49,260.77,129.522,262.08z"/>
			
				<ellipse transform="matrix(-0.9997 0.0241 -0.0241 -0.9997 251.1486 517.4476)" fill="#FFCA57" stroke="#F79421" stroke-miterlimit="10" cx="122.456" cy="260.237" rx="7.01" ry="2.376"/>
		</g>
		<g id="coin_9_">
			<path fill="#FBB03C" stroke="#F79421" stroke-miterlimit="10" d="M106.522,267.08c0.032,1.313-3.08,2.449-6.95,2.543
				c-3.871,0.094-7.034-0.895-7.065-2.205c-0.032-1.311-1.405-3.322,6.905-3.604C107.354,263.545,106.49,265.77,106.522,267.08z"/>
			
				<ellipse transform="matrix(-0.9997 0.0242 -0.0242 -0.9997 205.3172 527.9838)" fill="#FFCA57" stroke="#F79421" stroke-miterlimit="10" cx="99.458" cy="265.236" rx="7.01" ry="2.376"/>
		</g>
		<g id="coin_10_">
			<path fill="#FBB03C" stroke="#F79421" stroke-miterlimit="10" d="M101.471,263.064c0.399,1.25-2.268,3.218-5.956,4.394
				c-3.688,1.179-7.001,1.118-7.4-0.132c-0.398-1.249-2.282-2.795,5.614-5.398C101.277,259.438,101.073,261.816,101.471,263.064z"/>
			
				<ellipse transform="matrix(-0.9527 0.304 -0.304 -0.9527 263.9645 485.4897)" fill="#FFCA57" stroke="#F79421" stroke-miterlimit="10" cx="94.195" cy="263.29" rx="7.01" ry="2.374"/>
		</g>
		<g id="coin_11_">
			<path fill="#FBB03C" stroke="#F79421" stroke-miterlimit="10" d="M145.522,266.08c0.032,1.313-3.08,2.449-6.95,2.543
				c-3.871,0.094-7.034-0.895-7.065-2.205c-0.032-1.311-1.405-3.322,6.905-3.604C146.354,262.545,145.49,264.77,145.522,266.08z"/>
			
				<ellipse transform="matrix(-0.9997 0.0242 -0.0242 -0.9997 283.2585 525.0498)" fill="#FFCA57" stroke="#F79421" stroke-miterlimit="10" cx="138.456" cy="264.237" rx="7.01" ry="2.375"/>
		</g>
	</g>
	
		<radialGradient id="SVGID_29_" cx="301.4424" cy="1146.3164" r="12.1551" gradientTransform="matrix(0.9671 -0.2544 0.1743 0.6625 -314.7953 -559.5917)" gradientUnits="userSpaceOnUse">
		<stop  offset="0" style="stop-color:#ED2224;stop-opacity:0.7"/>
		<stop  offset="1" style="stop-color:#ED2224;stop-opacity:0"/>
	</radialGradient>
	<path opacity="0.5" fill="url(#SVGID_29_)" enable-background="new    " d="M189.545,119.733
		c1.43,5.436-3.236,11.374-10.422,13.266c-7.188,1.89-14.17-0.985-15.602-6.42c-1.432-5.433,3.234-11.376,10.42-13.266
		C181.13,111.421,188.113,114.296,189.545,119.733z"/>
	
		<radialGradient id="SVGID_30_" cx="498.9531" cy="970.6543" r="12.1609" gradientTransform="matrix(0.9848 0.1738 -0.119 0.6746 -241.3286 -619.3667)" gradientUnits="userSpaceOnUse">
		<stop  offset="0" style="stop-color:#ED2224;stop-opacity:0.7"/>
		<stop  offset="1" style="stop-color:#ED2224;stop-opacity:0"/>
	</radialGradient>
	<path opacity="0.5" fill="url(#SVGID_30_)" enable-background="new    " d="M147.782,124.494c-0.977,5.535-7.7,8.975-15.019,7.685
		c-7.317-1.292-12.456-6.827-11.479-12.361c0.975-5.533,7.7-8.977,15.016-7.686C143.619,113.423,148.759,118.957,147.782,124.494z"
		/>
	
		<radialGradient id="SVGID_31_" cx="582.0615" cy="752.0615" r="4.8615" gradientTransform="matrix(1.1035 0 0 1 -475.5645 -639.9199)" gradientUnits="userSpaceOnUse">
		<stop  offset="0" style="stop-color:#2E368F"/>
		<stop  offset="0.1274" style="stop-color:#2E3288"/>
		<stop  offset="0.3195" style="stop-color:#2D2E74"/>
		<stop  offset="0.5525" style="stop-color:#211F53"/>
		<stop  offset="0.815" style="stop-color:#121326"/>
		<stop  offset="1" style="stop-color:#010101"/>
	</radialGradient>
	<path fill="url(#SVGID_31_)" d="M162.982,112.141c0,2.187,1.683,3.962,3.752,3.962c2.082,0,3.766-1.775,3.766-3.962
		c0-2.188-1.684-3.961-3.766-3.961C164.665,108.18,162.982,109.953,162.982,112.141z"/>
	
		<radialGradient id="SVGID_32_" cx="564.8438" cy="752.0615" r="4.862" gradientTransform="matrix(1.1035 0 0 1 -475.5645 -639.9199)" gradientUnits="userSpaceOnUse">
		<stop  offset="0" style="stop-color:#2E368F"/>
		<stop  offset="0.1274" style="stop-color:#2E3288"/>
		<stop  offset="0.3195" style="stop-color:#2D2E74"/>
		<stop  offset="0.5525" style="stop-color:#211F53"/>
		<stop  offset="0.815" style="stop-color:#121326"/>
		<stop  offset="1" style="stop-color:#010101"/>
	</radialGradient>
	<path fill="url(#SVGID_32_)" d="M143.982,112.141c0,2.187,1.683,3.962,3.753,3.962c2.081,0,3.765-1.775,3.765-3.962
		c0-2.188-1.684-3.961-3.765-3.961C145.665,108.18,143.982,109.953,143.982,112.141z"/>
	<path fill="#010101" d="M163.982,112.953c0,1.531,1.065,2.774,2.381,2.774c1.32,0,2.39-1.243,2.39-2.774
		c0-1.531-1.067-2.773-2.39-2.773C165.05,110.18,163.982,111.422,163.982,112.953z"/>
	<path fill="#010101" d="M144.982,112.953c0,1.531,1.067,2.774,2.382,2.774c1.32,0,2.389-1.243,2.389-2.774
		c0-1.531-1.068-2.773-2.389-2.773C146.05,110.18,144.982,111.422,144.982,112.953z"/>
	<circle fill="#FFFFFF" cx="146.42" cy="108.688" r="1.438"/>
	<circle fill="#FFFFFF" cx="168.42" cy="108.688" r="1.438"/>
	<g>
		<path fill="#412312" d="M160.834,110c0,0-0.021-0.408,0.047-1.119c0.02-0.357,0.094-0.785,0.169-1.278
			c0.104-0.488,0.212-1.044,0.437-1.622c0.091-0.296,0.205-0.597,0.361-0.893c0.158-0.293,0.264-0.631,0.48-0.917
			c0.208-0.301,0.388-0.59,0.638-0.923c0.263-0.257,0.53-0.519,0.804-0.785c0.619-0.481,1.336-0.926,2.094-1.223
			c0.759-0.313,1.566-0.523,2.389-0.66c0.831-0.081,1.646-0.194,2.52,0.042c0.76,0.226,1.549,0.534,2.183,0.994
			c0.327,0.217,0.646,0.434,0.905,0.707c0.265,0.264,0.561,0.487,0.779,0.767c0.438,0.555,0.912,1.034,1.225,1.566
			c0.338,0.513,0.654,0.979,0.9,1.411c0.227,0.442,0.426,0.828,0.588,1.145c0.325,0.633,0.512,0.995,0.512,0.995
			s-0.213-0.347-0.584-0.954c-0.188-0.303-0.411-0.67-0.67-1.092c-0.276-0.408-0.625-0.844-0.975-1.339
			c-0.326-0.512-0.813-0.959-1.263-1.481c-0.226-0.264-0.519-0.464-0.782-0.708c-0.263-0.248-0.563-0.456-0.874-0.654
			c-0.61-0.429-1.315-0.693-2.089-0.914c-0.689-0.184-1.531-0.083-2.305,0.009c-0.783,0.12-1.563,0.309-2.285,0.597
			c-0.739,0.283-1.374,0.666-1.967,1.103c-0.277,0.261-0.553,0.517-0.819,0.767c-0.21,0.281-0.415,0.556-0.614,0.824
			c-0.221,0.264-0.334,0.586-0.498,0.863c-0.164,0.28-0.289,0.566-0.39,0.852c-0.233,0.555-0.381,1.09-0.521,1.562
			c-0.109,0.479-0.218,0.898-0.263,1.25C160.843,109.591,160.834,110,160.834,110z"/>
	</g>
	<g>
		<path fill="#412312" d="M154.859,110c0,0-0.008-0.409-0.129-1.109c-0.045-0.352-0.151-0.771-0.264-1.25
			c-0.141-0.472-0.285-1.007-0.521-1.562c-0.1-0.285-0.225-0.572-0.389-0.852c-0.166-0.277-0.279-0.599-0.5-0.863
			c-0.199-0.268-0.404-0.542-0.613-0.824c-0.269-0.25-0.541-0.506-0.819-0.767c-0.592-0.438-1.227-0.82-1.966-1.103
			c-0.724-0.288-1.501-0.478-2.286-0.597c-0.771-0.092-1.613-0.193-2.304-0.009c-0.773,0.22-1.477,0.484-2.088,0.914
			c-0.313,0.198-0.612,0.406-0.875,0.654c-0.264,0.243-0.559,0.444-0.782,0.708c-0.449,0.522-0.934,0.969-1.263,1.481
			c-0.347,0.496-0.695,0.931-0.973,1.339c-0.259,0.421-0.484,0.789-0.669,1.092c-0.372,0.607-0.585,0.954-0.585,0.954
			s0.186-0.362,0.512-0.995c0.163-0.317,0.361-0.703,0.589-1.145c0.246-0.432,0.563-0.898,0.9-1.411
			c0.312-0.532,0.786-1.011,1.226-1.566c0.218-0.28,0.515-0.503,0.779-0.767c0.26-0.273,0.579-0.489,0.906-0.707
			c0.632-0.459,1.421-0.768,2.182-0.994c0.871-0.236,1.687-0.123,2.519-0.042c0.82,0.137,1.629,0.346,2.387,0.66
			c0.757,0.297,1.476,0.742,2.094,1.223c0.272,0.267,0.54,0.528,0.804,0.785c0.25,0.333,0.431,0.622,0.639,0.923
			c0.218,0.286,0.322,0.624,0.48,0.917c0.155,0.296,0.271,0.597,0.36,0.893c0.226,0.578,0.33,1.134,0.437,1.622
			c0.076,0.493,0.148,0.921,0.17,1.278C154.882,109.592,154.859,110,154.859,110z"/>
	</g>
	<line fill="none" stroke="#282C74" stroke-miterlimit="10" x1="147.5" y1="205.167" x2="161" y2="204.833"/>
	
		<linearGradient id="SVGID_33_" gradientUnits="userSpaceOnUse" x1="548.3203" y1="845.0449" x2="548.3203" y2="845.0449" gradientTransform="matrix(1 0 0 1 -395.3203 -639.9199)">
		<stop  offset="0" style="stop-color:#C76138"/>
		<stop  offset="0.4079" style="stop-color:#CE7043;stop-opacity:0.5921"/>
		<stop  offset="1" style="stop-color:#DB8B56;stop-opacity:0"/>
	</linearGradient>
	<path fill="url(#SVGID_33_)" d="M153,205.125"/>
	<g>
		<path fill="#262262" d="M174.916,151.188c0.414,0.42,0.839,0.832,1.241,1.262l0.013,0.015l0.006,0.021
			c0.313,1.306,0.594,2.615,0.854,3.931c0.268,1.313,0.504,2.633,0.699,3.961c-0.346-1.297-0.649-2.603-0.929-3.914
			c-0.282-1.31-0.545-2.623-0.774-3.944l0.021,0.037C175.656,152.105,175.291,151.643,174.916,151.188z"/>
	</g>
	<g>
		<path fill="#363896" d="M132.625,150.25c-0.036,0.814,0.375,2.193,0.375,3.006v0.006l-0.089,0.01
			c-0.334,1.291-0.744,2.57-1.13,3.847c-0.381,1.274-0.811,2.544-1.259,3.801c0.303-1.299,0.633-2.587,1.002-3.866
			c0.364-1.279,0.743-2.557,1.158-3.82l0.039,0.016C132.793,152.432,132.537,151.061,132.625,150.25z"/>
	</g>
	<g>
		<path fill="#262262" d="M176.432,150.813c0,0,0.021,0.149,0.031,0.373c0.014,0.223-0.006,0.516-0.025,0.809
			c-0.039,0.291-0.08,0.582-0.137,0.797s-0.107,0.357-0.107,0.357s-0.021-0.148-0.032-0.371c-0.011-0.225,0.008-0.518,0.028-0.811
			c0.037-0.291,0.08-0.582,0.136-0.797C176.381,150.954,176.432,150.813,176.432,150.813z"/>
	</g>
	<g>
		<path fill="#363896" d="M168.75,169.5c0,0-0.198,0.324-0.593,0.859c-0.399,0.529-0.97,1.293-1.757,2.119
			c-0.771,0.842-1.737,1.758-2.83,2.676c-0.557,0.443-1.119,0.923-1.741,1.343c-0.601,0.448-1.238,0.862-1.894,1.256
			c-0.641,0.414-1.332,0.735-1.994,1.085c-0.655,0.365-1.358,0.604-2.008,0.9c-0.646,0.303-1.32,0.472-1.934,0.697
			c-0.611,0.229-1.217,0.369-1.771,0.508c-0.555,0.132-1.056,0.283-1.516,0.347c-0.458,0.069-0.857,0.13-1.186,0.18
			c-0.656,0.099-1.031,0.155-1.031,0.155s0.373-0.07,1.024-0.197c0.326-0.063,0.721-0.139,1.173-0.226
			c0.455-0.082,0.949-0.255,1.5-0.39c0.55-0.146,1.146-0.291,1.754-0.528c0.604-0.233,1.271-0.41,1.912-0.72
			c0.641-0.306,1.334-0.551,1.979-0.922c0.654-0.355,1.335-0.688,1.967-1.104c0.652-0.38,1.291-0.783,1.896-1.222
			c0.623-0.407,1.188-0.875,1.749-1.31c1.097-0.896,2.072-1.796,2.852-2.623C167.893,170.76,168.75,169.5,168.75,169.5z"/>
	</g>
	<path fill="#24120B" d="M129.122,96.13c0,0-6.354,4.653-6.536,12.862c-0.517-3.862,2.446-11.086,4.986-13.491L129.122,96.13z"/>
	<path fill="#412312" d="M148.833,82.833c0,0-7.514,4.875-7.227,13.081c-0.737-3.826,1.809-11.208,4.208-13.754L148.833,82.833z"/>
	<path fill="#412312" d="M159.132,82.835c0,0-8.871,1.244-12.078,8.803c0.949-3.779,6.375-9.394,9.625-10.688L159.132,82.835z"/>
	<path fill="#412312" d="M177.208,66.646c0,0-0.585-6.996-6.358-9.836c2.916,0.908,7.071,5.4,7.941,8L177.208,66.646z"/>
	<path fill="#412312" d="M174.009,67.951c0,0,3.15-6.273,9.566-6.757c-3.043-0.244-8.574,2.376-10.351,4.463L174.009,67.951z"/>
	<line fill="none" stroke="#000000" stroke-miterlimit="10" x1="133.625" y1="109.125" x2="114.75" y2="100.125"/>
	<line fill="none" stroke="#000000" stroke-miterlimit="10" x1="181.875" y1="109.625" x2="200.75" y2="100.625"/>
	<path fill="#412312" d="M178.145,91.167c0,0,7.515,4.875,7.228,13.081c0.735-3.826-1.81-11.208-4.208-13.754L178.145,91.167z"/>
	<path fill="#2C1812" d="M194.971,104.934c0,0,4.946,7.483,2.946,14.733c1.333-4.25,1.388-10.982,0.104-14.237L194.971,104.934z"/>
	<path fill="#412312" d="M188.417,100c0,0,5.638,8.251,2.322,15.763c2.104-3.279,2.481-11.079,1.2-14.333L188.417,100z"/>
	
		<radialGradient id="SVGID_34_" cx="329.1602" cy="-44.96" r="35.7701" gradientTransform="matrix(1 0 0 -1 -147.6602 30.04)" gradientUnits="userSpaceOnUse">
		<stop  offset="0" style="stop-color:#754C29"/>
		<stop  offset="0.0106" style="stop-color:#734B28"/>
		<stop  offset="0.1222" style="stop-color:#5E3D22"/>
		<stop  offset="0.239" style="stop-color:#4F321D"/>
		<stop  offset="0.3619" style="stop-color:#442A19"/>
		<stop  offset="0.4948" style="stop-color:#3E2516"/>
		<stop  offset="0.6559" style="stop-color:#3C2415"/>
		<stop  offset="0.7928" style="stop-color:#3A2213"/>
		<stop  offset="0.8948" style="stop-color:#351E0E"/>
		<stop  offset="0.9854" style="stop-color:#2C1503"/>
		<stop  offset="0.9946" style="stop-color:#2A1402"/>
	</radialGradient>
	<path fill="url(#SVGID_34_)" d="M177.773,63.242c4.311-1.39,10.453,1.45,14.516,4.882c7.557,6.386,9.294,12.959,13.128,17.376
		c-5-4.917-7.229-3.813-7.229-3.813s10.942,7.661,10.213,26.982c-0.922-3.167-2.463-4.323-5.076-7.799
		c1.436,10.634-0.639,22.004-2.52,24.786c-0.373-4.517-2.576-14.761-2.922-18.946c-1.195,2.447-3.716,5.789-5.216,11.789
		c2.083-8.917-1.733-16.232-3.167-17.75c-0.635,2.4,1.584,6.583,0.818,9.543c-0.491-4.839-5.395-16.15-12.562-19.2
		c-1.344-0.572-2.724-1.05-4.126-1.453C170.188,88.653,159.59,69.106,177.773,63.242z"/>
	<path fill="#2C1812" d="M193.471,106.767c0,0,5.166,7.317,1.853,14.83c2.104-3.279,2.481-11.079,1.2-14.333L193.471,106.767z"/>
	<path fill="#412312" d="M146.667,83.25c0,0-7.252,3.048-8.792,11.114c0.13-3.896,4.249-10.528,7.152-12.479L146.667,83.25z"/>
	<path fill="#24120B" d="M128.33,96.848c0,0-7.039,3.532-8.584,11.596c0.133-3.895,2.766-10.662,5.671-12.61L128.33,96.848z"/>
	<path fill="#24120B" d="M124.667,98.667c0,0-8.583,6.75-5.6,14.039c-2.483-6.789,0.583-10.622,2.183-13.122L124.667,98.667z"/>
	<path fill="#24120B" d="M117.167,105.417c0,0-8.583,6.75-5.6,14.039c-2.483-6.789,0.583-10.622,2.183-13.122L117.167,105.417z"/>
	<path fill="#24120B" d="M114.205,107.067c0,0-6.946,8.275-1.913,14.125c-3.314-2.275-3.349-9.646-0.923-13.333L114.205,107.067z"/>
	<path fill="#412312" d="M122.379,72.154c0,0-5.718-1.744-13.704,7.526c2.756-4.549,9.03-9.714,12.533-9.632L122.379,72.154z"/>
	<path fill="#412312" d="M194.668,83.307c0,0,4.457,3.818,13.52,6.881c-5.125-2.75-5.942-9.168-9.438-9.438L194.668,83.307z"/>
	<path fill="#412312" d="M199.007,87.056c0,0,5.951,0.567,9.802,12.18c-0.814-5.256-4.646-12.423-7.916-13.681L199.007,87.056z"/>
	
		<radialGradient id="SVGID_35_" cx="256.5322" cy="-65.4419" r="5.7427" gradientTransform="matrix(1 0 0 -1 -147.6602 30.04)" gradientUnits="userSpaceOnUse">
		<stop  offset="0" style="stop-color:#754C29"/>
		<stop  offset="0.0106" style="stop-color:#734B28"/>
		<stop  offset="0.1222" style="stop-color:#5E3D22"/>
		<stop  offset="0.239" style="stop-color:#4F321D"/>
		<stop  offset="0.3619" style="stop-color:#442A19"/>
		<stop  offset="0.4948" style="stop-color:#3E2516"/>
		<stop  offset="0.6559" style="stop-color:#3C2415"/>
		<stop  offset="0.7928" style="stop-color:#3A2213"/>
		<stop  offset="0.8948" style="stop-color:#351E0E"/>
		<stop  offset="0.9854" style="stop-color:#2C1503"/>
		<stop  offset="0.9946" style="stop-color:#2A1402"/>
	</radialGradient>
	<path fill="url(#SVGID_35_)" d="M112.837,89.097c0,0-5.806,1.424-7.93,13.473c0.782-5.771,2.843-12.456,5.896-14.176
		L112.837,89.097z"/>
	
		<radialGradient id="SVGID_36_" cx="306.0352" cy="-36.335" r="48.8852" gradientTransform="matrix(1 0 0 -1 -147.6602 30.04)" gradientUnits="userSpaceOnUse">
		<stop  offset="0" style="stop-color:#754C29"/>
		<stop  offset="0.0106" style="stop-color:#734B28"/>
		<stop  offset="0.1222" style="stop-color:#5E3D22"/>
		<stop  offset="0.239" style="stop-color:#4F321D"/>
		<stop  offset="0.3619" style="stop-color:#442A19"/>
		<stop  offset="0.4948" style="stop-color:#3E2516"/>
		<stop  offset="0.6559" style="stop-color:#3C2415"/>
		<stop  offset="0.7928" style="stop-color:#3A2213"/>
		<stop  offset="0.8948" style="stop-color:#351E0E"/>
		<stop  offset="0.9854" style="stop-color:#2C1503"/>
		<stop  offset="0.9946" style="stop-color:#2A1402"/>
	</radialGradient>
	<path fill="url(#SVGID_36_)" d="M177.535,63.574c0,0-12.617-18.406-50.118-0.824c-8.957,4.199-10.333,6.833-14.25,9.333
		c7.25-3.333,7.25-3,7.25-3s-10.863,6.932-15.594,21.08c-0.729,2.18-0.906,6.17-3.323,7.42c3.25-1.583,4.845-4.133,8.042-7.083
		c-4.958,9.833-2.875,29.167-1.967,33.688c-1.492-10.271,5.18-13.076,6.271-17.131c0.738,2.622,1.476,6.558,2.869,9.59
		c-3.215-12.897,8.687-17.993,10.369-19.23c0.195,2.475-0.417,4.417-2.25,8.083c4.583-5.75,5.083-10.667,12.917-16.25
		c3.375-2.5,9.337-5.608,9.046-5.389c-1.967,1.475-2.462,8.621-2.462,9.973c1.5-9,9.708-9.75,15.542-10.583
		s13.725,6.513,13.725,6.513L177.535,63.574z"/>
	<g>
		<path fill="#2B3990" d="M132.75,146.333c0,0,0.363,0.613,0.65,1.64c0.139,0.512,0.273,1.122,0.325,1.787
			c0.034,0.332,0.046,0.675,0.041,1.026c0.015,0.351-0.031,0.704-0.05,1.06c-0.034,0.354-0.11,0.702-0.162,1.049
			c-0.084,0.338-0.167,0.672-0.247,0.996c-0.098,0.317-0.215,0.617-0.317,0.904c-0.098,0.288-0.241,0.541-0.346,0.784
			c-0.206,0.489-0.462,0.854-0.614,1.123c-0.158,0.264-0.249,0.415-0.249,0.415s0.077-0.158,0.212-0.436
			c0.133-0.279,0.338-0.666,0.522-1.16c0.092-0.246,0.221-0.5,0.303-0.791c0.089-0.285,0.183-0.588,0.28-0.899
			c0.074-0.317,0.15-0.647,0.227-0.981c0.045-0.341,0.113-0.684,0.142-1.029c0.024-0.348,0.075-0.692,0.066-1.036
			c0.011-0.343,0.004-0.68-0.024-1.006c-0.041-0.652-0.127-1.258-0.245-1.77C133.047,146.979,132.75,146.333,132.75,146.333z"/>
	</g>
	<g>
		<path fill="#2B3990" d="M136.464,144.469c0,0-0.228,1.06-0.599,2.642c-0.192,0.79-0.416,1.71-0.655,2.697
			c-0.111,0.496-0.271,0.997-0.409,1.512c-0.144,0.514-0.29,1.035-0.435,1.558c-0.624,2.076-1.247,4.151-1.715,5.709
			c-0.479,1.554-0.818,2.581-0.818,2.581s0.264-1.053,0.689-2.621c0.438-1.563,1.02-3.648,1.603-5.734
			c0.155-0.519,0.312-1.037,0.464-1.547c0.148-0.512,0.317-1.009,0.438-1.502c0.259-0.982,0.5-1.898,0.707-2.684
			C136.161,145.509,136.464,144.469,136.464,144.469z"/>
	</g>
	
		<linearGradient id="SVGID_37_" gradientUnits="userSpaceOnUse" x1="328.2021" y1="-132.5283" x2="334.1289" y2="-132.5283" gradientTransform="matrix(1 0 0 -1 -147.6602 30.04)">
		<stop  offset="0" style="stop-color:#C76138"/>
		<stop  offset="0.4079" style="stop-color:#CE7043;stop-opacity:0.5921"/>
		<stop  offset="1" style="stop-color:#DB8B56;stop-opacity:0"/>
	</linearGradient>
	<path fill="url(#SVGID_37_)" d="M186.469,157.531c0,0-4.72,0.512-4.761,1.387s2.667,8.75,2.667,8.75s-2.458-3.959-3.833-9.417
		C184.375,157.156,186.469,157.531,186.469,157.531z"/>
	
		<linearGradient id="SVGID_38_" gradientUnits="userSpaceOnUse" x1="328.6943" y1="-144.8364" x2="336.8252" y2="-144.8364" gradientTransform="matrix(1 0 0 -1 -147.6602 30.04)">
		<stop  offset="0" style="stop-color:#C76138"/>
		<stop  offset="0.4079" style="stop-color:#CE7043;stop-opacity:0.5921"/>
		<stop  offset="1" style="stop-color:#DB8B56;stop-opacity:0"/>
	</linearGradient>
	<path fill="url(#SVGID_38_)" d="M188.959,166.501c0,0,0.314,1.12,0.167,1.75c-0.333,1.417-8.092,15.001-8.092,15.001
		s6.925-12.668,7.05-14.293S188.959,166.501,188.959,166.501z"/>
	
		<linearGradient id="SVGID_39_" gradientUnits="userSpaceOnUse" x1="319.2568" y1="-153.6694" x2="322.9102" y2="-153.6694" gradientTransform="matrix(1 0 0 -1 -147.6602 30.04)">
		<stop  offset="0" style="stop-color:#C76138"/>
		<stop  offset="0.4079" style="stop-color:#CE7043;stop-opacity:0.5921"/>
		<stop  offset="1" style="stop-color:#DB8B56;stop-opacity:0"/>
	</linearGradient>
	<path fill="url(#SVGID_39_)" d="M171.684,182.887c0,0,0.051,0.816,1.535,0.896c0.938,0.049,2.031,0.094,2.031,0.25
		c0,0.155-0.063,0.5-0.063,0.5s0.328-0.595-1.063-0.47c-1.578,0.156-2.125-0.358-2.422-0.688
		C171.477,183.124,171.684,182.887,171.684,182.887z"/>
	
		<linearGradient id="SVGID_40_" gradientUnits="userSpaceOnUse" x1="318.3994" y1="-157.1475" x2="322.8789" y2="-157.1475" gradientTransform="matrix(1 0 0 -1 -147.6602 30.04)">
		<stop  offset="0" style="stop-color:#C76138"/>
		<stop  offset="0.4079" style="stop-color:#CE7043;stop-opacity:0.5921"/>
		<stop  offset="1" style="stop-color:#DB8B56;stop-opacity:0"/>
	</linearGradient>
	<path fill="url(#SVGID_40_)" d="M175.219,184.734c0,0-0.125,1.297-0.438,1.516c-0.313,0.219-1.828,1.641-1.828,1.641
		s-2.391,1.625-2.203,1.75c0.047-0.483,0.156-0.469,0.781-1.016s1.006-0.604,1.484-1.109
		C174.625,185.813,175.109,185.547,175.219,184.734z"/>
	
		<linearGradient id="SVGID_41_" gradientUnits="userSpaceOnUse" x1="239.5703" y1="-189.8662" x2="243.8936" y2="-189.8662" gradientTransform="matrix(0.9611 -0.2763 -0.2763 -0.9611 -110.1819 74.186)">
		<stop  offset="0" style="stop-color:#C76138"/>
		<stop  offset="0.4079" style="stop-color:#CE7043;stop-opacity:0.5921"/>
		<stop  offset="1" style="stop-color:#DB8B56;stop-opacity:0"/>
	</linearGradient>
	<path fill="url(#SVGID_41_)" d="M175.923,186.633c0,0,0.238,1.281-0.002,1.577c-0.239,0.297-1.304,2.082-1.304,2.082
		s-1.836,1.849-1.133,2.771c-0.469-0.203-0.436-0.86-0.109-1.625c0.313-0.733,0.624-0.988,1.021-1.563
		C175.833,187.797,176.042,187.443,175.923,186.633z"/>
	
		<linearGradient id="SVGID_42_" gradientUnits="userSpaceOnUse" x1="152.251" y1="-197.2158" x2="156.6055" y2="-197.2158" gradientTransform="matrix(0.8402 -0.5423 -0.5423 -0.8402 -59.5654 108.2376)">
		<stop  offset="0" style="stop-color:#C76138"/>
		<stop  offset="0.4079" style="stop-color:#CE7043;stop-opacity:0.5921"/>
		<stop  offset="1" style="stop-color:#DB8B56;stop-opacity:0"/>
	</linearGradient>
	<path fill="url(#SVGID_42_)" d="M177.477,186.719c0,0,0.599,1.157,0.455,1.512c-0.146,0.354-0.524,2.285-0.524,2.285
		s-1.078,2.422-0.453,3.047c-0.509-0.06-0.513-0.455-0.422-1.28c0.087-0.794,0.387-1.185,0.483-1.875
		C177.375,187.859,177.825,187.461,177.477,186.719z"/>
	
		<linearGradient id="SVGID_43_" gradientUnits="userSpaceOnUse" x1="50.0425" y1="-171.3438" x2="53.1367" y2="-171.3438" gradientTransform="matrix(0.6021 -0.7985 -0.7985 -0.6021 11.2942 128.5979)">
		<stop  offset="0" style="stop-color:#C76138"/>
		<stop  offset="0.4079" style="stop-color:#CE7043;stop-opacity:0.5921"/>
		<stop  offset="1" style="stop-color:#DB8B56;stop-opacity:0"/>
	</linearGradient>
	<path fill="url(#SVGID_43_)" d="M178.484,188.125c0,0,0.813,0.617,0.803,0.895c-0.012,0.275,0.214,1.687,0.214,1.687
		s-0.13,1.915,0.452,2.187c-0.297,0.203-0.418-0.15-0.563-0.734c-0.14-0.561-0.053-0.896-0.156-1.391
		C178.843,188.943,178.907,188.544,178.484,188.125z"/>
</g>
<linearGradient id="SVGID_44_" gradientUnits="userSpaceOnUse" x1="304.3262" y1="-38.4795" x2="277.2012" y2="-42.6045" gradientTransform="matrix(1 0 0 -1 -147.6602 30.04)">
	<stop  offset="0" style="stop-color:#A97C50;stop-opacity:0"/>
	<stop  offset="0.457" style="stop-color:#754C29"/>
	<stop  offset="0.6454" style="stop-color:#845933;stop-opacity:0.6529"/>
	<stop  offset="1" style="stop-color:#A97C50;stop-opacity:0"/>
</linearGradient>
<path opacity="0.5" fill="url(#SVGID_44_)" enable-background="new    " d="M149.502,67.469c0,0-13.49,2.159-20.35,7.375
	c5.302-2.023,13.309-4.556,17.598-3.257c0.757-0.483,14.352-4.011,15.092-4.078C163.604,67.35,149.502,67.469,149.502,67.469z"/>
<linearGradient id="SVGID_45_" gradientUnits="userSpaceOnUse" x1="363.334" y1="1.0625" x2="336.207" y2="-3.0628" gradientTransform="matrix(0.9798 0.2 0.2 -0.9798 -191.9454 -4.3058)">
	<stop  offset="0" style="stop-color:#A97C50;stop-opacity:0"/>
	<stop  offset="0.5376" style="stop-color:#754C29"/>
	<stop  offset="0.6576" style="stop-color:#86572E"/>
	<stop  offset="0.8992" style="stop-color:#B7733B"/>
	<stop  offset="1" style="stop-color:#D18241"/>
</linearGradient>
<path opacity="0.5" fill="url(#SVGID_45_)" enable-background="new    " d="M157.448,64.858c0,0-13.649-0.583-21.414,3.155
	c5.6-0.921,13.952-1.802,17.894,0.329c0.838-0.322,14.863-1.059,15.604-0.977C171.287,67.562,157.448,64.858,157.448,64.858z"/>
<linearGradient id="SVGID_46_" gradientUnits="userSpaceOnUse" x1="402.4521" y1="39.2852" x2="375.3275" y2="35.1602" gradientTransform="matrix(0.9372 0.3488 0.3488 -0.9372 -220.8728 -38.1503)">
	<stop  offset="0" style="stop-color:#A97C50;stop-opacity:0"/>
	<stop  offset="0.5376" style="stop-color:#754C29"/>
	<stop  offset="0.6576" style="stop-color:#86572E"/>
	<stop  offset="0.8992" style="stop-color:#B7733B"/>
	<stop  offset="1" style="stop-color:#D18241"/>
</linearGradient>
<path opacity="0.5" fill="url(#SVGID_46_)" enable-background="new    " d="M163.665,61.925c0,0-13.396-2.682-21.645-0.185
	c5.675-0.047,14.063,0.372,17.628,3.084c0.877-0.189,14.85,1.246,15.566,1.441C176.921,66.731,163.665,61.925,163.665,61.925z"/>
<linearGradient id="SVGID_47_" gradientUnits="userSpaceOnUse" x1="439.0664" y1="89.1719" x2="418.655" y2="86.0679" gradientTransform="matrix(0.8594 0.5114 0.5114 -0.8594 -247.8241 -84.1725)">
	<stop  offset="0" style="stop-color:#A97C50;stop-opacity:0"/>
	<stop  offset="0.457" style="stop-color:#754C29"/>
	<stop  offset="0.6454" style="stop-color:#845933;stop-opacity:0.6529"/>
	<stop  offset="1" style="stop-color:#A97C50;stop-opacity:0"/>
</linearGradient>
<path opacity="0.5" fill="url(#SVGID_47_)" enable-background="new    " d="M170.878,60.293c0,0-9.554-3.794-15.997-3.061
	c4.207,0.732,10.36,2.175,12.633,4.665c0.674-0.021,10.822,2.928,11.327,3.169C180.04,65.642,170.878,60.293,170.878,60.293z"/>
<linearGradient id="SVGID_48_" gradientUnits="userSpaceOnUse" x1="337.6094" y1="-24.7715" x2="310.4836" y2="-28.8967" gradientTransform="matrix(0.9967 0.0818 0.0818 -0.9967 -167.2892 18.2297)">
	<stop  offset="0" style="stop-color:#A97C50;stop-opacity:0"/>
	<stop  offset="0.5376" style="stop-color:#754C29"/>
	<stop  offset="0.6576" style="stop-color:#86572E"/>
	<stop  offset="0.8992" style="stop-color:#B7733B"/>
	<stop  offset="1" style="stop-color:#D18241"/>
</linearGradient>
<path opacity="0.5" fill="url(#SVGID_48_)" enable-background="new    " d="M160.121,68.903c0,0-13.622,1.048-20.885,5.687
	c5.45-1.583,13.638-3.453,17.805-1.808c0.794-0.419,14.631-2.824,15.375-2.831C174.184,69.937,160.121,68.903,160.121,68.903z"/>
<linearGradient id="SVGID_49_" gradientUnits="userSpaceOnUse" x1="290.0439" y1="-55.1465" x2="300.1682" y2="-46.3972" gradientTransform="matrix(1 0 0 -1 -147.6602 30.04)">
	<stop  offset="0" style="stop-color:#A97C50;stop-opacity:0"/>
	<stop  offset="0.457" style="stop-color:#754C29"/>
	<stop  offset="0.6454" style="stop-color:#845933;stop-opacity:0.6529"/>
	<stop  offset="1" style="stop-color:#A97C50;stop-opacity:0"/>
</linearGradient>
<path opacity="0.5" fill="url(#SVGID_49_)" enable-background="new    " d="M153.854,76.405c0,0-5.725-0.263-11.104,6.47
	c4.648-3.256,5.774-4.587,10.25-4.375L153.854,76.405z"/>
<linearGradient id="SVGID_50_" gradientUnits="userSpaceOnUse" x1="249.5518" y1="-77.1484" x2="261.4928" y2="-66.829" gradientTransform="matrix(0.9892 -0.1465 -0.1465 -0.9892 -113.9811 50.1511)">
	<stop  offset="0" style="stop-color:#A97C50;stop-opacity:0"/>
	<stop  offset="0.457" style="stop-color:#754C29"/>
	<stop  offset="0.6454" style="stop-color:#845933;stop-opacity:0.6529"/>
	<stop  offset="1" style="stop-color:#A97C50;stop-opacity:0"/>
</linearGradient>
<path opacity="0.5" fill="url(#SVGID_50_)" enable-background="new    " d="M156.041,77.681c0,0-6.724,0.682-11.836,9.466
	c4.86-4.602,5.944-6.349,11.202-6.875L156.041,77.681z"/>
<linearGradient id="SVGID_51_" gradientUnits="userSpaceOnUse" x1="240.5879" y1="-78.5156" x2="252.5286" y2="-68.1966" gradientTransform="matrix(0.9892 -0.1465 -0.1465 -0.9892 -113.9811 50.1511)">
	<stop  offset="0" style="stop-color:#A97C50;stop-opacity:0"/>
	<stop  offset="0.457" style="stop-color:#754C29"/>
	<stop  offset="0.6454" style="stop-color:#845933;stop-opacity:0.6529"/>
	<stop  offset="1" style="stop-color:#A97C50;stop-opacity:0"/>
</linearGradient>
<path opacity="0.5" fill="url(#SVGID_51_)" enable-background="new    " d="M147.375,80.348c0,0-6.724,0.682-11.836,9.466
	c4.86-4.602,5.944-6.349,11.202-6.875L147.375,80.348z"/>
<linearGradient id="SVGID_52_" gradientUnits="userSpaceOnUse" x1="-23.5225" y1="-54.0664" x2="-9.1479" y2="-41.6439" gradientTransform="matrix(-0.9994 -0.0358 0.0358 -0.9994 154.0406 35.3904)">
	<stop  offset="0" style="stop-color:#A97C50;stop-opacity:0"/>
	<stop  offset="0.457" style="stop-color:#754C29"/>
	<stop  offset="0.6454" style="stop-color:#845933;stop-opacity:0.6529"/>
	<stop  offset="1" style="stop-color:#A97C50;stop-opacity:0"/>
</linearGradient>
<path opacity="0.5" fill="url(#SVGID_52_)" enable-background="new    " d="M159.788,77.224c0,0,8.135-0.082,15.424,9.744
	c-6.43-4.856-7.959-6.801-14.319-6.728L159.788,77.224z"/>
<linearGradient id="SVGID_53_" gradientUnits="userSpaceOnUse" x1="-32.9727" y1="-53.4688" x2="-15.4193" y2="-38.2992" gradientTransform="matrix(-0.9994 -0.0358 0.0358 -0.9994 154.0406 35.3904)">
	<stop  offset="0" style="stop-color:#A97C50;stop-opacity:0"/>
	<stop  offset="0.457" style="stop-color:#754C29"/>
	<stop  offset="0.6454" style="stop-color:#845933;stop-opacity:0.6529"/>
	<stop  offset="1" style="stop-color:#A97C50;stop-opacity:0"/>
</linearGradient>
<path opacity="0.5" fill="url(#SVGID_53_)" enable-background="new    " d="M165.621,74.224c0,0,12.129,0.151,18.254,12.526
	c-2.625-5.375-10.789-9.583-17.15-9.51L165.621,74.224z"/>
<linearGradient id="SVGID_54_" gradientUnits="userSpaceOnUse" x1="30.7832" y1="-68.2783" x2="45.1571" y2="-55.8565" gradientTransform="matrix(-0.9768 0.2141 -0.2141 -0.9768 209.5999 -1.1792)">
	<stop  offset="0" style="stop-color:#A97C50;stop-opacity:0"/>
	<stop  offset="0.457" style="stop-color:#754C29"/>
	<stop  offset="0.6454" style="stop-color:#845933;stop-opacity:0.6529"/>
	<stop  offset="1" style="stop-color:#A97C50;stop-opacity:0"/>
</linearGradient>
<path opacity="0.5" fill="url(#SVGID_54_)" enable-background="new    " d="M175.57,63.411c0,0,7.856-2.104,17.363,5.598
	c-7.438-3.103-9.401-4.606-15.545-2.952L175.57,63.411z"/>
<linearGradient id="SVGID_55_" gradientUnits="userSpaceOnUse" x1="-15.5264" y1="-50.832" x2="-1.1541" y2="-38.4115" gradientTransform="matrix(-0.9992 0.0411 -0.0411 -0.9992 172.1421 26.3621)">
	<stop  offset="0" style="stop-color:#A97C50;stop-opacity:0"/>
	<stop  offset="0.457" style="stop-color:#754C29"/>
	<stop  offset="0.6454" style="stop-color:#845933;stop-opacity:0.6529"/>
	<stop  offset="1" style="stop-color:#A97C50;stop-opacity:0"/>
</linearGradient>
<path opacity="0.5" fill="url(#SVGID_55_)" enable-background="new    " d="M172.968,64.731c0,0,8.104-0.708,16.126,8.529
	c-6.783-4.348-8.458-6.169-14.795-5.607L172.968,64.731z"/>
<linearGradient id="SVGID_56_" gradientUnits="userSpaceOnUse" x1="-20.6089" y1="-59.3955" x2="-0.1992" y2="-41.7575" gradientTransform="matrix(-0.9992 0.0411 -0.0411 -0.9992 172.1421 26.3621)">
	<stop  offset="0" style="stop-color:#A97C50;stop-opacity:0"/>
	<stop  offset="0.457" style="stop-color:#754C29"/>
	<stop  offset="0.6454" style="stop-color:#845933;stop-opacity:0.6529"/>
	<stop  offset="1" style="stop-color:#A97C50;stop-opacity:0"/>
</linearGradient>
<path opacity="0.5" fill="url(#SVGID_56_)" enable-background="new    " d="M171.468,67.981c0,0,13.907,0.144,21.282,14.144
	c-4.625-7.25-13.613-11.784-19.951-11.222L171.468,67.981z"/>
<linearGradient id="SVGID_57_" gradientUnits="userSpaceOnUse" x1="-12.2788" y1="-59.791" x2="5.0624" y2="-44.8047" gradientTransform="matrix(-0.9992 0.0411 -0.0411 -0.9992 172.1421 26.3621)">
	<stop  offset="0" style="stop-color:#A97C50;stop-opacity:0"/>
	<stop  offset="0.457" style="stop-color:#754C29"/>
	<stop  offset="0.6454" style="stop-color:#845933;stop-opacity:0.6529"/>
	<stop  offset="1" style="stop-color:#A97C50;stop-opacity:0"/>
</linearGradient>
<path opacity="0.5" fill="url(#SVGID_57_)" enable-background="new    " d="M166.843,71.106c0,0,10.907,0.269,18.282,11.769
	c-5.75-6.875-10.613-9.409-16.951-8.847L166.843,71.106z"/>
<linearGradient id="SVGID_58_" gradientUnits="userSpaceOnUse" x1="-11.8394" y1="-55.3086" x2="2.533" y2="-42.8881" gradientTransform="matrix(-0.9992 0.0411 -0.0411 -0.9992 172.1421 26.3621)">
	<stop  offset="0" style="stop-color:#A97C50;stop-opacity:0"/>
	<stop  offset="0.457" style="stop-color:#754C29"/>
	<stop  offset="0.6454" style="stop-color:#845933;stop-opacity:0.6529"/>
	<stop  offset="1" style="stop-color:#A97C50;stop-opacity:0"/>
</linearGradient>
<path opacity="0.5" fill="url(#SVGID_58_)" enable-background="new    " d="M169.468,69.356c0,0,8.104-0.708,16.126,8.529
	c-6.783-4.348-8.458-6.169-14.795-5.607L169.468,69.356z"/>
<linearGradient id="SVGID_59_" gradientUnits="userSpaceOnUse" x1="-121.1147" y1="18.7241" x2="-106.7426" y2="31.1446" gradientTransform="matrix(-0.9147 -0.4042 0.4042 -0.9147 65.3446 66.6222)">
	<stop  offset="0" style="stop-color:#A97C50;stop-opacity:0"/>
	<stop  offset="0.457" style="stop-color:#754C29"/>
	<stop  offset="0.6454" style="stop-color:#845933;stop-opacity:0.6529"/>
	<stop  offset="1" style="stop-color:#A97C50;stop-opacity:0"/>
</linearGradient>
<path opacity="0.5" fill="url(#SVGID_59_)" enable-background="new    " d="M173.846,80.471c0,0,7.584,2.942,10.704,14.771
	c-4.169-6.896-4.866-9.269-10.8-11.562L173.846,80.471z"/>
<linearGradient id="SVGID_60_" gradientUnits="userSpaceOnUse" x1="194.3301" y1="-121.7603" x2="208.703" y2="-109.3392" gradientTransform="matrix(0.9147 -0.4042 -0.4042 -0.9147 -98.6151 66.6222)">
	<stop  offset="0" style="stop-color:#A97C50;stop-opacity:0"/>
	<stop  offset="0.457" style="stop-color:#754C29"/>
	<stop  offset="0.6454" style="stop-color:#845933;stop-opacity:0.6529"/>
	<stop  offset="1" style="stop-color:#A97C50;stop-opacity:0"/>
</linearGradient>
<path opacity="0.5" fill="url(#SVGID_60_)" enable-background="new    " d="M138.204,81.471c0,0-7.583,2.942-10.704,14.771
	c4.169-6.896,4.866-9.269,10.8-11.562L138.204,81.471z"/>
<linearGradient id="SVGID_61_" gradientUnits="userSpaceOnUse" x1="135.8057" y1="-124.5879" x2="150.1787" y2="-112.1667" gradientTransform="matrix(0.8389 -0.5443 -0.5443 -0.8389 -58.8983 75.5608)">
	<stop  offset="0" style="stop-color:#A97C50;stop-opacity:0"/>
	<stop  offset="0.457" style="stop-color:#754C29"/>
	<stop  offset="0.6454" style="stop-color:#845933;stop-opacity:0.6529"/>
	<stop  offset="1" style="stop-color:#A97C50;stop-opacity:0"/>
</linearGradient>
<path opacity="0.5" fill="url(#SVGID_61_)" enable-background="new    " d="M129.713,86.84c0,0-7.02,4.109-8.223,16.284
	c3.021-7.471,3.333-9.924,8.827-13.13L129.713,86.84z"/>
<linearGradient id="SVGID_62_" gradientUnits="userSpaceOnUse" x1="-154.4922" y1="36.9165" x2="-140.1191" y2="49.3376" gradientTransform="matrix(-0.8606 -0.5093 0.5093 -0.8606 44.2846 63.5231)">
	<stop  offset="0" style="stop-color:#A97C50;stop-opacity:0"/>
	<stop  offset="0.457" style="stop-color:#754C29"/>
	<stop  offset="0.6454" style="stop-color:#845933;stop-opacity:0.6529"/>
	<stop  offset="1" style="stop-color:#A97C50;stop-opacity:0"/>
</linearGradient>
<path opacity="0.5" fill="url(#SVGID_62_)" enable-background="new    " d="M188.382,91.422c0,0,7.183,3.816,8.888,15.932
	c-3.326-7.34-3.738-9.778-9.36-12.755L188.382,91.422z"/>
<linearGradient id="SVGID_63_" gradientUnits="userSpaceOnUse" x1="-201.1001" y1="136.8462" x2="-186.7266" y2="149.2677" gradientTransform="matrix(-0.6418 -0.7669 0.7669 -0.6418 -33.5993 47.8264)">
	<stop  offset="0" style="stop-color:#A97C50;stop-opacity:0"/>
	<stop  offset="0.457" style="stop-color:#754C29"/>
	<stop  offset="0.6454" style="stop-color:#845933;stop-opacity:0.6529"/>
	<stop  offset="1" style="stop-color:#A97C50;stop-opacity:0"/>
</linearGradient>
<path opacity="0.5" fill="url(#SVGID_63_)" enable-background="new    " d="M199.525,93.734c0,0,5.5,5.992,3.07,17.982
	c-0.688-8.028-0.267-10.465-4.574-15.145L199.525,93.734z"/>
<linearGradient id="SVGID_64_" gradientUnits="userSpaceOnUse" x1="-151.834" y1="54.6626" x2="-137.4609" y2="67.0837" gradientTransform="matrix(-0.8606 -0.5093 0.5093 -0.8606 44.2846 63.5231)">
	<stop  offset="0" style="stop-color:#A97C50;stop-opacity:0"/>
	<stop  offset="0.457" style="stop-color:#754C29"/>
	<stop  offset="0.6454" style="stop-color:#845933;stop-opacity:0.6529"/>
	<stop  offset="1" style="stop-color:#A97C50;stop-opacity:0"/>
</linearGradient>
<path opacity="0.5" fill="url(#SVGID_64_)" enable-background="new    " d="M195.132,74.797c0,0,7.183,3.816,8.888,15.932
	c-3.326-7.34-3.738-9.778-9.36-12.755L195.132,74.797z"/>
<linearGradient id="SVGID_65_" gradientUnits="userSpaceOnUse" x1="-193.313" y1="121.457" x2="-178.9408" y2="133.8775" gradientTransform="matrix(-0.6628 -0.7488 0.7488 -0.6628 -27.0912 52.3505)">
	<stop  offset="0" style="stop-color:#A97C50;stop-opacity:0"/>
	<stop  offset="0.457" style="stop-color:#754C29"/>
	<stop  offset="0.6454" style="stop-color:#845933;stop-opacity:0.6529"/>
	<stop  offset="1" style="stop-color:#A97C50;stop-opacity:0"/>
</linearGradient>
<path opacity="0.5" fill="url(#SVGID_65_)" enable-background="new    " d="M190.529,96.148c0,0,5.664,5.836,3.568,17.89
	c-0.912-8.006-0.558-10.454-4.994-15.013L190.529,96.148z"/>
<linearGradient id="SVGID_66_" gradientUnits="userSpaceOnUse" x1="-187.8921" y1="61.709" x2="-173.5191" y2="74.1302" gradientTransform="matrix(-0.0649 -0.9979 -0.9979 0.0649 259.9864 -67.9791)">
	<stop  offset="0" style="stop-color:#A97C50;stop-opacity:0"/>
	<stop  offset="0.457" style="stop-color:#754C29"/>
	<stop  offset="0.6454" style="stop-color:#845933;stop-opacity:0.6529"/>
	<stop  offset="1" style="stop-color:#A97C50;stop-opacity:0"/>
</linearGradient>
<path opacity="0.5" fill="url(#SVGID_66_)" enable-background="new    " d="M197.104,108.086c0,0,0.154,8.132,10.188,15.132
	c-5.042-6.286-7.028-7.756-7.142-14.118L197.104,108.086z"/>
<linearGradient id="SVGID_67_" gradientUnits="userSpaceOnUse" x1="-39.667" y1="-39.8062" x2="-26.9699" y2="-28.8333" gradientTransform="matrix(-0.9927 -0.1203 0.1203 -0.9927 134.7153 46.2825)">
	<stop  offset="0" style="stop-color:#A97C50;stop-opacity:0"/>
	<stop  offset="0.457" style="stop-color:#754C29"/>
	<stop  offset="0.6454" style="stop-color:#845933;stop-opacity:0.6529"/>
	<stop  offset="1" style="stop-color:#A97C50;stop-opacity:0"/>
</linearGradient>
<path opacity="0.5" fill="url(#SVGID_67_)" enable-background="new    " d="M156.355,77.913c0,0,7.166,0.536,12.847,9.729
	c-5.296-4.754-6.497-6.581-12.103-6.992L156.355,77.913z"/>
<linearGradient id="SVGID_68_" gradientUnits="userSpaceOnUse" x1="300.5957" y1="-46.1758" x2="286.847" y2="-51.5503" gradientTransform="matrix(1 0 0 -1 -147.6602 30.04)">
	<stop  offset="0" style="stop-color:#A97C50;stop-opacity:0"/>
	<stop  offset="0.5376" style="stop-color:#754C29"/>
	<stop  offset="0.6576" style="stop-color:#86572E"/>
	<stop  offset="0.8992" style="stop-color:#B7733B"/>
	<stop  offset="1" style="stop-color:#D18241"/>
</linearGradient>
<path opacity="0.5" fill="url(#SVGID_68_)" enable-background="new    " d="M152.838,74.822c0,0-9.196-0.25-17.625,10.718
	c7.362-5.365,9.129-7.535,16.319-7.329L152.838,74.822z"/>
<linearGradient id="SVGID_69_" gradientUnits="userSpaceOnUse" x1="264.2354" y1="-66.0942" x2="280.4875" y2="-52.0492" gradientTransform="matrix(0.9998 -0.0188 -0.0188 -0.9998 -143.9765 31.8956)">
	<stop  offset="0" style="stop-color:#A97C50;stop-opacity:0"/>
	<stop  offset="0.457" style="stop-color:#754C29"/>
	<stop  offset="0.6454" style="stop-color:#845933;stop-opacity:0.6529"/>
	<stop  offset="1" style="stop-color:#A97C50;stop-opacity:0"/>
</linearGradient>
<path opacity="0.5" fill="url(#SVGID_69_)" enable-background="new    " d="M139.588,78.572c0,0-9.196-0.25-17.625,10.718
	c7.362-5.365,9.129-7.535,16.319-7.329L139.588,78.572z"/>
<linearGradient id="SVGID_70_" gradientUnits="userSpaceOnUse" x1="150.4541" y1="-94.0029" x2="166.7059" y2="-79.9581" gradientTransform="matrix(0.9384 -0.3456 -0.3456 -0.9384 -65.9299 56.5643)">
	<stop  offset="0" style="stop-color:#A97C50;stop-opacity:0"/>
	<stop  offset="0.457" style="stop-color:#754C29"/>
	<stop  offset="0.6454" style="stop-color:#845933;stop-opacity:0.6529"/>
	<stop  offset="1" style="stop-color:#A97C50;stop-opacity:0"/>
</linearGradient>
<path opacity="0.5" fill="url(#SVGID_70_)" enable-background="new    " d="M120.149,73.184c0,0-8.77,2.78-13.135,15.906
	c5.195-7.483,6.153-10.112,13.013-12.276L120.149,73.184z"/>
<linearGradient id="SVGID_71_" gradientUnits="userSpaceOnUse" x1="267.4688" y1="-60.2788" x2="283.7196" y2="-46.2349" gradientTransform="matrix(0.9998 -0.0188 -0.0188 -0.9998 -143.9765 31.8956)">
	<stop  offset="0" style="stop-color:#A97C50;stop-opacity:0"/>
	<stop  offset="0.457" style="stop-color:#754C29"/>
	<stop  offset="0.6454" style="stop-color:#845933;stop-opacity:0.6529"/>
	<stop  offset="1" style="stop-color:#A97C50;stop-opacity:0"/>
</linearGradient>
<path opacity="0.5" fill="url(#SVGID_71_)" enable-background="new    " d="M142.713,72.697c0,0-9.196-0.25-17.625,10.718
	c7.362-5.365,9.129-7.535,16.319-7.329L142.713,72.697z"/>
<linearGradient id="SVGID_72_" gradientUnits="userSpaceOnUse" x1="310.7979" y1="-17.7852" x2="327.0503" y2="-3.7399" gradientTransform="matrix(0.9884 0.152 0.152 -0.9884 -182.3636 6.7331)">
	<stop  offset="0" style="stop-color:#A97C50;stop-opacity:0"/>
	<stop  offset="0.457" style="stop-color:#754C29"/>
	<stop  offset="0.6454" style="stop-color:#845933;stop-opacity:0.6529"/>
	<stop  offset="1" style="stop-color:#A97C50;stop-opacity:0"/>
</linearGradient>
<path opacity="0.5" fill="url(#SVGID_72_)" enable-background="new    " d="M142.464,60.418c0,0-9.02-1.814-19.195,7.556
	c8.169-4.031,10.281-5.868,17.33-4.439L142.464,60.418z"/>
<linearGradient id="SVGID_73_" gradientUnits="userSpaceOnUse" x1="209.9395" y1="-76.3384" x2="226.1922" y2="-62.2927" gradientTransform="matrix(0.9807 -0.1955 -0.1955 -0.9807 -102.5795 49.427)">
	<stop  offset="0" style="stop-color:#A97C50;stop-opacity:0"/>
	<stop  offset="0.457" style="stop-color:#754C29"/>
	<stop  offset="0.6454" style="stop-color:#845933;stop-opacity:0.6529"/>
	<stop  offset="1" style="stop-color:#A97C50;stop-opacity:0"/>
</linearGradient>
<path opacity="0.5" fill="url(#SVGID_73_)" enable-background="new    " d="M133.532,65.825c0,0-9.096,1.383-15.45,13.67
	c6.296-6.584,7.651-9.033,14.764-10.103L133.532,65.825z"/>
<linearGradient id="SVGID_74_" gradientUnits="userSpaceOnUse" x1="49.188" y1="-116.998" x2="65.4409" y2="-102.9524" gradientTransform="matrix(0.7854 -0.619 -0.619 -0.7854 -0.2582 57.8808)">
	<stop  offset="0" style="stop-color:#A97C50;stop-opacity:0"/>
	<stop  offset="0.457" style="stop-color:#754C29"/>
	<stop  offset="0.6454" style="stop-color:#845933;stop-opacity:0.6529"/>
	<stop  offset="1" style="stop-color:#A97C50;stop-opacity:0"/>
</linearGradient>
<path opacity="0.5" fill="url(#SVGID_74_)" enable-background="new    " d="M116.529,96.86c0,0-7.479,5.357-7.57,19.189
	c2.625-8.723,2.723-11.52,8.577-15.699L116.529,96.86z"/>
<linearGradient id="SVGID_75_" gradientUnits="userSpaceOnUse" x1="18.2842" y1="-98.4204" x2="30.5187" y2="-87.8473" gradientTransform="matrix(0.7051 -0.7091 -0.7091 -0.7051 26.692 52.16)">
	<stop  offset="0" style="stop-color:#A97C50;stop-opacity:0"/>
	<stop  offset="0.457" style="stop-color:#754C29"/>
	<stop  offset="0.6454" style="stop-color:#845933;stop-opacity:0.6529"/>
	<stop  offset="1" style="stop-color:#A97C50;stop-opacity:0"/>
</linearGradient>
<path opacity="0.5" fill="url(#SVGID_75_)" enable-background="new    " d="M111.622,91.281c0,0-5.104,4.682-3.917,15.028
	c1.17-6.757,0.99-8.856,4.985-12.511L111.622,91.281z"/>
<linearGradient id="SVGID_76_" gradientUnits="userSpaceOnUse" x1="17.749" y1="-102.8076" x2="29.9828" y2="-92.2353" gradientTransform="matrix(0.6922 -0.7217 -0.7217 -0.6922 30.3197 53.8552)">
	<stop  offset="0" style="stop-color:#A97C50;stop-opacity:0"/>
	<stop  offset="0.457" style="stop-color:#754C29"/>
	<stop  offset="0.6454" style="stop-color:#845933;stop-opacity:0.6529"/>
	<stop  offset="1" style="stop-color:#A97C50;stop-opacity:0"/>
</linearGradient>
<path opacity="0.5" fill="url(#SVGID_76_)" enable-background="new    " d="M118.737,94.869c0,0-5.019,4.773-3.646,15.096
	c1.048-6.777,0.831-8.873,4.76-12.598L118.737,94.869z"/>
<linearGradient id="SVGID_77_" gradientUnits="userSpaceOnUse" x1="313.1504" y1="-43.4414" x2="294.3995" y2="-45.9415" gradientTransform="matrix(1 0 0 -1 -147.6602 30.04)">
	<stop  offset="0" style="stop-color:#A97C50;stop-opacity:0"/>
	<stop  offset="0.5376" style="stop-color:#754C29"/>
	<stop  offset="0.6576" style="stop-color:#86572E"/>
	<stop  offset="0.8992" style="stop-color:#B7733B"/>
	<stop  offset="1" style="stop-color:#D18241"/>
</linearGradient>
<path opacity="0.5" fill="url(#SVGID_77_)" enable-background="new    " d="M167.335,72.683c0,0-8.662-3.095-20.083,4.709
	c8.665-2.811,11.02-4.324,17.788-1.894L167.335,72.683z"/>
<g>
	<path fill="#773C19" d="M169.125,69.75c0,0-0.455-0.141-1.27-0.3c-0.408-0.073-0.903-0.161-1.479-0.225
		c-0.57-0.084-1.223-0.113-1.927-0.18c-0.709-0.027-1.476-0.081-2.287-0.057c-0.813-0.012-1.667,0.052-2.552,0.092
		c-0.883,0.046-1.793,0.167-2.717,0.261c-0.916,0.158-1.854,0.268-2.777,0.468c-0.922,0.206-1.859,0.342-2.756,0.6
		c-0.896,0.249-1.792,0.443-2.633,0.723c-0.846,0.268-1.664,0.526-2.439,0.771c-0.763,0.284-1.484,0.553-2.149,0.8
		c-0.667,0.245-1.279,0.472-1.807,0.708c-0.533,0.225-0.998,0.42-1.38,0.582c-0.766,0.323-1.204,0.507-1.204,0.507
		s0.425-0.212,1.168-0.583c0.372-0.186,0.824-0.412,1.343-0.671c0.513-0.272,1.11-0.539,1.774-0.803
		c0.66-0.273,1.375-0.569,2.131-0.882c0.774-0.268,1.59-0.55,2.435-0.843c0.845-0.292,1.747-0.499,2.648-0.761
		c0.9-0.27,1.846-0.421,2.775-0.638c0.935-0.191,1.887-0.292,2.813-0.439c0.937-0.084,1.854-0.194,2.749-0.231
		c1.789-0.099,3.463-0.009,4.887,0.118c0.711,0.086,1.362,0.159,1.932,0.282c0.572,0.101,1.063,0.221,1.47,0.32
		C168.682,69.58,169.125,69.75,169.125,69.75z"/>
</g>
<g>
	<path fill="#773C19" d="M156.5,80.625c0,0-1.166,0.217-2.762,0.931c-0.809,0.331-1.689,0.842-2.594,1.436
		c-0.441,0.313-0.906,0.627-1.323,1.015c-0.446,0.354-0.838,0.777-1.233,1.197c-0.42,0.396-0.734,0.886-1.103,1.318
		c-0.335,0.457-0.609,0.948-0.906,1.401c-0.258,0.475-0.477,0.952-0.708,1.394c-0.241,0.439-0.355,0.902-0.522,1.305
		c-0.145,0.411-0.313,0.779-0.389,1.127c-0.093,0.344-0.174,0.644-0.241,0.891c-0.141,0.495-0.221,0.778-0.221,0.778
		s0.045-0.29,0.125-0.797c0.043-0.254,0.096-0.563,0.156-0.917c0.041-0.36,0.173-0.745,0.301-1.169
		c0.145-0.418,0.236-0.898,0.455-1.359c0.209-0.464,0.4-0.971,0.665-1.461c0.295-0.473,0.569-0.984,0.906-1.463
		c0.371-0.453,0.688-0.967,1.116-1.385c0.417-0.428,0.831-0.857,1.299-1.214c0.439-0.392,0.923-0.707,1.385-1.021
		c0.465-0.308,0.948-0.553,1.403-0.78c0.465-0.209,0.901-0.413,1.323-0.554c0.83-0.317,1.56-0.463,2.063-0.564
		C156.205,80.637,156.5,80.625,156.5,80.625z"/>
</g>
<g>
	<path fill="#773C19" d="M157.75,80.375c0,0,0.305-0.011,0.833,0.048c0.526,0.06,1.287,0.157,2.167,0.413
		c0.443,0.115,0.914,0.277,1.404,0.466c0.496,0.179,0.996,0.427,1.509,0.688c0.487,0.304,1.022,0.574,1.495,0.957
		c0.242,0.183,0.492,0.359,0.73,0.55l0.678,0.628c0.471,0.404,0.814,0.924,1.211,1.381c0.38,0.473,0.658,1.006,0.978,1.485
		c0.291,0.496,0.481,1.024,0.705,1.5c0.237,0.472,0.319,0.972,0.472,1.403c0.129,0.439,0.268,0.835,0.303,1.208
		c0.058,0.366,0.106,0.686,0.147,0.949c0.075,0.524,0.118,0.824,0.118,0.824s-0.078-0.293-0.214-0.806
		c-0.063-0.255-0.144-0.566-0.233-0.922c-0.068-0.361-0.244-0.74-0.391-1.166c-0.172-0.415-0.278-0.897-0.537-1.345
		c-0.244-0.452-0.462-0.949-0.746-1.428c-0.318-0.458-0.596-0.968-0.97-1.417c-0.394-0.434-0.732-0.928-1.191-1.309l-0.64-0.617
		c-0.229-0.189-0.467-0.362-0.696-0.543c-0.448-0.38-0.962-0.649-1.43-0.954c-0.496-0.253-0.964-0.531-1.437-0.731
		c-0.47-0.211-0.92-0.396-1.349-0.533c-0.851-0.294-1.581-0.486-2.101-0.585C158.052,80.408,157.75,80.375,157.75,80.375z"/>
</g>
<g>
	<path fill="#773C19" d="M163.625,78.625c0,0,0.298,0.006,0.811,0.094c0.51,0.095,1.248,0.231,2.088,0.548
		c0.428,0.138,0.867,0.347,1.338,0.555c0.455,0.237,0.951,0.473,1.412,0.796c0.47,0.313,0.947,0.646,1.388,1.044
		c0.472,0.362,0.87,0.815,1.291,1.247c0.411,0.44,0.731,0.956,1.096,1.422c0.313,0.501,0.593,1.013,0.876,1.499
		c0.237,0.509,0.436,1.018,0.631,1.492c0.194,0.476,0.288,0.957,0.422,1.383c0.125,0.43,0.239,0.823,0.274,1.186
		c0.054,0.358,0.101,0.671,0.14,0.928c0.07,0.513,0.11,0.807,0.11,0.807s-0.075-0.287-0.206-0.789
		c-0.063-0.25-0.138-0.554-0.225-0.903c-0.07-0.353-0.223-0.729-0.363-1.146c-0.156-0.412-0.273-0.876-0.491-1.33
		c-0.215-0.454-0.442-0.932-0.677-1.427c-0.286-0.465-0.564-0.957-0.877-1.436c-0.361-0.444-0.682-0.935-1.083-1.353
		c-0.397-0.423-0.774-0.869-1.224-1.227c-0.418-0.394-0.875-0.724-1.322-1.036c-0.445-0.314-0.906-0.577-1.338-0.833
		c-0.445-0.228-0.863-0.458-1.273-0.617c-0.806-0.352-1.508-0.581-2.006-0.715C163.918,78.675,163.625,78.625,163.625,78.625z"/>
</g>
<g>
	<path fill="#773C19" d="M171.016,69.756c0,0-0.468-0.307-1.332-0.756c-0.441-0.208-0.963-0.487-1.595-0.739
		c-0.618-0.278-1.338-0.539-2.118-0.832c-0.785-0.272-1.645-0.556-2.565-0.801c-0.925-0.239-1.898-0.485-2.925-0.666
		c-1.016-0.231-2.086-0.342-3.168-0.486c-1.082-0.138-2.194-0.153-3.301-0.236c-1.107,0.003-2.219-0.016-3.311,0.015
		c-1.089,0.085-2.164,0.148-3.2,0.246c-1.031,0.146-2.028,0.289-2.974,0.423c-0.944,0.145-1.82,0.375-2.639,0.538
		c-0.815,0.178-1.57,0.317-2.218,0.522c-0.654,0.184-1.224,0.344-1.693,0.476c-0.94,0.264-1.478,0.415-1.478,0.415
		s0.528-0.18,1.452-0.495c0.463-0.158,1.025-0.35,1.67-0.569c0.639-0.243,1.386-0.424,2.202-0.622
		c0.817-0.189,1.692-0.448,2.638-0.624c0.95-0.157,1.952-0.323,2.989-0.495c1.044-0.11,2.129-0.185,3.229-0.282
		c1.103-0.042,2.226-0.036,3.348-0.048c1.119,0.095,2.242,0.122,3.338,0.272c1.094,0.157,2.175,0.28,3.199,0.524
		c1.037,0.186,2.015,0.473,2.939,0.742c0.924,0.275,1.78,0.588,2.564,0.887c0.781,0.313,1.488,0.617,2.095,0.931
		c0.619,0.288,1.129,0.597,1.56,0.829C170.564,69.425,171.016,69.756,171.016,69.756z"/>
</g>
<g>
	<path fill="#773C19" d="M172.891,65.881c0,0-0.392-0.271-1.119-0.668c-0.367-0.192-0.813-0.425-1.342-0.659
		c-0.52-0.251-1.133-0.476-1.783-0.751c-0.668-0.239-1.383-0.521-2.166-0.743c-0.771-0.256-1.604-0.453-2.459-0.68
		c-0.856-0.221-1.76-0.38-2.67-0.568c-0.92-0.125-1.851-0.303-2.791-0.39c-0.939-0.081-1.875-0.232-2.808-0.256
		c-0.929-0.032-1.843-0.117-2.729-0.103c-0.887,0-1.744,0.001-2.559,0.002c-0.813,0.041-1.581,0.08-2.291,0.116
		c-0.71,0.033-1.361,0.066-1.936,0.131c-0.576,0.054-1.078,0.101-1.491,0.14c-0.828,0.077-1.301,0.122-1.301,0.122
		s0.469-0.075,1.29-0.205c0.411-0.065,0.91-0.145,1.482-0.236c0.572-0.105,1.221-0.18,1.934-0.232
		c0.711-0.062,1.482-0.129,2.298-0.201c0.817-0.022,1.682-0.046,2.575-0.071s1.815,0.049,2.754,0.071
		c0.939,0.014,1.888,0.153,2.84,0.226c0.949,0.099,1.887,0.29,2.814,0.428c0.918,0.201,1.828,0.373,2.692,0.606
		c1.735,0.444,3.306,1.033,4.625,1.583c0.651,0.295,1.251,0.562,1.757,0.85c0.516,0.268,0.948,0.531,1.305,0.747
		C172.518,65.586,172.891,65.881,172.891,65.881z"/>
</g>
<linearGradient id="SVGID_78_" gradientUnits="userSpaceOnUse" x1="312.208" y1="-67.2246" x2="319.3932" y2="-82.7993" gradientTransform="matrix(1 0 0 -1 -147.6602 30.04)">
	<stop  offset="0.0108" style="stop-color:#A7A9AC;stop-opacity:0.3"/>
	<stop  offset="0.201" style="stop-color:#A9ABAD;stop-opacity:0.5688"/>
	<stop  offset="0.2695" style="stop-color:#AEB0B3;stop-opacity:0.6656"/>
	<stop  offset="0.3184" style="stop-color:#B8BABC;stop-opacity:0.7346"/>
	<stop  offset="0.3579" style="stop-color:#C6C8CA;stop-opacity:0.7904"/>
	<stop  offset="0.3917" style="stop-color:#D8D9DB;stop-opacity:0.8382"/>
	<stop  offset="0.4211" style="stop-color:#EEEFF0;stop-opacity:0.8797"/>
	<stop  offset="0.4355" style="stop-color:#FFFFFF;stop-opacity:0.9"/>
	<stop  offset="0.4546" style="stop-color:#EEEFF0;stop-opacity:0.8797"/>
	<stop  offset="0.4936" style="stop-color:#D8D9DB;stop-opacity:0.8382"/>
	<stop  offset="0.5386" style="stop-color:#C6C8CA;stop-opacity:0.7904"/>
	<stop  offset="0.5911" style="stop-color:#B8BABC;stop-opacity:0.7346"/>
	<stop  offset="0.656" style="stop-color:#AEB0B3;stop-opacity:0.6656"/>
	<stop  offset="0.7471" style="stop-color:#A9ABAD;stop-opacity:0.5688"/>
	<stop  offset="1" style="stop-color:#A7A9AC;stop-opacity:0.3"/>
</linearGradient>
<circle fill="url(#SVGID_78_)" stroke="#000000" stroke-miterlimit="10" cx="170.25" cy="109.625" r="11.625"/>
<linearGradient id="SVGID_79_" gradientUnits="userSpaceOnUse" x1="288.6191" y1="-68.7979" x2="294.8963" y2="-84.7597" gradientTransform="matrix(1 0 0 -1 -147.6602 30.04)">
	<stop  offset="0.0108" style="stop-color:#A7A9AC;stop-opacity:0.3"/>
	<stop  offset="0.201" style="stop-color:#A9ABAD;stop-opacity:0.5688"/>
	<stop  offset="0.2695" style="stop-color:#AEB0B3;stop-opacity:0.6656"/>
	<stop  offset="0.3184" style="stop-color:#B8BABC;stop-opacity:0.7346"/>
	<stop  offset="0.3579" style="stop-color:#C6C8CA;stop-opacity:0.7904"/>
	<stop  offset="0.3917" style="stop-color:#D8D9DB;stop-opacity:0.8382"/>
	<stop  offset="0.4211" style="stop-color:#EEEFF0;stop-opacity:0.8797"/>
	<stop  offset="0.4355" style="stop-color:#FFFFFF;stop-opacity:0.9"/>
	<stop  offset="0.4546" style="stop-color:#EEEFF0;stop-opacity:0.8797"/>
	<stop  offset="0.4936" style="stop-color:#D8D9DB;stop-opacity:0.8382"/>
	<stop  offset="0.5386" style="stop-color:#C6C8CA;stop-opacity:0.7904"/>
	<stop  offset="0.5911" style="stop-color:#B8BABC;stop-opacity:0.7346"/>
	<stop  offset="0.656" style="stop-color:#AEB0B3;stop-opacity:0.6656"/>
	<stop  offset="0.7471" style="stop-color:#A9ABAD;stop-opacity:0.5688"/>
	<stop  offset="1" style="stop-color:#A7A9AC;stop-opacity:0.3"/>
</linearGradient>
<circle fill="url(#SVGID_79_)" stroke="#000000" stroke-miterlimit="10" cx="145.25" cy="109.75" r="11.625"/>
<g>
	<path fill="#11112F" d="M154.333,207.082c0.231,2.461,0.409,4.923,0.542,7.387c0.154,2.463,0.27,4.928,0.357,7.393
		c0.092,2.464,0.151,4.93,0.203,7.396c0.045,2.466,0.056,4.933,0.037,7.4l-0.007-0.056c0.14,0.783,0.296,1.563,0.419,2.352
		l0.014,0.089l-0.031,0.06l-0.733,1.299l0.013-0.037c-0.205,0.84-0.418,1.679-0.646,2.514c0.104-0.859,0.228-1.717,0.354-2.57
		l0.002-0.015l0.011-0.024l0.601-1.365l-0.019,0.146c-0.21-0.769-0.388-1.545-0.581-2.315l-0.005-0.018l-0.003-0.039
		c-0.155-2.463-0.284-4.927-0.379-7.392c-0.088-2.464-0.166-4.931-0.213-7.396c-0.052-2.467-0.076-4.933-0.061-7.4
		C154.202,212.021,154.24,209.552,154.333,207.082z"/>
</g>
<g>
	<path fill="#11112F" d="M165.25,197c0.241,0.457,0.441,0.927,0.659,1.393c0.221,0.463,0.403,0.938,0.604,1.408
		c0.379,0.947,0.734,1.902,1.068,2.864l-0.613-0.31l2.104-0.797l2.094-0.83c0.351-0.137,0.696-0.276,1.039-0.429
		c0.338-0.157,0.704-0.272,1.032-0.446c0.33-0.17,0.687-0.308,1.023-0.474c0.317-0.192,0.643-0.385,0.986-0.567
		c-0.255,0.279-0.53,0.553-0.813,0.823c-0.3,0.242-0.604,0.479-0.922,0.701c-0.313,0.237-0.646,0.42-0.979,0.616
		c-0.333,0.193-0.663,0.396-1.011,0.558c-1.366,0.708-2.785,1.271-4.246,1.757l-0.475,0.158l-0.139-0.467
		c-0.291-0.977-0.561-1.958-0.807-2.947c-0.111-0.5-0.24-0.992-0.332-1.498C165.434,198.011,165.32,197.512,165.25,197z"/>
</g>
<g>
	<path fill="#11112F" d="M150.813,207.563c0,0,0.496-0.16,1.233-0.289c0.736-0.145,1.716-0.219,2.69-0.284
		c0.488-0.015,0.978-0.031,1.438-0.011c0.462,0.015,0.876-0.012,1.249,0.017c0.737,0.026,1.264,0.131,1.264,0.131
		s-0.453,0.226-1.187,0.438c-0.362,0.103-0.801,0.237-1.265,0.293c-0.463,0.064-0.959,0.097-1.457,0.131
		c-0.497,0.015-0.994,0.033-1.461-0.008c-0.467-0.028-0.901-0.076-1.272-0.135C151.305,207.736,150.813,207.563,150.813,207.563z"/>
</g>
<linearGradient id="SVGID_80_" gradientUnits="userSpaceOnUse" x1="271.9746" y1="-125.9395" x2="264.0442" y2="-125.8187" gradientTransform="matrix(1 0 0 -1 -147.6602 30.04)">
	<stop  offset="0" style="stop-color:#C76138"/>
	<stop  offset="0.4079" style="stop-color:#CE7043;stop-opacity:0.5921"/>
	<stop  offset="1" style="stop-color:#DB8B56;stop-opacity:0"/>
</linearGradient>
<path fill="url(#SVGID_80_)" d="M117.792,152.563c0,0,3.979,0.396,2.667,2.354c-0.788,1.176-5.375,4.75-5.375,4.75
	s4.992-3.584,7.932-4.979c-2.544-2.604-4.578-2.625-4.578-2.625L117.792,152.563z"/>
<path fill="#272361" stroke="#2C328C" stroke-width="0.75" stroke-miterlimit="10" d="M121.708,177.501"/>
<line fill="none" stroke="#000000" stroke-miterlimit="10" x1="156.75" y1="110.25" x2="158.25" y2="110.25"/>
</svg>
