<?xml version="1.0" encoding="utf-8"?>
<!-- Generator: Adobe Illustrator 16.0.0, SVG Export Plug-In . SVG Version: 6.00 Build 0)  -->
<!DOCTYPE svg PUBLIC "-//W3C//DTD SVG 1.1//EN" "http://www.w3.org/Graphics/SVG/1.1/DTD/svg11.dtd">
<svg version="1.1" id="Layer_1" xmlns="http://www.w3.org/2000/svg" xmlns:xlink="http://www.w3.org/1999/xlink" x="0px" y="0px"
	 width="50px" height="10px" viewBox="0 0 50 10" enable-background="new 0 0 50 10" xml:space="preserve">
<g>
	<path fill="#2B1400" d="M17.429,3.413c0,0-0.237,0.04-0.653,0.11c-0.415,0.058-1,0.187-1.698,0.322
		c-0.696,0.146-1.504,0.318-2.357,0.538c-0.43,0.094-0.859,0.249-1.307,0.356c-0.438,0.141-0.888,0.269-1.325,0.43
		C9.653,5.333,9.201,5.462,8.787,5.656C8.368,5.841,7.938,5.988,7.554,6.193c-0.391,0.195-0.781,0.363-1.123,0.57
		C6.087,6.968,5.734,7.126,5.449,7.331C5.158,7.525,4.879,7.695,4.63,7.846C4.399,8.02,4.198,8.172,4.032,8.297
		c-0.335,0.25-0.54,0.387-0.54,0.387s0.139-0.194,0.404-0.525c0.136-0.164,0.301-0.364,0.49-0.594
		c0.208-0.209,0.447-0.445,0.719-0.692c0.259-0.265,0.588-0.486,0.927-0.738c0.334-0.263,0.713-0.493,1.114-0.719
		C7.54,5.174,7.965,4.964,8.407,4.768c0.434-0.214,0.9-0.363,1.356-0.543c0.929-0.307,1.875-0.557,2.776-0.701
		c0.899-0.157,1.748-0.228,2.475-0.247C16.47,3.242,17.429,3.413,17.429,3.413z"/>
</g>
<g>
	<path fill="#2B1400" d="M33.984,4.125c0,0,0.83-0.183,2.093-0.156c0.631,0.008,1.368,0.063,2.149,0.194
		c0.782,0.119,1.604,0.335,2.409,0.6c0.396,0.157,0.8,0.288,1.177,0.474c0.385,0.17,0.752,0.356,1.094,0.566
		C43.254,6,43.581,6.204,43.869,6.436c0.292,0.221,0.574,0.416,0.798,0.649c0.476,0.427,0.821,0.825,1.033,1.132
		c0.216,0.297,0.339,0.467,0.339,0.467s-0.174-0.117-0.479-0.324c-0.146-0.104-0.322-0.23-0.525-0.377
		c-0.217-0.129-0.458-0.271-0.712-0.438c-0.248-0.174-0.556-0.306-0.854-0.479c-0.296-0.176-0.634-0.317-0.972-0.482
		c-0.332-0.176-0.703-0.299-1.063-0.458c-0.357-0.167-0.746-0.276-1.123-0.417c-0.756-0.271-1.533-0.49-2.268-0.686
		c-0.734-0.194-1.43-0.351-2.029-0.485C34.796,4.29,33.984,4.125,33.984,4.125z"/>
</g>
</svg>
