<?xml version="1.0" encoding="utf-8"?>
<!-- Generator: Adobe Illustrator 16.0.0, SVG Export Plug-In . SVG Version: 6.00 Build 0)  -->
<!DOCTYPE svg PUBLIC "-//W3C//DTD SVG 1.1//EN" "http://www.w3.org/Graphics/SVG/1.1/DTD/svg11.dtd">
<svg version="1.1" id="piggy_bank" xmlns="http://www.w3.org/2000/svg" xmlns:xlink="http://www.w3.org/1999/xlink" x="0px" y="0px"
	 width="60px" height="60px" viewBox="0 0 60 60" enable-background="new 0 0 60 60" xml:space="preserve">
<g id="piggy_1_">
	<path fill="#EF5B8A" stroke="#E6398B" stroke-miterlimit="10" d="M24.267,25.488c0,0-3.887-5.271-1.029-7.831
		c2.856-2.562,3.635-0.478,3.635-0.478l2.874,4.788"/>
	<path fill="#EF5B8A" stroke="#E6398B" stroke-miterlimit="10" d="M38.431,21.005c0,0,0.582-6.521,4.418-6.545
		c3.838-0.025,3.039,2.051,3.039,2.051l-1.02,5.491"/>
	<path fill="#F17AA9" stroke="#E6398B" stroke-miterlimit="10" d="M46.917,39.268c-1.188,3.789,5.369,5.146,6.238,4.092
		s2.21-4.449-1.187-7.459"/>
	
		<radialGradient id="SVGID_1_" cx="384.7246" cy="-84.4038" r="16.8727" fx="380.9834" fy="-84.3251" gradientTransform="matrix(0.4719 0.8816 1.3281 -0.7108 -39.9599 -367.2244)" gradientUnits="userSpaceOnUse">
		<stop  offset="0" style="stop-color:#FBE0E2"/>
		<stop  offset="0.3937" style="stop-color:#F17AA9"/>
		<stop  offset="0.6722" style="stop-color:#F078A7"/>
		<stop  offset="0.7953" style="stop-color:#F072A0"/>
		<stop  offset="0.8877" style="stop-color:#EF6794"/>
		<stop  offset="0.9645" style="stop-color:#EF5783"/>
		<stop  offset="1" style="stop-color:#EC4D79"/>
	</radialGradient>
	<path fill="url(#SVGID_1_)" stroke="#E6398B" stroke-miterlimit="10" d="M51.554,28.677c3.016,8.477-2.779,18.278-12.943,21.897
		c-10.164,3.617-20.849-0.322-23.865-8.799s2.779-18.279,12.941-21.897C37.853,16.263,48.536,20.201,51.554,28.677z"/>
	<path fill="#F17AA9" stroke="#E6398B" stroke-linecap="round" stroke-miterlimit="10" d="M37.698,31.77
		c-3.932-0.553-4.194,6.141-3.012,6.824c1.184,0.686,4.754,1.449,7.164-2.395"/>
	
		<radialGradient id="SVGID_2_" cx="302.4092" cy="19.2832" r="0" gradientTransform="matrix(0.0843 0.9965 1.5011 -0.127 -75.5329 -286.0118)" gradientUnits="userSpaceOnUse">
		<stop  offset="0" style="stop-color:#FBE0E2"/>
		<stop  offset="0.3937" style="stop-color:#F17AA9"/>
		<stop  offset="0.6722" style="stop-color:#F078A7"/>
		<stop  offset="0.7953" style="stop-color:#F072A0"/>
		<stop  offset="0.8877" style="stop-color:#EF6794"/>
		<stop  offset="0.9645" style="stop-color:#EF5783"/>
		<stop  offset="1" style="stop-color:#EC4D79"/>
	</radialGradient>
	<path fill="url(#SVGID_2_)" stroke="#E6398B" stroke-miterlimit="10" d="M-21.094,12.89"/>
	
		<radialGradient id="SVGID_3_" cx="330.5146" cy="-397.9453" r="5.6649" fx="329.5236" fy="-398.7725" gradientTransform="matrix(0.9841 0.178 0.1233 -0.6814 -228.4692 -302.747)" gradientUnits="userSpaceOnUse">
		<stop  offset="0" style="stop-color:#F398C0"/>
		<stop  offset="0.1981" style="stop-color:#F396BF"/>
		<stop  offset="0.2855" style="stop-color:#F28FB8"/>
		<stop  offset="0.3202" style="stop-color:#F289B3"/>
		<stop  offset="0.4751" style="stop-color:#F183AE"/>
		<stop  offset="0.6852" style="stop-color:#F0739D"/>
		<stop  offset="0.9259" style="stop-color:#EF5882"/>
		<stop  offset="1" style="stop-color:#EC4D79"/>
	</radialGradient>
	<path fill="url(#SVGID_3_)" stroke="#E6398B" stroke-miterlimit="10" d="M53.136,28.9c-0.496,1.795-2.845,2.711-5.244,2.047
		c-2.4-0.664-3.943-2.658-3.447-4.454c0.498-1.795,2.847-2.712,5.248-2.047C52.091,25.111,53.634,27.105,53.136,28.9z"/>
	<path fill="none" stroke="#991F5F" stroke-miterlimit="10" d="M34.782,50.518c0,0,5.681-0.746,7.678-3.615"/>
	
		<ellipse transform="matrix(-0.1301 -0.9915 0.9915 -0.1301 16.7223 80.0803)" fill="#991F5F" cx="43.492" cy="32.704" rx="0.698" ry="0.708"/>
	
		<ellipse transform="matrix(-0.1316 -0.9913 0.9913 -0.1316 21.7883 88.8875)" fill="#991F5F" cx="49.827" cy="34.9" rx="0.697" ry="0.707"/>
	
		<ellipse transform="matrix(0.5319 -0.8468 0.8468 0.5319 -0.495 53.2501)" fill="#B42D7B" cx="47.917" cy="27.073" rx="0.698" ry="0.583"/>
	
		<ellipse transform="matrix(0.3112 -0.9503 0.9503 0.3112 8.0267 66.711)" fill="#B42D7B" cx="50.034" cy="27.818" rx="0.698" ry="0.582"/>
	<path fill="none" stroke="#E6398B" stroke-miterlimit="10" d="M14.745,41.773c0,0-3.128-0.289-3.71,2
		c-0.582,2.291,1.645,2.426,2.136,1.139c0.492-1.287-4.275-2.063-4.986-0.764c-0.712,1.299,0.27,2.057,0.27,2.057"/>
	
		<linearGradient id="SVGID_4_" gradientUnits="userSpaceOnUse" x1="227.4092" y1="-353.2998" x2="234.1695" y2="-366.7275" gradientTransform="matrix(0.9915 -0.1303 -0.1303 -0.9915 -256.0425 -299.0992)">
		<stop  offset="0" style="stop-color:#FBE0E2"/>
		<stop  offset="0.3007" style="stop-color:#F17AA9"/>
		<stop  offset="0.6219" style="stop-color:#F078A7"/>
		<stop  offset="0.7638" style="stop-color:#F072A0"/>
		<stop  offset="0.8705" style="stop-color:#EF6794"/>
		<stop  offset="0.959" style="stop-color:#EF5783"/>
		<stop  offset="1" style="stop-color:#EC4D79"/>
	</linearGradient>
	<path fill="url(#SVGID_4_)" stroke="#E6398B" stroke-linecap="round" stroke-miterlimit="10" d="M16.725,29.504
		c0,0-3.886-5.27-1.029-7.831c2.857-2.56,3.635-0.479,3.635-0.479l2.875,4.789"/>
</g>
<linearGradient id="forearm_1_" gradientUnits="userSpaceOnUse" x1="20.9121" y1="0.1816" x2="28.3499" y2="29.196">
	<stop  offset="0" style="stop-color:#FFE1A1;stop-opacity:0"/>
	<stop  offset="0.0645" style="stop-color:#FFE1A1"/>
	<stop  offset="0.472" style="stop-color:#FDC889"/>
	<stop  offset="1" style="stop-color:#F8A76C"/>
</linearGradient>
<path id="forearm" fill="url(#forearm_1_)" d="M20.167,0c0.326,2.248,3.149,12.789,4.022,15.48c0.558,1.723,2.313,2.771,3.563,2.396
	c1.098-0.477,1.701-0.146,2.354-0.209c0.984-0.094,1.297-0.612,1.438-0.188c0.258,0.776-0.19,1.607-1.791,1.709
	c-1.813,0.115-1.449,2.121,0.229,3.229c1.157,0.764,2.063,1.334,1.916,1.646c-0.291,0.646-1.205,0.098-2.313-0.563
	c-0.859-0.513-1.708-1.167-1.707-1.167c-0.001,0,0.662,1.44,1.354,2.438c0.929,1.339,1.729,1.896,1.416,2.604
	c-0.291,0.313-2.219-1.463-2.75-2.167c-0.746-0.988-1.438-2.021-1.438-2.021s0.438,1.223,0.918,2.5
	c0.533,1.42,1.688,2.396,0.979,2.938c-0.203,0.156-1.102-0.838-1.878-2.254c-0.765-1.394-1.669-2.833-1.622-2.601
	c0.098,0.478,0.122,0.983,0.271,1.646c0.327,1.454,0.903,3.115,0.166,2.5c-0.461-0.386-0.862-1.222-1.333-2.167
	c-0.349-0.701-0.605-1.625-0.917-2.416c-0.904-2.295-0.025-4.383-0.5-5.458S15.076,1.75,14.667,0"/>
<linearGradient id="pi_foo_1_" gradientUnits="userSpaceOnUse" x1="246.292" y1="-348.4517" x2="246.8107" y2="-361.4266" gradientTransform="matrix(0.9915 -0.1303 -0.1303 -0.9915 -256.0425 -299.0992)">
	<stop  offset="0" style="stop-color:#FBE0E2"/>
	<stop  offset="0.3007" style="stop-color:#F17AA9"/>
	<stop  offset="0.6219" style="stop-color:#F078A7"/>
	<stop  offset="0.7638" style="stop-color:#F072A0"/>
	<stop  offset="0.8705" style="stop-color:#EF6794"/>
	<stop  offset="0.959" style="stop-color:#EF5783"/>
	<stop  offset="1" style="stop-color:#EC4D79"/>
</linearGradient>
<path id="pi_foo" fill="url(#pi_foo_1_)" stroke="#E6398B" stroke-linecap="round" stroke-miterlimit="10" d="M31.542,20.958
	c0,0-1.688-5.043,1.948-6.268c3.636-1.224,3.528,0.998,3.528,0.998l0.75,5.535"/>
<path fill="#272361" stroke="#2D318B" stroke-width="0.75" stroke-miterlimit="10" d="M27.876,22.334"/>
<linearGradient id="SVGID_5_" gradientUnits="userSpaceOnUse" x1="31.0254" y1="19.543" x2="28.8165" y2="19.5093">
	<stop  offset="0" style="stop-color:#C66137"/>
	<stop  offset="0.4079" style="stop-color:#CD6F42;stop-opacity:0.5921"/>
	<stop  offset="1" style="stop-color:#DA8A55;stop-opacity:0"/>
</linearGradient>
<path fill="url(#SVGID_5_)" d="M30.636,18.521c0,0-1.656,0.344-2,0.781s-0.063,1.219-0.063,1.219s-0.121-1.065,0.625-1.219
	c0.553-0.113,1.469-0.25,1.469-0.25L30.636,18.521z"/>
<linearGradient id="SVGID_6_" gradientUnits="userSpaceOnUse" x1="25.8374" y1="25.8818" x2="24.7157" y2="25.8648">
	<stop  offset="0" style="stop-color:#C66137"/>
	<stop  offset="0.4079" style="stop-color:#CD6F42;stop-opacity:0.5921"/>
	<stop  offset="1" style="stop-color:#DA8A55;stop-opacity:0"/>
</linearGradient>
<path fill="url(#SVGID_6_)" d="M24.573,23.677c0,0,0.563,3.313,0.781,3.75s0.125,0.625,0.125,0.625s0.438,0.25-0.219-2
	c-0.25-1.344-0.406-2.28-0.406-2.28L24.573,23.677z"/>
<linearGradient id="SVGID_7_" gradientUnits="userSpaceOnUse" x1="29.0142" y1="25.7837" x2="26.6554" y2="25.7478">
	<stop  offset="0" style="stop-color:#C66137"/>
	<stop  offset="0.4079" style="stop-color:#CD6F42;stop-opacity:0.5921"/>
	<stop  offset="1" style="stop-color:#DA8A55;stop-opacity:0"/>
</linearGradient>
<path fill="url(#SVGID_7_)" d="M26.323,23.271c0,0,0.438,1.656,0.688,2.188s1.594,2.531,1.5,2.75s0.344,0.281-0.219-1
	s-1.219-2.094-1.406-2.938s-0.428-1.082-0.428-1.082L26.323,23.271z"/>
<linearGradient id="SVGID_8_" gradientUnits="userSpaceOnUse" x1="34.9189" y1="28.2427" x2="32.2231" y2="28.2016" gradientTransform="matrix(0.993 -0.118 0.118 0.993 -7.0169 0.7488)">
	<stop  offset="0" style="stop-color:#C66137"/>
	<stop  offset="0.4079" style="stop-color:#CD6F42;stop-opacity:0.5921"/>
	<stop  offset="1" style="stop-color:#DA8A55;stop-opacity:0"/>
</linearGradient>
<path fill="url(#SVGID_8_)" d="M27.63,22.484c0,0,0.658,1.564,0.969,2.063c0.312,0.498,2.193,2.115,2.047,2.83
	c0.131-0.059,0.334-0.414-0.275-1.215c-0.797-1.047-1.656-1.987-1.943-2.804c-0.285-0.815-0.551-1.023-0.551-1.023L27.63,22.484z"/>
<linearGradient id="SVGID_9_" gradientUnits="userSpaceOnUse" x1="43.4395" y1="35.8047" x2="41.0038" y2="35.7676" gradientTransform="matrix(0.9172 -0.3985 0.3985 0.9172 -22.6936 6.2039)">
	<stop  offset="0" style="stop-color:#C66137"/>
	<stop  offset="0.4079" style="stop-color:#CD6F42;stop-opacity:0.5921"/>
	<stop  offset="1" style="stop-color:#DA8A55;stop-opacity:0"/>
</linearGradient>
<path fill="url(#SVGID_9_)" d="M27.884,20.583c0,0,0.906,1.39,1.314,1.813c0.438,0.453,2.635,1.795,2.641,1.781
	c0.109-0.25,0.127-0.286-0.484-0.823c-0.984-0.864-1.353-0.759-1.922-1.411c-0.75-0.859-0.891-1.547-0.891-1.547L27.884,20.583z"/>
</svg>
