<?xml version="1.0" encoding="utf-8"?>
<!-- Generator: Adobe Illustrator 16.0.0, SVG Export Plug-In . SVG Version: 6.00 Build 0)  -->
<!DOCTYPE svg PUBLIC "-//W3C//DTD SVG 1.1//EN" "http://www.w3.org/Graphics/SVG/1.1/DTD/svg11.dtd">
<svg version="1.1" id="Capa_1" xmlns="http://www.w3.org/2000/svg" xmlns:xlink="http://www.w3.org/1999/xlink" x="0px" y="0px"
	 width="50px" height="50px" viewBox="0 0 50 50" enable-background="new 0 0 50 50" xml:space="preserve">
<g>
	<g>
		<path fill="#42A5F5" d="M16.99,48.896V34.321c0-0.563-0.438-1.001-1.001-1.001H6.731c-0.563,0-1.001,0.438-1.001,1.001v14.575
			 M31.565,48.896V28.441c0-0.564-0.438-1.002-1.001-1.002h-9.195c-0.563,0-1.001,0.438-1.001,1.002v20.455 M46.204,48.896V23.31
			c0-0.563-0.438-1-1.001-1h-9.258c-0.563,0-1.002,0.438-1.002,1v25.587 M7.732,48.896V35.321h7.194v13.575 M29.564,48.896h-4.327
			H22.37V29.441h7.195V48.896z M36.946,48.896V24.312h7.193v24.584"/>
	</g>
	
		<line fill="none" stroke="#42A5F5" stroke-width="1.5" stroke-linecap="round" stroke-miterlimit="10" x1="1.584" y1="48.813" x2="48.999" y2="48.813"/>
</g>
<g>
	<g>
		<polyline fill="none" stroke="#42A5F5" stroke-width="2" stroke-linecap="round" stroke-linejoin="round" points="7.885,26.919 
			20.153,17.524 34.08,17.414 42.347,7.85 		"/>
		<g>
			<polygon fill="#42A5F5" points="43.312,12.396 41.538,8.785 37.708,7.553 46.25,3.333 			"/>
		</g>
	</g>
</g>
</svg>
