<?xml version="1.0" encoding="utf-8"?>
<!-- Generator: Adobe Illustrator 16.0.0, SVG Export Plug-In . SVG Version: 6.00 Build 0)  -->
<!DOCTYPE svg PUBLIC "-//W3C//DTD SVG 1.1//EN" "http://www.w3.org/Graphics/SVG/1.1/DTD/svg11.dtd">
<svg version="1.1" id="Layer_1" xmlns="http://www.w3.org/2000/svg" xmlns:xlink="http://www.w3.org/1999/xlink" x="0px" y="0px"
	 width="50px" height="50px" viewBox="0 0 50 50" enable-background="new 0 0 50 50" xml:space="preserve">
<g>
	<g>
		<circle fill="#ED1C24" cx="24.875" cy="25.875" r="23.875"/>
	</g>
	<g>
		<path fill="#FFFFFF" d="M37.691,18.674l-8.116,8.118l8.116,8.117c1.207,1.208,1.207,3.165,0,4.374
			c-0.604,0.603-1.395,0.904-2.186,0.904c-0.792,0-1.583-0.303-2.186-0.904l-8.119-8.12l-8.118,8.12
			c-0.603,0.603-1.394,0.904-2.186,0.904c-0.791,0-1.581-0.303-2.185-0.904c-1.208-1.208-1.208-3.165,0-4.374l8.117-8.117
			l-8.117-8.118c-1.208-1.207-1.208-3.164,0-4.372c1.208-1.207,3.163-1.207,4.371,0l8.119,8.118l8.118-8.118
			c1.207-1.207,3.164-1.207,4.371,0C38.898,15.51,38.898,17.467,37.691,18.674z"/>
	</g>
</g>
</svg>
