<?xml version="1.0" encoding="utf-8"?>
<!-- Generator: Adobe Illustrator 16.0.0, SVG Export Plug-In . SVG Version: 6.00 Build 0)  -->
<!DOCTYPE svg PUBLIC "-//W3C//DTD SVG 1.1//EN" "http://www.w3.org/Graphics/SVG/1.1/DTD/svg11.dtd">
<svg version="1.1" id="Layer_1" xmlns="http://www.w3.org/2000/svg" xmlns:xlink="http://www.w3.org/1999/xlink" x="0px" y="0px"
	 width="200px" height="200px" viewBox="0 0 200 200" enable-background="new 0 0 200 200" xml:space="preserve">
<path fill="#FFFFFF" d="M192.218,100.354c0,51.499-41.74,93.239-93.248,93.239c-51.488,0-93.229-41.74-93.229-93.239
	S47.482,7.116,98.97,7.116C150.478,7.116,192.218,48.855,192.218,100.354z"/>
<g>
	<path fill="#343442" d="M33.71,75.715l-4.398-0.843v-4.218h9.398c1.326,0,3.112-0.08,5.362-0.241c0.521-0.04,1.315-0.08,2.38-0.121
		c1.063-0.04,2.018-0.06,2.862-0.06c7.31,0,12.812,1.828,16.508,5.482c3.695,3.655,5.543,8.897,5.543,15.725
		c0,4.7-0.904,8.897-2.711,12.592c-1.807,3.695-4.398,6.597-7.772,8.706c-3.374,2.108-7.35,3.163-11.929,3.163
		c-1.245,0-3.113-0.081-5.603-0.241c-2.33-0.161-3.836-0.241-4.519-0.241h-9.76v-3.977l4.639-0.662V75.715z M48.712,111.503
		c3.615-0.04,6.417-1.576,8.405-4.609c1.988-3.032,2.982-7.682,2.982-13.947c0-5.784-0.974-10.312-2.922-13.586
		c-1.949-3.273-5.011-4.91-9.188-4.91c-0.964,0-1.828,0.06-2.59,0.181c-0.764,0.121-1.266,0.202-1.506,0.241v36.089
		C45.298,111.403,46.905,111.584,48.712,111.503z"/>
	<path fill="#343442" d="M77.992,89.061c1.526-2.671,3.585-4.669,6.176-5.995c2.59-1.325,5.432-1.988,8.525-1.988
		c5.061,0,9.027,1.516,11.899,4.548c2.871,3.033,4.309,7.26,4.309,12.683c0,3.977-0.764,7.29-2.291,9.94
		c-1.525,2.651-3.574,4.62-6.145,5.904c-2.571,1.285-5.443,1.929-8.615,1.929c-5.021,0-8.968-1.516-11.839-4.549
		c-2.872-3.032-4.308-7.26-4.308-12.683C75.703,94.995,76.465,91.732,77.992,89.061z M96.76,108.762
		c0.943-2.068,1.416-5.312,1.416-9.73c0-4.699-0.452-8.164-1.355-10.393c-0.904-2.229-2.42-3.344-4.549-3.344
		c-3.937,0-5.904,4.277-5.904,12.833c0,4.66,0.482,8.114,1.446,10.363c0.964,2.25,2.509,3.374,4.639,3.374
		C94.38,111.864,95.815,110.831,96.76,108.762z"/>
	<path fill="#343442" d="M118.509,114.124c-1.265-1.226-1.897-3.123-1.897-5.694V86.982h-3.675v-3.495l1.204-0.482
		c0.965-0.321,1.808-0.663,2.531-1.024c0.803-0.762,1.445-1.767,1.928-3.012c0.603-1.446,1.265-3.474,1.988-6.085h5.603l0.361,9.037
		h8.616v5.061h-8.495v15.965c0,2.21,0.061,3.757,0.181,4.64c0.12,0.884,0.352,1.456,0.692,1.717
		c0.341,0.262,0.974,0.392,1.898,0.392c1.888,0,3.675-0.321,5.362-0.964l1.265,3.796c-1.125,0.924-2.792,1.728-5,2.409
		c-2.21,0.683-4.439,1.024-6.688,1.024C121.732,115.961,119.774,115.35,118.509,114.124z"/>
	<path fill="#343442" d="M146.313,110.418c0.28,0.442,0.934,0.844,1.958,1.205s2.058,0.543,3.103,0.543
		c1.646,0,2.901-0.352,3.766-1.055c0.863-0.702,1.296-1.616,1.296-2.741c0-1.205-0.563-2.199-1.688-2.982
		c-1.125-0.783-2.973-1.737-5.543-2.862l-2.289-1.023c-2.611-1.165-4.569-2.581-5.874-4.248c-1.306-1.666-1.958-3.785-1.958-6.356
		c0-1.847,0.542-3.504,1.626-4.971c1.085-1.466,2.651-2.621,4.7-3.464c2.048-0.843,4.458-1.265,7.229-1.265
		c1.928,0,3.594,0.121,5,0.362c1.406,0.241,2.832,0.542,4.278,0.903c0.964,0.282,1.687,0.443,2.169,0.482v8.193h-5.362l-1.566-4.639
		c-0.201-0.362-0.684-0.693-1.446-0.994c-0.764-0.301-1.626-0.452-2.591-0.452c-1.526,0-2.731,0.332-3.614,0.994
		c-0.884,0.663-1.326,1.557-1.326,2.681c0,1.286,0.502,2.3,1.507,3.042c1.003,0.744,2.61,1.617,4.819,2.621l1.266,0.542
		c3.253,1.366,5.804,2.842,7.651,4.428c1.847,1.587,2.771,3.765,2.771,6.537c0,2.974-1.186,5.413-3.555,7.32
		c-2.37,1.908-5.864,2.862-10.483,2.862c-2.129,0-4.017-0.172-5.663-0.513c-1.647-0.341-3.455-0.792-5.422-1.355l-1.988-0.542
		v-8.013h5.724L146.313,110.418z"/>
</g>
<g>
	<path fill="#343442" d="M117.221,140.197c-0.7-0.42-1.257-1.063-1.669-1.932c-0.413-0.868-0.62-1.938-0.62-3.213
		c0-1.189,0.245-2.275,0.735-3.255c0.489-0.979,1.193-1.754,2.11-2.32c0.917-0.567,1.998-0.851,3.244-0.851
		c0.714,0,1.365,0.077,1.953,0.23v-3.927l-2.142-0.252v-0.903l3.78-0.378h0.063l0.462,0.336v15.792h1.218v0.966
		c-0.448,0.099-0.836,0.176-1.165,0.231s-0.676,0.084-1.04,0.084s-0.623-0.063-0.776-0.188c-0.154-0.127-0.231-0.393-0.231-0.799
		v-0.672c-0.392,0.477-0.906,0.875-1.543,1.197c-0.638,0.322-1.327,0.483-2.068,0.483
		C118.69,140.828,117.921,140.618,117.221,140.197z M121.903,138.969c0.477-0.244,0.833-0.528,1.071-0.85v-7.687
		c-0.112-0.168-0.375-0.318-0.787-0.451c-0.413-0.133-0.851-0.2-1.313-0.2c-1.092,0-1.964,0.417-2.614,1.25
		c-0.651,0.833-0.977,2.117-0.977,3.854c0,1.512,0.286,2.632,0.86,3.36c0.574,0.728,1.316,1.092,2.227,1.092
		C120.917,139.337,121.428,139.214,121.903,138.969z"/>
	<path fill="#343442" d="M128.813,131.462c0.519-0.924,1.2-1.628,2.048-2.11c0.847-0.483,1.754-0.725,2.72-0.725
		c1.764,0,3.09,0.56,3.979,1.68c0.889,1.12,1.333,2.59,1.333,4.41c0,1.274-0.259,2.373-0.776,3.297
		c-0.519,0.924-1.201,1.624-2.048,2.1c-0.848,0.477-1.754,0.715-2.72,0.715c-1.764,0-3.091-0.561-3.979-1.681
		s-1.333-2.59-1.333-4.41C128.036,133.478,128.295,132.386,128.813,131.462z M135.701,138.434c0.518-0.798,0.776-1.98,0.776-3.549
		c0-1.554-0.238-2.786-0.714-3.696s-1.239-1.365-2.289-1.365c-0.966,0-1.711,0.399-2.236,1.197s-0.787,1.981-0.787,3.549
		c0,1.555,0.244,2.786,0.734,3.696s1.253,1.365,2.289,1.365C134.44,139.631,135.183,139.231,135.701,138.434z"/>
	<path fill="#343442" d="M147.418,130.559l-1.596-0.378v-1.113l3.255-0.398h0.042l0.482,0.378v10.353l1.681,0.168v1.029h-5.565
		v-1.029l1.701-0.188V130.559z M147.25,126.464c-0.225-0.252-0.336-0.574-0.336-0.966c0-0.448,0.137-0.819,0.409-1.113
		c0.273-0.294,0.647-0.441,1.124-0.441c0.476,0,0.825,0.126,1.05,0.378c0.224,0.252,0.336,0.574,0.336,0.967
		c0,0.476-0.137,0.854-0.409,1.134c-0.273,0.28-0.655,0.42-1.145,0.42h-0.021C147.81,126.842,147.474,126.716,147.25,126.464z"/>
	<path fill="#343442" d="M154.579,140.261c-0.392-0.364-0.588-0.987-0.588-1.869v-8.063h-1.512v-0.945
		c0.069-0.014,0.266-0.063,0.588-0.147c0.321-0.084,0.538-0.16,0.65-0.23c0.225-0.126,0.399-0.378,0.525-0.756
		c0.112-0.267,0.245-0.693,0.399-1.281c0.153-0.588,0.244-0.938,0.272-1.05h1.239l0.042,3.023h3.507v1.387h-3.507v6.446
		c0,0.798,0.024,1.358,0.073,1.681s0.154,0.532,0.315,0.63c0.16,0.098,0.438,0.146,0.829,0.146c0.378,0,0.795-0.049,1.25-0.146
		c0.454-0.098,0.808-0.203,1.061-0.315l0.314,0.945c-0.336,0.252-0.879,0.497-1.627,0.734c-0.75,0.238-1.432,0.357-2.048,0.357
		C155.566,140.807,154.971,140.625,154.579,140.261z"/>
	<path fill="#343442" d="M163.105,138.413c0.321-0.294,0.686-0.441,1.092-0.441c0.447,0,0.79,0.126,1.028,0.378
		s0.357,0.567,0.357,0.945c0,0.448-0.157,0.812-0.473,1.092c-0.314,0.28-0.696,0.42-1.145,0.42c-0.364,0-0.679-0.123-0.944-0.367
		c-0.267-0.245-0.399-0.563-0.399-0.956C162.622,139.063,162.783,138.707,163.105,138.413z M164.68,135.599h-1.344l-0.63-13.545
		h2.562L164.68,135.599z"/>
</g>
</svg>
