<?xml version="1.0" encoding="utf-8"?>
<!-- Generator: Adobe Illustrator 16.0.0, SVG Export Plug-In . SVG Version: 6.00 Build 0)  -->
<!DOCTYPE svg PUBLIC "-//W3C//DTD SVG 1.1//EN" "http://www.w3.org/Graphics/SVG/1.1/DTD/svg11.dtd">
<svg version="1.1" id="Layer_1" xmlns="http://www.w3.org/2000/svg" xmlns:xlink="http://www.w3.org/1999/xlink" x="0px" y="0px"
	 width="50px" height="30px" viewBox="0 0 50 30" enable-background="new 0 0 50 30" xml:space="preserve">
<g>
	<path fill="#770000" d="M14.972,12.78c0,0.992-2.341,1.363-4.819,2.164c-2.655,0.857-5.309,1.155-5.309,0.163
		s2.561-4.451,5.166-4.451S14.972,11.788,14.972,12.78z"/>
	<radialGradient id="SVGID_1_" cx="9.2344" cy="7.6475" r="6.9156" gradientUnits="userSpaceOnUse">
		<stop  offset="0" style="stop-color:#ED1C24"/>
		<stop  offset="0.7634" style="stop-color:#C1272D"/>
		<stop  offset="1" style="stop-color:#9C1B28"/>
	</radialGradient>
	<path fill="url(#SVGID_1_)" d="M3.66,5.307C2.435,9.881,4.885,15.435,4.885,15.435s-0.041-1.715,3.757-2.859
		c5.251-1.581,6.509,1.272,6.509,1.272S14.096,1.954,11.824,0.539C8.724-1.391,5.818,0.982,3.66,5.307z"/>
	<radialGradient id="SVGID_2_" cx="27.1934" cy="20.9658" r="16.2758" gradientUnits="userSpaceOnUse">
		<stop  offset="0" style="stop-color:#FFE2A2"/>
		<stop  offset="0.472" style="stop-color:#FFC98A"/>
		<stop  offset="1" style="stop-color:#FFA96A"/>
	</radialGradient>
	<path fill="url(#SVGID_2_)" d="M12.961,12.678c0.446,0.295,1.164,3.673,2.523,6.673c1.17,2.579,2.806,5.564,2.806,5.564
		c5.123-1.679,14.462-1.354,17.359-1.997c0.484-0.053,1.047-0.904,1.299-2.748c0.069-1.162,0.407-2.027,0.557-2.675
		c0.322-1.399,0.205-1.267,0.761-1.188c0.896,0.126,1.094,2.092,0.428,2.996c-0.633,0.859,0.126,1.196,0.951,0.902
		c2.807-0.998,6.279-3.376,6.649-2.923c0.753,0.915-0.938,1.377-2.131,2.258c-1.015,0.749-2.092,1.475-2.093,1.475
		c0,0,2.203-0.493,3.663-0.762c1.782-0.329,2.663-0.951,2.806-0.476c0.346,1.156-2.135,1.7-3.092,1.95
		c-1.453,0.381-2.908,0.954-2.9,1.095c0,0,1.063,0.081,2.33-0.048c1.501-0.154,3.25-0.492,3.33-0.047
		c0.069,0.399-1.346,0.771-2.75,1.06c-1.427,0.293-2.84,0.498-2.673,0.556c1.803,0.622,4.324,0.642,4.091,1.047
		c-0.224,0.387-1.854,0.476-4.424,0.237c-0.923-0.086-1.754-0.024-2.663,0c-2.086,0.06-2.902-0.285-2.902-0.285
		s-14.98,4.709-20.682,4.098c-1.036-0.111-4.768-4.301-7.284-8.425c-2.525-4.14-2.821-5.244-3.096-6.348
		C5.548,13.566,11.613,11.79,12.961,12.678z"/>
	<path fill="#770000" d="M13.727,4.653c0,0,1.624,4.411,1.256,9.25c0.184-4.012-1.287-8.3-1.287-8.3L13.727,4.653z"/>
	<path opacity="0.4" fill="#C1330C" d="M12.624,12.433c0,0-5.452,1.47-5.084,2.45c0.275,0.735,4.38,10.108,8.454,13.569
		c1.098,0.933,4.625,0.521,5.819,0.612c-1.164,0.215-5.464,0.689-6.034,0.245c-4.87-3.798-9.646-12.903-9.955-14.642
		C5.579,13.291,12.624,12.433,12.624,12.433z"/>
	<path opacity="0.4" fill="#C1330C" d="M41.62,21.07c0,0,0.816-0.348,1.716-0.898c0.897-0.552,1.411-1.137,2.062-1.449
		c1.143-0.552,1.081-1.063,1.081-1.063s-0.631,0.674-1.061,0.796c-0.441,0.127-1.083,0.777-1.43,1.001
		C43.642,19.682,41.62,21.07,41.62,21.07z"/>
	<path opacity="0.4" fill="#C1330C" d="M42.539,22.683c0,0,0.795-0.22,1.795-0.552c1-0.331,1.596-0.572,2.288-0.774
		c1.818-0.531,1.899-1.164,1.899-1.164s-0.919,0.837-1.756,0.939c-0.455,0.055-1.428,0.412-1.817,0.551
		C44.56,21.821,42.539,22.683,42.539,22.683z"/>
	<path opacity="0.4" fill="#C1330C" d="M42.742,24.256c0,0,0.205-0.059,1.246-0.226c1.041-0.165,1.491-0.284,2.184-0.435
		c2.043-0.442,2.062-0.842,2.062-0.842s-0.978,0.501-1.885,0.644c-0.453,0.071-1.587,0.294-1.993,0.368
		C43.95,23.839,42.742,24.256,42.742,24.256z"/>
	<path opacity="0.4" fill="#C1330C" d="M41.614,25.526c0,0,0.615,0.143,1.67,0.153c1.054,0.011,0.885,0.125,1.593,0.092
		c2.088-0.095,1.99-0.413,1.99-0.413s-0.997,0.241-1.914,0.229c-0.459-0.005-1.501-0.036-1.914-0.03
		C42.625,25.563,41.614,25.526,41.614,25.526z"/>
	<path opacity="0.4" fill="#C1330C" d="M38.68,16.559c0,0,0.53,1.389-0.041,2.267c-0.38,0.582-0.103,1.306-0.103,1.306
		s-0.195-0.32,0.157-0.827C39.21,18.56,39.293,16.966,38.68,16.559z"/>
</g>
</svg>
