<?xml version="1.0" encoding="utf-8"?>
<!-- Generator: Adobe Illustrator 16.0.0, SVG Export Plug-In . SVG Version: 6.00 Build 0)  -->
<!DOCTYPE svg PUBLIC "-//W3C//DTD SVG 1.1//EN" "http://www.w3.org/Graphics/SVG/1.1/DTD/svg11.dtd">
<svg version="1.1" id="Layer_1" xmlns="http://www.w3.org/2000/svg" xmlns:xlink="http://www.w3.org/1999/xlink" x="0px" y="0px"
	 width="50px" height="10px" viewBox="0 0 50 10" enable-background="new 0 0 50 10" xml:space="preserve">
<g>
	<path fill="#3F2F22" d="M17.53,1.469c0,0-0.841,0.153-2.063,0.414c-0.611,0.136-1.318,0.294-2.066,0.491
		c-0.747,0.198-1.537,0.422-2.307,0.697c-0.382,0.143-0.778,0.255-1.142,0.424C9.585,3.657,9.208,3.782,8.87,3.961
		C8.527,4.129,8.183,4.273,7.882,4.453C7.579,4.63,7.268,4.765,7.015,4.941C6.757,5.11,6.512,5.257,6.292,5.388
		C6.086,5.537,5.906,5.666,5.758,5.773c-0.308,0.209-0.485,0.33-0.485,0.33S5.399,5.932,5.619,5.63
		c0.216-0.311,0.569-0.715,1.052-1.149c0.227-0.236,0.515-0.435,0.812-0.66c0.292-0.233,0.625-0.44,0.979-0.641
		c0.347-0.213,0.721-0.402,1.11-0.575c0.383-0.19,0.794-0.322,1.196-0.481c0.819-0.27,1.654-0.489,2.45-0.611
		c0.793-0.134,1.542-0.19,2.183-0.199C16.686,1.286,17.53,1.469,17.53,1.469z"/>
</g>
<g>
	<path fill="#3F2F22" d="M48.461,6.501c0,0-0.568-0.258-1.424-0.646c-0.419-0.184-0.908-0.397-1.434-0.626
		c-0.523-0.217-1.078-0.446-1.646-0.636c-0.283-0.093-0.562-0.211-0.847-0.28c-0.282-0.074-0.555-0.182-0.828-0.235
		c-0.272-0.063-0.533-0.145-0.787-0.186c-0.253-0.042-0.492-0.116-0.717-0.138c-0.225-0.028-0.434-0.065-0.619-0.099
		c-0.188-0.018-0.352-0.034-0.486-0.047c-0.275-0.036-0.435-0.057-0.435-0.057s0.146-0.057,0.415-0.141
		c0.267-0.095,0.658-0.186,1.142-0.23c0.242-0.041,0.503-0.032,0.781-0.03c0.278-0.007,0.571,0.019,0.871,0.063
		c0.604,0.064,1.229,0.24,1.842,0.438c0.604,0.225,1.19,0.486,1.707,0.792c0.521,0.297,0.976,0.623,1.343,0.927
		C48.084,5.973,48.461,6.501,48.461,6.501z"/>
</g>
</svg>
