<?xml version="1.0" encoding="utf-8"?>
<!-- Generator: Adobe Illustrator 16.0.0, SVG Export Plug-In . SVG Version: 6.00 Build 0)  -->
<!DOCTYPE svg PUBLIC "-//W3C//DTD SVG 1.1//EN" "http://www.w3.org/Graphics/SVG/1.1/DTD/svg11.dtd">
<svg version="1.1" id="Layer_1" xmlns="http://www.w3.org/2000/svg" xmlns:xlink="http://www.w3.org/1999/xlink" x="0px" y="0px"
	 width="60px" height="20px" viewBox="0 0 60 20" enable-background="new 0 0 60 20" xml:space="preserve">
<g>
	<radialGradient id="SVGID_1_" cx="17.7261" cy="11.0742" r="8.8534" gradientUnits="userSpaceOnUse">
		<stop  offset="0.2581" style="stop-color:#FFFFFF"/>
		<stop  offset="1" style="stop-color:#DCDCDC"/>
	</radialGradient>
	<path fill="url(#SVGID_1_)" d="M27.174,13.885c-1.012,4.871-5.332,5.833-10.202,4.822c-4.872-1.01-7.553-5.309-8.883-7.925
		c2.547-4.383,7.222-8.559,12.093-7.549C25.053,4.244,28.184,9.013,27.174,13.885z"/>
	<path fill="#301909" d="M27.174,13.885c-0.122,0.51-0.254,1.016-0.462,1.498c-0.205,0.482-0.466,0.939-0.784,1.357
		c-0.322,0.416-0.705,0.777-1.119,1.104c-0.433,0.301-0.893,0.563-1.386,0.754c-0.985,0.383-2.042,0.562-3.099,0.601
		c-1.058,0.04-2.119-0.054-3.161-0.232c-0.561-0.097-1.025-0.265-1.543-0.394c-0.511-0.096-0.992-0.396-1.49-0.61
		c-0.516-0.208-0.951-0.521-1.396-0.827c-0.22-0.154-0.454-0.295-0.663-0.464l-0.603-0.536c-0.199-0.182-0.407-0.355-0.6-0.543
		l-0.536-0.602c-0.37-0.395-0.695-0.819-1.004-1.258c-0.331-0.424-0.609-0.881-0.893-1.334c-0.292-0.45-0.52-0.932-0.783-1.396
		l-0.128-0.227l0.141-0.24c0.317-0.54,0.65-1.069,1.009-1.583c0.363-0.51,0.751-1.001,1.161-1.475
		c0.412-0.471,0.84-0.93,1.301-1.357c0.453-0.433,0.937-0.838,1.452-1.203c0.504-0.376,1.042-0.715,1.603-1.007
		c0.556-0.301,1.146-0.546,1.754-0.73c0.604-0.192,1.233-0.326,1.868-0.37c0.317-0.03,0.634-0.051,0.953-0.023
		c0.318,0.006,0.635,0.027,0.947,0.094c0.304,0.044,0.641,0.109,0.924,0.206c0.293,0.08,0.587,0.168,0.883,0.298
		c0.298,0.113,0.588,0.236,0.859,0.391c0.281,0.138,0.551,0.292,0.807,0.473c0.266,0.163,0.515,0.349,0.752,0.551
		c0.249,0.187,0.472,0.402,0.69,0.624c0.443,0.432,0.83,0.92,1.169,1.434c0.347,0.509,0.632,1.057,0.871,1.623
		c0.235,0.568,0.401,1.16,0.527,1.759c0.056,0.3,0.09,0.605,0.135,0.908l0.042,0.916l-0.054,0.914L27.174,13.885z M27.174,13.885
		l0.135-0.906l0.043-0.914l-0.051-0.912c-0.049-0.301-0.086-0.604-0.145-0.903c-0.139-0.594-0.328-1.174-0.577-1.728
		c-0.255-0.551-0.553-1.083-0.912-1.571c-0.361-0.485-0.764-0.94-1.217-1.336C24.227,5.411,24,5.215,23.749,5.048
		c-0.238-0.183-0.488-0.349-0.752-0.491c-0.253-0.16-0.521-0.293-0.796-0.41c-0.268-0.135-0.546-0.234-0.826-0.323
		c-0.27-0.105-0.564-0.177-0.866-0.241c-0.302-0.083-0.568-0.114-0.871-0.144C19.347,3.392,19.054,3.39,18.761,3.4
		c-0.293-0.011-0.584,0.026-0.874,0.069c-0.579,0.072-1.149,0.227-1.697,0.435c-0.55,0.196-1.078,0.46-1.586,0.756
		c-0.512,0.289-1.003,0.621-1.465,0.99c-0.473,0.354-0.909,0.759-1.337,1.169c-0.431,0.408-0.832,0.849-1.219,1.3
		C9.817,9.03,9.117,10,8.51,11.025l0.013-0.465c0.248,0.447,0.463,0.918,0.737,1.351c0.26,0.44,0.511,0.888,0.812,1.3
		c0.281,0.428,0.577,0.844,0.914,1.225l0.483,0.592c0.172,0.187,0.358,0.359,0.536,0.539l0.541,0.539
		c0.188,0.17,0.399,0.311,0.598,0.469c0.402,0.311,0.801,0.633,1.254,0.841c0.45,0.222,0.851,0.524,1.373,0.653
		c0.49,0.152,1.009,0.363,1.474,0.466c1.009,0.229,2.039,0.379,3.075,0.396c1.032,0.016,2.081-0.091,3.059-0.443
		c0.49-0.174,0.95-0.416,1.388-0.697c0.201-0.164,0.415-0.314,0.607-0.49c0.174-0.193,0.372-0.367,0.525-0.578
		c0.321-0.41,0.586-0.863,0.796-1.343C26.908,14.896,27.047,14.393,27.174,13.885z"/>
</g>
<g>
	<radialGradient id="SVGID_2_" cx="43.1309" cy="11.4785" r="8.3731" gradientUnits="userSpaceOnUse">
		<stop  offset="0.2581" style="stop-color:#FFFFFF"/>
		<stop  offset="1" style="stop-color:#DCDCDC"/>
	</radialGradient>
	<path fill="url(#SVGID_2_)" d="M34.195,14.135c0.955,4.609,5.041,5.518,9.647,4.563c4.607-0.956,7.146-5.021,8.402-7.496
		c-2.41-4.146-6.829-8.094-11.438-7.139C36.201,5.017,33.24,9.527,34.195,14.135z"/>
	<path fill="#301909" d="M34.195,14.135c0.121,0.48,0.25,0.958,0.451,1.411c0.199,0.452,0.449,0.88,0.754,1.271
		c0.145,0.199,0.332,0.363,0.496,0.545c0.183,0.166,0.385,0.31,0.574,0.465c0.414,0.267,0.85,0.494,1.313,0.658
		c0.925,0.332,1.916,0.432,2.892,0.414c0.979-0.017,1.952-0.158,2.906-0.377c0.438-0.099,0.93-0.299,1.393-0.441
		c0.493-0.124,0.871-0.411,1.295-0.621c0.426-0.195,0.803-0.502,1.183-0.796c0.188-0.147,0.387-0.281,0.563-0.442l0.51-0.51
		c0.168-0.171,0.344-0.334,0.507-0.511l0.456-0.56c0.316-0.359,0.597-0.754,0.861-1.156c0.284-0.389,0.521-0.813,0.767-1.229
		c0.259-0.407,0.462-0.853,0.696-1.274l0.013,0.465c-0.574-0.967-1.235-1.884-1.958-2.744c-0.365-0.427-0.744-0.843-1.15-1.229
		c-0.404-0.387-0.814-0.77-1.262-1.105c-0.436-0.349-0.898-0.663-1.383-0.935c-0.479-0.281-0.977-0.531-1.495-0.717
		c-0.517-0.197-1.054-0.344-1.601-0.413c-0.272-0.042-0.547-0.076-0.824-0.066c-0.276-0.011-0.553-0.009-0.827,0.035
		c-0.287,0.027-0.536,0.055-0.823,0.134c-0.284,0.061-0.563,0.128-0.818,0.226c-0.264,0.084-0.525,0.177-0.779,0.304
		C38.643,5.044,38.391,5.17,38.15,5.32c-0.252,0.134-0.486,0.29-0.713,0.463c-0.236,0.158-0.451,0.342-0.662,0.534
		c-0.43,0.373-0.812,0.803-1.152,1.261c-0.34,0.46-0.622,0.963-0.863,1.484c-0.236,0.524-0.416,1.072-0.547,1.633
		c-0.056,0.283-0.091,0.57-0.138,0.854l-0.05,0.863l0.041,0.864L34.195,14.135z M34.195,14.135l-0.139-0.855l-0.052-0.865
		l0.039-0.866c0.043-0.286,0.075-0.575,0.128-0.858c0.119-0.567,0.275-1.126,0.497-1.665c0.226-0.535,0.495-1.054,0.823-1.536
		c0.32-0.486,0.685-0.949,1.104-1.358c0.205-0.21,0.418-0.414,0.652-0.591c0.223-0.192,0.459-0.369,0.711-0.523
		c0.241-0.171,0.497-0.318,0.764-0.449c0.256-0.147,0.53-0.264,0.813-0.372c0.279-0.124,0.559-0.208,0.836-0.284
		c0.268-0.091,0.588-0.153,0.876-0.196c0.295-0.064,0.595-0.083,0.896-0.09c0.303-0.026,0.604-0.007,0.903,0.021
		c0.603,0.041,1.198,0.167,1.771,0.348c0.576,0.174,1.138,0.405,1.664,0.689c0.533,0.277,1.041,0.597,1.521,0.953
		c0.487,0.345,0.946,0.728,1.376,1.139c0.438,0.404,0.844,0.839,1.232,1.285c0.39,0.448,0.757,0.913,1.101,1.396
		c0.339,0.486,0.653,0.987,0.955,1.499l0.142,0.239l-0.129,0.227c-0.248,0.439-0.465,0.896-0.74,1.322
		c-0.27,0.43-0.533,0.859-0.847,1.263c-0.294,0.414-0.603,0.817-0.952,1.188l-0.51,0.57c-0.184,0.178-0.38,0.342-0.568,0.514
		l-0.572,0.507c-0.197,0.159-0.42,0.293-0.627,0.438c-0.422,0.289-0.836,0.586-1.324,0.782c-0.473,0.204-0.93,0.485-1.412,0.575
		c-0.49,0.121-0.928,0.279-1.461,0.371c-1.962,0.331-4.047,0.363-5.925-0.355c-0.466-0.183-0.901-0.431-1.312-0.715
		c-0.392-0.311-0.754-0.652-1.058-1.046c-0.302-0.396-0.548-0.828-0.741-1.284C34.436,15.096,34.311,14.617,34.195,14.135z"/>
</g>
<radialGradient id="SVGID_3_" cx="87.9082" cy="15.1406" r="4.8614" gradientTransform="matrix(1.1035 0 0 1 -57.2659 0)" gradientUnits="userSpaceOnUse">
	<stop  offset="0" style="stop-color:#3A692F"/>
	<stop  offset="0.1601" style="stop-color:#36622C"/>
	<stop  offset="0.4014" style="stop-color:#2A4D22"/>
	<stop  offset="0.6938" style="stop-color:#182B13"/>
	<stop  offset="1" style="stop-color:#000000"/>
</radialGradient>
<path fill="url(#SVGID_3_)" d="M35.982,15.141c0,2.187,1.683,3.962,3.753,3.962c2.081,0,3.765-1.775,3.765-3.962
	c0-2.188-1.684-3.961-3.765-3.961C37.665,11.18,35.982,12.953,35.982,15.141z"/>
<path d="M36.982,15.953c0,1.531,1.067,2.774,2.382,2.774c1.32,0,2.389-1.243,2.389-2.774s-1.068-2.773-2.389-2.773
	C38.05,13.18,36.982,14.422,36.982,15.953z"/>
<radialGradient id="SVGID_4_" cx="71.5967" cy="15.1406" r="4.8614" gradientTransform="matrix(1.1035 0 0 1 -57.2659 0)" gradientUnits="userSpaceOnUse">
	<stop  offset="0" style="stop-color:#3A692F"/>
	<stop  offset="0.1601" style="stop-color:#36622C"/>
	<stop  offset="0.4014" style="stop-color:#2A4D22"/>
	<stop  offset="0.6938" style="stop-color:#182B13"/>
	<stop  offset="1" style="stop-color:#000000"/>
</radialGradient>
<path fill="url(#SVGID_4_)" d="M17.982,15.141c0,2.187,1.683,3.962,3.753,3.962c2.081,0,3.765-1.775,3.765-3.962
	c0-2.188-1.684-3.961-3.765-3.961C19.665,11.18,17.982,12.953,17.982,15.141z"/>
<path d="M19.982,15.953c0,1.531,1.067,2.774,2.382,2.774c1.32,0,2.389-1.243,2.389-2.774s-1.068-2.773-2.389-2.773
	C21.05,13.18,19.982,14.422,19.982,15.953z"/>
<circle fill="#FFFFFF" cx="42.313" cy="11.688" r="1.438"/>
<circle fill="#FFFFFF" cx="19.313" cy="11.688" r="1.438"/>
<path fill="#301909" d="M8.583,10.792c0,0-3.813-0.458-3.625-1.333c0.563,0.375,3.083,0.208,3.083,0.208S5.284,8.172,6,8.458
	c0.833,0.333,2.313,0.375,2.5,0.25S6.922,7.137,7.333,7.375C8.25,7.906,9.292,7.833,9.292,7.833s-1.288-1.133-1.042-1
	c0.594,0.323,1.875,0.292,1.875,0.292S9.367,6.14,9.531,6.25c0.563,0.375,1.688,0.094,1.688,0.094l-0.781-0.688l1.313,0.031
	c0,0,0.938-0.688,2.688-1.625s3.438-0.896,3.438-0.896s-2.857,0.804-5.563,2.802C10.281,7.469,8.583,10.792,8.583,10.792z"/>
<path fill="#301909" d="M52.333,11.417c0,0,3.813-0.458,3.625-1.333c-0.563,0.375-3.084,0.208-3.084,0.208s2.758-1.494,2.043-1.208
	c-0.834,0.333-2.313,0.375-2.5,0.25S53.994,7.762,53.583,8c-0.916,0.531-1.959,0.458-1.959,0.458s1.288-1.133,1.043-1
	c-0.594,0.323-1.875,0.292-1.875,0.292s0.758-0.985,0.594-0.875c-0.563,0.375-1.688,0.094-1.688,0.094l0.781-0.688l-1.313,0.031
	c0,0-0.938-0.688-2.688-1.625s-3.438-0.896-3.438-0.896s2.856,0.804,5.563,2.802C50.636,8.094,52.333,11.417,52.333,11.417z"/>
</svg>
