<?xml version="1.0" encoding="utf-8"?>
<!-- Generator: Adobe Illustrator 16.0.0, SVG Export Plug-In . SVG Version: 6.00 Build 0)  -->
<!DOCTYPE svg PUBLIC "-//W3C//DTD SVG 1.1//EN" "http://www.w3.org/Graphics/SVG/1.1/DTD/svg11.dtd">
<svg version="1.1" id="listExt" xmlns="http://www.w3.org/2000/svg" xmlns:xlink="http://www.w3.org/1999/xlink" x="0px" y="0px"
	 width="50px" height="50px" viewBox="0 0 50 50" enable-background="new 0 0 50 50" xml:space="preserve">
<g>
	<polyline fill="#F9DFA5" points="1.125,49.977 1.125,0 27.101,0 50,0 50,49.977 	"/>
</g>
<g>
	<path fill="#A67C52" d="M34.172,45.575h1.648v0.597h-4.014v-0.597h1.655v-4.822h0.708L34.172,45.575L34.172,45.575z"/>
	<path fill="#A67C52" d="M26.787,43.518c0-1.865,1.134-2.854,2.518-2.854c1.432,0,2.438,1.107,2.438,2.749
		c0,1.724-1.07,2.848-2.52,2.848C27.744,46.26,26.787,45.126,26.787,43.518z M30.992,43.43c0-1.158-0.626-2.195-1.729-2.195
		c-1.109,0-1.738,1.021-1.738,2.252c0,1.078,0.563,2.203,1.729,2.203C30.412,45.689,30.992,44.62,30.992,43.43z"/>
	<path fill="#A67C52" d="M24.17,46.1c-0.427,0.065-0.933,0.111-1.487,0.111c-1.007,0-1.723-0.232-2.197-0.675
		c-0.481-0.44-0.765-1.068-0.765-1.945c0-0.886,0.274-1.608,0.78-2.106c0.507-0.508,1.343-0.778,2.398-0.778
		c0.498,0,0.916,0.021,1.27,0.063L24.17,46.1L24.17,46.1z M23.47,41.307c-0.177-0.031-0.435-0.039-0.708-0.039
		c-1.496,0-2.307,0.836-2.307,2.299c-0.009,1.279,0.714,2.093,2.195,2.093c0.362,0,0.636-0.033,0.82-0.072V41.307z"/>
	<path fill="#A67C52" d="M14.179,43.518c0-1.865,1.134-2.854,2.518-2.854c1.433,0,2.436,1.107,2.436,2.749
		c0,1.724-1.068,2.848-2.516,2.848C15.138,46.26,14.179,45.126,14.179,43.518z M18.387,43.43c0-1.158-0.629-2.195-1.731-2.195
		c-1.109,0-1.736,1.021-1.736,2.252c0,1.078,0.563,2.203,1.729,2.203C17.807,45.689,18.387,44.62,18.387,43.43z"/>
</g>
<rect x="8" fill="#E5CB98" width="33.667" height="36.167"/>
</svg>
