<?xml version="1.0" encoding="utf-8"?>
<!-- Generator: Adobe Illustrator 16.0.0, SVG Export Plug-In . SVG Version: 6.00 Build 0)  -->
<!DOCTYPE svg PUBLIC "-//W3C//DTD SVG 1.1//EN" "http://www.w3.org/Graphics/SVG/1.1/DTD/svg11.dtd">
<svg version="1.1" id="Layer_1" xmlns="http://www.w3.org/2000/svg" xmlns:xlink="http://www.w3.org/1999/xlink" x="0px" y="0px"
	 width="50px" height="50px" viewBox="0 0 50 50" enable-background="new 0 0 50 50" xml:space="preserve">
<g>
	<path fill="none" stroke="#FDC113" stroke-width="2" stroke-miterlimit="10" d="M44,38.809c0,2.827-9.141,5.119-20.417,5.119
		c-11.276,0-20.417-2.292-20.417-5.119c0-1.072,2.001-2.319,4.25-3.142"/>
	<path fill="none" stroke="#FDC113" stroke-width="2" stroke-miterlimit="10" d="M44.166,43.881c0,2.827-9.141,5.119-20.417,5.119
		S3.667,46.911,3.667,44.084"/>
	<line fill="none" stroke="#FDC113" stroke-width="2" stroke-miterlimit="10" x1="3.458" y1="39.767" x2="3.729" y2="44.358"/>
	<line fill="none" stroke="#FDC113" stroke-width="2" stroke-miterlimit="10" x1="44.063" y1="38.545" x2="44.063" y2="44.358"/>
	<path fill="none" stroke="#FDC113" stroke-width="2" stroke-miterlimit="10" d="M43.804,26.245
		c2.933,0.886,4.696,2.025,4.696,3.267c0,2.827-9.141,5.119-20.417,5.119c-11.276,0-20.417-2.292-20.417-5.119
		c0-0.537,0.33-1.056,0.941-1.542"/>
	<path fill="none" stroke="#FDC113" stroke-width="2" stroke-miterlimit="10" d="M48.666,34.584c0,2.827-9.141,5.119-20.416,5.119
		c-11.276,0-20.417-2.292-20.417-5.119"/>
	<line fill="none" stroke="#FDC113" stroke-width="2" stroke-miterlimit="10" x1="7.667" y1="29.512" x2="7.938" y2="35.062"/>
	<line fill="none" stroke="#FDC113" stroke-width="2" stroke-miterlimit="10" x1="48.563" y1="29.248" x2="48.563" y2="35.062"/>
	<path fill="none" stroke="#FDC113" stroke-width="2" stroke-miterlimit="10" d="M43.116,18.064
		c0.734,0.528,1.134,1.096,1.134,1.687c0,2.827-9.141,5.119-20.417,5.119c-11.276,0-20.417-2.292-20.417-5.119
		c0-1.25,1.787-2.396,4.755-3.285"/>
	<path fill="none" stroke="#FDC113" stroke-width="2" stroke-miterlimit="10" d="M44.416,24.823c0,2.827-9.141,5.119-20.416,5.119
		c-11.276,0-20.417-2.292-20.417-5.119"/>
	<line fill="none" stroke="#FDC113" stroke-width="2" stroke-miterlimit="10" x1="3.417" y1="19.751" x2="3.688" y2="25.301"/>
	<line fill="none" stroke="#FDC113" stroke-width="2" stroke-miterlimit="10" x1="44.313" y1="19.487" x2="44.313" y2="25.301"/>
	<ellipse fill="none" stroke="#FDC113" stroke-width="2" stroke-miterlimit="10" cx="27.333" cy="9.703" rx="20.417" ry="5.119"/>
	<path fill="none" stroke="#FDC113" stroke-width="2" stroke-miterlimit="10" d="M47.916,14.775c0,2.827-9.141,5.119-20.416,5.119
		c-11.276,0-20.417-2.292-20.417-5.119"/>
	<line fill="none" stroke="#FDC113" stroke-width="2" stroke-miterlimit="10" x1="6.917" y1="9.703" x2="7.188" y2="15.253"/>
	<line fill="none" stroke="#FDC113" stroke-width="2" stroke-miterlimit="10" x1="47.813" y1="9.44" x2="47.813" y2="15.253"/>
</g>
</svg>
