<?xml version="1.0" encoding="utf-8"?>
<!-- Generator: Adobe Illustrator 16.0.0, SVG Export Plug-In . SVG Version: 6.00 Build 0)  -->
<!DOCTYPE svg PUBLIC "-//W3C//DTD SVG 1.1//EN" "http://www.w3.org/Graphics/SVG/1.1/DTD/svg11.dtd">
<svg version="1.1" id="Capa_1" xmlns="http://www.w3.org/2000/svg" xmlns:xlink="http://www.w3.org/1999/xlink" x="0px" y="0px"
	 width="50px" height="50px" viewBox="0 0 50 50" enable-background="new 0 0 50 50" xml:space="preserve">
<g>
	<g>
		<g>
			<path fill="#FB8C00" d="M39.642,6.551h-4.523V4.527c0-0.655-0.714-0.952-1.368-0.952h-3.512
				c-0.834-2.381-2.917-3.571-5.298-3.571c-2.354-0.088-4.496,1.355-5.297,3.571h-3.452c-0.655,0-1.31,0.297-1.31,0.952v2.023
				h-4.523c-2.681,0.029-4.874,2.144-5,4.821v34.104c0,2.619,2.381,4.523,5,4.523h29.283c2.619,0,5-1.904,5-4.523V11.372
				C44.516,8.694,42.322,6.58,39.642,6.551z M17.263,5.956h3.273c0.571-0.07,1.03-0.505,1.131-1.072
				c0.353-1.535,1.699-2.637,3.273-2.678c1.56,0.047,2.886,1.153,3.214,2.678c0.107,0.586,0.596,1.027,1.191,1.072h3.393v4.761
				H17.263V5.956z M42.261,45.477c0,1.31-1.31,2.143-2.619,2.143H10.358c-1.31,0-2.619-0.833-2.619-2.143V11.372
				c0.122-1.363,1.251-2.415,2.619-2.44h4.523v3.036c0.063,0.667,0.64,1.166,1.31,1.131h17.558c0.682,0.038,1.277-0.455,1.369-1.131
				V8.932h4.523c1.368,0.025,2.497,1.077,2.619,2.44V45.477L42.261,45.477z"/>
			<path fill="#FB8C00" d="M20.417,26.609c-0.446-0.471-1.188-0.498-1.667-0.061l-3.809,3.631l-1.607-1.666
				c-0.446-0.471-1.188-0.497-1.667-0.06c-0.461,0.483-0.461,1.243,0,1.726l2.44,2.5c0.211,0.236,0.516,0.367,0.833,0.357
				c0.314-0.004,0.614-0.133,0.833-0.357l4.643-4.404c0.46-0.422,0.491-1.138,0.068-1.598
				C20.464,26.654,20.441,26.631,20.417,26.609z"/>
			<path fill="#FB8C00" d="M37.499,29.168H23.81c-0.657,0-1.19,0.533-1.19,1.191c0,0.656,0.533,1.189,1.19,1.189h13.689
				c0.657,0,1.19-0.533,1.19-1.189C38.689,29.701,38.156,29.168,37.499,29.168z"/>
			<path fill="#FB8C00" d="M20.417,17.086c-0.446-0.471-1.188-0.497-1.667-0.06l-3.809,3.631l-1.607-1.667
				c-0.446-0.47-1.188-0.497-1.667-0.059c-0.461,0.483-0.461,1.243,0,1.726l2.44,2.5c0.211,0.237,0.516,0.368,0.833,0.357
				c0.314-0.004,0.614-0.133,0.833-0.357l4.643-4.404c0.46-0.422,0.491-1.138,0.068-1.598
				C20.464,17.131,20.441,17.108,20.417,17.086z"/>
			<path fill="#FB8C00" d="M37.499,19.645H23.81c-0.657,0-1.19,0.533-1.19,1.19c0,0.658,0.533,1.19,1.19,1.19h13.689
				c0.657,0,1.19-0.533,1.19-1.19C38.689,20.178,38.156,19.645,37.499,19.645z"/>
			<path fill="#FB8C00" d="M20.417,36.132c-0.446-0.471-1.188-0.497-1.667-0.06l-3.809,3.631l-1.607-1.666
				c-0.446-0.471-1.188-0.498-1.667-0.061c-0.461,0.483-0.461,1.244,0,1.727l2.44,2.5c0.211,0.236,0.516,0.367,0.833,0.357
				c0.314-0.005,0.614-0.133,0.833-0.357l4.643-4.404c0.46-0.422,0.491-1.138,0.068-1.598
				C20.464,36.177,20.441,36.154,20.417,36.132z"/>
			<path fill="#FB8C00" d="M37.499,38.691H23.81c-0.657,0-1.19,0.533-1.19,1.19s0.533,1.19,1.19,1.19h13.689
				c0.657,0,1.19-0.533,1.19-1.19S38.156,38.691,37.499,38.691z"/>
		</g>
	</g>
</g>
</svg>
