<?xml version="1.0" encoding="utf-8"?>
<!-- Generator: Adobe Illustrator 16.0.0, SVG Export Plug-In . SVG Version: 6.00 Build 0)  -->
<!DOCTYPE svg PUBLIC "-//W3C//DTD SVG 1.1//EN" "http://www.w3.org/Graphics/SVG/1.1/DTD/svg11.dtd">
<svg version="1.1" id="Layer_1" xmlns="http://www.w3.org/2000/svg" xmlns:xlink="http://www.w3.org/1999/xlink" x="0px" y="0px"
	 width="300px" height="300px" viewBox="0 0 300 300" enable-background="new 0 0 300 300" xml:space="preserve">
<g id="Layer_1_1_">
	
		<radialGradient id="SVGID_1_" cx="-143.4395" cy="690.7715" r="146.6042" gradientTransform="matrix(-1 0 0 1 6.3076 -540.9199)" gradientUnits="userSpaceOnUse">
		<stop  offset="0.4434" style="stop-color:#FFF38A"/>
		<stop  offset="1" style="stop-color:#FFC107"/>
	</radialGradient>
	<circle fill="url(#SVGID_1_)" cx="149.747" cy="149.852" r="146.604"/>
	
		<linearGradient id="SVGID_2_" gradientUnits="userSpaceOnUse" x1="-143.4395" y1="837.5244" x2="-143.4395" y2="690.9199" gradientTransform="matrix(-1 0 0 1 6.3076 -540.9199)">
		<stop  offset="0" style="stop-color:#FFD453"/>
		<stop  offset="0.5616" style="stop-color:#FFFF90"/>
		<stop  offset="0.867" style="stop-color:#FFD54F"/>
		<stop  offset="1" style="stop-color:#FFAB1F"/>
	</linearGradient>
	<path fill="url(#SVGID_2_)" d="M296.352,150c0,80-65.637,146.604-146.604,146.604C68.781,296.604,3.143,230,3.143,150
		C23.935,150,280.723,150,296.352,150z"/>
	<g>
		
			<linearGradient id="SVGID_3_" gradientUnits="userSpaceOnUse" x1="445.0703" y1="699.4199" x2="445.0703" y2="694.4199" gradientTransform="matrix(1 0 0 1 -295.3203 -540.9199)">
			<stop  offset="0" style="stop-color:#FFD453"/>
			<stop  offset="0.665" style="stop-color:#FFEF88"/>
			<stop  offset="1" style="stop-color:#FFD54F"/>
		</linearGradient>
		<polygon fill="url(#SVGID_3_)" stroke="#FFC107" stroke-miterlimit="10" points="296,158.5 3.5,158.5 2.5,153.5 297,153.5 		"/>
		
			<linearGradient id="SVGID_4_" gradientUnits="userSpaceOnUse" x1="445.3203" y1="707.4199" x2="445.3203" y2="699.4199" gradientTransform="matrix(1 0 0 1 -295.3203 -540.9199)">
			<stop  offset="0" style="stop-color:#FFD453"/>
			<stop  offset="0.665" style="stop-color:#FFEF88"/>
			<stop  offset="1" style="stop-color:#FFD54F"/>
		</linearGradient>
		<polygon fill="url(#SVGID_4_)" stroke="#FFC107" stroke-miterlimit="10" points="296.531,166.5 4,166.5 3,158.5 297,158.5 		"/>
		
			<linearGradient id="SVGID_5_" gradientUnits="userSpaceOnUse" x1="445.3203" y1="694.4199" x2="445.3203" y2="691.4971" gradientTransform="matrix(1 0 0 1 -295.3203 -540.9199)">
			<stop  offset="0" style="stop-color:#FFD453"/>
			<stop  offset="0.665" style="stop-color:#FFEF88"/>
			<stop  offset="1" style="stop-color:#FFD54F"/>
		</linearGradient>
		<polygon fill="url(#SVGID_5_)" stroke="#FFC107" stroke-miterlimit="10" points="297,153.5 3,153.5 5,151 295.923,150.577 		"/>
		
			<linearGradient id="SVGID_6_" gradientUnits="userSpaceOnUse" x1="445.0703" y1="720.4199" x2="445.0703" y2="707.4199" gradientTransform="matrix(1 0 0 1 -295.3203 -540.9199)">
			<stop  offset="0" style="stop-color:#FFD453"/>
			<stop  offset="0.665" style="stop-color:#FFEF88"/>
			<stop  offset="1" style="stop-color:#FFD54F"/>
		</linearGradient>
		<polygon fill="url(#SVGID_6_)" stroke="#FFC107" stroke-miterlimit="10" points="293.5,179.5 6,179.5 4,166.5 295.5,166.5 		"/>
		
			<linearGradient id="SVGID_7_" gradientUnits="userSpaceOnUse" x1="445.0703" y1="736.4199" x2="445.0703" y2="720.4199" gradientTransform="matrix(1 0 0 1 -295.3203 -540.9199)">
			<stop  offset="0" style="stop-color:#FFD453"/>
			<stop  offset="0.665" style="stop-color:#FFEF88"/>
			<stop  offset="1" style="stop-color:#FFD54F"/>
		</linearGradient>
		<polygon fill="url(#SVGID_7_)" stroke="#FFC107" stroke-miterlimit="10" points="289.5,195.5 10,195.5 6,179.5 293.5,179.5 		"/>
		
			<linearGradient id="SVGID_8_" gradientUnits="userSpaceOnUse" x1="444.8203" y1="755.4199" x2="444.8203" y2="736.4199" gradientTransform="matrix(1 0 0 1 -295.3203 -540.9199)">
			<stop  offset="0" style="stop-color:#FFD453"/>
			<stop  offset="0.665" style="stop-color:#FFEF88"/>
			<stop  offset="1" style="stop-color:#FFD54F"/>
		</linearGradient>
		<path fill="url(#SVGID_8_)" stroke="#FFC107" stroke-miterlimit="10" d="M17,214.5h264c0,0,4.99-10,8-19H10
			C10,195.5,13.373,208.5,17,214.5z"/>
		
			<linearGradient id="SVGID_9_" gradientUnits="userSpaceOnUse" x1="444.8203" y1="779.4199" x2="444.8203" y2="755.4199" gradientTransform="matrix(1 0 0 1 -295.3203 -540.9199)">
			<stop  offset="0" style="stop-color:#FFD453"/>
			<stop  offset="0.665" style="stop-color:#FFEF88"/>
			<stop  offset="1" style="stop-color:#FFD54F"/>
		</linearGradient>
		<path fill="url(#SVGID_9_)" stroke="#FFC107" stroke-miterlimit="10" d="M32.85,238.5h233.322c0,0,9.508-12,14.828-24H18
			C18,214.5,26.667,231.334,32.85,238.5z"/>
		
			<linearGradient id="SVGID_10_" gradientUnits="userSpaceOnUse" x1="444.8203" y1="812.4199" x2="444.8203" y2="779.4199" gradientTransform="matrix(1 0 0 1 -295.3203 -540.9199)">
			<stop  offset="0" style="stop-color:#FFD453"/>
			<stop  offset="0.665" style="stop-color:#FFEF88"/>
			<stop  offset="1" style="stop-color:#FFD54F"/>
		</linearGradient>
		<path fill="url(#SVGID_10_)" stroke="#FFC107" stroke-miterlimit="10" d="M234,271.5H66c0,0-28.58-23-34-33h235
			C267,238.5,256.333,254.5,234,271.5z"/>
		
			<linearGradient id="SVGID_11_" gradientUnits="userSpaceOnUse" x1="444.8203" y1="837.5234" x2="444.8203" y2="812.4189" gradientTransform="matrix(1 0 0 1 -295.3203 -540.9199)">
			<stop  offset="0" style="stop-color:#FFD453"/>
			<stop  offset="0.665" style="stop-color:#FFEF88"/>
			<stop  offset="1" style="stop-color:#FFD54F"/>
		</linearGradient>
		<path fill="url(#SVGID_11_)" stroke="#FFC107" stroke-miterlimit="10" d="M158.977,296.604l-25.331-0.887
			c0,0-35.479-3.55-67.646-24.218h167C233,271.5,192,296.604,158.977,296.604z"/>
	</g>
	<g>
		<rect x="22" y="113" fill="none" width="68" height="20"/>
		<rect x="22" y="86" fill="none" width="68" height="20"/>
		<rect x="22" y="59" fill="none" width="68" height="20"/>
		<path fill="#FFC107" d="M47,52v98h78V52H47z M119,131H51v-20h68V131z M119,104H51V84h68V104z M119,77H51V57h68V77z"/>
		<path fill="#FFC107" d="M6.5,115.375C2.375,133.5,2,150,2,150h43V88H15.583C15.583,88,10.625,97.25,6.5,115.375z M4.25,126H41v12
			H2.833L4.25,126z M8,109h33v12H5 M13.667,91.917L41,92v12l-31.667-0.083"/>
	</g>
	<circle fill="#FFC107" cx="105" cy="72.5" r="5.5"/>
	<polygon fill="#FFC107" points="107,68 103,68 102,64 108,64 	"/>
	<circle fill="#FFC107" cx="91.277" cy="71.223" r="6.777"/>
	<polygon fill="#FFC107" points="93.741,66 88.813,66 87.581,61 94.973,61 	"/>
	<polygon fill="#FFC107" points="210,110 225,110 221.625,113 213,113 	"/>
	<polygon fill="#FFC107" points="254.333,109 276,109 271.125,113 258.666,113 	"/>
	<polygon fill="#FFC107" points="228,107 253.25,107 247.568,114 233.05,114 	"/>
	<polygon fill="#FFC107" points="57,69 77.833,69 73.146,77 61.167,77 	"/>
	<polygon fill="#FFC107" points="55,123 75.833,123 76.146,131 55.167,131 	"/>
	<polygon fill="#FFC107" points="79.167,129 89.984,129 90.146,131 79.253,131 	"/>
	<polygon fill="#FFC107" points="79.917,127 89.01,127 89.146,129 79.99,129 	"/>
	<polygon fill="#FFC107" points="67.75,97 70,95 55,95 57,97 55,97 57,99 55,99 57,101 55,101 58,104 66.625,104 70,101 67.75,101 
		70,99 67.75,99 70,97 	"/>
	<polygon fill="#FFC107" points="99.313,98 101,97 86,97 87.5,98 86,98 87.5,99 86,99 87.5,100 86,100 87.5,101 86,101 87.5,102 
		86,102 89,104 97.625,104 101,102 99.313,102 101,101 99.313,101 101,100 99.313,100 101,99 99.313,99 101,98 	"/>
	<polygon fill="#FFC107" points="116.313,98 118,97 103,97 104.5,98 103,98 104.5,99 103,99 104.5,100 103,100 104.5,101 103,101 
		104.5,102 103,102 106,104 114.625,104 118,102 116.313,102 118,101 116.313,101 118,100 116.313,100 118,99 116.313,99 118,98 	
		"/>
	<polygon fill="#FFC107" points="175,113 291.875,113 293.125,119 296,132.5 296,150 175,150 	"/>
	<path fill="#FFC107" d="M139,57v33h45V57H139z M181,85h-38V61h38V85z"/>
	
		<radialGradient id="floor_shadow_1_" cx="-165.0898" cy="983.9521" r="106.7049" gradientTransform="matrix(-0.9999 0.011 0.0077 0.7011 4.6944 -480.1362)" gradientUnits="userSpaceOnUse">
		<stop  offset="0" style="stop-color:#FFFFFF;stop-opacity:0"/>
		<stop  offset="1" style="stop-color:#FFBF07;stop-opacity:0.5"/>
	</radialGradient>
	<path id="floor_shadow" fill="url(#floor_shadow_1_)" d="M296.352,151H3.143l-0.176,11.813
		c101.259-8.479,191.725,7.891,209.26,21.746c33.592,26.553,49.984,79.834-56.789,112.196C242.127,292.404,296.352,223,296.352,151z
		"/>
	
		<radialGradient id="light_1_" cx="-207.7515" cy="1503.0586" r="102.9925" gradientTransform="matrix(-0.8197 -0.0012 -0.0179 0.4269 0.178 -421.3107)" gradientUnits="userSpaceOnUse">
		<stop  offset="0" style="stop-color:#FFFFFF;stop-opacity:0.5"/>
		<stop  offset="0.8531" style="stop-color:#FFFFFF;stop-opacity:0.0734"/>
		<stop  offset="1" style="stop-color:#FFFFFF;stop-opacity:0"/>
	</radialGradient>
	<path id="light" fill="url(#light_1_)" d="M47.357,232.15c2.549,8.586,41.473,29.951,103.768,28.35
		C248.48,257.997,266.548,209.586,264,201c-2.548-8.587-162.284-10.797-222,12.938C33.823,217.188,44.809,223.563,47.357,232.15z"/>
	
		<radialGradient id="shadows_2_" cx="-105.2358" cy="1583.5996" r="61.4463" gradientTransform="matrix(-1.0927 0.0255 0.0292 0.4101 26.5325 -402.728)" gradientUnits="userSpaceOnUse">
		<stop  offset="0" style="stop-color:#B36F13;stop-opacity:0.5"/>
		<stop  offset="0.3025" style="stop-color:#B47015;stop-opacity:0.3487"/>
		<stop  offset="0.4428" style="stop-color:#B6751D;stop-opacity:0.2786"/>
		<stop  offset="0.5497" style="stop-color:#BA7D29;stop-opacity:0.2252"/>
		<stop  offset="0.6396" style="stop-color:#C0883C;stop-opacity:0.1802"/>
		<stop  offset="0.7189" style="stop-color:#C89653;stop-opacity:0.1406"/>
		<stop  offset="0.7907" style="stop-color:#D1A871;stop-opacity:0.1047"/>
		<stop  offset="0.8569" style="stop-color:#DCBD94;stop-opacity:0.0716"/>
		<stop  offset="0.9186" style="stop-color:#E9D6BC;stop-opacity:0.0407"/>
		<stop  offset="0.9746" style="stop-color:#F8F1E8;stop-opacity:0.0127"/>
		<stop  offset="1" style="stop-color:#FFFFFF;stop-opacity:0"/>
	</radialGradient>
	<path id="shadows" fill="url(#shadows_2_)" d="M82.403,246.739c0.477,8.659,40.461,15.051,89.31,14.276
		c48.85-0.775,88.063-8.425,87.586-17.082c-0.476-8.66-40.461-15.053-89.31-14.276C121.141,230.432,81.928,238.08,82.403,246.739z"
		/>
	
		<radialGradient id="shadows_3_" cx="-82.8486" cy="2316.4785" r="61.4446" gradientTransform="matrix(-1.0936 0.041 0.0155 0.2719 30.0443 -380.955)" gradientUnits="userSpaceOnUse">
		<stop  offset="0" style="stop-color:#B36F13;stop-opacity:0.5"/>
		<stop  offset="0.3164" style="stop-color:#B47015;stop-opacity:0.3418"/>
		<stop  offset="0.4563" style="stop-color:#B6751C;stop-opacity:0.2718"/>
		<stop  offset="0.5614" style="stop-color:#BA7C29;stop-opacity:0.2193"/>
		<stop  offset="0.6492" style="stop-color:#C0873B;stop-opacity:0.1754"/>
		<stop  offset="0.7262" style="stop-color:#C79652;stop-opacity:0.1369"/>
		<stop  offset="0.7955" style="stop-color:#D1A76F;stop-opacity:0.1023"/>
		<stop  offset="0.8591" style="stop-color:#DCBC91;stop-opacity:0.0704"/>
		<stop  offset="0.9184" style="stop-color:#E9D4B9;stop-opacity:0.0408"/>
		<stop  offset="0.9719" style="stop-color:#F7EFE5;stop-opacity:0.014"/>
		<stop  offset="1" style="stop-color:#FFFFFF;stop-opacity:0"/>
	</radialGradient>
	<path id="shadows_1_" fill="url(#shadows_3_)" d="M51.124,249.611c0.188,5.742,39.96,9.109,88.835,7.52
		c48.875-1.592,88.346-7.537,88.158-13.279c-0.188-5.744-39.96-9.108-88.835-7.519C90.406,237.924,50.937,243.868,51.124,249.611z"
		/>
	<circle fill="none" stroke="#EA6928" stroke-width="2" stroke-miterlimit="10" cx="149.749" cy="149.622" r="146.782"/>
	<circle fill="none" stroke="#FFC107" stroke-width="2" stroke-miterlimit="10" cx="149.749" cy="149.622" r="146.782"/>
	<polygon fill="#FFC107" points="80.44,95 81.125,94 72,94 72.608,95 72,95 72.608,96 72,96 72.608,97 72,97 72.608,98 72,98 
		72.608,99 72,99 72.608,100 72,100 72.608,101 72,101 73.825,104 79.072,104 81.125,101 80.44,101 81.125,100 80.44,100 81.125,99 
		80.44,99 81.125,98 80.44,98 81.125,97 80.44,97 81.125,96 80.44,96 81.125,95 	"/>
</g>
<g id="Layer_2">
	<path fill="#42210B" d="M140.057,242.578c0,0-12.281,8.479-13.77,8.292c-1.488-0.187-0.821,2.543-0.821,2.543l4.529,1.385
		l20.13-5.298c0,0,3.866-0.139,5.271-0.634c1.406-0.495,3.68-1.224,3.68-1.224l0.559-4.469l-17.901-1.898L140.057,242.578z"/>
	<polygon opacity="0.3" enable-background="new    " points="146.75,244.25 140.625,249.125 130.25,252.625 129.995,254.798 
		150.125,249.5 156,249.375 161,242.5 	"/>
	<path fill="#42210B" d="M154.5,246.834c0,0-10.499,10.083-11.999,10.083s-0.5,2.626-0.5,2.626l4.666,0.813l19.167-6.51
		c0,0,3.334-2.008,4.666-2.674c1.334-0.666,3.5-1.671,3.5-1.671V245l-17.999,0.334L154.5,246.834z"/>
	<polygon opacity="0.3" enable-background="new    " points="165.75,246.875 160.5,253 147.125,258.5 147,260.125 166.25,253.625 
		174.125,249.25 173.625,242.875 	"/>
	<path fill="#563611" d="M176.702,244.5c0,0-9.618,2.916-15.285,2.583s-7.418-2.435-7.418-2.435s-6.499,1.602-9.749,1.852
		s-5.487-1.75-5.487-1.75l0.985-2l-1.402-1.48l1.032-2.77l-1.628-2.211l-4.728-48.504l-1.897-3.035l1.146-3.238l-0.9-7.512
		l50.258,0.75l-1.479,5.5l1.725,2.25l-1.479,3l-3.229,51.748l-0.835,1.502l0.643,1.502l-1.506,2.248L176.702,244.5z"/>
	<path opacity="0.7" fill="#261306" enable-background="new    " d="M170.25,175.5l11.379-0.75l-1.479,5.5l1.725,2.25l-1.479,3
		l-3.229,51.748l-0.835,1.502l0.643,1.502l-1.506,2.248l1.233,2c0,0-2.952,1.125-9.452,2L170.25,175.5z"/>
	<path opacity="0.4" fill="#42210B" enable-background="new    " d="M131.833,177.666l0.438,3.846c0,0,10.395-0.845,14.062-0.012
		s8.667-0.167,8.667-0.167l21.333-3.667l4.334,0.834l0.166-3.167l-47.5-0.833L131.833,177.666z"/>
	<path fill="#E6E6E6" d="M137.25,127.875c-1.25,0.166-6.071,3.876-7.75,7.792c-2,4.666-2.832,15.833-2.832,15.833
		s-1.334,8.834-1.334,9.334s10,6.333,10,6.333l3.5-35.667C138.834,131.5,138.5,127.709,137.25,127.875z"/>
	<path fill="#E6E6E6" d="M183.167,176.083c0.834,1.167-5.749,0.5-7.916,0s-11.25,1.75-14.75,1.75s-10.834,1-10.834,1
		s-5.953-1.131-7.666-1.666c-2.667-0.834-7.501,0.667-9.334,0.5s-2-0.166-1.833-1S129,176,129,176s4.001-50.084,14.251-55.333
		c5.375-2.5,33.046-3.718,36.916,3.833c5.324,10.391,7.759,28.286,4.413,39.166c-0.391,1.271,1.225,1.945,0.671,3.001
		c-0.536,1.024-2.815,0.866-3.084,1.75c-0.394,1.302,0.731,3.591,1,5c0.157,0.825-0.644,0.901-0.454,1.487
		C182.924,175.561,183.109,176.002,183.167,176.083z"/>
	<g>
		<path fill="#B3B3B3" d="M150.334,134.333c0,0,0.189,2.822,0.473,7.055c0.112,2.118,0.271,4.588,0.381,7.238
			c0.11,2.649,0.232,5.476,0.276,8.31c0.027,0.698-0.022,1.441-0.057,2.168c-0.103,0.662-0.165,1.369-0.22,2.06
			c-0.1,1.388-0.193,2.753-0.287,4.073c-0.086,1.322-0.188,2.603-0.311,3.813c-0.063,0.606-0.125,1.195-0.221,1.769
			c-0.024,0.145-0.052,0.285-0.088,0.431c-0.024,0.075-0.035,0.142-0.079,0.229l-0.03,0.063c-0.026,0.035-0.063,0.068-0.102,0.093
			c-0.016,0.017-0.057,0.032-0.083,0.05c-0.148,0.106-0.324,0.356-0.445,0.566c-0.25,0.445-0.422,0.921-0.474,1.377
			c-0.017,0.225-0.02,0.454,0.065,0.641c0.066,0.188,0.247,0.312,0.401,0.474c0.294,0.428,0.221,0.86,0.202,1.231
			c-0.038,0.375-0.106,0.711-0.162,1.017c-0.115,0.604-0.19,1.091-0.138,1.416c0.043,0.338,0.242,0.429,0.228,0.434
			c0.015-0.005-0.19-0.087-0.25-0.429c-0.068-0.33-0.012-0.823,0.077-1.436c0.042-0.307,0.095-0.646,0.117-1.014
			c0.017-0.354,0.021-0.803-0.198-1.091c-0.146-0.144-0.36-0.271-0.469-0.519c-0.115-0.232-0.12-0.492-0.112-0.744
			c0.037-0.51,0.213-1.01,0.467-1.496c0.147-0.241,0.255-0.475,0.552-0.696c0.125-0.017,0.158-0.396,0.204-0.646
			c0.08-0.559,0.128-1.146,0.175-1.748c0.076-1.213,0.157-2.488,0.24-3.812c0.082-1.324,0.167-2.69,0.254-4.082
			c0.051-0.696,0.104-1.394,0.211-2.12c0.018-0.683,0.062-1.351,0.029-2.066c-0.021-2.818-0.12-5.646-0.21-8.295
			c-0.083-2.649-0.161-5.122-0.229-7.242C150.411,137.16,150.334,134.333,150.334,134.333z"/>
	</g>
	
		<linearGradient id="SVGID_12_" gradientUnits="userSpaceOnUse" x1="399.4453" y1="692.4199" x2="447.9414" y2="692.4199" gradientTransform="matrix(1 0 0 1 -295.3203 -540.9199)">
		<stop  offset="0" style="stop-color:#CCCCCC"/>
		<stop  offset="1" style="stop-color:#808080"/>
	</linearGradient>
	<polygon fill="url(#SVGID_12_)" stroke="#FFFFFF" stroke-miterlimit="10" points="106,133.5 134,133.5 152.621,165.5 
		151.621,169.5 124,165.5 104.125,137.25 	"/>
	
		<linearGradient id="SVGID_13_" gradientUnits="userSpaceOnUse" x1="422.9453" y1="678.1699" x2="422.9453" y2="710.6074" gradientTransform="matrix(1 0 0 1 -295.3203 -540.9199)">
		<stop  offset="0" style="stop-color:#CCCCCC"/>
		<stop  offset="1" style="stop-color:#808080"/>
	</linearGradient>
	<polygon fill="url(#SVGID_13_)" stroke="#FFFFFF" stroke-miterlimit="10" points="104.125,137.25 131.938,137.5 151.125,169.688 
		123,169.5 	"/>
	
		<linearGradient id="SVGID_14_" gradientUnits="userSpaceOnUse" x1="450.0527" y1="673.543" x2="449.0669" y2="667.8185" gradientTransform="matrix(1 0 0 1 -295.3203 -540.9199)">
		<stop  offset="0" style="stop-color:#808080;stop-opacity:0"/>
		<stop  offset="1" style="stop-color:#4D4D4D"/>
	</linearGradient>
	<path fill="url(#SVGID_14_)" d="M150.418,135.167l8.833-3.917c0,0-2.249-3.75-4.083-3.083S150.168,132.584,150.418,135.167z"/>
	
		<linearGradient id="SVGID_15_" gradientUnits="userSpaceOnUse" x1="441.0449" y1="673.3945" x2="439.9764" y2="667.1901" gradientTransform="matrix(1 0 0 1 -295.3203 -540.9199)">
		<stop  offset="0" style="stop-color:#808080;stop-opacity:0"/>
		<stop  offset="1" style="stop-color:#4D4D4D"/>
	</linearGradient>
	<path fill="url(#SVGID_15_)" d="M141.334,132.834l9.041,0.791c-3.715-6.746-4.306-6.102-5.5-5.667
		C143.041,128.625,141.084,130.251,141.334,132.834z"/>
	
		<radialGradient id="SVGID_16_" cx="1507.1045" cy="436.2715" r="6.7025" gradientTransform="matrix(-0.5217 0.8531 1.5809 0.9668 264.0803 -1559.032)" gradientUnits="userSpaceOnUse">
		<stop  offset="0" style="stop-color:#FFE2A2"/>
		<stop  offset="0.472" style="stop-color:#FFC98A"/>
		<stop  offset="1" style="stop-color:#FFA96A"/>
	</radialGradient>
	<path fill="url(#SVGID_16_)" d="M186.334,141.25c0,0-0.501,22.75-9.001,23.084C174.195,164.457,154.166,145,154.166,145l6.667-1
		c3.667,4.666,14.084,9.833,15.168,12.167c0.522,1.128,4.253-15.701,4.253-15.701L186.334,141.25z"/>
	<path fill="#EA8A63" d="M146.375,125.875l4,7.75c0,0,3.375-6.125,6.375-7.5S146.375,125.875,146.375,125.875z"/>
	<path opacity="0.4" fill="#4D4D4D" enable-background="new    " d="M170.375,140.188c-0.094,0.491,0.313,3,0.5,3.688
		s-0.875,2.375-0.813,3.188c0.062,0.813,0.244,2.074,0.246,2.381c0.004,0.307-0.121,1.995-0.121,1.995l2.188,1.438l0.813-3
		l-1.174-3.625l0.861-2.5l-1.125-3.688l0.002-4.053C171.752,136.01,170.471,139.696,170.375,140.188z"/>
	<path fill="#E6E6E6" d="M172.417,132.25c0,0,0.75,6.666,0.75,7.25s1.084,5.667,0.667,6.917s1,5,0.916,5.25s0.416,2.667,0.416,2.667
		s4.501,6.166,3.584,9.666s-4-0.666-4-0.666s-0.38,2.57,1.416,3.916c2.335,1.75,5.251,3.271,9.334-0.625
		c2.9-2.768,2.083-7.625,2.083-7.875s-1.417-3.666-0.5-4.916s1.168-4.251,1.251-5.834s-0.417-9-0.917-10.333
		s-1.435-6.649-1.75-7.167c-4.416-7.25-6.833-7.25-6.833-7.25S172.584,123.166,172.417,132.25z"/>
	<g>
		<path fill="#B3B3B3" d="M171.834,135.167c0,0,0.016,1.146,0.037,2.864c-0.006,0.43,0.025,0.891,0.039,1.379
			c0.02,0.484,0.107,0.982,0.287,1.466c0.162,0.497,0.383,1.008,0.551,1.566c0.086,0.281,0.152,0.561,0.186,0.877
			c0.033,0.265,0.022,0.616-0.025,0.911c-0.092,0.6-0.292,1.126-0.315,1.65c-0.03,0.508,0.089,1.063,0.203,1.568
			c0.254,1.023,0.563,2.026,0.492,2.931c-0.021,0.43-0.136,0.852-0.231,1.182c-0.111,0.336-0.228,0.621-0.328,0.854
			c-0.199,0.464-0.352,0.71-0.352,0.71s0.092-0.271,0.234-0.752c0.068-0.239,0.146-0.533,0.209-0.871
			c0.063-0.35,0.142-0.697,0.131-1.129c0.005-0.827-0.314-1.766-0.59-2.816c-0.129-0.536-0.264-1.078-0.244-1.699
			c0.021-0.608,0.212-1.177,0.311-1.705c0.047-0.27,0.067-0.495,0.039-0.798c-0.019-0.25-0.074-0.529-0.15-0.787
			c-0.145-0.526-0.358-1.04-0.514-1.568c-0.074-0.263-0.131-0.536-0.173-0.808c-0.022-0.254-0.054-0.521-0.042-0.769
			c0.014-0.496,0.004-0.966,0.03-1.395C171.708,136.307,171.834,135.167,171.834,135.167z"/>
	</g>
	<g>
		<path fill="#E6E6E6" d="M151.375,131.875c0,0,3.001-5.25,5.626-3.125s2.416,3.5,2.416,3.5s17.375-11.625,16.458-12.375
			s-2.5-1.5-2.5-1.5l-17.75,7.375c0,0-4.875,5.5-5.25,7.875"/>
		<path fill="#CCCCCC" d="M151.375,131.875c0.484-0.841,1.057-1.639,1.736-2.342c0.676-0.678,1.507-1.357,2.555-1.391
			c0.518-0.016,1.018,0.192,1.422,0.513c0.357,0.333,0.748,0.612,1.079,0.988c0.353,0.354,0.662,0.743,0.928,1.166
			c0.12,0.221,0.255,0.434,0.331,0.681c0.098,0.239,0.152,0.483,0.145,0.784l-0.237-0.153c3.252-2.223,6.479-4.484,9.681-6.777
			c1.596-1.154,3.184-2.318,4.713-3.547c0.381-0.309,0.758-0.622,1.116-0.947c0.181-0.163,0.354-0.328,0.519-0.5
			c0.082-0.085,0.156-0.173,0.223-0.258c0.027-0.042,0.061-0.086,0.072-0.117c0.027-0.038-0.008-0.048,0.029,0.046
			c0.002,0.021,0.051,0.051,0.035,0.042l-0.035-0.027l-0.074-0.056l-0.147-0.11c-0.099-0.078-0.196-0.139-0.296-0.204
			c-0.191-0.132-0.404-0.254-0.611-0.379c-0.418-0.242-0.85-0.478-1.281-0.689l0.197,0.005l-8.886,3.66l-8.905,3.613l0.049-0.035
			c-1.047,1.187-2.073,2.401-3.024,3.67c-0.476,0.635-0.935,1.283-1.351,1.958c-0.405,0.677-0.813,1.376-0.977,2.157
			c0.141-0.787,0.527-1.502,0.914-2.193c0.398-0.69,0.839-1.354,1.297-2.005c0.922-1.298,1.896-2.558,2.938-3.766l0.021-0.022
			l0.029-0.013l8.844-3.762l8.864-3.715l0.101-0.042l0.1,0.047c0.453,0.219,0.893,0.449,1.324,0.701
			c0.215,0.132,0.428,0.257,0.641,0.406c0.107,0.072,0.217,0.142,0.313,0.218l0.146,0.112l0.072,0.056
			c0.016,0.018,0.051,0.018,0.133,0.141c0.09,0.205,0.01,0.328-0.02,0.396c-0.037,0.081-0.078,0.135-0.119,0.196
			c-0.086,0.109-0.174,0.208-0.263,0.302c-0.177,0.187-0.36,0.357-0.548,0.524c-0.372,0.334-0.756,0.648-1.143,0.958
			c-1.551,1.233-3.146,2.391-4.75,3.54c-3.209,2.296-6.479,4.499-9.767,6.676l-0.243,0.161l0.004-0.313
			c0-0.182-0.033-0.429-0.123-0.637c-0.063-0.221-0.188-0.423-0.299-0.631c-0.246-0.402-0.539-0.779-0.869-1.12
			c-0.307-0.36-0.707-0.659-1.058-0.992c-0.351-0.28-0.789-0.496-1.251-0.494c-0.943-0.01-1.79,0.606-2.479,1.255
			C152.49,130.278,151.891,131.052,151.375,131.875z"/>
	</g>
	<g>
		<path fill="#E6E6E6" d="M148.91,130.875c0,0-2.118-4.667-4.743-2.542s-3.083,4.084-3.083,4.084s-5.25-5.167-4.333-5.917
			s3.624-3.375,3.624-3.375l4.285,1.625c0,0,4.875,5.5,5.25,7.875"/>
		<path fill="#CCCCCC" d="M148.91,130.875c-0.438-0.848-0.986-1.655-1.695-2.283c-0.354-0.31-0.766-0.562-1.213-0.668
			c-0.449-0.103-0.916-0.019-1.313,0.206c-0.396,0.22-0.724,0.568-1.089,0.884c-0.186,0.155-0.346,0.327-0.503,0.501
			c-0.157,0.175-0.327,0.338-0.473,0.522c-0.296,0.368-0.577,0.747-0.817,1.152c-0.227,0.404-0.458,0.833-0.571,1.262l-0.068,0.26
			l-0.192-0.185c-0.754-0.726-1.496-1.461-2.201-2.237c-0.697-0.782-1.389-1.569-1.964-2.481c-0.141-0.231-0.274-0.47-0.362-0.763
			c-0.029-0.154-0.088-0.317,0.009-0.547c0.155-0.25,0.231-0.25,0.332-0.359c0.389-0.347,0.783-0.689,1.155-1.047l2.261-2.144
			l0.115-0.109l0.142,0.056l2.132,0.84c0.71,0.282,1.409,0.593,2.114,0.888l0.033,0.014l0.02,0.022
			c1.042,1.208,2.017,2.467,2.939,3.766c0.458,0.651,0.898,1.315,1.296,2.005c0.387,0.691,0.773,1.407,0.915,2.193
			c-0.164-0.781-0.57-1.48-0.976-2.157c-0.417-0.675-0.875-1.323-1.35-1.958c-0.951-1.27-1.979-2.483-3.025-3.67l0.053,0.037
			c-0.723-0.247-1.453-0.478-2.171-0.737l-2.153-0.785l0.257-0.053c-0.75,0.726-1.498,1.45-2.272,2.162
			c-0.381,0.363-0.774,0.702-1.165,1.047c-0.261,0.235-0.238,0.151-0.198,0.412c0.059,0.208,0.173,0.434,0.302,0.647
			c0.526,0.861,1.203,1.659,1.881,2.438c0.682,0.78,1.379,1.554,2.1,2.299l-0.26,0.075c0.139-0.499,0.376-0.917,0.619-1.343
			c0.255-0.417,0.547-0.805,0.856-1.181c0.153-0.188,0.332-0.357,0.496-0.537c0.166-0.18,0.334-0.355,0.519-0.506
			c0.362-0.303,0.698-0.667,1.154-0.898c0.447-0.23,0.984-0.303,1.469-0.168c0.483,0.137,0.899,0.421,1.25,0.754
			C147.995,129.177,148.507,130.008,148.91,130.875z"/>
	</g>
	<path opacity="0.3" fill="#999999" enable-background="new    " d="M139.375,125.625c0,0,7.625,2.959,10.625,4.125
		s3.875-3.25,7.125-2s5.273-2.844,12.625-0.875c7,1.875,8.25-4.708,8.25-4.708L175.5,121l0.375-1.125l-1.042-1.042L139.375,125.625z
		"/>
	
		<radialGradient id="SVGID_17_" cx="441.3281" cy="626.7529" r="45.5564" gradientTransform="matrix(1 0 0 1 -295.3203 -540.9199)" gradientUnits="userSpaceOnUse">
		<stop  offset="0" style="stop-color:#FFE2A2"/>
		<stop  offset="0.3322" style="stop-color:#FFC98A"/>
		<stop  offset="0.7849" style="stop-color:#FFA96A"/>
		<stop  offset="0.9946" style="stop-color:#DA945F"/>
	</radialGradient>
	<path fill="url(#SVGID_17_)" d="M193.822,88.356c0,19.342-22.418,38.978-44.821,38.978c-22.402,0-36.308-19.636-36.308-38.978
		c0-19.345,18.162-35.024,40.564-35.024C175.662,53.332,193.822,69.011,193.822,88.356z"/>
	<path opacity="0.5" fill="#EA8A63" enable-background="new    " d="M166.25,69.25c0,0-12.686,13.628-38.25,11.25
		c-10.75-1-13.75-2-13.75-2l2.308-6.312L166.25,69.25z"/>
	<path fill="#EA8A63" d="M130.333,121.833c0,0-19.879-10.935-17.5-36.5c1-10.75,4.5-11.667,4.5-11.667s4.558,0.595,3.917,1.583
		C105.125,100.125,130.333,121.833,130.333,121.833z"/>
	<path opacity="0.7" fill="#EA8A63" enable-background="new    " d="M160.313,125.563c-0.25,0.063,8.313-0.875,20-10.813
		c0.069-0.059,6.813-6.063,10.25-13c2.72-5.485-2.852-7.096-3.668-3.55C182.313,118.089,160.313,125.563,160.313,125.563z"/>
	
		<radialGradient id="SVGID_18_" cx="447.3525" cy="634.583" r="8.2321" gradientTransform="matrix(1 0 0 1 -295.3203 -540.9199)" gradientUnits="userSpaceOnUse">
		<stop  offset="0.2581" style="stop-color:#FFFFFF"/>
		<stop  offset="1" style="stop-color:#DCDCDC"/>
	</radialGradient>
	<path fill="url(#SVGID_18_)" d="M143.195,96.134c0.955,4.61,5.042,5.518,9.648,4.562c4.607-0.956,8.656-6.113,8.156-8.946
		s-5.167-7.75-11.5-4.25C145.383,89.776,142.24,91.527,143.195,96.134z"/>
	
		<radialGradient id="SVGID_19_" cx="422.0313" cy="634.957" r="8.0454" gradientTransform="matrix(1 0 0 1 -295.3203 -540.9199)" gradientUnits="userSpaceOnUse">
		<stop  offset="0.2581" style="stop-color:#FFFFFF"/>
		<stop  offset="1" style="stop-color:#D0D0D0"/>
	</radialGradient>
	<path fill="url(#SVGID_19_)" d="M135.047,97.134c-0.955,4.61-4.94,4.988-9.547,4.032s-6.675-5.5-7.083-6.75S117,82,128.742,88.5
		C132.858,90.778,136.002,92.527,135.047,97.134z"/>
	
		<radialGradient id="SVGID_20_" cx="465.7031" cy="638.0615" r="4.8624" gradientTransform="matrix(1.1035 0 0 1 -365.1621 -540.9199)" gradientUnits="userSpaceOnUse">
		<stop  offset="0" style="stop-color:#42210B"/>
		<stop  offset="0.2209" style="stop-color:#3B1D0A"/>
		<stop  offset="0.5537" style="stop-color:#261306"/>
		<stop  offset="0.9554" style="stop-color:#040201"/>
		<stop  offset="1" style="stop-color:#000000"/>
	</radialGradient>
	<path fill="url(#SVGID_20_)" d="M144.982,97.141c0,2.187,1.683,3.962,3.753,3.962c2.082,0,3.765-1.775,3.765-3.962
		s-1.684-3.961-3.765-3.961C146.665,93.179,144.982,94.954,144.982,97.141z"/>
	<path d="M145.982,97.953c0,1.531,1.067,2.774,2.382,2.774c1.32,0,2.389-1.243,2.389-2.774c0-1.531-1.068-2.774-2.389-2.774
		C147.05,95.179,145.982,96.422,145.982,97.953z"/>
	<path fill="#1A1A1A" d="M118.001,50c0,0-23.101,14.71-1.167,24.833c26,12,50.5-5.503,50.5-5.503l2,21c0,0,2.65,1.705,4.666-3.333
		c3.833-9.581,11.833-2.08,10.833,3.253c-0.554,2.949-2.5,4.747-4.833,5.414s6.001,4.667,6.334,5.667s1.333,5,1.333,5
		s13.001-5,7.667-28s-20-21-20-21s-15-17.163-44-2.497C122.334,57.5,118.335,57.667,118.001,50z"/>
	<path opacity="0.5" fill="#6B6B6B" enable-background="new    " d="M135.625,79c4.744-0.245,11.5-0.625,18.75-3.375
		c0.188-0.648-1.791-3.292-1.791-3.292c0.916,0,3.296-1.617,3.825-3.029c0.741-1.976,1.667-4.107,2.813-6.122
		c0.557-0.979-2.349-3.558-1.973-3.85c0.507-0.393,5.557-1.03,5.557-1.03c0.629-0.639-1.308-2.679-1.057-2.887
		c0.371-0.309,3.863,0.627,4.285,0.397c0.549-0.301-0.383-1.442,0.215-1.647c1.204-0.412,4.012,0.271,5.416,0.333
		c1.875,0.25-10.961-7.548-21.916-5.167c0.5,0,0.709,1.917,0.5,2.083c-2.25,0.25-6.897,2.281-8.667,3.833
		c0.194,0.381,2.5,1.083,1.75,1.333c-1.489,0.496-5.083,1.75-4.833,1.917c0.526,0.351,3.512,0.941,3,1.167
		c-7.001,3.083-10.882,10.313-12.084,10.417c-0.953,0.083,2.417,1.333,1.167,2.333c-0.805,0.644-2.667,1.417-5.5,1.833
		c-0.724,0.106,3,0.917,1.917,1.417c-2.177,1.005-3.917,1.417-3.917,1.417S129.167,79.333,135.625,79z"/>
	<path fill="#333333" d="M172.251,80.5c0.533-0.416,0.833,2.583,0.833,2.583c2.667-1.917,7.273-3.817,7.75-3.833
		c0.641-0.022,5.381,3.097,5.381,3.097c0.883-0.15,0.508-2.937,0.833-2.959c0.481-0.033,2.767,2.769,3.242,2.83
		c0.621,0.077,0.535-1.394,1.14-1.21c1.217,0.37,3.092,2.566,4.196,3.439C197,85.746,195,74.25,190.625,66.375
		c0.404,0.292-1.297,2.028-1.563,2.041c-1.973-1.114-6.93-2.186-9.271-1.962c-0.064,0.422,1.395,2.341,0.639,2.105
		c-1.496-0.47-5.146-1.555-5.039-1.274c0.221,0.593,2.248,2.954,1.75,2.702c-2.451-1.237-4.201-1.612-5.89-1.862
		c0.625,0.688,1.875,3.375,2.25,3.75c0.729,0.729-3.584-0.993-6.125-2.313c-0.063-0.25,1.347,13.436,1.438,14.625
		C169.001,86.667,171.501,82,172.251,80.5z"/>
	<g>
		<path fill="#C1272D" d="M144.153,112.054c0,0,1.426,3.333,3.618,4.557c2.682,1.497,5.532,0.645,2.684-5.269"/>
		<path fill="#A67C52" d="M144.153,112.054c0,0,0.135,0.199,0.372,0.548c0.229,0.35,0.595,0.824,1.031,1.375
			c0.442,0.546,0.989,1.154,1.64,1.68c0.336,0.264,0.667,0.472,1.079,0.672c0.374,0.176,0.802,0.33,1.205,0.39
			c0.404,0.077,0.804,0.055,1.088-0.088c0.283-0.135,0.479-0.396,0.574-0.754c0.186-0.724,0.055-1.56-0.078-2.234
			c-0.146-0.684-0.295-1.265-0.422-1.664c-0.119-0.404-0.188-0.636-0.188-0.636s0.143,0.196,0.361,0.558
			c0.207,0.368,0.525,0.889,0.793,1.579c0.138,0.343,0.267,0.729,0.348,1.159c0.082,0.429,0.141,0.908,0.041,1.432
			c-0.09,0.51-0.407,1.126-0.982,1.414c-0.561,0.292-1.167,0.302-1.699,0.219c-0.542-0.092-1.018-0.283-1.489-0.517
			c-0.437-0.21-0.866-0.544-1.211-0.86c-0.698-0.658-1.188-1.383-1.542-2.026c-0.363-0.64-0.572-1.216-0.726-1.609
			C144.206,112.292,144.153,112.054,144.153,112.054z"/>
	</g>
	<g>
		<path fill="#A67C52" d="M132.803,116.325c0,0,0.301-0.263,0.878-0.658c0.581-0.385,1.41-0.953,2.484-1.492
			c0.531-0.281,1.121-0.557,1.751-0.837c0.625-0.294,1.31-0.542,2.016-0.808c0.723-0.21,1.453-0.496,2.229-0.663
			c0.771-0.184,1.554-0.379,2.353-0.493l1.195-0.178c0.4-0.033,0.799-0.065,1.195-0.098c0.79-0.095,1.574-0.056,2.329-0.052
			c0.756-0.024,1.483,0.089,2.169,0.167c0.343,0.041,0.677,0.081,0.998,0.119c0.317,0.066,0.627,0.13,0.922,0.191
			c0.589,0.125,1.13,0.229,1.596,0.375c0.462,0.157,0.864,0.294,1.196,0.407c0.659,0.229,1.028,0.372,1.028,0.372
			s-0.396-0.059-1.08-0.184c-0.34-0.064-0.752-0.142-1.227-0.231c-0.477-0.075-1.021-0.1-1.604-0.183
			c-0.291-0.035-0.596-0.071-0.909-0.109c-0.316-0.01-0.646-0.021-0.981-0.031c-0.673-0.017-1.379-0.057-2.111-0.013
			c-0.732,0.021-1.487,0.041-2.25,0.134c-0.382,0.037-0.767,0.074-1.154,0.111l-1.153,0.188c-0.774,0.098-1.535,0.276-2.286,0.443
			c-0.753,0.158-1.478,0.383-2.189,0.563c-0.692,0.241-1.386,0.411-2.018,0.647c-0.638,0.22-1.238,0.44-1.782,0.671
			c-1.092,0.447-2.003,0.836-2.622,1.15C133.153,116.134,132.803,116.325,132.803,116.325z"/>
	</g>
	<g>
		<path fill="#8C6239" d="M135.047,97.134c0,0,0.044-0.401-0.014-1.098c-0.053-0.695-0.236-1.686-0.694-2.776
			c-0.451-1.092-1.267-2.238-2.41-3.157c-1.137-0.929-2.605-1.578-4.116-1.987c-1.538-0.422-3.097-0.735-4.574-0.738
			c-0.733,0.007-1.445,0.062-2.084,0.251c-0.642,0.178-1.205,0.481-1.641,0.863c-0.877,0.776-1.227,1.763-1.397,2.426
			c-0.168,0.678-0.199,1.081-0.199,1.081s0-0.402,0.118-1.098c0.131-0.673,0.375-1.736,1.29-2.615
			c0.901-0.885,2.387-1.339,3.912-1.341c1.533-0.02,3.148,0.286,4.701,0.688c1.571,0.443,3.083,1.141,4.268,2.135
			c1.196,0.981,1.972,2.249,2.396,3.388c0.435,1.148,0.505,2.177,0.517,2.876C135.122,96.738,135.047,97.134,135.047,97.134z"/>
	</g>
	<g>
		<path fill="#A67C52" d="M146.906,111.443c0,0,0.282,0.131,0.593,0.4c0.318,0.264,0.67,0.661,0.955,1.102
			c0.279,0.444,0.491,0.931,0.595,1.331c0.111,0.396,0.11,0.707,0.11,0.707s-0.283-0.131-0.594-0.399
			c-0.318-0.264-0.669-0.662-0.953-1.103c-0.279-0.444-0.49-0.932-0.594-1.332C146.906,111.754,146.906,111.443,146.906,111.443z"/>
	</g>
	<path fill="#1A1A1A" stroke="#1A1A1A" stroke-miterlimit="10" d="M135.75,88.25c0,0-0.742,4.445-2.625,3.75
		c-3.5-1.292-8.583-4.417-11.25-4.25S118,89.375,118,89.375s-0.166-4.236,3-5.292c2.875-0.958,6.853,1.696,7.5,2.167
		C131.25,88.25,135.75,88.25,135.75,88.25z"/>
	<g>
		<path fill="#A67C52" d="M139.403,81.25c0,0-0.127,0.453-0.318,1.133c-0.181,0.68-0.429,1.587-0.581,2.507
			c-0.165,0.909-0.246,1.87,0.017,2.499c0.135,0.308,0.373,0.492,0.568,0.546c0.192,0.064,0.316,0.057,0.314,0.065
			c0.001-0.008-0.119,0.016-0.325-0.024c-0.202-0.031-0.51-0.187-0.684-0.524c-0.355-0.673-0.287-1.676-0.137-2.604
			c0.172-0.936,0.446-1.843,0.693-2.507C139.199,81.676,139.403,81.25,139.403,81.25z"/>
	</g>
	<g>
		<path fill="#A67C52" d="M140.413,87.753c0,0,0.09-0.495,0.355-1.203c0.137-0.351,0.304-0.764,0.568-1.163
			c0.118-0.208,0.267-0.406,0.442-0.591c0.15-0.207,0.37-0.355,0.584-0.51c0.231-0.176,0.466-0.202,0.695-0.309
			c0.231-0.086,0.454-0.179,0.677-0.253c0.463-0.111,0.899-0.206,1.269-0.277c0.747-0.106,1.246-0.132,1.246-0.133
			c0,0-0.123,0.024-0.337,0.066c-0.213,0.049-0.517,0.12-0.881,0.205c-0.361,0.09-0.77,0.227-1.216,0.34
			c-0.219,0.079-0.441,0.177-0.669,0.268c-0.211,0.104-0.495,0.162-0.654,0.307c-0.193,0.135-0.396,0.26-0.542,0.454
			c-0.168,0.168-0.314,0.353-0.433,0.552c-0.261,0.376-0.466,0.762-0.621,1.099C140.574,87.277,140.413,87.753,140.413,87.753z"/>
	</g>
	<g>
		<path fill="#A67C52" d="M137,87.833c0,0-0.515-0.124-1.233-0.468c-0.355-0.177-0.772-0.395-1.151-0.734
			c-0.194-0.163-0.371-0.365-0.523-0.593c-0.144-0.265-0.212-0.469-0.384-0.655c-0.326-0.375-0.782-0.642-1.216-0.849
			c-0.435-0.215-0.864-0.375-1.236-0.498c-0.742-0.255-1.257-0.37-1.257-0.37s0.524,0.054,1.294,0.243
			c0.383,0.102,0.827,0.236,1.287,0.433c0.452,0.207,0.934,0.469,1.31,0.882c0.198,0.198,0.315,0.498,0.409,0.689
			c0.13,0.204,0.285,0.394,0.465,0.552c0.354,0.32,0.737,0.57,1.073,0.768C136.514,87.625,137,87.833,137,87.833z"/>
	</g>
	<g>
		<path fill="#A67C52" d="M136.167,81.833c0,0-0.034,0.427-0.085,1.068c-0.045,0.639-0.11,1.491-0.06,2.334
			c0.012,0.422,0.068,0.84,0.158,1.22c0.071,0.179,0.092,0.376,0.183,0.527c0.074,0.162,0.148,0.313,0.258,0.421
			c0.089,0.129,0.198,0.215,0.307,0.281c0.099,0.084,0.199,0.132,0.292,0.147c0.179,0.053,0.282,0.083,0.282,0.083
			s-0.106-0.016-0.293-0.043c-0.099-0.003-0.208-0.038-0.325-0.109c-0.127-0.054-0.26-0.131-0.366-0.265
			c-0.131-0.112-0.223-0.267-0.317-0.434c-0.112-0.161-0.153-0.358-0.229-0.552c-0.106-0.398-0.176-0.831-0.199-1.265
			c-0.033-0.869,0.058-1.729,0.171-2.365c0.051-0.318,0.12-0.579,0.16-0.763C136.144,81.938,136.167,81.833,136.167,81.833z"/>
	</g>
	<circle fill="#FFFFFF" cx="151.313" cy="93.688" r="1.438"/>
	
		<radialGradient id="SVGID_21_" cx="872.918" cy="638.0615" r="4.8612" gradientTransform="matrix(-1.1035 0 0 1 1094.2559 -540.9199)" gradientUnits="userSpaceOnUse">
		<stop  offset="0" style="stop-color:#42210B"/>
		<stop  offset="0.2209" style="stop-color:#3B1D0A"/>
		<stop  offset="0.5537" style="stop-color:#261306"/>
		<stop  offset="0.9554" style="stop-color:#040201"/>
		<stop  offset="1" style="stop-color:#000000"/>
	</radialGradient>
	<path fill="url(#SVGID_21_)" d="M134.75,97.141c0,2.187-1.683,3.962-3.753,3.962c-2.081,0-3.765-1.775-3.765-3.962
		s1.684-3.961,3.765-3.961C133.067,93.179,134.75,94.954,134.75,97.141z"/>
	<path d="M133.75,97.953c0,1.531-1.067,2.774-2.382,2.774c-1.32,0-2.389-1.243-2.389-2.774c0-1.531,1.068-2.774,2.389-2.774
		C132.683,95.179,133.75,96.422,133.75,97.953z"/>
	<circle fill="#FFFFFF" cx="128.42" cy="93.688" r="1.438"/>
	<g>
		<path fill="#8C6239" d="M143.375,97.25c0,0-0.134-0.363-0.213-1.033c-0.068-0.664-0.105-1.66,0.269-2.781
			c0.358-1.113,1.17-2.322,2.393-3.159c1.208-0.848,2.703-1.407,4.215-1.717c1.513-0.313,3.057-0.49,4.511-0.459
			c1.452,0.029,2.81,0.296,3.89,0.742c1.086,0.446,1.84,1.129,2.207,1.697c0.194,0.28,0.285,0.533,0.354,0.698
			c0.054,0.171,0.082,0.263,0.082,0.263s-0.037-0.088-0.106-0.253c-0.082-0.159-0.201-0.393-0.406-0.652
			c-0.396-0.532-1.172-1.114-2.229-1.496c-2.131-0.782-5.253-0.72-8.195-0.057c-0.738,0.167-1.468,0.344-2.155,0.615
			c-0.688,0.261-1.339,0.585-1.914,0.979c-1.15,0.785-1.988,1.84-2.373,2.897c-0.393,1.051-0.467,2.015-0.439,2.676
			C143.286,96.875,143.375,97.25,143.375,97.25z"/>
	</g>
	<path fill="#1A1A1A" stroke="#1A1A1A" stroke-miterlimit="10" d="M140.833,88.667c0,0,1.167,5.542,2.667,4.208
		c2.491-2.215,8.833-4.542,11.5-4.375s5.167,1.333,5.167,1.333s-0.153-5.009-3.417-5.708c-3.5-0.75-7.25,2.5-8.5,3.125
		C145.177,88.787,140.833,88.667,140.833,88.667z"/>
	<g>
		<path fill="#8C6239" d="M176.125,90.25c0.133-0.618,0.316-1.223,0.532-1.82c0.217-0.596,0.452-1.192,0.77-1.756
			c0.315-0.563,0.673-1.127,1.24-1.574c0.283-0.216,0.646-0.414,1.074-0.432c0.204-0.009,0.438,0.03,0.608,0.086
			c0.15,0.049,0.293,0.084,0.465,0.159c0.652,0.25,1.274,0.656,1.703,1.262c0.437,0.594,0.643,1.297,0.735,1.951
			c0.026,0.18,0.043,0.294,0.063,0.522c0.011,0.147,0.018,0.312-0.01,0.542c-0.05,0.391-0.168,0.726-0.322,1.042
			c-0.313,0.629-0.707,1.154-1.209,1.631l-1.471,1.401l0.824-1.827c0.051-0.112,0.102-0.286,0.115-0.425
			c0.018-0.146,0.002-0.279-0.036-0.39c-0.04-0.11-0.11-0.206-0.229-0.281c-0.061-0.031-0.131-0.076-0.192-0.093
			c-0.103-0.036-0.171-0.048-0.229-0.057c-0.281-0.056-0.574,0.093-0.73,0.408c-0.158,0.306-0.201,0.69-0.162,1.068
			c-0.146-0.352-0.21-0.764-0.089-1.167c0.09-0.404,0.505-0.807,1.002-0.809c0.132,0,0.25,0.013,0.332,0.03
			c0.123,0.018,0.225,0.061,0.338,0.102c0.221,0.094,0.435,0.276,0.562,0.507c0.129,0.23,0.166,0.484,0.168,0.715
			c-0.002,0.239-0.033,0.441-0.109,0.686l-0.646-0.426c0.358-0.436,0.717-0.94,0.922-1.455c0.104-0.254,0.178-0.524,0.205-0.756
			c0.014-0.083,0.014-0.231-0.002-0.398l-0.063-0.41c-0.109-0.577-0.252-1.119-0.559-1.548c-0.295-0.428-0.736-0.776-1.238-1.009
			c-0.109-0.062-0.271-0.116-0.416-0.173c-0.122-0.051-0.203-0.066-0.313-0.075c-0.202-0.013-0.438,0.077-0.659,0.222
			c-0.445,0.301-0.846,0.773-1.19,1.27C177.205,87.975,176.645,89.104,176.125,90.25z"/>
	</g>
	<path fill="#1A1A1A" d="M116,74.5c0,0-4.625,1.75-7.625-1c2.75,1.25,5.25,0.625,7.125-1S116,74.5,116,74.5z"/>
	<path fill="#1A1A1A" d="M116.442,74.382c0,0-7.692,0.493-10.317-5.757c4.625,5.875,6.661,3.437,10.433,3.563
		C120.33,72.315,116.442,74.382,116.442,74.382z"/>
	<path fill="#1A1A1A" d="M172.289,58.498c0,0,6.34-4.385,11.809-0.38c-6.99-2.653-7.479,0.485-10.777,2.319
		C170.021,62.272,172.289,58.498,172.289,58.498z"/>
	<path fill="#1A1A1A" d="M187.951,102.345c0,0-1.526,5.685,4.195,7.451c-5.086-3.251-2.438-4.818-2.047-7.596
		C190.492,99.422,187.951,102.345,187.951,102.345z"/>
	<path fill="#1A1A1A" d="M187.578,103.233c0,0,0.072,4.743,5.431,5.363c-5.173-1.892-3.274-3.506-3.614-5.774
		C189.051,100.554,187.578,103.233,187.578,103.233z"/>
	<path fill="#1A1A1A" d="M175.465,57.833c0,0-2.539-7.278-9.316-7.264c7.211,1.974,5.759,4.798,7.344,8.224
		C175.074,62.217,175.465,57.833,175.465,57.833z"/>
	<path fill="#1A1A1A" d="M135.315,55.21c0,0-6.94,4.852-11.505-2.685c5.752,4.724,7.351,1.464,11.012,0.545
		C138.482,52.151,135.315,55.21,135.315,55.21z"/>
	<path fill="#1A1A1A" d="M131.053,57.974c0,0-7.803,1.776-9.49-5.286c3.5,5.25,5.688,2.125,9.625,2.125
		C134.962,54.813,131.053,57.974,131.053,57.974z"/>
	<path fill="#1A1A1A" d="M111.71,71.493c0,0-6.797-3.635-5.733-10.33c0.834,7.429,3.85,6.431,6.988,8.528
		C116.104,71.787,111.71,71.493,111.71,71.493z"/>
	<path fill="#1A1A1A" d="M108.512,67.021c0,0-4.262-5.896,1.546-11.712c-3.058,5.817-0.737,7.459,0.535,11.012
		C111.866,69.873,108.512,67.021,108.512,67.021z"/>
	<path fill="#1A1A1A" d="M170.043,61.304c0,0,3.204-7.011,9.952-6.368c-7.364,1.296-6.179,4.244-8.074,7.506
		C170.025,65.707,170.043,61.304,170.043,61.304z"/>
	<g>
		<path fill="#999999" d="M168.875,65.25c0,0,0.273-0.048,0.758-0.06c0.482-0.013,1.182-0.015,2.008,0.133
			c0.821,0.139,1.795,0.397,2.699,0.985c0.461,0.289,0.879,0.636,1.247,1.085c0.358,0.432,0.658,0.91,0.935,1.395
			c1.103,1.95,1.768,4.07,2.226,5.656c0.438,1.596,0.63,2.681,0.63,2.681s-0.318-1.054-0.875-2.604
			c-0.553-1.545-1.313-3.615-2.391-5.496c-0.271-0.466-0.575-0.912-0.905-1.315c-0.312-0.396-0.711-0.75-1.117-1.015
			c-0.821-0.552-1.733-0.844-2.514-1.056C169.988,65.266,168.875,65.25,168.875,65.25z"/>
	</g>
	<g>
		<path fill="#999999" d="M167.688,67.62c0,0,0.277-0.012,0.761,0.039c0.479,0.05,1.173,0.138,1.973,0.392
			c0.798,0.244,1.729,0.626,2.552,1.326c0.42,0.346,0.789,0.745,1.096,1.238c0.3,0.475,0.535,0.987,0.746,1.504
			c0.84,2.076,1.225,4.264,1.474,5.896c0.228,1.639,0.276,2.74,0.276,2.74s-0.182-1.087-0.529-2.695
			c-0.348-1.604-0.836-3.755-1.657-5.759c-0.211-0.498-0.454-0.979-0.729-1.421c-0.256-0.433-0.606-0.835-0.976-1.151
			c-0.745-0.653-1.61-1.061-2.356-1.372C168.791,67.78,167.688,67.62,167.688,67.62z"/>
	</g>
	<g>
		<path fill="#999999" d="M171.875,62.25c0,0,0.338-0.068,0.938-0.117c0.602-0.055,1.463-0.108,2.498-0.038
			c0.519,0.044,1.084,0.083,1.67,0.219c0.584,0.139,1.205,0.304,1.799,0.622c0.611,0.322,1.121,0.749,1.631,1.227
			c0.494,0.48,0.949,1.012,1.363,1.57c1.676,2.236,2.685,4.845,3.3,6.805c0.6,1.976,0.804,3.336,0.804,3.336
			s-0.328-1.335-1.043-3.255c-0.35-0.962-0.798-2.07-1.372-3.208c-0.563-1.141-1.239-2.324-2.063-3.395
			c-0.408-0.536-0.854-1.042-1.336-1.495c-0.467-0.448-0.979-0.885-1.502-1.172c-0.535-0.302-1.123-0.473-1.678-0.618
			c-0.559-0.142-1.101-0.234-1.604-0.305C173.256,62.195,171.875,62.25,171.875,62.25z"/>
	</g>
	<g>
		<path fill="#999999" d="M170.875,63.25c0,0,0.335-0.046,0.926-0.039c0.592,0.005,1.441,0.055,2.438,0.3
			c0.5,0.111,1.031,0.292,1.566,0.553c0.529,0.25,1.086,0.602,1.555,1.026c0.986,0.818,1.885,1.859,2.662,2.97
			c1.576,2.227,2.521,4.805,3.026,6.754c0.496,1.963,0.577,3.31,0.577,3.31s-0.198-1.333-0.807-3.245
			c-0.584-1.912-1.635-4.395-3.174-6.555c-0.768-1.08-1.672-2.055-2.604-2.863c-0.462-0.422-0.935-0.743-1.438-0.998
			c-0.498-0.255-0.998-0.441-1.468-0.595c-0.94-0.306-1.771-0.427-2.347-0.521C171.211,63.275,170.875,63.25,170.875,63.25z"/>
	</g>
	<g>
		<path fill="#999999" d="M174.875,60.25c0,0,0.271-0.047,0.754-0.078c0.48-0.026,1.173-0.064,2.002,0.013
			c0.826,0.076,1.807,0.207,2.791,0.614c0.487,0.212,0.982,0.471,1.421,0.843c0.425,0.366,0.8,0.758,1.169,1.193
			c1.441,1.693,2.609,3.566,3.439,4.991c0.824,1.43,1.299,2.423,1.299,2.423s-0.609-0.912-1.525-2.28
			c-0.93-1.353-2.158-3.176-3.58-4.815c-0.354-0.391-0.729-0.8-1.117-1.149c-0.379-0.339-0.828-0.588-1.277-0.797
			c-0.919-0.384-1.85-0.602-2.65-0.727c-0.808-0.117-1.488-0.184-1.969-0.205C175.148,60.26,174.875,60.25,174.875,60.25z"/>
	</g>
	<g>
		<path fill="#999999" d="M167,66.75c0,0-1.759,0.696-4.461,1.569c-1.355,0.417-2.938,0.915-4.667,1.329
			c-0.86,0.22-1.761,0.41-2.683,0.581c-0.933,0.208-1.861,0.263-2.801,0.403c-0.945,0.083-1.897,0.129-2.833,0.193
			c-0.932,0.032-1.848,0.064-2.735,0.094c-1.774,0.04-3.43,0.019-4.848,0.001c-1.418-0.013-2.6-0.079-3.426-0.11
			c-0.827-0.039-1.299-0.061-1.299-0.061s1.89-0.045,4.724-0.114c1.416-0.044,3.067-0.097,4.836-0.152
			c0.883-0.041,1.796-0.083,2.723-0.127c0.921-0.072,1.857-0.145,2.793-0.217c0.931-0.127,1.896-0.175,2.781-0.366
			c0.912-0.158,1.807-0.335,2.664-0.544c1.725-0.384,3.321-0.8,4.688-1.175c1.364-0.384,2.501-0.704,3.296-0.927
			C166.548,66.887,167,66.75,167,66.75z"/>
	</g>
	<g>
		<path fill="#999999" d="M167.167,64.917c0,0-0.437,0.021-1.198,0.056c-0.763,0.027-1.853,0.106-3.164,0.098
			c-0.656,0.007-1.369-0.024-2.125-0.077c-0.375-0.042-0.762-0.086-1.156-0.131c-0.391-0.068-0.789-0.138-1.192-0.209
			c-0.804-0.171-1.63-0.348-2.472-0.528c-0.838-0.198-1.682-0.352-2.543-0.528c-0.85-0.133-1.698-0.264-2.551-0.329
			c-0.849-0.072-1.688-0.116-2.499-0.106c-1.623-0.005-3.141,0.1-4.43,0.281c-2.587,0.333-4.252,0.891-4.252,0.891
			s0.402-0.17,1.131-0.402c0.729-0.228,1.783-0.535,3.078-0.762c0.647-0.113,1.353-0.219,2.103-0.294s1.544-0.148,2.368-0.145
			c0.823-0.02,1.675,0.014,2.538,0.076c0.863,0.054,1.738,0.178,2.613,0.304c1.714,0.321,3.413,0.782,5.001,1.113
			c0.798,0.158,1.567,0.298,2.304,0.398c0.738,0.082,1.439,0.142,2.092,0.161C165.418,64.884,167.167,64.917,167.167,64.917z"/>
	</g>
	<g>
		<path fill="#999999" d="M164.125,66.25c0,0-0.482,0.184-1.369,0.361c-0.439,0.112-0.984,0.171-1.605,0.28
			c-0.625,0.074-1.334,0.139-2.104,0.183c-0.772,0.008-1.614,0.079-2.502,0.041c-0.887-0.046-1.827-0.036-2.788-0.153
			c-0.961-0.094-1.953-0.191-2.964-0.29c-1.011-0.111-2.02-0.179-3.043-0.224c-2.045-0.087-4.099-0.041-6.019,0.062
			c-1.922,0.086-3.714,0.232-5.248,0.387c-3.07,0.284-5.105,0.604-5.105,0.604s2.014-0.433,5.075-0.862
			c1.532-0.2,3.325-0.4,5.253-0.543c1.929-0.13,3.994-0.191,6.061-0.125c1.032,0.039,2.079,0.084,3.08,0.213
			c1.006,0.111,1.994,0.22,2.951,0.326c0.953,0.132,1.885,0.124,2.762,0.194c0.879,0.073,1.711,0.036,2.479,0.058
			c1.533-0.035,2.814-0.114,3.705-0.248C163.63,66.399,164.125,66.25,164.125,66.25z"/>
	</g>
	<g>
		<path fill="#999999" d="M168.125,64.625c0,0-0.027-0.102-0.125-0.27c-0.1-0.168-0.277-0.39-0.536-0.643
			c-0.524-0.5-1.405-1.052-2.519-1.59c-1.116-0.539-2.486-1.015-3.967-1.48c-0.74-0.23-1.517-0.44-2.309-0.638
			c-0.771-0.206-1.611-0.346-2.408-0.462c-1.634-0.219-3.296-0.282-4.85-0.294c-1.556-0.021-3.011,0.002-4.257,0.05
			C144.662,59.37,143,59.5,143,59.5s0.413-0.056,1.135-0.153c0.724-0.088,1.758-0.221,3.006-0.318
			c2.492-0.19,5.837-0.365,9.185,0.029c0.854,0.105,1.654,0.258,2.465,0.483c0.795,0.211,1.574,0.435,2.32,0.679
			c0.746,0.243,1.467,0.486,2.127,0.776c0.666,0.273,1.283,0.567,1.84,0.864c1.117,0.583,1.954,1.249,2.449,1.79
			c0.242,0.278,0.406,0.518,0.492,0.694C168.105,64.521,168.125,64.625,168.125,64.625z"/>
	</g>
	<g>
		<path fill="#999999" d="M169.602,63.232c0,0-0.828-0.97-2.278-2.177c-0.722-0.609-1.615-1.252-2.622-1.849
			c-1.01-0.605-2.143-1.106-3.354-1.452c-2.389-0.756-4.895-1.137-6.771-1.359c-1.882-0.216-3.15-0.26-3.15-0.26
			s1.269-0.118,3.175-0.021c0.949,0.058,2.063,0.137,3.241,0.334c1.179,0.193,2.433,0.461,3.656,0.832
			c1.219,0.37,2.41,0.92,3.425,1.557c0.52,0.307,0.98,0.659,1.413,1c0.433,0.339,0.82,0.684,1.171,1.01
			C168.898,62.163,169.602,63.232,169.602,63.232z"/>
	</g>
	<path fill="none" stroke="#CCCCCC" stroke-width="0.25" stroke-miterlimit="10" d="M171.834,135.167c0,0,0.417-12.25,6-12.083"/>
	<path fill="none" stroke="#CCCCCC" stroke-width="0.25" stroke-miterlimit="10" d="M172.417,152.583c0,0,1.418-1.75,3.084-1.75
		s8.667,3.584,10,5.417s2.999,6.333,0.666,9.5s-7.666,5.251-10.416,1.667s-4.75-7.25-4.75-7.25"/>
	<g>
		<path fill="#CCCCCC" d="M185.667,130.5c0,0-0.063,0.285-0.201,0.698c-0.133,0.416-0.346,0.957-0.595,1.483
			c-0.239,0.529-0.534,1.034-0.786,1.393c-0.244,0.362-0.418,0.593-0.418,0.593s0.112-0.272,0.297-0.664
			c0.19-0.389,0.459-0.896,0.683-1.428c0.263-0.514,0.494-1.04,0.688-1.428C185.534,130.759,185.667,130.5,185.667,130.5z"/>
	</g>
	<g>
		<path fill="#CCCCCC" d="M181.598,146.614c0,0,0.473,0.36,1.118,0.974c0.646,0.613,1.441,1.502,2.13,2.477
			c0.34,0.49,0.637,1.009,0.896,1.505c0.25,0.503,0.42,0.998,0.55,1.428c0.101,0.438,0.17,0.804,0.172,1.066
			c0.017,0.259,0.024,0.406,0.024,0.406s-0.024-0.146-0.066-0.402c-0.021-0.258-0.146-0.607-0.265-1.028
			c-0.08-0.205-0.167-0.426-0.261-0.66c-0.109-0.226-0.229-0.464-0.35-0.711c-0.263-0.481-0.564-0.983-0.906-1.461
			c-0.662-0.969-1.434-1.864-2.024-2.521C182.021,147.029,181.598,146.614,181.598,146.614z"/>
	</g>
	<g>
		<path fill="#CCCCCC" d="M175.68,147.719c0,0,0.42-0.77,1.051-1.925c0.162-0.287,0.336-0.597,0.521-0.926
			c0.168-0.338,0.414-0.652,0.663-0.981c0.495-0.659,1.022-1.362,1.551-2.065c1.065-1.393,2.28-2.694,3.339-3.493
			c0.258-0.206,0.524-0.357,0.746-0.506c0.241-0.119,0.451-0.223,0.624-0.308c0.367-0.115,0.577-0.181,0.577-0.181
			s-0.203,0.08-0.561,0.219c-0.164,0.096-0.363,0.213-0.594,0.347c-0.209,0.165-0.457,0.33-0.707,0.541
			c-0.505,0.417-1.046,0.955-1.597,1.559c-0.546,0.603-1.112,1.277-1.632,1.976c-0.534,0.691-1.067,1.383-1.567,2.031
			c-0.247,0.326-0.51,0.626-0.688,0.959c-0.197,0.32-0.385,0.624-0.557,0.903C176.146,146.978,175.68,147.719,175.68,147.719z"/>
	</g>
	<g>
		<path fill="#CCCCCC" d="M181.167,148.917c0,0,0.51,0.304,1.222,0.841c0.711,0.536,1.604,1.328,2.397,2.219
			c0.394,0.448,0.747,0.932,1.062,1.396c0.305,0.472,0.53,0.942,0.707,1.354c0.149,0.424,0.262,0.779,0.293,1.039
			c0.045,0.256,0.069,0.401,0.069,0.401s-0.041-0.144-0.11-0.392c-0.053-0.254-0.216-0.588-0.381-0.992
			c-0.103-0.194-0.215-0.404-0.332-0.627c-0.137-0.213-0.279-0.436-0.428-0.666c-0.316-0.449-0.674-0.914-1.068-1.35
			c-0.769-0.89-1.635-1.689-2.298-2.274S181.167,148.917,181.167,148.917z"/>
	</g>
	<g>
		<path fill="#42210B" d="M145.167,192.5c0,0,0.898-0.113,2.231-0.184c1.334-0.082,3.107-0.106,4.874-0.14
			c0.887,0.019,1.766-0.016,2.592-0.012c0.412-0.011,0.816,0.019,1.189-0.007c0.377-0.02,0.734-0.021,1.066-0.024
			c0.33-0.009,0.641,0.011,0.898-0.03c0.269-0.024,0.502-0.047,0.692-0.063c0.396-0.024,0.622-0.04,0.622-0.04
			s-0.207,0.084-0.568,0.23c-0.188,0.068-0.414,0.151-0.677,0.248c-0.265,0.107-0.565,0.162-0.896,0.227
			c-0.662,0.129-1.446,0.291-2.283,0.341c-0.838,0.083-1.735,0.129-2.629,0.134c-0.896,0.002-1.788-0.014-2.625-0.076
			c-0.836-0.043-1.614-0.129-2.279-0.215C146.044,192.721,145.167,192.5,145.167,192.5z"/>
	</g>
	<g>
		<path fill="#42210B" d="M152.334,193.333c0.357,3.574,0.659,7.151,0.918,10.731c0.127,1.789,0.286,3.578,0.387,5.369l0.329,5.373
			c0.104,1.791,0.229,3.582,0.318,5.373l0.255,5.379l0.25,5.377l0.178,5.381l0.002,0.055l-0.011,0.039
			c-0.306,1.049-0.59,2.104-0.91,3.146l-0.044-0.199l1.598,2.058l0.062,0.077l-0.047,0.074c-0.586,0.929-1.181,1.85-1.782,2.767
			c0.51-0.972,1.023-1.938,1.553-2.899l0.014,0.151l-1.735-1.942l-0.071-0.078l0.026-0.121c0.235-1.065,0.505-2.125,0.756-3.188
			l-0.009,0.094l-0.405-5.369l-0.333-5.373l-0.329-5.373c-0.104-1.791-0.175-3.584-0.265-5.375l-0.254-5.377
			c-0.094-1.793-0.129-3.588-0.196-5.381C152.452,200.516,152.365,196.925,152.334,193.333z"/>
	</g>
	<g>
		<path fill="#42210B" d="M167.834,180.5c0,0,0.016,0.25,0.04,0.688c0.019,0.437,0.083,1.058,0.187,1.778
			c0.051,0.361,0.135,0.744,0.235,1.134c0.119,0.375,0.261,0.783,0.492,1.061c0.231,0.285,0.489,0.372,0.841,0.341
			c0.488-0.06,0.989-0.11,1.426-0.25c0.45-0.099,0.912-0.206,1.383-0.354c0.463-0.139,0.929-0.244,1.369-0.388
			c0.892-0.257,1.723-0.508,2.442-0.702c0.715-0.215,1.329-0.352,1.748-0.476c0.424-0.11,0.671-0.165,0.671-0.165
			s-0.213,0.137-0.6,0.348c-0.389,0.202-0.938,0.51-1.617,0.829c-0.682,0.318-1.483,0.675-2.366,1.003
			c-0.894,0.334-1.812,0.65-2.864,0.889c-0.522,0.141-1.016,0.18-1.502,0.227c-0.631,0.092-1.343-0.29-1.64-0.781
			c-0.338-0.479-0.418-0.974-0.509-1.418c-0.07-0.449-0.092-0.871-0.08-1.256c0.007-0.77,0.123-1.396,0.189-1.828
			C167.76,180.742,167.834,180.5,167.834,180.5z"/>
	</g>
	<g>
		<path fill="#42210B" d="M138.001,179.167c0.037,0.86-0.059,1.69-0.173,2.517c-0.139,0.817-0.294,1.633-0.521,2.433l-0.168,0.594
			l-0.523-0.271c-0.551-0.287-1.084-0.608-1.608-0.949c-0.52-0.35-1.032-0.715-1.507-1.152c0.636,0.116,1.235,0.309,1.826,0.514
			c0.587,0.215,1.165,0.448,1.725,0.717l-0.691,0.322c0.163-0.813,0.396-1.608,0.646-2.401
			C137.282,180.698,137.575,179.917,138.001,179.167z"/>
	</g>
	<g>
		<path fill="#42210B" d="M154.668,237.167c0,0,0.165,0.116,0.465,0.292c0.301,0.178,0.754,0.382,1.301,0.605
			c0.28,0.094,0.575,0.219,0.905,0.297c0.323,0.1,0.673,0.168,1.032,0.244c0.722,0.143,1.502,0.229,2.287,0.244
			c0.393-0.01,0.785,0.027,1.172-0.015c0.385-0.039,0.77-0.024,1.135-0.087c0.368-0.045,0.725-0.089,1.061-0.131
			c0.336-0.063,0.651-0.125,0.943-0.184c0.59-0.098,1.066-0.242,1.409-0.315c0.343-0.076,0.539-0.12,0.539-0.12
			s-0.185,0.077-0.509,0.213c-0.331,0.112-0.783,0.354-1.371,0.497c-0.291,0.083-0.605,0.173-0.939,0.269
			c-0.343,0.065-0.701,0.138-1.074,0.209c-0.373,0.073-0.769,0.094-1.166,0.133c-0.396,0.049-0.807,0.02-1.213,0.031
			c-0.406-0.007-0.813-0.063-1.211-0.093c-0.396-0.069-0.787-0.124-1.156-0.225c-0.748-0.173-1.404-0.46-1.957-0.714
			c-0.547-0.272-0.961-0.569-1.239-0.781C154.803,237.316,154.668,237.167,154.668,237.167z"/>
	</g>
	<g>
		<path fill="#42210B" d="M176.332,238.75c0,0-0.624,0.318-1.605,0.684c-0.979,0.375-2.313,0.799-3.677,1.112
			c-0.687,0.132-1.366,0.3-2.021,0.377c-0.324,0.038-0.641,0.074-0.938,0.109c-0.3,0.026-0.579,0.075-0.843,0.077
			c-1.053,0.033-1.748,0.016-1.748,0.016s0.689-0.143,1.715-0.295c0.514-0.075,1.104-0.232,1.74-0.342
			c0.636-0.117,1.309-0.29,1.982-0.43c0.676-0.151,1.346-0.322,1.979-0.468c0.626-0.168,1.227-0.282,1.727-0.427
			C175.656,238.917,176.332,238.75,176.332,238.75z"/>
	</g>
	<g>
		<path fill="#42210B" d="M155.501,241.5c0,0,0.488,0.16,1.214,0.373c0.73,0.195,1.7,0.459,2.686,0.65
			c0.488,0.119,0.98,0.209,1.447,0.283c0.465,0.082,0.896,0.188,1.272,0.223c0.75,0.105,1.255,0.221,1.255,0.221
			s-0.508,0.048-1.277,0.061c-0.386,0.01-0.834-0.015-1.313-0.065c-0.48-0.034-0.987-0.118-1.489-0.229
			c-0.505-0.099-0.999-0.24-1.456-0.395c-0.462-0.139-0.867-0.344-1.224-0.482C155.918,241.805,155.501,241.5,155.501,241.5z"/>
	</g>
	<g>
		<path fill="#42210B" d="M139.378,238.5c0,0,0.335,0.561,1.104,1.068c0.368,0.273,0.867,0.479,1.401,0.666
			c0.543,0.166,1.14,0.3,1.751,0.338c0.302,0.046,0.611,0.039,0.913,0.046c0.302,0.013,0.601,0,0.891-0.021
			c0.58-0.013,1.121-0.088,1.587-0.135c0.464-0.063,0.853-0.123,1.125-0.161c0.275-0.032,0.433-0.054,0.433-0.054
			s-0.148,0.054-0.409,0.146c-0.265,0.078-0.633,0.236-1.097,0.345c-0.466,0.092-1.005,0.253-1.605,0.297
			c-0.298,0.03-0.606,0.073-0.924,0.063c-0.317,0-0.639,0.014-0.961-0.031c-0.644-0.051-1.284-0.199-1.854-0.422
			c-0.566-0.229-1.061-0.529-1.424-0.855c-0.37-0.318-0.607-0.652-0.749-0.893C139.421,238.652,139.378,238.5,139.378,238.5z"/>
	</g>
	<g>
		<path fill="#563611" d="M147.5,243.875c-2.25,0.25-7.752-1.125-7.752-1.125"/>
		<path fill="#42210B" d="M147.5,243.875c0,0-0.122,0.021-0.336,0.057c-0.215,0.014-0.515,0.106-0.89,0.088
			c-0.369-0.016-0.822,0.019-1.28-0.041c-0.461-0.043-0.956-0.097-1.441-0.185c-0.976-0.157-1.931-0.412-2.639-0.63
			c-0.708-0.217-1.166-0.414-1.166-0.414s0.496,0.041,1.227,0.141c0.73,0.102,1.699,0.25,2.661,0.411
			c0.479,0.097,0.962,0.155,1.412,0.241c0.452,0.088,0.861,0.137,1.225,0.195c0.359,0.063,0.675,0.07,0.888,0.097
			C147.376,243.859,147.5,243.875,147.5,243.875z"/>
	</g>
	<g>
		<path fill="#563611" d="M154.5,240.625c0,0-2.875,1.625-5.625,1.625"/>
		<path fill="#42210B" d="M154.5,240.625c0,0-0.283,0.254-0.77,0.536c-0.48,0.291-1.162,0.612-1.879,0.837
			c-0.367,0.088-0.727,0.207-1.078,0.247c-0.176,0.026-0.348,0.04-0.507,0.055c-0.162,0.011-0.311,0.039-0.455,0.027
			c-0.57-0.021-0.937-0.077-0.937-0.077s0.37-0.105,0.905-0.202c0.269-0.046,0.572-0.163,0.903-0.233
			c0.329-0.078,0.672-0.201,1.021-0.293c0.347-0.104,0.691-0.224,1.02-0.321c0.319-0.117,0.635-0.19,0.891-0.292
			C154.141,240.738,154.5,240.625,154.5,240.625z"/>
	</g>
	<path opacity="0.7" fill="#261306" enable-background="new    " d="M143.667,192.333l8.708,0.417l2.25,43.125l-0.791,3.625
		l1.291,1.875l-1.126,3.273l-5.249,1.227c0,0,1.084-1.207,1.167-1.624s-2.5-0.166-2.417-0.75s1.334-1.167,1.417-1.667
		s-1.834-1.416-1.917-1.833s1.5-1.834,1.5-1.834L143.667,192.333z"/>
	<line fill="none" stroke="#281406" stroke-miterlimit="10" x1="152.5" y1="249" x2="156" y2="250.375"/>
	<line fill="none" stroke="#281406" stroke-miterlimit="10" x1="154.5" y1="247" x2="158" y2="248.375"/>
	<line fill="none" stroke="#281406" stroke-miterlimit="10" x1="136.938" y1="246.172" x2="140" y2="247.375"/>
	<path opacity="0.3" fill="#4D4D4D" enable-background="new    " d="M182.042,168.875c0,0-4.208,2.75-8.417-4.25
		c-3.824-6.359-2.125-2.875-2.125-2.875l1,9.125l-0.041,5.292l1.75-0.209c0,0,7.166,1.181,8.708,0.667
		c1.001-0.333-0.534-1.529-0.208-2.042c0.584-0.917,0.625-1.125,0.25-2S182.042,168.875,182.042,168.875z"/>
	<path opacity="0.3" fill="#999999" enable-background="new    " d="M172.084,161.125c0,0,4.018,2.773,4.479,2.969
		c0.596,0.25,2.063,0.156,2.156-0.25c0.094-0.406,1-1.906-2.344-7.625c1.875,1.292,4.875,6.469,4.126,9.364
		c0-0.208-0.563-2.271-0.563-2.271s0.48,3.979-0.937,4.146S172.084,161.125,172.084,161.125z"/>
	<path opacity="0.5" fill="#999999" enable-background="new    " d="M172.084,161.125c0,0,4.54,4.541,5.749,4.458
		S178.75,164,178.75,164S177.208,165.167,172.084,161.125z"/>
	<path fill="#999999" d="M185.75,131"/>
	<path opacity="0.4" fill="#999999" enable-background="new    " d="M185.667,130.5L185,132.438c0,0,1.25,4.313,1.375,4.813
		s-1.117,2.89,0.188,5.5c1.25,2.5-0.125,3.813,0.063,5.25s-1,3.583-0.458,4.75c0.635,1.365,0.32,1.72,0.32,1.72
		s2.138-1.345,1.888-8.72C188.109,137.922,185.667,130.5,185.667,130.5z"/>
	<g>
		<path fill="none" d="M152.833,146.75"/>
	</g>
	<g>
		<path fill="none" d="M154.708,141.375"/>
	</g>
	<g>
		<path fill="#A67C52" d="M157.313,147.063c0,0,0.051-0.075,0.183-0.166c0.133-0.08,0.354-0.175,0.633-0.168
			c0.138,0.009,0.287,0.025,0.438,0.063c0.146,0.046,0.299,0.095,0.459,0.145c0.156,0.044,0.317,0.123,0.479,0.134
			c0.163,0.021,0.323,0.066,0.495,0.057c0.169,0.003,0.34,0.03,0.504-0.002c0.164-0.023,0.333-0.023,0.479-0.085
			c0.146-0.055,0.307-0.072,0.422-0.16c0.113-0.082,0.263-0.118,0.332-0.225c0.082-0.094,0.164-0.177,0.238-0.252
			c0.051-0.09,0.082-0.176,0.114-0.245c0.063-0.141,0.101-0.221,0.101-0.221s-0.021,0.085-0.062,0.235
			c-0.021,0.075-0.04,0.171-0.076,0.275c-0.061,0.091-0.132,0.195-0.217,0.306c-0.069,0.126-0.221,0.181-0.341,0.284
			c-0.124,0.109-0.288,0.148-0.449,0.209c-0.161,0.073-0.339,0.079-0.518,0.11c-0.178,0.039-0.359,0.019-0.543,0.02
			c-0.183,0.004-0.363-0.051-0.543-0.082c-0.187-0.025-0.332-0.104-0.489-0.154c-0.177-0.061-0.298-0.117-0.438-0.175
			c-0.137-0.048-0.271-0.076-0.396-0.097c-0.251-0.028-0.466,0.006-0.604,0.064C157.376,146.997,157.313,147.063,157.313,147.063z"
			/>
	</g>
	
		<radialGradient id="SVGID_22_" cx="406.5684" cy="688.9961" r="8.9277" fx="407.0799" fy="680.0831" gradientTransform="matrix(1 0 0 1 -295.3203 -540.9199)" gradientUnits="userSpaceOnUse">
		<stop  offset="0" style="stop-color:#FFE2A2"/>
		<stop  offset="0.472" style="stop-color:#FFC98A"/>
		<stop  offset="1" style="stop-color:#FFA96A"/>
	</radialGradient>
	<path fill="url(#SVGID_22_)" d="M113.375,156.813c0,0-1.664-0.004-1.688-1.063c-0.009-0.4-1.392-0.779-1.375-1.313
		c0.063-2.063-1.086-1.104-1.5-2.063c-0.246-0.569,0.188-1.375-0.438-1.938c-0.646-0.581,0.398-2,0.991-2.556
		c6.134-5.757,9.384-3.007,3.446,0.868c-3.021,1.972,6.786-3.327,5.75-0.125c-0.539,1.667-4.514,2.67-5.268,3.384
		c-0.542,0.515,5.13-1.909,5.955-0.259c0.625,1.25-3.313,2.125-4.313,2.688c-0.401,0.228,3.709-0.328,4.063-0.063
		c0.635,0.477-0.563,1.313-1.5,1.625C116.246,156.418,113.375,156.813,113.375,156.813z"/>
	<path opacity="0.9" fill="#EA8A63" enable-background="new    " d="M156.125,146.875c0,0,1.375-1.5,1.813-1.5
		c0.438,0,2.75,0.938,3.313,0.375s0.938-0.688,0.938-0.688l-0.313,2.625c0,0,1.125,3,1.563,3.625
		c0.438,0.625,14.438,12.875,14.438,12.875s-1.561,0.192-5.063-2.5c-1.53-1.18-4.953-3.855-6.5-5.313
		C162,152.313,157.243,148.078,156.125,146.875z"/>
	<g>
		<path fill="none" d="M157.863,144.2"/>
	</g>
	<g>
		<path fill="none" d="M155.463,146.537"/>
	</g>
	<g>
		<path fill="none" d="M156.037,145.775"/>
	</g>
	<path opacity="0.5" fill="#EA8A63" enable-background="new    " d="M110.063,153.25c0,0,5.055-1.938,6.531-2.813
		c2.219-1.313,2.036-1.934,2.031-2.438C118.193,149.087,110.063,153.25,110.063,153.25z"/>
	<path opacity="0.5" fill="#EA8A63" enable-background="new    " d="M112.281,154.906c0,0,2.422-0.436,4.031-1.031
		c3.969-1.469,2.818-1.636,2.938-2.125C118.564,152.697,112.281,154.906,112.281,154.906z"/>
	<path opacity="0.5" fill="#EA8A63" enable-background="new    " d="M112.5,156.688c0,0,0.938,0.406,4.5-0.578
		c1.773-0.488,2.037-0.916,2.156-1.404C117.797,155.984,112.5,156.688,112.5,156.688z"/>
	<path opacity="0.5" fill="#EA8A63" enable-background="new    " d="M108.938,150.844c0,0,3.906-1.813,5.375-3.25
		c1.773-1.735,1.659-2.138,1.531-2.625C114.5,147.625,108.938,150.844,108.938,150.844z"/>
</g>
<line fill="none" stroke="#FFFFFF" stroke-miterlimit="10" x1="131.75" y1="138" x2="134" y2="133.5"/>
</svg>
