<?xml version="1.0" encoding="utf-8"?>
<!-- Generator: Adobe Illustrator 16.0.0, SVG Export Plug-In . SVG Version: 6.00 Build 0)  -->
<!DOCTYPE svg PUBLIC "-//W3C//DTD SVG 1.1//EN" "http://www.w3.org/Graphics/SVG/1.1/DTD/svg11.dtd">
<svg version="1.1" id="Cogs" xmlns="http://www.w3.org/2000/svg" xmlns:xlink="http://www.w3.org/1999/xlink" x="0px" y="0px"
	 width="30px" height="30px" viewBox="0 0 30 30" enable-background="new 0 0 30 30" xml:space="preserve">
<g id="cogs">
	<path fill="#CCCCCC" stroke="#999999" stroke-miterlimit="10" d="M22.592,26.41l-1.147-2.546c1.094-0.803,2.033-1.802,2.767-2.942
		l2.612,0.989c0.499,0.19,1.058-0.062,1.246-0.562l0.96-2.533c0.092-0.239,0.083-0.506-0.022-0.739
		c-0.105-0.234-0.299-0.415-0.539-0.508l-2.612-0.988c0.207-1.342,0.165-2.71-0.123-4.037l2.547-1.147
		c0.233-0.105,0.416-0.299,0.506-0.539c0.092-0.24,0.084-0.506-0.021-0.739l-1.112-2.471c-0.221-0.487-0.793-0.704-1.278-0.484
		l-2.547,1.147c-0.803-1.093-1.802-2.033-2.942-2.767l0.991-2.612c0.188-0.5-0.063-1.057-0.562-1.247l-2.535-0.96
		c-0.239-0.09-0.506-0.083-0.738,0.023c-0.234,0.105-0.418,0.299-0.509,0.539l-0.988,2.612C15.2,3.692,13.83,3.734,12.507,4.021
		l-1.148-2.546C11.254,1.241,11.06,1.06,10.82,0.968c-0.24-0.09-0.505-0.083-0.74,0.022L7.61,2.104
		c-0.487,0.22-0.703,0.792-0.484,1.279l1.148,2.546C7.179,6.732,6.24,7.73,5.506,8.87L2.894,7.881
		C2.655,7.79,2.388,7.797,2.154,7.903C1.921,8.008,1.738,8.202,1.648,8.442l-0.96,2.534c-0.189,0.5,0.063,1.057,0.562,1.246
		l2.612,0.99c-0.206,1.34-0.165,2.709,0.123,4.037l-2.547,1.146c-0.233,0.106-0.415,0.3-0.505,0.54
		c-0.091,0.24-0.083,0.507,0.022,0.739l1.112,2.471c0.106,0.233,0.3,0.417,0.54,0.507c0.24,0.091,0.505,0.084,0.739-0.022
		l2.547-1.146c0.803,1.093,1.801,2.032,2.941,2.766L7.842,26.86c-0.188,0.5,0.063,1.058,0.562,1.248l2.535,0.959
		c0.11,0.042,0.226,0.063,0.342,0.063c0.137,0,0.271-0.029,0.398-0.085c0.233-0.106,0.417-0.299,0.507-0.54l0.99-2.611
		c1.342,0.208,2.713,0.164,4.037-0.123l1.146,2.546c0.104,0.234,0.3,0.417,0.538,0.508c0.24,0.092,0.506,0.083,0.74-0.022
		l2.471-1.113C22.594,27.47,22.811,26.896,22.592,26.41z M20.988,17.219c-0.959,2.532-3.423,4.235-6.131,4.235
		c-0.792,0-1.573-0.143-2.322-0.428c-1.637-0.62-2.935-1.841-3.654-3.438c-0.719-1.596-0.774-3.377-0.153-5.015
		c0.959-2.533,3.424-4.235,6.131-4.235c0.792,0,1.573,0.144,2.322,0.427c1.638,0.621,2.935,1.841,3.653,3.438
		C21.555,13.8,21.61,15.581,20.988,17.219z"/>
	<circle fill="#CCCCCC" stroke="#999999" stroke-miterlimit="10" cx="14.841" cy="15.031" r="2.487"/>
</g>
</svg>
