<?xml version="1.0" encoding="utf-8"?>
<!-- Generator: Adobe Illustrator 16.0.0, SVG Export Plug-In . SVG Version: 6.00 Build 0)  -->
<!DOCTYPE svg PUBLIC "-//W3C//DTD SVG 1.1//EN" "http://www.w3.org/Graphics/SVG/1.1/DTD/svg11.dtd">
<svg version="1.1" id="Layer_2" xmlns="http://www.w3.org/2000/svg" xmlns:xlink="http://www.w3.org/1999/xlink" x="0px" y="0px"
	 width="25px" height="20px" viewBox="0 0 25 20" enable-background="new 0 0 25 20" xml:space="preserve">
<radialGradient id="SVGID_1_" cx="179.6084" cy="211.8945" r="12.7106" gradientTransform="matrix(-0.5268 0.85 1.2123 0.7514 -144.3717 -304.968)" gradientUnits="userSpaceOnUse">
	<stop  offset="0" style="stop-color:#FFE2A2"/>
	<stop  offset="0.2978" style="stop-color:#FFC98A"/>
	<stop  offset="0.631" style="stop-color:#FFA96A"/>
</radialGradient>
<path fill="url(#SVGID_1_)" d="M21.334,15.833c6.082,0.679-1.389-10.66-6.721-9.58c-0.98,0.198-1.674-0.752-2.28-0.92
	c-2.692-0.748-2.225-0.857-5.584-0.5C0.41,5.508,1.472,8.334,6.333,7.667C11.194,7,8.748,9.604,7.998,11.979
	C7.248,14.354,16.25,15.266,21.334,15.833z"/>
<radialGradient id="SVGID_2_" cx="165.5195" cy="226.4863" r="9.3534" gradientTransform="matrix(-0.5642 0.8256 1.1213 0.7663 -144.5287 -303.3019)" gradientUnits="userSpaceOnUse">
	<stop  offset="0" style="stop-color:#FFE2A2"/>
	<stop  offset="0.472" style="stop-color:#FFC98A"/>
	<stop  offset="1" style="stop-color:#FFA96A"/>
</radialGradient>
<path fill="url(#SVGID_2_)" d="M19.584,13.417c-2.541,2.208-3.879,3.161-4.461,2.71c-0.273-0.212-0.971-0.668-0.998-1.252
	c-0.07-1.486,1.088-3.782,1.666-4.875c-1.625,1.089-1.084,5.78-3.292,5.416c-3.299-0.544,0.909-7.397,0.271-6.458
	c-1.816,0.688-1.229,6.458-4.688,4.25c0,0-0.886-5.125,3.026-6.375c0,0,1.786-1.563,4.036-0.938c2.25,0.625,3.875,1.063,4.75,2.563"
	/>
<path opacity="0.9" fill="#EA8A63" enable-background="new    " d="M18.625,16.125c-1.033-0.723-1.005-0.743-1.166-0.917
	c0,0,1.375-1.5,1.813-1.5s2.75,0.938,3.313,0.375c0.564-0.563,0.939-0.688,0.939-0.688l-0.314,2.625
	C23.209,16.02,19.658,16.848,18.625,16.125z"/>
<path opacity="0.5" fill="#EA8A63" enable-background="new    " d="M2.334,6.604c0,0,0.208,1.156,2.75,1.072
	c1.767-0.059,2.75-0.343,3.417-0.093s0.541,0.666,0.75,0.458c0.411-0.409,1.291-0.959,1.291-0.959S8.459,6.083,5.875,7.124
	C4.174,7.811,2.334,6.604,2.334,6.604z"/>
<path opacity="0.5" fill="#EA8A63" enable-background="new    " d="M11.333,14.041c0,0-0.042-3.001,0.958-4.292
	c1-1.291,2.75-2.25,2.75-2.25l-3.25,2.125c0,0-1.75,3.834-1.333,4.209S11.333,14.041,11.333,14.041z"/>
<path opacity="0.5" fill="#EA8A63" enable-background="new    " d="M14.334,15.041c0,0-0.043-3.001,0.957-4.292s2.75-2.25,2.75-2.25
	l-3.25,2.125l-1.332,4.209L14.334,15.041z"/>
<path fill="#EA8A63" d="M19.5,11.333c0,0-1.291,1.207-1.875,1.041s-0.125,0.543-0.291,0.959c-0.168,0.416,0.584-0.75,1.166-0.875
	c0.133-0.028,1.75-0.271,1.146,0.938c0.459-1.25-0.58-1.263-0.479-1.418C19.332,11.725,19.5,11.333,19.5,11.333z"/>
</svg>
