<?xml version="1.0" encoding="utf-8"?>
<!-- Generator: Adobe Illustrator 16.0.0, SVG Export Plug-In . SVG Version: 6.00 Build 0)  -->
<!DOCTYPE svg PUBLIC "-//W3C//DTD SVG 1.1//EN" "http://www.w3.org/Graphics/SVG/1.1/DTD/svg11.dtd">
<svg version="1.1" id="Layer_1" xmlns="http://www.w3.org/2000/svg" xmlns:xlink="http://www.w3.org/1999/xlink" x="0px" y="0px"
	 width="15px" height="15px" viewBox="0 0 15 15" enable-background="new 0 0 15 15" xml:space="preserve">
<path fill="#CCCCCC" stroke="#999999" stroke-miterlimit="10" d="M4.773,12.489l2.73-2.771l2.77,2.729
	c0.52,0.511,1.356,0.505,1.867-0.014l0.34-0.345c0.513-0.52,0.505-1.356-0.014-1.868l-2.772-2.73l2.73-2.771
	c0.511-0.519,0.505-1.355-0.015-1.868l-0.345-0.341c-0.521-0.51-1.355-0.504-1.869,0.016L7.469,5.298l-2.772-2.73
	C4.178,2.058,3.341,2.063,2.83,2.583L2.491,2.928C1.979,3.449,1.984,4.286,2.504,4.797l2.771,2.729l-2.729,2.77
	c-0.513,0.52-0.504,1.356,0.014,1.869l0.347,0.34C3.426,13.014,4.262,13.01,4.773,12.489z"/>
</svg>
