<?xml version="1.0" encoding="utf-8"?>
<!-- Generator: Adobe Illustrator 16.0.0, SVG Export Plug-In . SVG Version: 6.00 Build 0)  -->
<!DOCTYPE svg PUBLIC "-//W3C//DTD SVG 1.1//EN" "http://www.w3.org/Graphics/SVG/1.1/DTD/svg11.dtd">
<svg version="1.1" id="Layer_1" xmlns="http://www.w3.org/2000/svg" xmlns:xlink="http://www.w3.org/1999/xlink" x="0px" y="0px"
	 width="15px" height="15px" viewBox="0 0 15 15" enable-background="new 0 0 15 15" xml:space="preserve">
<radialGradient id="SVGID_1_" cx="7.375" cy="7.625" r="7.375" gradientUnits="userSpaceOnUse">
	<stop  offset="0" style="stop-color:#FFFFFF"/>
	<stop  offset="1" style="stop-color:#FFFFFF;stop-opacity:0"/>
</radialGradient>
<circle fill="url(#SVGID_1_)" cx="7.375" cy="7.625" r="7.375"/>
<path fill="#CCCCCC" stroke="#999999" stroke-miterlimit="10" d="M9.089,12.948l-0.028-3.89l3.889-0.029
	c0.729-0.006,1.316-0.602,1.311-1.33l-0.003-0.483c-0.006-0.73-0.603-1.317-1.331-1.312l-3.891,0.03l-0.029-3.89
	C9,1.316,8.404,0.729,7.675,0.734L7.19,0.737C6.461,0.744,5.875,1.339,5.88,2.069l0.03,3.888l-3.89,0.03
	C1.292,5.993,0.704,6.588,0.71,7.318l0.004,0.483c0.006,0.73,0.602,1.318,1.331,1.313l3.889-0.029l0.029,3.889
	c0.005,0.729,0.602,1.315,1.331,1.312l0.486-0.005C8.508,14.271,9.096,13.678,9.089,12.948z"/>
</svg>
