<?xml version="1.0" encoding="utf-8"?>
<!-- Generator: Adobe Illustrator 16.0.0, SVG Export Plug-In . SVG Version: 6.00 Build 0)  -->
<!DOCTYPE svg PUBLIC "-//W3C//DTD SVG 1.1//EN" "http://www.w3.org/Graphics/SVG/1.1/DTD/svg11.dtd">
<svg version="1.1" id="Layer_1" xmlns="http://www.w3.org/2000/svg" xmlns:xlink="http://www.w3.org/1999/xlink" x="0px" y="0px"
	 width="15px" height="15px" viewBox="0 0 15 15" enable-background="new 0 0 15 15" xml:space="preserve">
<g>
	<path fill="#CCCCCC" stroke="#999999" stroke-miterlimit="10" d="M11.271,11.316c0.636-0.066,0.677,2.029,0,2.2
		s-7.775,0.267-8.304,0s0.359-1.62,0.809-2.365c0.45-0.744,1.337-1.732,2.664-2.963C7.507,7.194,8.162,6.52,8.404,6.165
		c0.325-0.488,0.488-0.972,0.488-1.449c0-0.528-0.142-0.935-0.426-1.219C8.184,3.214,7.791,3.071,7.291,3.071
		c-0.495,0-1,0.324-1.292,0.622c-0.292,0.298-0.242,1.324-0.597,1.29s-1.789-0.17-2.158-0.217s0.582-2.239,1.324-2.807
		C5.31,1.391,6.237,1.107,7.35,1.107c1.219,0,2.177,0.328,2.875,0.986c0.697,0.657,1.046,1.476,1.046,2.453
		c0,0.557-0.101,1.086-0.3,1.589s-0.516,1.03-0.948,1.581C9.735,8.082,9.219,8.607,8.471,9.293c-0.747,0.686-1.221,1.141-1.42,1.365
		c-0.2,0.226-0.638,0.506-0.485,0.658S10.635,11.383,11.271,11.316z"/>
</g>
</svg>
