<?xml version="1.0" encoding="utf-8"?>
<!-- Generator: Adobe Illustrator 16.0.0, SVG Export Plug-In . SVG Version: 6.00 Build 0)  -->
<!DOCTYPE svg PUBLIC "-//W3C//DTD SVG 1.1//EN" "http://www.w3.org/Graphics/SVG/1.1/DTD/svg11.dtd">
<svg version="1.1" id="Layer_1" xmlns="http://www.w3.org/2000/svg" xmlns:xlink="http://www.w3.org/1999/xlink" x="0px" y="0px"
	 width="300px" height="200px" viewBox="0 0 300 200" enable-background="new 0 0 300 200" xml:space="preserve">
<polygon fill="none" stroke="#FFFFFF" stroke-width="8" stroke-miterlimit="10" points="20.972,54.635 99.833,9.105 178.696,54.635 
	178.696,145.697 99.833,191.229 20.972,145.697 "/>
<g>
	<path fill="#FFFFFF" d="M192.147,54.206h6.607c3.009,0,5.194,0.428,6.555,1.285c1.36,0.857,2.039,2.219,2.039,4.087
		c0,1.268-0.296,2.309-0.893,3.122c-0.595,0.813-1.387,1.302-2.373,1.466v0.145c1.344,0.3,2.315,0.862,2.91,1.685
		c0.597,0.823,0.893,1.917,0.893,3.281c0,1.936-0.698,3.446-2.098,4.53c-1.398,1.084-3.298,1.626-5.698,1.626h-7.942V54.206z
		 M196.649,62.612h2.612c1.22,0,2.103-0.188,2.65-0.566c0.547-0.377,0.82-1.002,0.82-1.873c0-0.813-0.298-1.396-0.893-1.75
		c-0.596-0.353-1.537-0.53-2.824-0.53h-2.366V62.612z M196.649,66.184v5.532h2.932c1.239,0,2.154-0.237,2.745-0.712
		c0.59-0.474,0.885-1.2,0.885-2.178c0-1.761-1.258-2.642-3.774-2.642H196.649z"/>
	<path fill="#FFFFFF" d="M223.277,75.433l-0.596-2.077h-0.232c-0.474,0.755-1.147,1.338-2.018,1.75
		c-0.871,0.411-1.863,0.617-2.977,0.617c-1.908,0-3.345-0.51-4.313-1.532c-0.967-1.021-1.451-2.49-1.451-4.407V59.2h4.429v9.481
		c0,1.171,0.208,2.05,0.625,2.635c0.415,0.586,1.078,0.879,1.988,0.879c1.239,0,2.134-0.414,2.687-1.242
		c0.552-0.827,0.828-2.2,0.828-4.116V59.2h4.428v16.232H223.277z"/>
	<path fill="#FFFFFF" d="M242.646,70.612c0,1.665-0.578,2.933-1.734,3.804c-1.157,0.871-2.887,1.307-5.191,1.307
		c-1.181,0-2.187-0.08-3.02-0.24s-1.611-0.395-2.337-0.704V71.12c0.821,0.388,1.749,0.712,2.779,0.973
		c1.031,0.261,1.939,0.392,2.723,0.392c1.606,0,2.41-0.465,2.41-1.394c0-0.348-0.106-0.632-0.319-0.849
		c-0.213-0.218-0.58-0.465-1.104-0.741c-0.521-0.276-1.219-0.598-2.089-0.965c-1.249-0.523-2.167-1.007-2.752-1.452
		c-0.587-0.445-1.011-0.956-1.278-1.532c-0.267-0.576-0.398-1.285-0.398-2.127c0-1.442,0.559-2.558,1.677-3.346
		c1.118-0.789,2.703-1.184,4.755-1.184c1.954,0,3.856,0.426,5.706,1.278l-1.336,3.194c-0.813-0.349-1.572-0.634-2.28-0.856
		c-0.705-0.223-1.427-0.334-2.162-0.334c-1.308,0-1.961,0.353-1.961,1.06c0,0.397,0.212,0.741,0.632,1.031
		c0.421,0.291,1.343,0.721,2.766,1.292c1.269,0.513,2.198,0.993,2.788,1.438s1.025,0.958,1.307,1.539S242.646,69.809,242.646,70.612
		z"/>
	<path fill="#FFFFFF" d="M243.778,59.2h4.85l3.063,9.132c0.263,0.794,0.441,1.733,0.537,2.817h0.089
		c0.104-0.997,0.313-1.936,0.623-2.817l3.006-9.132h4.748l-6.868,18.309c-0.63,1.694-1.526,2.962-2.692,3.804
		c-1.167,0.842-2.53,1.263-4.088,1.263c-0.765,0-1.515-0.082-2.251-0.247v-3.513c0.533,0.125,1.113,0.188,1.742,0.188
		c0.785,0,1.47-0.239,2.056-0.718c0.585-0.479,1.042-1.203,1.371-2.17l0.262-0.799L243.778,59.2z"/>
	<path fill="#FFFFFF" d="M192.147,89.888h6.607c3.009,0,5.194,0.429,6.555,1.285s2.039,2.219,2.039,4.087
		c0,1.268-0.296,2.309-0.893,3.122c-0.595,0.813-1.387,1.301-2.373,1.466v0.146c1.344,0.3,2.315,0.861,2.91,1.684
		c0.597,0.823,0.893,1.917,0.893,3.281c0,1.937-0.698,3.446-2.098,4.53c-1.398,1.084-3.298,1.626-5.698,1.626h-7.942V89.888z
		 M196.649,98.295h2.612c1.22,0,2.103-0.189,2.65-0.566c0.547-0.378,0.82-1.002,0.82-1.874c0-0.813-0.298-1.396-0.893-1.75
		c-0.596-0.353-1.537-0.53-2.824-0.53h-2.366V98.295z M196.649,101.866v5.532h2.932c1.239,0,2.154-0.237,2.745-0.711
		c0.59-0.475,0.885-1.201,0.885-2.178c0-1.762-1.258-2.644-3.774-2.644H196.649z"/>
	<path fill="#FFFFFF" d="M219.124,111.406c-2.613,0-4.655-0.721-6.127-2.164c-1.471-1.442-2.207-3.484-2.207-6.126
		c0-2.721,0.681-4.823,2.04-6.31c1.359-1.485,3.241-2.229,5.641-2.229c2.294,0,4.08,0.653,5.358,1.96
		c1.277,1.307,1.916,3.112,1.916,5.416v2.148h-10.468c0.048,1.259,0.421,2.24,1.118,2.947c0.696,0.707,1.674,1.06,2.932,1.06
		c0.979,0,1.902-0.101,2.774-0.305c0.871-0.202,1.779-0.527,2.729-0.972v3.426c-0.775,0.388-1.603,0.675-2.483,0.864
		C221.467,111.312,220.392,111.406,219.124,111.406z M218.5,97.729c-0.938,0-1.675,0.297-2.207,0.893
		c-0.531,0.595-0.838,1.44-0.914,2.534h6.214c-0.02-1.094-0.305-1.938-0.856-2.534S219.438,97.729,218.5,97.729z"/>
	<path fill="#FFFFFF" d="M236.692,111.406c-2.612,0-4.655-0.721-6.127-2.164c-1.472-1.442-2.206-3.484-2.206-6.126
		c0-2.721,0.679-4.823,2.039-6.31c1.36-1.485,3.239-2.229,5.641-2.229c2.295,0,4.08,0.653,5.357,1.96
		c1.277,1.307,1.916,3.112,1.916,5.416v2.148h-10.468c0.049,1.259,0.422,2.24,1.118,2.947c0.697,0.707,1.675,1.06,2.934,1.06
		c0.977,0,1.902-0.101,2.771-0.305c0.872-0.202,1.782-0.527,2.73-0.972v3.426c-0.774,0.388-1.602,0.675-2.482,0.864
		C239.035,111.312,237.961,111.406,236.692,111.406z M236.068,97.729c-0.939,0-1.675,0.297-2.207,0.893
		c-0.533,0.595-0.837,1.44-0.915,2.534h6.215c-0.021-1.094-0.306-1.938-0.857-2.534C237.753,98.026,237.007,97.729,236.068,97.729z"
		/>
	<path fill="#FFFFFF" d="M204.678,140.902c0,1.917-0.69,3.427-2.068,4.53c-1.38,1.104-3.299,1.655-5.758,1.655
		c-2.266,0-4.269-0.427-6.011-1.278v-4.182c1.432,0.639,2.645,1.089,3.637,1.352c0.992,0.261,1.9,0.392,2.723,0.392
		c0.987,0,1.745-0.189,2.273-0.567c0.526-0.377,0.79-0.938,0.79-1.683c0-0.417-0.115-0.787-0.349-1.111
		c-0.231-0.324-0.573-0.637-1.023-0.937c-0.45-0.301-1.366-0.779-2.751-1.438c-1.297-0.608-2.271-1.194-2.918-1.756
		c-0.649-0.561-1.168-1.215-1.554-1.961c-0.388-0.744-0.581-1.615-0.581-2.612c0-1.879,0.637-3.354,1.909-4.429
		c1.272-1.075,3.032-1.612,5.277-1.612c1.104,0,2.157,0.131,3.158,0.394c1.002,0.261,2.05,0.629,3.144,1.103l-1.452,3.499
		c-1.133-0.465-2.068-0.789-2.81-0.973c-0.74-0.184-1.469-0.275-2.186-0.275c-0.851,0-1.505,0.198-1.959,0.595
		c-0.455,0.397-0.683,0.914-0.683,1.554c0,0.396,0.092,0.743,0.275,1.038c0.184,0.296,0.478,0.581,0.879,0.856
		s1.352,0.771,2.853,1.488c1.984,0.949,3.344,1.9,4.08,2.854C204.31,138.35,204.678,139.519,204.678,140.902z"/>
	<path fill="#FFFFFF" d="M215.016,143.56c0.774,0,1.703-0.169,2.787-0.508v3.295c-1.103,0.494-2.458,0.741-4.064,0.741
		c-1.772,0-3.062-0.447-3.87-1.343c-0.809-0.896-1.212-2.238-1.212-4.03v-7.825h-2.12v-1.873l2.439-1.48l1.277-3.427h2.832v3.455
		h4.544v3.325h-4.544v7.825c0,0.631,0.176,1.095,0.529,1.395S214.435,143.56,215.016,143.56z"/>
	<path fill="#FFFFFF" d="M232.585,146.797l-0.597-2.076h-0.231c-0.475,0.756-1.147,1.339-2.02,1.75
		c-0.87,0.412-1.863,0.617-2.976,0.617c-1.907,0-3.345-0.511-4.313-1.532s-1.451-2.489-1.451-4.406v-10.585h4.428v9.481
		c0,1.171,0.209,2.05,0.625,2.635c0.415,0.586,1.079,0.879,1.989,0.879c1.238,0,2.134-0.414,2.687-1.241
		c0.55-0.828,0.826-2.199,0.826-4.116v-7.638h4.43v16.232H232.585z"/>
	<path fill="#FFFFFF" d="M245.768,147.088c-1.908,0-3.405-0.741-4.494-2.222s-1.634-3.533-1.634-6.156
		c0-2.662,0.555-4.735,1.663-6.222c1.107-1.485,2.635-2.229,4.58-2.229c2.043,0,3.602,0.794,4.676,2.382h0.146
		c-0.224-1.211-0.335-2.29-0.335-3.238v-5.197h4.443v22.591h-3.397l-0.856-2.104h-0.189
		C249.363,146.289,247.828,147.088,245.768,147.088z M247.32,143.56c1.134,0,1.963-0.329,2.491-0.987
		c0.526-0.658,0.814-1.776,0.863-3.354v-0.479c0-1.742-0.269-2.991-0.807-3.746c-0.537-0.755-1.41-1.132-2.621-1.132
		c-0.986,0-1.753,0.418-2.3,1.255s-0.82,2.055-0.82,3.651c0,1.598,0.275,2.796,0.827,3.594
		C245.506,143.16,246.295,143.56,247.32,143.56z"/>
	<path fill="#FFFFFF" d="M259.256,126.369c0-1.442,0.804-2.163,2.409-2.163c1.607,0,2.411,0.721,2.411,2.163
		c0,0.688-0.201,1.222-0.604,1.604c-0.401,0.383-1.004,0.574-1.808,0.574C260.06,128.547,259.256,127.821,259.256,126.369z
		 M263.873,146.797h-4.43v-16.232h4.43V146.797z"/>
	<path fill="#FFFFFF" d="M283.271,138.652c0,2.643-0.697,4.709-2.091,6.199s-3.335,2.236-5.823,2.236
		c-1.558,0-2.933-0.341-4.123-1.023c-1.189-0.683-2.104-1.663-2.744-2.941c-0.639-1.276-0.958-2.768-0.958-4.471
		c0-2.653,0.692-4.714,2.076-6.186c1.385-1.471,3.33-2.207,5.838-2.207c1.558,0,2.933,0.34,4.123,1.017
		c1.189,0.678,2.104,1.65,2.744,2.918C282.951,135.463,283.271,136.949,283.271,138.652z M272.047,138.652
		c0,1.606,0.265,2.821,0.792,3.645c0.526,0.822,1.386,1.233,2.577,1.233c1.18,0,2.029-0.409,2.547-1.228
		c0.519-0.816,0.778-2.034,0.778-3.65c0-1.607-0.262-2.813-0.785-3.615c-0.522-0.804-1.379-1.206-2.569-1.206
		c-1.181,0-2.033,0.399-2.556,1.198S272.047,137.036,272.047,138.652z"/>
</g>
<g>
	<path fill="none" stroke="#FFFFFF" stroke-width="6" stroke-miterlimit="10" d="M129.209,97.06
		c1.888-4.978,4.573-16.237-7.27-25.193c-12.359-9.347-21.003-2.925-25.248-0.177"/>
	<path fill="none" stroke="#FFFFFF" stroke-width="6" stroke-miterlimit="10" d="M72.882,96.078
		c-13.888,17.457-23.1,31.458-5.482,46.064l-1.136-0.93c18.53,13.28,30.216,1.441,44.176-15.729"/>
	<g>
		<path fill="none" stroke="#FFFFFF" stroke-width="6" stroke-miterlimit="10" d="M94.725,73.127
			C88.95,58.226,71.007,48.731,59.644,54.77c-11.74,6.238-8.131,26.433,3.371,36.96c13.543,12.393,26.017,17.238,31.588,13.926
			C98.501,103.334,101.573,90.805,94.725,73.127z"/>
		<path fill="none" stroke="#FFFFFF" stroke-width="6" stroke-miterlimit="10" d="M154.858,128.209
			c3.325-12.238-10.307-27.098-26.449-29.1c-19.147-2.375-30.859,3.492-32.245,7.748c-1.983,6.083,5.752,16.825,21.228,26.814
			C130.537,142.154,151.422,140.853,154.858,128.209z"/>
	</g>
	<g>
		<g>
			<path fill="#FFFFFF" d="M140.723,65.974c-5.656-2.108-11.878,1.578-15.569,5.588c-2.615,2.841,1.617,7.095,4.242,4.242
				c1.821-1.978,4.055-3.931,6.842-4.281c1.309-0.165,1.889-0.137,2.891,0.236C142.761,73.114,144.314,67.313,140.723,65.974
				L140.723,65.974z"/>
		</g>
	</g>
	<g>
		<g>
			<path fill="#FFFFFF" d="M118.977,55.848c0.085,0.133,0.423,0.851,0.18,0.266c0.252,0.606,0.439,1.279,0.503,1.932
				c0.292,2.978-1.275,5.593-3.001,7.878c-2.334,3.09,2.88,6.075,5.181,3.028c3.283-4.347,5.57-11.072,2.318-16.133
				C122.073,49.577,116.878,52.582,118.977,55.848L118.977,55.848z"/>
		</g>
	</g>
	<path fill="none" stroke="#FFFFFF" stroke-width="7" stroke-miterlimit="10" d="M69.671,102.283c0,0,12.627,18.973,35.281,28.169"
		/>
	<path fill="none" stroke="#FFFFFF" stroke-width="7" stroke-miterlimit="10" d="M60.383,114.246c0,0,12.437,18.69,34.755,27.749"/>
	<g>
		<g>
			<path fill="#FFFFFF" d="M64.769,140.348c-1.223,1.521-2.445,3.041-3.667,4.562c-0.768,0.955-0.937,2.245,0,3.182
				c0.796,0.797,2.412,0.957,3.182,0c1.223-1.521,2.445-3.041,3.667-4.562c0.768-0.955,0.937-2.245,0-3.182
				C67.154,139.551,65.538,139.391,64.769,140.348L64.769,140.348z"/>
		</g>
	</g>
	<path fill="#FFFFFF" stroke="#FFFFFF" stroke-miterlimit="10" d="M97.833,89.406c0,0,6.645,8.646,11.31,9.258
		c-5.814,1.608-11.751,3.997-11.751,3.997L97.833,89.406z"/>
</g>
</svg>
