<?xml version="1.0" encoding="utf-8"?>
<!-- Generator: Adobe Illustrator 16.0.0, SVG Export Plug-In . SVG Version: 6.00 Build 0)  -->
<!DOCTYPE svg PUBLIC "-//W3C//DTD SVG 1.1//EN" "http://www.w3.org/Graphics/SVG/1.1/DTD/svg11.dtd">
<svg version="1.1" id="Layer_1" xmlns="http://www.w3.org/2000/svg" xmlns:xlink="http://www.w3.org/1999/xlink" x="0px" y="0px"
	 width="1200px" height="720px" viewBox="0 0 1200 720" enable-background="new 0 0 1200 720" xml:space="preserve">
<path fill="#FFFFFF" stroke="#CCCCCC" stroke-miterlimit="10" stroke-dasharray="5" d="M1,51.219c0,0,13.267,195.968,74.431,184.017
	c70.732-13.821,53.659-79.675-11.382-38.211c-30.07,19.17-52.13,114.635,13.098,155.146c163.343,101.45,100,259.496,53.658,248.927
	c-35.493-8.095-8.13-138.212,121.325-130.366c201.071,12.187,248.703,86.98,340.464,121.391
	c91.057,34.146,254.073,68.521,306.105,32.748s61.781-55.85,48.024-78.228c-20.382-33.154-56.154-3.072-52.09,31.073
	c3.396,28.531,81.699,84.423,142.276,30.959c63.817-56.324-65.455-153.105,31.48-285.911c37.583-51.49,108.86,5.871,81.927,24.643
	c-26.829,18.699-49.407-86.431-1.439-134.398S1201,140.65,1201,140.65"/>
</svg>
